<?xml version="1.0" standalone="no"?>
<!DOCTYPE svg PUBLIC "-//W3C//DTD SVG 1.1//EN" "http://www.w3.org/Graphics/SVG/1.1/DTD/svg11.dtd" >
<svg>
<metadata>
Created by FontForge 20090914 at Sun Jul 24 13:11:12 2022
 By www-data
Typeface &#194;&#169; (your company). 2012. All Rights Reserved
</metadata>
<defs>
<font id="AlligatorSoap-Bold" horiz-adv-x="1108" >
  <font-face 
    font-family="Alligator Soap"
    font-weight="700"
    font-stretch="normal"
    units-per-em="2048"
    panose-1="2 0 8 0 0 0 0 0 0 0"
    ascent="1638"
    descent="-410"
    x-height="946.001"
    cap-height="1400"
    bbox="-192 -427.001 2155 1722"
    underline-thickness="150"
    underline-position="-142"
    unicode-range="U+0020-U+F002"
  />
<missing-glyph horiz-adv-x="1024" 
d="M100 0v1434h824v-1434h-824zM150 50h724v1334h-724v-1334zM300 1143c22.667 20.667 43.667 36.3311 63 46.998c41.333 23.333 85.333 35 132 35c71.333 0 127.333 -17.333 168 -52s61 -77.667 61 -129c0 -31.333 -7.5 -63.333 -22.5 -96s-44.167 -75.667 -87.5 -129
c-41.333 -52.667 -74.166 -96.5 -98.499 -131.5s-36.5 -69.5 -36.5 -103.5c0 -25.333 8.66699 -71.333 26 -138h-82c-25.333 70 -38 121.333 -38 154c0 48.667 27.167 120.334 81.5 215.001s81.5 167.667 81.5 219c0 40.667 -9.33301 70.334 -28 89.001s-42 28 -70 28
c-18.667 0 -35.334 -4 -50.001 -12c-16 -8.66699 -49.333 -35 -100 -79v83zM380 330.997l57.999 58.999c9.33301 8 19 12 29 12c9.33301 0 19.333 -4.66699 30 -14l56 -60c5.33301 -7.33301 8 -13.666 8 -18.999c0 -6.66699 -3.33301 -13.667 -10 -21l-56 -62
c-11.333 -11.333 -20.666 -17 -27.999 -17c-11.333 0 -21 4.33301 -29 13l-62 71c-4.66699 6 -7 11.667 -7 17c0 6.66699 3.66699 13.667 11 21z" />
    <glyph glyph-name=".notdef" horiz-adv-x="1024" 
d="M100 0v1434h824v-1434h-824zM150 50h724v1334h-724v-1334zM300 1143c22.667 20.667 43.667 36.3311 63 46.998c41.333 23.333 85.333 35 132 35c71.333 0 127.333 -17.333 168 -52s61 -77.667 61 -129c0 -31.333 -7.5 -63.333 -22.5 -96s-44.167 -75.667 -87.5 -129
c-41.333 -52.667 -74.166 -96.5 -98.499 -131.5s-36.5 -69.5 -36.5 -103.5c0 -25.333 8.66699 -71.333 26 -138h-82c-25.333 70 -38 121.333 -38 154c0 48.667 27.167 120.334 81.5 215.001s81.5 167.667 81.5 219c0 40.667 -9.33301 70.334 -28 89.001s-42 28 -70 28
c-18.667 0 -35.334 -4 -50.001 -12c-16 -8.66699 -49.333 -35 -100 -79v83zM380 330.997l57.999 58.999c9.33301 8 19 12 29 12c9.33301 0 19.333 -4.66699 30 -14l56 -60c5.33301 -7.33301 8 -13.666 8 -18.999c0 -6.66699 -3.33301 -13.667 -10 -21l-56 -62
c-11.333 -11.333 -20.666 -17 -27.999 -17c-11.333 0 -21 4.33301 -29 13l-62 71c-4.66699 6 -7 11.667 -7 17c0 6.66699 3.66699 13.667 11 21z" />
    <glyph glyph-name="space" unicode=" " horiz-adv-x="508" 
 />
    <glyph glyph-name="space" unicode="&#xa0;" horiz-adv-x="508" 
 />
    <glyph glyph-name="exclam" unicode="!" horiz-adv-x="720" 
d="M299 348l-49 986c0 48 9.16699 82 27.5 102s49.5 30 93.5 30c44.667 0 76 -10 94 -30s27 -54 27 -102l-81 -986h-112zM230 167l95.001 88.999c12 10 23.333 15 34 15c9.33301 0 20.666 -5.66699 33.999 -17l93 -91c8.66699 -11.333 13 -21.666 13 -30.999
c0 -10 -5.33301 -20.667 -16 -32l-91 -94c-16 -14 -27 -21 -33 -21c-12.667 0 -24 5 -34 15l-101 107c-7.33301 9.33301 -11 18.333 -11 27c0 10.667 5.66699 21.667 17 33z" />
    <glyph glyph-name="quotedbl" unicode="&#x22;" horiz-adv-x="732" 
d="M267 1098h-110l-53 376c-2 12.667 -3 21.334 -3 26.001c0 19.333 8 38.666 24 57.999s44.667 29 86 29c40 0 68.667 -9.5 86 -28.5s26 -38.167 26 -57.5c0 -3.33301 -0.666992 -11 -2 -23zM580 1098l-110.999 0.000976562l-52 377c-2.66699 12 -4 20.333 -4 25
c0 19.333 8.16699 38.666 24.5 57.999s45.166 29 86.499 29c40 0 68.5 -9.5 85.5 -28.5s25.5 -38.167 25.5 -57.5c0 -3.33301 -0.666992 -11 -2 -23z" />
    <glyph glyph-name="numbersign" unicode="#" horiz-adv-x="1492" 
d="M670 851l-83 -282h218l84 282h-219zM675 1434h167l-141 -475h218l142 475h166l-141 -475h289l-31 -103h-289l-81 -282h309l-32 -104h-310l-140 -470h-166l139 470h-216l-142 -470h-166l140 470h-273l32 104h271l84 282h-295l31 103h295z" />
    <glyph glyph-name="dollar" unicode="$" 
d="M528 -18c-67.333 2 -122.999 9.99805 -166.999 23.998c-51.333 16 -87 24 -107 24c-18.667 0 -30.667 -16.333 -36 -49h-84v345h83c25.333 -112 69.666 -184.333 132.999 -217c54.667 -28 114 -44 178 -48v623c-20.667 6 -42 11.333 -64 16
c-228 50 -342.333 174.667 -343 374c0 101.333 38.333 187.333 115 258c75.333 69.333 172.666 109.333 291.999 120v88h83v-91c34.667 -4 64.334 -11.333 89.001 -22c38 -17.333 67 -26 87 -26c10.667 0 16 17.667 16 53h71l99 -299h-78
c-72 92.667 -138.333 152.334 -199 179.001c-30.667 14 -59 24.333 -85 31v-507l54 -18c234.667 -72.667 352 -217 352 -433c0 -121.333 -41 -220.666 -123 -297.999c-72.667 -68 -167 -109 -283 -123v-229h-83v225zM528.001 1373c-48 -4 -91.333 -23.666 -130 -58.999
c-44.667 -40.667 -67 -101 -67 -181v-1c0 -96.667 65.667 -176.334 197 -239.001v480zM611.001 67.999c44 11.333 81.667 32.666 113 63.999c55.333 55.333 83 133 83 233c0 130.667 -65.333 226.334 -196 287.001v-584z" />
    <glyph glyph-name="percent" unicode="%" horiz-adv-x="1756" 
d="M487 1465c76.667 0 149.166 -18.167 217.499 -54.5s120 -84.666 155 -144.999s52.5 -122.166 52.5 -185.499c0 -62.667 -17 -123.834 -51 -183.501s-85.167 -108.167 -153.5 -145.5s-141.833 -56 -220.5 -56c-78 0 -151.167 18.667 -219.5 56
s-119.666 85.833 -153.999 145.5s-51.5 120.834 -51.5 183.501c0 63.333 17.5 125.166 52.5 185.499s86.667 108.666 155 144.999s140.833 54.5 217.5 54.5zM281.999 1063c8.66699 -64 27.332 -123.004 55.999 -177.004s61.334 -93.667 98.001 -119
c32 -21.333 60.333 -32 85 -32h9c26.667 1.33301 55 16.333 85 45s52.667 73 68 133c8.66699 38 13 76.667 13 116c0 22.667 -1.33301 45.334 -4 68.001c-8 64.667 -26.833 124.334 -56.5 179.001s-62.5 94.334 -98.5 119.001c-32 20.667 -60.667 31 -86 31h-7
c-26 -1.33301 -53.833 -16 -83.5 -44s-52.167 -72 -67.5 -132c-10 -40 -15 -81 -15 -123c0 -21.333 1.33301 -42.666 4 -63.999zM1269 743.996c76 0 148.333 -18.333 217 -55s120.5 -85.167 155.5 -145.5s52.5 -121.833 52.5 -184.5c0 -63.333 -17 -124.833 -51 -184.5
s-85.167 -108 -153.5 -145s-141.833 -55.5 -220.5 -55.5s-152 18.5 -220 55.5s-119.167 85.333 -153.5 145s-51.5 121.167 -51.5 184.5c0 62.667 17.5 124.167 52.5 184.5s86.667 108.833 155 145.5s140.833 55 217.5 55zM1064 340.996
c8.66699 -64 27.332 -123.004 55.999 -177.004s61.334 -93.667 98.001 -119c32.667 -21.333 61.667 -32 87 -32h7c26.667 1.33301 55 16.333 85 45s52.667 73 68 133c8.66699 38 13 76.667 13 116c0 22.667 -1.33301 45.334 -4 68.001
c-8 64.667 -26.833 124.334 -56.5 179.001s-62.5 94.334 -98.5 119.001c-32 20.667 -60.667 31 -86 31h-7c-26 -1.33301 -53.833 -16 -83.5 -44s-52.167 -72 -67.5 -132c-10 -40 -15 -81 -15 -123c0 -21.333 1.33301 -42.666 4 -63.999zM341.995 -32.0078l944 1467h126
l-942 -1467h-128z" />
    <glyph glyph-name="ampersand" unicode="&#x26;" horiz-adv-x="1773" 
d="M529 864c-47.333 -8.66699 -84.6689 -31.666 -112.002 -68.999c-38 -53.333 -57 -122 -57 -206c0 -64.667 12.167 -128 36.5 -190s58.166 -117 101.499 -165c44.667 -51.333 93.334 -89.5 146.001 -114.5s106 -37.5 160 -37.5c46.667 0 92.334 9.33301 137.001 28
c36.667 15.333 77.334 46.666 122.001 93.999zM1142 117.001c-33.333 -30 -80.6709 -58.667 -142.004 -86c-82 -38 -174 -57 -276 -57c-175.333 0 -314.5 53.167 -417.5 159.5s-154.5 235.166 -154.5 386.499c0 102 26 189 78 261c46 64.667 125.667 117.334 239 158.001
l-4 8c-28 40.667 -48.5 78.667 -61.5 114s-19.5 70 -19.5 104c0 65.333 27.333 130.833 82 196.5s126.334 98.5 215.001 98.5c56.667 0 114.334 -15.667 173.001 -47c10 -6 17.667 -9 23 -9c6.66699 0 10 10 10 30c0 8 -1 16.667 -3 26h75l100 -293h-76
c-56 79.333 -112 135.666 -168 168.999c-52 30.667 -95.667 46 -131 46h-5c-26 0 -50.667 -13 -74 -39s-35 -65.333 -35 -118c0 -92 34.667 -184 104 -276l494 -624c48.667 75.333 80 143 94 203c11.333 50.667 17 93 17 127c0 67.333 -19.333 101 -58 101h-94v56h491v-56
h-94c-61.333 0 -108.333 -73.333 -141 -220c-19.333 -81.333 -66.666 -181.666 -141.999 -300.999c66.667 -83.333 136.667 -125 210 -125h12c102.667 8.66699 170.667 51.334 204 128.001h80l-108 -244h-193c-44 0 -97 9.66699 -159 29
c-53.333 15.333 -101.666 46.666 -144.999 93.999z" />
    <glyph glyph-name="quotesingle" unicode="'" horiz-adv-x="406" 
d="M267 1098h-110l-53 376c-2 12.667 -3 21.334 -3 26.001c0 19.333 8 38.666 24 57.999s44.667 29 86 29c40 0 68.667 -9.5 86 -28.5s26 -38.167 26 -57.5c0 -3.33301 -0.666992 -11 -2 -23z" />
    <glyph glyph-name="parenleft" unicode="(" horiz-adv-x="864" 
d="M252 601c1.33301 138.667 19.999 271 55.999 397c36.667 131.333 93 256.333 169 375c46 72.667 87.667 130 125 172l35 38h169c-5.33301 -10 -14.333 -22.333 -27 -37c-20.667 -22.667 -35.334 -40 -44.001 -52c-74 -112.667 -129 -236 -165 -370s-54 -282 -54 -444
c0 -26.667 0.333008 -53 1 -79c-0.666992 -25.333 -1 -51.666 -1 -78.999c0 -162.667 18 -310.334 54 -443.001s91 -255 165 -367c8.66699 -12 23.334 -29.667 44.001 -53c12.667 -14.667 21.667 -27.667 27 -39h-169l-35 39c-37.333 42.667 -79 99.667 -125 171
c-76 118.667 -132.667 243.667 -170 375c-35.333 125.333 -53.666 257.333 -54.999 396z" />
    <glyph glyph-name="parenright" unicode=")" horiz-adv-x="864" 
d="M557 204c-37.333 -130.667 -94.002 -255.334 -170.002 -374.001c-46 -72 -87.667 -129 -125 -171l-35 -39h-169c5.33301 10.667 14.333 23.334 27 38.001c20.667 23.333 35.334 41 44.001 53c74 112 129 234.5 165 367.5s54 280.5 54 442.5c0 27.333 -0.333008 54 -1 80
c0.666992 26 1 52.333 1 79c0 162 -18 309.833 -54 443.5s-91 257.167 -165 370.5c-8 11.333 -22.667 28.333 -44 51c-12.667 15.333 -21.667 28 -27 38h169l35 -38c37.333 -42.667 79 -100 125 -172c76 -118.667 132.333 -243.667 169 -375
c36 -126 54.667 -258.333 56 -397c-1.33301 -138.667 -19.666 -271 -54.999 -397z" />
    <glyph glyph-name="asterisk" unicode="*" horiz-adv-x="1092" 
d="M496 1336c-1.33301 16.667 -11.666 42.001 -30.999 76.001c-27.333 49.333 -41 81.333 -41 96c0 26.667 11 49.167 33 67.5s51 27.5 87 27.5c34 0 62.5 -8.5 85.5 -25.5s34.5 -38.167 34.5 -63.5c0 -16.667 -12.667 -48.667 -38 -96
c-20.667 -39.333 -31.667 -66.666 -33 -81.999c4.66699 1.33301 20.667 16.666 48 45.999c38.667 41.333 67 65 85 71c12 3.33301 23.333 5 34 5c20 0 38.667 -5 56 -15c24 -15.333 40.667 -38 50 -68c4.66699 -13.333 7 -26.666 7 -39.999c0 -12 -1.66699 -22.667 -5 -32
c-9.33301 -29.333 -28.666 -48 -57.999 -56c-8 -2.66699 -18.667 -4 -32 -4c-20.667 0 -48.334 3 -83.001 9c-25.333 4.66699 -45.666 7 -60.999 7c-8.66699 0 -15 -0.666992 -19 -2c13.333 -17.333 38 -34 74 -50c50.667 -24 81 -43 91 -57c12 -16 18 -32 18 -48
c0 -6.66699 -1 -13.334 -3 -20.001c-6.66699 -25.333 -23 -47.333 -49 -66c-26 -20 -53.667 -30 -83 -30c-23.333 0 -35 0.333008 -35 1c-11.333 0 -25 11 -41 33c-12 16.667 -21.667 52 -29 106c-6 42 -10.667 65.333 -14 70c-2.66699 -4 -6.33398 -27 -11.001 -69
c-6.66699 -52.667 -14.667 -85.334 -24 -98.001c-19.333 -24.667 -45 -38.334 -77 -41.001h-7c-28 0 -55 9.33301 -81 28c-24.667 17.333 -41 39 -49 65c-2.66699 7.33301 -4 15 -4 23c0 14 6 29.333 18 46c9.33301 12.667 40 31.667 92 57c36 16.667 60.667 33 74 49
c-4 1.33301 -10.333 2 -19 2c-14.667 0 -33.334 -2.33301 -56.001 -7c-38 -7.33301 -67 -11 -87 -11c-12 0 -21 1.33301 -27 4c-30 8.66699 -50.333 26.667 -61 54c-4.66699 10.667 -7 22.334 -7 35.001c0 13.333 2.33301 26.666 7 39.999c8 28.667 23.667 51 47 67
c16.667 12.667 35 19 55 19c11.333 0 22 -2 32 -6c19.333 -6 49 -29.667 89 -71c28 -29.333 44 -44.666 48 -45.999z" />
    <glyph glyph-name="plus" unicode="+" 
d="M432 637h-352v160h352v370h244v-370h352v-160h-352v-370h-244v370z" />
    <glyph glyph-name="comma" unicode="," horiz-adv-x="625" 
d="M249 264c62 0 109.167 -23.833 141.5 -71.5s48.5 -98.167 48.5 -151.5c0 -68.667 -24.667 -144.167 -74 -226.5s-117.333 -123.5 -204 -123.5v46c48.667 28 77.667 92.333 87 193c0 80.667 -43 135 -129 163v34z" />
    <glyph glyph-name="hyphen" unicode="-" horiz-adv-x="774" 
d="M158 399c-28 0 -42 12.667 -42 38v83c0 26 14.333 39 43 39h456c28.667 0 43 -13 43 -39v-83c0 -25.333 -14 -38 -42 -38h-458z" />
    <glyph glyph-name="hyphen" unicode="&#xad;" horiz-adv-x="774" 
d="M158 399c-28 0 -42 12.667 -42 38v83c0 26 14.333 39 43 39h456c28.667 0 43 -13 43 -39v-83c0 -25.333 -14 -38 -42 -38h-458z" />
    <glyph glyph-name="period" unicode="." horiz-adv-x="625" 
d="M160 177l95.001 88.999c12 10 23.333 15 34 15c9.33301 0 20.666 -5.66699 33.999 -17l93 -91c8.66699 -11.333 13 -21.666 13 -30.999c0 -10 -5.33301 -20.667 -16 -32l-91 -94c-16 -14 -27 -21 -33 -21c-12.667 0 -24 5 -34 15l-101 107
c-7.33301 9.33301 -11 18.333 -11 27c0 10.667 5.66699 21.667 17 33z" />
    <glyph glyph-name="slash" unicode="/" horiz-adv-x="641" 
d="M158 -60h-145l548 1504h145z" />
    <glyph glyph-name="zero" unicode="0" 
d="M815 1427h58c252.667 0 440 -179.333 562 -538c27.333 -79.333 41 -169 41 -269c0 -290 -171.333 -485.667 -514 -587c-102.667 -22 -184 -33 -244 -33h-9c-307.333 0 -535.666 195.667 -684.999 587c-16 65.333 -24 117 -24 155v82c0 172 122.333 318.667 367 440
c0 34.667 98 83.667 294 147c65.333 10.667 116.666 16 153.999 16zM449 913c0 -240.667 124.999 -455.332 374.999 -643.999l130 -49c43.333 74.667 65 151 65 229v81c0 241.333 -100.333 448 -301 620l-41 24c-57.333 -32.667 -122.666 -62.334 -195.999 -89.001
c-21.333 -62.667 -32 -120 -32 -172z" />
    <glyph glyph-name="one" unicode="1" 
d="M962 1390l35 -7c28.667 -5.33301 43 -35 43 -89c0 -30 -4.33301 -67 -13 -111c-13.333 -71.333 -65.666 -368.666 -156.999 -891.999c1.33301 -6.66699 2 -12.667 2 -18c0 -2.66699 -0.333008 -5.33398 -1 -8.00098l14 6c37.333 -7.33301 83.333 -13.333 138 -18
c35.333 -14 53 -27.667 53 -41v-3l-4 -24c-30 -50.667 -96.333 -86 -199 -106c-34 -8.66699 -130 -13 -288 -13c-78.667 0 -172.667 1 -282 3l-12 2c-20.667 4 -31 14.333 -31 31l2 8c12 64.667 99.333 113 262 145c12 86.667 59.667 370.667 143 852
c-82.667 -35.333 -148 -53 -196 -53c-10.667 0 -20.334 1 -29.001 3l-60 12c-6 0.666992 -12 13 -18 37l2 8c4.66699 25.333 121.667 99 351 221c94.667 38 167 57 217 57c10.667 0 20 -0.666992 28 -2z" />
    <glyph glyph-name="two" unicode="2" 
d="M690 1034c0 100 -26.168 179 -78.501 237s-101.166 87 -146.499 87c-114 0 -211.667 -56.333 -293 -169h-53v90c122.667 116 240 174 352 174c144 0 260.333 -42.833 349 -128.5s133 -200.167 133 -343.5c0 -134 -208.667 -422 -626 -864h407
c82.667 0 143.667 44 183 132h70l-112 -249h-756l2 50c379.333 444 569 772 569 984z" />
    <glyph glyph-name="three" unicode="3" 
d="M483 32c66 0 121.165 26.999 165.498 80.999s66.5 157.333 66.5 310c0 73.333 -16.667 142.5 -50 207.5s-95.666 113.167 -186.999 144.5v9c132 88.667 198 184.667 198 288c0 96.667 -14 174.667 -42 234s-68 89 -120 89c-55.333 0 -104.5 -14.5 -147.5 -43.5
s-64.5 -69.167 -64.5 -120.5h-70v166c0 14 23.667 27 71 39s115.333 18 204 18c76.667 0 146.334 -15.333 209.001 -46c75.333 -36 128.666 -80.667 159.999 -134s47 -106.333 47 -159c0 -52 -18.5 -104.333 -55.5 -157s-90.5 -95.667 -160.5 -129
c-16 -7.33301 -26.667 -11.666 -32 -12.999c107.333 -37.333 185.333 -97.5 234 -180.5s73 -159.167 73 -228.5c0 -136 -47.667 -241.333 -143 -316s-214 -112 -356 -112c-141.333 0 -242.666 15.167 -303.999 45.5s-92 59.833 -92 88.5v109h70
c0 -56 30.667 -101.667 92 -137s139.333 -53 234 -53z" />
    <glyph glyph-name="four" unicode="4" 
d="M548 450v550l-329 -550h329zM789 332v-157c0 -70 20 -105 60 -105h88v-70h-546v70h88c46 0 69 36 69 108v154h-497v36l668 1066h70v-984h32c66 0 119 43.667 159 131h71l-111 -249h-151z" />
    <glyph glyph-name="five" unicode="5" 
d="M476 22c74.667 2 132.166 45.3359 172.499 130.003s60.5 200 60.5 346c0 124.667 -26 228.167 -78 310.5s-109.333 123.5 -172 123.5c-52.667 -0.666992 -114 -17.667 -184 -51l-53 27l159 526h425c66 0 106.667 21 122 63h70l-60 -173h-463l-100 -331
c56 8.66699 104 13 144 13c117.333 0 225.333 -50 324 -150s148 -226.333 148 -379c0 -83.333 -18.667 -164.666 -56 -243.999s-95 -143.333 -173 -192s-173.667 -73 -287 -73c-128 3.33301 -221.833 19.666 -281.5 48.999s-89.5 58.666 -89.5 87.999v110h70
c0.666992 -56.667 31.834 -102.334 93.501 -137.001s131.167 -53.334 208.5 -56.001z" />
    <glyph glyph-name="six" unicode="6" 
d="M336 458c9.33301 -82.667 30.167 -159.836 62.5 -231.503s68.166 -123.167 107.499 -154.5c34 -27.333 62.667 -41 86 -41h6c26 2 55.667 21.667 89 59s58 94.333 74 171c10.667 50 16 101.333 16 154c0 28.667 -1.66699 57.334 -5 86.001
c-9.33301 82.667 -30.333 160.334 -63 233.001s-68.667 124.334 -108 155.001c-35.333 26.667 -65.333 40 -90 40h-4c-22.667 -1.33301 -50.667 -20.5 -84 -57.5s-58.666 -94.167 -75.999 -171.5c-10.667 -57.333 -16 -111 -16 -161c0 -28.667 1.66699 -55.667 5 -81z
M900.001 1459l-0.00292969 -70.001c-129.333 -10 -240.666 -58.833 -333.999 -146.5s-164 -193.167 -212 -316.5c28.667 38.667 95.334 58 200.001 58c88.667 0 172 -24.167 250 -72.5s136.167 -111.666 174.5 -189.999s57.5 -158.833 57.5 -241.5s-18.667 -163 -56 -241
s-94.833 -141.333 -172.5 -190s-162.167 -73 -253.5 -73s-175.833 24.333 -253.5 73s-135.167 112 -172.5 190s-56 158.333 -56 241c0 266 71.833 495.667 215.5 689s347.834 290 612.501 290z" />
    <glyph glyph-name="seven" unicode="7" 
d="M730 1316l-407 0.000976562c-68.667 0 -123 -44 -163 -132h-70l111 250h816l-1 -53c-267.333 -570 -401 -970.333 -401 -1201c0.666992 -73.333 19 -110 55 -110h140v-70h-495v70h99c40 0 60 39 60 117c12.667 191.333 98 567.666 256 1129z" />
    <glyph glyph-name="eight" unicode="8" 
d="M603 841c44.667 8.66699 77 40.833 97 96.5s30 106.167 30 151.5c0 94.667 -20.833 171.834 -62.5 231.501s-92.167 89.5 -151.5 89.5c-37.333 -1.33301 -69.833 -26.5 -97.5 -75.5s-41.5 -107.833 -41.5 -176.5c0 -66.667 15.333 -129.334 46 -188.001
s90.667 -101.667 180 -129zM513 770.999c-40 -7.33301 -81.333 -53.668 -124 -139.001c-36.667 -73.333 -55 -141.666 -55 -204.999c0 -93.333 25.833 -183.5 77.5 -270.5s112.5 -130.5 182.5 -130.5c42.667 2 83.834 33.833 123.501 95.5s59.5 138.5 59.5 230.5
c0 104 -22.833 193.333 -68.5 268s-110.834 125 -195.501 151zM730 809.997c126 -63.333 208.501 -128.999 247.501 -196.999s58.5 -136.667 58.5 -206c0 -68.667 -19 -136.5 -57 -203.5s-95.833 -121.667 -173.5 -164s-161.5 -63.5 -251.5 -63.5
s-173.833 21.167 -251.5 63.5s-135.5 97 -173.5 164s-57 134.833 -57 203.5c0 69.333 20.167 139.666 60.5 210.999s122.833 135.333 247.5 192c-93.333 46 -156 95.167 -188 147.5s-48 104.833 -48 157.5s16.333 105.667 49 159s82.167 96.666 148.5 129.999
s137.166 50 212.499 50c74 0 144.5 -16.667 211.5 -50s116.833 -76.666 149.5 -129.999s49 -106.333 49 -159s-16 -105.167 -48 -157.5s-94 -101.5 -186 -147.5z" />
    <glyph glyph-name="nine" unicode="9" 
d="M516 1403c-42.667 -2 -84.166 -41.667 -124.499 -119s-60.5 -165.666 -60.5 -264.999c0 -134 27 -253.167 81 -357.5s115.667 -156.5 185 -156.5h5c48 2 89.167 36.667 123.5 104s51.5 162.666 51.5 285.999c0 147.333 -29.833 268.833 -89.5 364.5
s-116.834 143.5 -171.501 143.5zM208.001 -24l0.00195312 69.001c129.333 10 240.666 58.833 333.999 146.5s157 184.167 191 289.5c-29.333 -20.667 -89 -31 -179 -31c-88.667 0 -172 24.167 -250 72.5s-136.167 111.666 -174.5 189.999s-57.5 158.833 -57.5 241.5
s18.667 163 56 241s94.833 141.5 172.5 190.5s162.167 73.5 253.5 73.5s175.833 -24.5 253.5 -73.5s135.167 -112.5 172.5 -190.5s56 -158.333 56 -241c0 -266 -71.833 -495 -215.5 -687s-347.834 -289 -612.501 -291z" />
    <glyph glyph-name="colon" unicode=":" horiz-adv-x="625" 
d="M160 177l95.001 88.999c12 10 23.333 15 34 15c9.33301 0 20.666 -5.66699 33.999 -17l93 -91c8.66699 -11.333 13 -21.666 13 -30.999c0 -10 -5.33301 -20.667 -16 -32l-91 -94c-16 -14 -27 -21 -33 -21c-12.667 0 -24 5 -34 15l-101 107
c-7.33301 9.33301 -11 18.333 -11 27c0 10.667 5.66699 21.667 17 33zM160.001 862.999l95.001 88.999c12 10 23.333 15 34 15c9.33301 0 20.666 -5.66699 33.999 -17l93 -91c8.66699 -11.333 13 -21.666 13 -30.999c0 -10 -5.33301 -20.667 -16 -32l-91 -94
c-16 -14 -27 -21 -33 -21c-12.667 0 -24 5 -34 15l-101 107c-7.33301 9.33301 -11 18.333 -11 27c0 10.667 5.66699 21.667 17 33z" />
    <glyph glyph-name="semicolon" unicode=";" horiz-adv-x="625" 
d="M249 264c62 0 109.167 -23.833 141.5 -71.5s48.5 -98.167 48.5 -151.5c0 -68.667 -24.667 -144.167 -74 -226.5s-117.333 -123.5 -204 -123.5v46c48.667 28 77.667 92.333 87 193c0 80.667 -43 135 -129 163v34zM160 863l95.001 88.999c12 10 23.333 15 34 15
c9.33301 0 20.666 -5.66699 33.999 -17l93 -91c8.66699 -11.333 13 -21.666 13 -30.999c0 -10 -5.33301 -20.667 -16 -32l-91 -94c-16 -14 -27 -21 -33 -21c-12.667 0 -24 5 -34 15l-101 107c-7.33301 9.33301 -11 18.333 -11 27c0 10.667 5.66699 21.667 17 33z" />
    <glyph glyph-name="semicolon" unicode="&#x37e;" horiz-adv-x="625" 
d="M249 264c62 0 109.167 -23.833 141.5 -71.5s48.5 -98.167 48.5 -151.5c0 -68.667 -24.667 -144.167 -74 -226.5s-117.333 -123.5 -204 -123.5v46c48.667 28 77.667 92.333 87 193c0 80.667 -43 135 -129 163v34zM160 863l95.001 88.999c12 10 23.333 15 34 15
c9.33301 0 20.666 -5.66699 33.999 -17l93 -91c8.66699 -11.333 13 -21.666 13 -30.999c0 -10 -5.33301 -20.667 -16 -32l-91 -94c-16 -14 -27 -21 -33 -21c-12.667 0 -24 5 -34 15l-101 107c-7.33301 9.33301 -11 18.333 -11 27c0 10.667 5.66699 21.667 17 33z" />
    <glyph glyph-name="less" unicode="&#x3c;" 
d="M1028 1065l-637 -350l637 -347v-206l-948 521v65l948 524v-207z" />
    <glyph glyph-name="equal" unicode="=" 
d="M80 641h948v-160h-948v160zM80 953h948v-160h-948v160z" />
    <glyph glyph-name="greater" unicode="&#x3e;" 
d="M80 1272l948 -524v-65l-948 -521v206l637 347l-637 350v207z" />
    <glyph glyph-name="question" unicode="?" horiz-adv-x="840" 
d="M132 1323c32.667 29.333 63.001 52 91.001 68c61.333 34.667 127 52 197 52c106 0 188.833 -25.333 248.5 -76s89.5 -111.667 89.5 -183c0 -42.667 -10.5 -87 -31.5 -133s-62.5 -107.333 -124.5 -184c-59.333 -75.333 -106.5 -138.166 -141.5 -188.499
s-52.5 -100.5 -52.5 -150.5c0 -37.333 12.333 -103.333 37 -198h-136c-36.667 101.333 -55 174.666 -55 219.999c0 68.667 38.833 170.667 116.5 306s116.5 240.333 116.5 315c0 59.333 -13 102 -39 128s-56.667 39 -92 39c-52.667 0 -127.334 -37.667 -224.001 -113v98z
M252.001 174l95.001 88.999c12 10 23.333 15 34 15c9.33301 0 20.666 -5.66699 33.999 -17l93 -91c8.66699 -11.333 13 -21.666 13 -30.999c0 -10 -5.33301 -20.667 -16 -32l-91 -94c-16 -14 -27 -21 -33 -21c-12.667 0 -24 5 -34 15l-101 107
c-7.33301 9.33301 -11 18.333 -11 27c0 10.667 5.66699 21.667 17 33z" />
    <glyph glyph-name="at" unicode="@" horiz-adv-x="2111" 
d="M851 357c0 -88 23.833 -157.999 71.5 -209.999s87.167 -78 118.5 -78c32 0 55 11.5 69 34.5s21 64.833 21 125.5v401c-43.333 0 -100.833 -24.333 -172.5 -73s-107.5 -115.334 -107.5 -200.001zM1435 85.001c75.333 5.33301 140.334 65.998 195.001 181.998
c53.333 103.333 80 232 80 386c-13.333 228 -88.666 408 -225.999 540c-124 119.333 -271 179 -441 179c-176 0 -333.667 -80.5 -473 -241.5s-209 -362.167 -209 -603.5s77.167 -449.333 231.5 -624s321.5 -262 501.5 -262c187.333 0 385.666 83.667 594.999 251v-120
c-210 -132.667 -415.667 -199 -617 -199c-173.333 0 -337.833 43.5 -493.5 130.5s-274.334 203.5 -356.001 349.5s-122.5 297.667 -122.5 455s41.5 310.333 124.5 459s202.5 265.167 358.5 349.5s319 126.5 489 126.5c260.667 0 476.167 -79.333 646.5 -238
s255.5 -347.667 255.5 -567c0 -175.333 -61 -321.666 -183 -438.999c-96 -103.333 -216.667 -162 -362 -176c-57.333 0 -111.333 23.333 -162 70c-14 -25.333 -38.833 -46.666 -74.5 -63.999s-86.5 -26 -152.5 -26c-96 0 -190.5 34 -283.5 102s-139.833 147.333 -140.5 238
c0 52.667 16.833 105.667 50.5 159s84.167 96 151.5 128c62.667 30 127 46.667 193 50c30 2.66699 57.5 12.334 82.5 29.001s37.5 44 37.5 82c0 70 -13.167 116.5 -39.5 139.5s-59.5 34.833 -99.5 35.5c-48 0 -100 -14.833 -156 -44.5s-85.667 -71.834 -89 -126.501h-87
l-1 115c0 13.333 35 33.833 105 61.5s149 41.5 237 41.5c75.333 0 154.833 -20.333 238.5 -61s128.5 -100.667 134.5 -180v-565c0 -78 20.333 -118.667 61 -122z" />
    <glyph glyph-name="A" unicode="A" horiz-adv-x="1341" 
d="M667 1447c66.667 0 122.334 -62.668 167.001 -188.001c62 -74 148 -268.667 258 -584c143.333 -272.667 215 -416.667 215 -432c0 -18.667 -25 -51 -75 -97c-70 -83.333 -143.667 -125 -221 -125h-37c-27.333 0 -49 41.667 -65 125l-54 153
c-21.333 4.66699 -32 16.334 -32 35.001c7.33301 15.333 11 27 11 35c-4 8.66699 -6 15.667 -6 21c-66 0 -202 -9.33301 -408 -28c-16 -176.667 -39.333 -265 -70 -265c-68.667 -64.667 -156.667 -97 -264 -97c-22 0 -38 21 -48 63c-20.667 0 -33.334 11.333 -38.001 34
c26 48 51 161.667 75 341c25.333 238 57.666 409.667 96.999 515l54 125c42.667 60.667 89.334 135 140.001 223c82.667 97.333 183 146 301 146zM559 1071c-28.667 -215.333 -59 -391.333 -91 -528h5c194 6 291 15 291 27c0 3.33301 -23.333 82.333 -70 237
c-33.333 92 -76.333 180 -129 264h-6z" />
    <glyph glyph-name="B" unicode="B" horiz-adv-x="1219" 
d="M600 1436c266 0 429.667 -66 491 -198c8.66699 -18 13 -37.333 13 -58v-22c0 -104 -49.667 -201.667 -149 -293c146.667 -106 220 -235.667 220 -389c0 -113.333 -73.333 -225.666 -220 -336.999c-152 -92.667 -328.333 -139 -529 -139c-254 12.667 -381 51.667 -381 117
c-26 274 -39 442.667 -39 506v271c0 89.333 -2 201.666 -6 336.999c0 106 127 174.333 381 205h219zM362 1246c4 -73.333 6 -127.333 6 -162v-197c44 0 168.667 31.667 374 95l7 66c0 98 -97 161.333 -291 190c-21.333 0 -53.333 2.66699 -96 8zM387 725
l-18.999 0.000976562v-7c16.667 -322.667 34 -484 52 -484c70 -24 145.333 -36 226 -36h77c36 0 66 44 90 132v51c0 125.333 -79.333 242.666 -238 351.999c-76.667 -5.33301 -139.334 -8 -188.001 -8z" />
    <glyph glyph-name="C" unicode="C" horiz-adv-x="1399" 
d="M707 1428c167.333 0 314.001 -98.333 440.001 -295c11.333 -18 17 -32 17 -42c0 -48.667 -73.333 -95.334 -220 -140.001c-3.33301 0 -14.666 -2.33301 -33.999 -7c-30.667 0 -65.334 37.333 -104.001 112c-101.333 114.667 -195 175.334 -281 182.001
c-77.333 -114.667 -116 -304 -116 -568c0 -245.333 108.333 -402 325 -470c24 -4.66699 48 -7 72 -7h22c26 26 55.333 93.667 88 203c80 74.667 157 112 231 112h22c20 0 33 -9.33301 39 -28c0 -88 -53.333 -191 -160 -309c-139.333 -112 -288 -168 -446 -168
c-225.333 0 -383.333 119.333 -474 358c-14.667 64 -22 122.333 -22 175v29c0 374 79 617.333 237 730c127.333 88.667 248.666 133 363.999 133z" />
    <glyph glyph-name="D" unicode="D" horiz-adv-x="1201" 
d="M350 1421h81.002c354.667 0 583 -130 685 -390c39.333 -124 59 -238.333 59 -343v-46c0 -138 -61 -278 -183 -420c-158.667 -148 -340.334 -222 -545.001 -222h-27c-154 -0 -274.333 20.333 -361 61l6 46c-14.667 280.667 -36.334 614.334 -65.001 1001v76
c0 89.333 39.667 150.666 119 183.999c44.667 35.333 121.667 53 231 53zM302.002 1215v-16c25.333 -338.667 47 -662 65 -970c143.333 -20 227.666 -30 252.999 -30c102.667 0 167.334 33 194.001 99c43.333 90 65 174 65 252c0 141.333 -32.333 281.333 -97 420
c-126 163.333 -286 245 -480 245z" />
    <glyph glyph-name="E" unicode="E" horiz-adv-x="1151" 
d="M1079 1418c53.333 -6 79.999 -15.333 79.999 -28v-28c-92 -99.333 -196.333 -149 -313 -149h-20c-19.333 0 -37 5 -53 15l-373 -29c-9.33301 -42 -16 -185.333 -20 -430h6c165.333 23.333 303.333 35 414 35h80c34 0 56 -11.667 66 -35
c0 -70.667 -97.667 -124.667 -293 -162h-20c-11.333 0 -31.333 4.66699 -60 14c-110.667 -9.33301 -173 -14 -187 -14v-374c262 -14 522 -25.667 780 -35c13.333 -16 20 -28 20 -36c0 -52 -102 -106 -306 -162h-54c0 16.667 -255.333 30.667 -766 42h-7
c-35.333 0 -53 19 -53 57c3.33301 0 10 7 20 21c-4.66699 118.667 -7 212.667 -7 282v346c0 348 24.667 522 74 522c98.667 75.333 267.334 113 506.001 113c106 14 268 25.667 486 35z" />
    <glyph glyph-name="F" unicode="F" horiz-adv-x="1385" 
d="M1304 1421c54 -7.33301 81 -18.667 81 -34c-54 -100.667 -183.667 -151 -389 -151c-295.333 -28.667 -443 -49 -443 -61v-96c13.333 -153.333 31.333 -237.666 54 -252.999c348.667 -8.66699 523 -31.334 523 -68.001c0 -65.333 -96.333 -115.666 -289 -150.999h-20
c-92 14 -150 21 -174 21v-7c18 -182.667 35.667 -330.667 53 -444c0 -92 -102.667 -153.667 -308 -185h-27c-15.333 0 -31 7 -47 21l7 68c-31.333 282.667 -60.666 481 -87.999 595c-40 115.333 -60 224.666 -60 327.999c0 144 51.333 237.333 154 280
c65.333 36.667 237.666 68.667 516.999 96c138 18 290 31.667 456 41z" />
    <glyph glyph-name="G" unicode="G" horiz-adv-x="1315" 
d="M779 1425c180 -16 291.001 -82.333 333.001 -199v-92c0 -67.333 -85 -119.333 -255 -156h-30c-21.333 0 -35.333 9.66699 -42 29v64c0 76 -69.333 130.333 -208 163c-162.667 -148 -244 -304 -244 -468v-15c0 -174.667 65.333 -337.667 196 -489
c59.333 -47.333 103 -71 131 -71c62 88 95.667 161.333 101 220l-95 57l-41 -7h-78c-20.667 0 -32.334 7 -35.001 21v28c69.333 94.667 186.333 142 351 142h35c28.667 0 50.667 -4.66699 66 -14c79.333 28.667 176.333 43 291 43c18 -9.33301 28 -19 30 -29
c0 -52.667 -65.333 -104.667 -196 -156c-53.333 -176.667 -136.666 -301.667 -249.999 -375c-140 -80.667 -265 -121 -375 -121c-202.667 -0 -347.334 151.333 -434.001 454c-16 67.333 -26 131 -30 191c0 235.333 138.667 455 416 659c128 80.667 249 121 363 121z" />
    <glyph glyph-name="H" unicode="H" horiz-adv-x="1256" 
d="M330 1447c26.667 0 40.001 -11.002 40.001 -33.002l-6 -13c41.333 -148 62 -281 62 -399c7.33301 -33.333 11 -64 11 -92v-6c70 17.333 135.667 26 197 26c32 0 80.667 -4.33301 146 -13c-11.333 124.667 -17 246.667 -17 366c0 58 80.333 106 241 144h23
c33.333 0 50 -28.333 50 -85c8 -318 23 -486 45 -504v-20c0 -14 -1.66699 -24.667 -5 -32c26 -199.333 54 -382.666 84 -549.999c0 -45.333 -73 -91.333 -219 -138h-51c-28.667 0 -47.334 11 -56.001 33l6 33c-48.667 300.667 -73 473 -73 517h-253
c-52.667 -7.33301 -79 -20.333 -79 -39c26.667 -140.667 40 -258.667 40 -354v-118c0 -9.33301 1.66699 -18 5 -26c0 -45.333 -65.333 -91 -196 -137c-20 -4.66699 -38.667 -7 -56 -7h-23c-30 0 -45 28.333 -45 85l-11 -6c-27.333 3.33301 -46 9.66602 -56 18.999
c3.33301 44 5 76.667 5 98c0 192.667 -20.333 376 -61 550c-22.667 322 -34 494.667 -34 518l11 26c-3.33301 8.66699 -5 15.334 -5 20.001c0 44.667 73 90.334 219 137.001h61z" />
    <glyph glyph-name="I" unicode="I" horiz-adv-x="657" 
d="M471 1400c28.667 0 53.333 -7.33398 74 -22.001c0 -375.333 27.333 -765.333 82 -1170c5.33301 0 8 -7.66699 8 -23c0 -99.333 -125.333 -169.333 -376 -210h-17c-28 0 -52.333 7.66699 -73 23c5.33301 44 8 71.333 8 82c-54.667 322.667 -82 710.334 -82 1163
c0 50 103.667 100 311 150c5.33301 4.66699 27 7 65 7z" />
    <glyph glyph-name="J" unicode="J" horiz-adv-x="1028" 
d="M895 1421c43.333 0 68 -38.665 74 -115.998c37.333 -232 56 -423 56 -573v-7c0 -327.333 -103.667 -542.333 -311 -645c-114 -53.333 -209 -80 -285 -80h-81c-149.333 0 -263.333 84.667 -342 254l-6 72v22c0 144.667 85 234 255 268c4 5.33301 20.333 8 49 8h13
c41.333 0 62 -19.333 62 -58c-24.667 -36 -37 -72.333 -37 -109c0 -119.333 72.333 -206.333 217 -261h31c58 92 87 217.667 87 377v101c0 129.333 -22.667 327.666 -68 594.999c0 51.333 82.667 99.666 248 144.999c22 4.66699 34.667 7 38 7z" />
    <glyph glyph-name="K" unicode="K" horiz-adv-x="1271" 
d="M836 1407c36.667 -8 54.999 -17.001 54.999 -27.001v-14c0 -27.333 -29.667 -65.666 -89 -114.999c-29.333 -82 -86.333 -192.667 -171 -332c0 -4.66699 1.66699 -7 5 -7c120.667 -88.667 259 -233.667 415 -435c129.333 -206 194 -314.333 194 -325
c0 -53.333 -70 -105.333 -210 -156c-14 -4.66699 -30.667 -7 -50 -7h-11c-33.333 0 -50 11.333 -50 34c4 8 6 17 6 27c-127.333 211.333 -241.666 374.333 -342.999 489l-139 128l-33 -40c7.33301 -115.333 11 -208 11 -278v-28c0 -148.667 -13 -223 -39 -223
c-72 -59.333 -142 -89 -210 -89h-39c-5.33301 0 -12.666 9 -21.999 27v252c0 189.333 -36.667 472 -110 848l-6 40c0 60 79.333 110 238 150h33c29.333 0 44 -34 44 -102c26 -102 44.667 -203.667 56 -305c49.333 80.667 104.666 184.667 165.999 312
c96 117.333 195.667 176 299 176z" />
    <glyph glyph-name="L" unicode="L" horiz-adv-x="1128" 
d="M281 1436l24 0.000976562c20.667 0 34.334 -10.667 41.001 -32c-16 -90.667 -24 -173 -24 -247c0 -146.667 19.667 -436.667 59 -870c-4 -9.33301 -6 -20 -6 -32c2.66699 0 14.334 -2.66699 35.001 -8c128 0 327.333 -5.33301 598 -16
c16 -7.33301 27.667 -20.666 35 -39.999c0 -86 -88 -149.667 -264 -191h-11c-20.667 0 -38.334 8 -53.001 24c-350 10.667 -549.333 16 -598 16c-50.667 5.33301 -76 18.666 -76 39.999l12 72c-35.333 453.333 -53 700.666 -53 741.999v191c0 137.333 23.333 225 70 263
c85.333 58.667 155.666 88 210.999 88z" />
    <glyph glyph-name="M" unicode="M" horiz-adv-x="1798" 
d="M1230 1462c62 0 93 -70.3311 93 -210.998c1.33301 -259.333 30.333 -611 87 -1055c-72 -92 -152 -138 -240 -138h-21c-30 0 -48.333 39 -55 117c-18 94.667 -41.667 363.667 -71 807c-45.333 -104 -107 -322.333 -185 -655c-80 -82 -158 -123 -234 -123h-27
c-32 0 -90 84.667 -174 254c-34.667 56 -67.334 126.333 -98.001 211h-6v-14c0 -232.667 20 -400 60 -502c0 -57.333 -76 -108.333 -228 -153h-33c-48.667 0 -79.667 104.333 -93 313c-3.33301 32.667 -5 83.667 -5 153v58c0 87.333 5.33301 312.666 16 675.999
c0 58.667 76.333 112 229 160h33c108.667 0 201 -145.333 277 -436c54.667 -136.667 89.334 -214.334 104.001 -233.001c68 265.333 160.333 474 277 626c106.667 96.667 204.667 145 294 145z" />
    <glyph glyph-name="N" unicode="N" horiz-adv-x="1554" 
d="M326 1432c95.333 0 195 -116 299 -348c184 -263.333 294.667 -414.333 332 -453c32 341.333 48 530 48 566h-7c-11.333 0 -18 11 -20 33c87.333 124 196 186 326 186h33c32 0 48 -13.667 48 -41l-54 -687v-16c0 -90.667 4.33301 -239 13 -445
c0 -59.333 -90.333 -113.333 -271 -162c-18 -5.33301 -36.333 -8 -55 -8c-100 21.333 -265 183 -495 485c-92 129.333 -139.667 194 -143 194v-8c0 -150 13.667 -338.667 41 -566v-8c-84.667 -102.667 -182 -154 -292 -154h-54c-38 0 -63 213 -75 639
c4.66699 119.333 7 243.333 7 372v211c0 101.333 106.333 171.333 319 210z" />
    <glyph glyph-name="O" unicode="O" horiz-adv-x="1614" 
d="M696 1443c197.333 0 364.001 -127.333 500.001 -382c50 -122.667 75 -239 75 -349c0 -195.333 -78.667 -382 -236 -560c-142.667 -101.333 -286.334 -152 -431.001 -152c-228.667 0 -412.667 164.667 -552 494c-32.667 110 -50 206.667 -52 290
c0 212.667 103.667 379.667 311 501c110.667 105.333 239 158 385 158zM322.001 890c0 -234 94 -440.668 282 -620.001c76 -61.333 143 -92 201 -92c96 135.333 144 278 144 428v7c0 248 -103.667 450 -311 606c0 6.66699 -7.66699 15.334 -23 26.001h-17
c-90.667 0 -175 -72.333 -253 -217c-12 0 -19.667 -46 -23 -138z" />
    <glyph glyph-name="P" unicode="P" horiz-adv-x="1120" 
d="M714 1454c203.333 0 337.001 -94.667 401.001 -284c16 -42.667 24 -95.667 24 -159v-42c0 -259.333 -218.333 -448.333 -655 -567l-148 -14v-236c0 -65.333 -84.333 -116 -253 -152h-30c-13.333 0 -27 7 -41 21c-4 99.333 -6 173 -6 221v180c0 19.333 -2 38 -6 56l6 27
c4 260.667 6 447.667 6 561c0 24.667 -2 64 -6 118c0 74 198.667 161.667 596 263c53.333 4.66699 90.666 7 111.999 7zM336.001 1226l6 -14.001v-49c0 -107.333 -4 -298.666 -12 -573.999c100 -9.33301 177 -14 231 -14c109.333 0 188 62.333 236 187
c8 18 13.667 59.333 17 124c0 185.333 -76.667 310 -230 374l-71 7h-17c-44 0 -97.333 -13.667 -160 -41z" />
    <glyph glyph-name="Q" unicode="Q" horiz-adv-x="1614" 
d="M661 1418l27.002 0.000976562c186.667 0 361.334 -142 524.001 -426c61.333 -126 92 -233 92 -321v-72c0 -140 -79.333 -269 -238 -387c58 -35.333 119.333 -53 184 -53l11 -19c0 -66.667 -83 -117 -249 -151c-66 0 -147 24 -243 72c-2.66699 0 -13.667 -2 -33 -6
c-50.667 23.333 -117.334 40.666 -200.001 51.999c-38 18 -74 37.667 -108 59c-36.667 -4.66699 -65.334 -7 -86.001 -7h-17c-32 7.33301 -64.333 33.666 -97 78.999l54 92c-90 136.667 -135 285.334 -135 446.001v26c0 220 83 377.333 249 472
c81.333 96 169.666 144 264.999 144zM297.002 911.001l168 -485.001c12 0 116.667 -41.333 314 -124c159.333 56 240 137.667 242 245c103.333 220 -8.66699 440 -336 660c-118 -9.33301 -182.333 -14 -193 -14c-54 -38 -110 -68.667 -168 -92
c-11.333 -35.333 -20.333 -98.666 -27 -189.999z" />
    <glyph glyph-name="R" unicode="R" horiz-adv-x="1283" 
d="M514 1429c137.333 0 227.332 -68.668 269.999 -206.001c6 -36.667 9 -75.667 9 -117v-34c0 -115.333 -39 -227.666 -117 -336.999c54.667 -26.667 105.334 -109 152.001 -247c38 -122 64 -190.667 78 -206c52.667 36.667 101.667 55 147 55h5c29.333 0 44 -11.667 44 -35
c0 -96 -49 -178.333 -147 -247c-69.333 -36.667 -124.666 -55 -165.999 -55c-88.667 0 -175.334 146.667 -260.001 440c-29.333 56 -55.333 94.667 -78 116l-152 -41l19 -357c-55.333 -91.333 -127 -137 -215 -137h-25c-26 0 -39 41 -39 123c-26 408 -39 646.333 -39 715
c-0 168.667 21.333 278.667 64 330c136.667 160 286.667 240 450 240zM303.999 1209v-6.99902c16 -29.333 24 -52 24 -68c-0.666992 -10.667 -18.667 -36 -54 -76v-62c0 -110 3.33301 -217.667 10 -323c117.333 20 176 43 176 69c42.667 70 64 150 64 240
c0 174.667 -63.667 262 -191 262c-13.333 -6.66699 -23 -18.334 -29 -35.001z" />
    <glyph glyph-name="S" unicode="S" horiz-adv-x="1085" 
d="M538 1432l75.998 -0.00292969c134.667 0 256 -46.667 364 -140l6 -15v-7c0 -65.333 -81 -117 -243 -155h-35c-104 64 -163.667 96 -179 96c-34.667 9.33301 -58 14 -70 14v-51c0 -101.333 106.333 -234.333 319 -399c130.667 -111.333 196 -236.666 196 -375.999v-15
c0 -188.667 -137 -316.667 -411 -384h-92c-121.333 0 -248.666 56.667 -381.999 170c-32 0 -61 27 -87 81v7c0 70.667 83 125 249 163h23c25.333 0 89 -47 191 -141c92.667 -54 154.334 -81 185.001 -81v15c0 20.667 2 40.334 6 59.001c0 150.667 -113.667 305.667 -341 465
c-120 125.333 -180 231.333 -180 318c0 156.667 61.667 262.334 185 317.001c84 39.333 157.333 59 220 59z" />
    <glyph glyph-name="T" unicode="T" horiz-adv-x="1091" 
d="M633 1447h17c20 0 33.333 -10 40 -30v-37c262 -46 393 -80.667 393 -104c0 -37.333 -30.333 -76.666 -91 -117.999c-64 -40 -121 -60 -171 -60h-23c-52.667 24 -87 36.333 -103 37c15.333 -94.667 46 -421 92 -979c-63.333 -104 -149 -156 -257 -156h-23
c-30 2 -45 21.667 -45 59l5 15c-45.333 538 -81.333 911.667 -108 1121c-239.333 9.33301 -359 26.666 -359 51.999v7c0 56 76 108 228 156h17c30 0 100.333 -2.66699 211 -8l11 -7c70.667 34.667 126 52 166 52z" />
    <glyph glyph-name="U" unicode="U" horiz-adv-x="1120" 
d="M989 1440h5.00488c38 0 57 -40 57 -120c24 -256 36 -491 36 -705c0 -296.667 -106.333 -491.667 -319 -585c-41.333 -20 -105 -30 -191 -30h-67c-248 0 -404.333 180 -469 540c-27.333 162 -41 309.667 -41 443v60c0 126 36 208.333 108 247
c51.333 35.333 97.666 53 138.999 53h41c6 0 13 -10 21 -30c-17.333 -70.667 -26 -130.667 -26 -180c0 -262.667 38 -497.667 114 -705c81.333 -155.333 182.666 -233 303.999 -233c39.333 0 63.333 20 72 60c13.333 45.333 23.666 133 30.999 263
c-10.667 302.667 -26.334 557.667 -47.001 765c57.333 104.667 134.666 157 231.999 157z" />
    <glyph glyph-name="V" unicode="V" horiz-adv-x="1168" 
d="M1079 1414h32.999c19.333 0 32 -9.66699 38 -29v-14c0 -106 -56.333 -272.667 -169 -500c-18 -48 -96 -300.333 -234 -757c-81.333 -76 -157.666 -114 -228.999 -114h-38c-34.667 0 -82 107 -142 321c-194 472.667 -306.667 756 -338 850v36c-0 56 76.333 106 229 150h16
c40 0 60 -24 60 -72c192.667 -484 292.667 -731.333 300 -742h5c0 53.333 71 241.333 213 564c14.667 55.333 22 98 22 128c-7.33301 0 -11 5 -11 15v21c0 38.667 63.667 84 191 136c18.667 4.66699 36.667 7 54 7z" />
    <glyph glyph-name="W" unicode="W" horiz-adv-x="1495" 
d="M308 1403l14.998 -0.000976562c27.333 0 51 -63.333 71 -190c63.333 -186 109.333 -346.667 138 -482h5c70 340.667 125.333 511 166 511c51.333 54 105.333 81 162 81h19c38 0 57 -31.667 57 -95l124 -505h4c92 267.333 138 443 138 527c64.667 92 136 138 214 138h15
c16.667 0 27.667 -9.66699 33 -29c0 -100 -66.667 -343.667 -200 -731c-16 -79.333 -33.333 -193.666 -52 -342.999c-25.333 -80 -69.666 -136 -132.999 -168c-38.667 -24.667 -75.334 -37 -110.001 -37h-19c-25.333 0 -50.666 66 -75.999 198
c-18.667 53.333 -53.667 197 -105 431h-4c-19.333 -97.333 -46.333 -258 -81 -482c-26 -86.667 -72 -147.667 -138 -183c-27.333 -19.333 -67 -34 -119 -44c-38 0 -60.333 39 -67 117c-83.333 452.667 -154.666 749.667 -213.999 891c-34.667 127.333 -52 205.333 -52 234
v22c62 92.667 131.667 139 209 139z" />
    <glyph glyph-name="X" unicode="X" horiz-adv-x="1054" 
d="M972 1403c74 -5.33301 110.999 -15.9971 110.999 -31.9971c0 -12 -26.667 -70.667 -80 -176c0 -16 -63.667 -126.333 -191 -331c-26 -68 -65 -130.667 -117 -188c44 -108.667 139.667 -251.667 287 -429c18 0 34 -26 48 -78c-60 -86.667 -138 -130 -234 -130h-42
c-8 0 -86 97.333 -234 292c0 11.333 -8.66699 26.666 -26 45.999l-160 -234c-66 -95.333 -149 -143 -249 -143h-5c-25.333 0 -52 17.333 -80 52v13c0 34.667 23 78 69 130c-8.66699 0 -14 8.66699 -16 26c0 9.33301 58.333 74.333 175 195l138 201
c-67.333 138.667 -147 288 -239 448c-17.333 47.333 -26 88.666 -26 123.999v13c0 34.667 62 75.667 186 123c18.667 4.66699 36.334 7 53.001 7h5c35.333 0 53 -26 53 -78c14.667 -54.667 66 -152.334 154 -293.001c122 213.333 200 337 234 371
c80.667 47.333 142.667 71 186 71z" />
    <glyph glyph-name="Y" unicode="Y" horiz-adv-x="1233" 
d="M1000 1418h22.001c20 0 33 -9 39 -27c0 -20 -27.667 -60 -83 -120l-254 -448c-14.667 -126 -22 -271 -22 -435v-241c0 -63.333 -79.333 -112.333 -238 -147h-33c-20 -0 -34.667 13.333 -44 40l5 67c0 265.333 9.33301 486 28 662c-12.667 0 -119.667 125 -321 375
c-58 45.333 -91 76.333 -99 93v14c19.333 49.333 82 91.666 188 126.999c19.333 4.66699 37.666 7 54.999 7h17c48 0 158.333 -111.667 331 -335c111.333 204.667 209 318.334 293 341.001c46 18 84.667 27 116 27z" />
    <glyph glyph-name="Z" unicode="Z" horiz-adv-x="1124" 
d="M356 1414c372 -14 558 -55.668 558 -125.001v-8c0 -36 -51.333 -134 -154 -294c-202 -412.667 -303 -655.667 -303 -729c6.66699 -5.33301 14.667 -8 24 -8h59c360 -15.333 540 -35 540 -59v-7c0 -73.333 -93 -134.666 -279 -183.999h-41
c-14.667 0 -30.667 9.66699 -48 29l-374 30l-29 -7c-126.667 0 -190 27 -190 81c39.333 176 162 463 368 861c59.333 74 89 130.667 89 170c-118 34 -258.667 51 -422 51h-112c-21.333 0 -35.333 10 -42 30c0 60 87 114 261 162c57.333 4.66699 89 7 95 7z" />
    <glyph glyph-name="bracketleft" unicode="[" horiz-adv-x="758" 
 />
    <glyph glyph-name="backslash" unicode="\" horiz-adv-x="569" 
 />
    <glyph glyph-name="bracketright" unicode="]" horiz-adv-x="758" 
 />
    <glyph glyph-name="asciicircum" unicode="^" horiz-adv-x="1014" 
 />
    <glyph glyph-name="underscore" unicode="_" horiz-adv-x="1024" 
d="M0 -100h1024v-100h-1024v100z" />
    <glyph glyph-name="grave" unicode="`" horiz-adv-x="1024" 
d="M770 1078l-97.001 0.00195312l-313 179c-24 15.333 -43 29.666 -57 42.999s-21 33.666 -21 60.999c0 18 6.83301 35 20.5 51s35.834 24 66.501 24c28.667 0 53.5 -6 74.5 -18s44.5 -30.667 70.5 -56z" />
    <glyph glyph-name="a" unicode="a" horiz-adv-x="922" 
d="M466 966l35 0.00195312c106 0 187.667 -50 245 -150c66.667 -157.333 100 -317 100 -479c10 -57.333 26.667 -124 50 -200c0 -41.333 -58.333 -83 -175 -125c-12.667 -4 -27.667 -6 -45 -6h-25c-10.667 0 -35.667 21 -75 63c-12 0 -27 2 -45 6c-92 -50 -174 -75 -246 -75
h-45c-120.667 0 -200.667 60.333 -240 181v56c-0 180 128.333 304.667 385 374c32 4 62.333 6 91 6h20c0 50 -45.333 104 -136 162v-25c0 -68.667 -75 -118.334 -225 -149.001c-32 -4.66699 -63.667 -7 -95 -7c-16.667 7.33301 -25 17.666 -25 30.999
c0 76.667 63.333 158 190 244c124 62 211 93 261 93zM300 449.002c-16.667 -41.333 -25 -89.334 -25 -144.001c26.667 -95.333 81.667 -143 165 -143c14 18 37.667 61.667 71 131v106c0 14.667 -67 31.334 -201 50.001h-10z" />
    <glyph glyph-name="b" unicode="b" horiz-adv-x="859" 
d="M212 1285c29.333 0 49.332 -37 59.999 -111c34 -80.667 51 -176.667 51 -288c73.333 27.333 137.333 41 192 41h5c158.667 0 258.334 -99.667 299.001 -299c2.66699 -33.333 4 -60.666 4 -81.999v-35c0 -213.333 -154 -383.333 -462 -510c-28 -8 -56.333 -12 -85 -12h-30
c-88.667 0 -142.667 37 -162 111c-26 0 -44.667 8 -56 24c6 50.667 9 119 9 205v370c0 31.333 1.33301 68.333 4 111c-11.333 91.333 -17 157.666 -17 198.999c0 4 2.66699 19.667 8 47v6c-14 50 -21 83.333 -21 100c0 40.667 57 79.667 171 117zM327.999 657
c0 -2 2.66699 -33.333 8 -94l-38 -53v-211h25c15.333 0 25.333 -7.66699 30 -23c0 -13.333 -4.33301 -27 -13 -41c0 -43.333 33 -71 99 -83c116.667 56.667 175 156.667 175 300c0 168 -61.333 277.333 -184 328h-55c-6.66699 -1.33301 -14 -21 -22 -59
c-16.667 -12 -25 -33.333 -25 -64z" />
    <glyph glyph-name="c" unicode="c" horiz-adv-x="988" 
d="M626 981c102.667 0 201.668 -71.001 297.001 -213.001c0 -50.667 -72 -101.334 -216 -152.001c-15.333 -5.33301 -34 -8 -56 -8h-25c-21.333 0 -83.333 53.333 -186 160c-49.333 -85.333 -74 -169 -74 -251c0 -141.333 86.667 -240 260 -296
c7.33301 0 24 -5.33301 50 -16c95.333 61.333 175.666 92 240.999 92c37.333 -5.33301 56 -15.666 56 -30.999v-38c-27.333 -66 -110 -126.667 -248 -182c-82 -25.333 -160.333 -40.666 -235 -45.999c-310 42 -465 168.667 -465 380v23c0 258.667 150.667 443.667 452 555
c44 10 93.667 17.667 149 23z" />
    <glyph glyph-name="d" unicode="d" horiz-adv-x="845" 
d="M706 897c22.667 0 34.001 -30.334 34.001 -91.001c23.333 -408.667 48 -648 74 -718c0 -42 -60.667 -77.333 -182 -106h-43c-6.66699 0 -14 11.667 -22 35c-46 -13.333 -95 -20 -147 -20h-39c-148.667 0 -248.334 45.667 -299.001 137c-11.333 18 -17 55 -17 111
c0 218 99.667 356 299 414c34.667 6.66699 62 10 82 10h35l21 -5c0 14 -2.66699 56 -8 126c0 42.667 60.333 78.334 181 107.001h31zM353.001 489.999c-23.333 -58.667 -35.001 -118 -35.001 -178v-47c0 -81.333 79.667 -129.333 239 -144v5
c-8.66699 47.333 -16 124 -22 230c-7.33301 0 -47.666 33.333 -120.999 100l-48 34h-13zM596 1151c62 0 100.668 -72.335 116.001 -217.002c12 -91.333 23.667 -167.666 35 -228.999c20 -154 34.333 -250.667 43 -290c3.33301 0 5 -4.33301 5 -13l-13 -52
c0 -67.333 11.333 -151 34 -251c0 -47.333 -30.333 -76.333 -91 -87c-63.333 10 -95 43.333 -95 100c-8.66699 42.667 -23 182.667 -43 420c-8 112.667 -22.333 169 -43 169c-20.667 50.667 -31 105.334 -31 164.001c3.33301 36 5 72 5 108
c-8.66699 52.667 -13 81.667 -13 87c9.33301 60.667 39.666 91 90.999 91z" />
    <glyph glyph-name="e" unicode="e" horiz-adv-x="1054" 
d="M562 992l39.999 0.00195312c142 0 254.333 -68.333 337 -205c22 -41.333 33 -83.333 33 -126v-26c0 -108 -92.667 -180.667 -278 -218c-11.333 -4.66699 -108.333 -9.33398 -291 -14.001v-6c0 -44.667 57.333 -106.334 172 -185.001c34.667 -18 63.334 -27 86.001 -27h7
c104 97.333 212 146 324 146h13c32.667 0 50.334 -6.66699 53.001 -20v-27c-160.667 -189.333 -345.667 -284 -555 -284h-14c-246.667 0 -405.334 114.667 -476.001 344c-8.66699 20 -13 48.667 -13 86v53c0 212.667 147.667 375.667 443 489c47.333 13.333 87 20 119 20z
M435.999 794.002c-42.667 -64 -66.668 -137 -72.001 -219c2.66699 0 31.334 -2 86.001 -6c20 0 70.667 2 152 6c0 77.333 -55.333 150.333 -166 219z" />
    <glyph glyph-name="f" unicode="f" horiz-adv-x="1079" 
d="M721 1232l78.0039 -11.9971c97.333 -14.667 181.666 -93.334 252.999 -236.001c10.667 -25.333 16 -55.666 16 -90.999c0 -7.33301 -0.333008 -15 -1 -23c-12 -81.333 -110.667 -125.333 -296 -132l-71 10l-23 24l16 63c0.666992 6 1 12 1 18
c0 58 -41.333 126.333 -124 205c-12 -18 -20.667 -45.333 -26 -82l-9 -58c-3.33301 -22 -5 -49.333 -5 -82c0 -48.667 3.66699 -109.334 11 -182.001c91.333 10.667 167.333 16 228 16c38 0 70 -2 96 -6c38.667 -10 58 -24.667 58 -44v-5c-68 -62.667 -150.333 -94 -247 -94
c-24 0 -49.333 2 -76 6c-0.666992 -4.66699 -12 -7.33398 -34 -8.00098c37.333 -188.667 58.666 -337 63.999 -445c-68.667 -63.333 -149.334 -95 -242.001 -95c-22 0 -44.667 1.66699 -68 5l-20 3c-34 5.33301 -51 42.333 -51 111c0 10.667 0.333008 22 1 34
c-39.333 231.333 -64.333 354 -75 368l-52 7c-77.333 12 -116 30 -116 54v4c3.33301 24 55.666 51 156.999 81c-6 43.333 -9 86.333 -9 129c0 47.333 3.66699 94.333 11 141c30 196.667 191.333 303.667 484 321c30 -0.666992 53.667 -2.33398 71 -5.00098z" />
    <glyph glyph-name="g" unicode="g" horiz-adv-x="1010" 
d="M609 1286c96 0 197.998 -50.999 305.998 -152.999c32.667 -41.333 49 -84.333 49 -129v-24c0 -156 -142.667 -268.333 -428 -337v-12c12 0 18 -4 18 -12v-6l-6 -31l74 6h79c152 0 248 -36.667 288 -110c12 -46 18 -82.667 18 -110v-18
c0 -108.667 -73.333 -192.334 -220 -251.001c-136 -73.333 -317.333 -110 -544 -110h-86c-102 29.333 -153 98.666 -153 207.999c0 80.667 28.667 170.334 86 269.001v6c-25.333 0 -41.666 38.667 -48.999 116v25c0 50 16.333 96.667 49 140c-53.333 52 -80 109.333 -80 172
c0 135.333 112 241.333 336 318c42.667 12 130.334 26.333 263.001 43zM358.998 1078l-5.99902 -37.001v-31c10 -73.333 34.333 -110 73 -110c32.667 0 49 -6 49 -18l-6 -43c59.333 -28.667 104 -43 134 -43c16.667 36.667 25 75.334 25 116.001
c-20.667 94 -75.667 141 -165 141c-38.667 16.667 -73.334 25 -104.001 25zM364.999 423c-12.667 -51.333 -19.001 -95.999 -19.001 -133.999c12.667 -94 43.334 -141 92.001 -141c151.333 0 227 16.333 227 49c0 19.333 2 39.666 6 60.999c0 110 -51 165 -153 165h-153z
" />
    <glyph glyph-name="h" unicode="h" horiz-adv-x="955" 
d="M119 1311c32 0 63.002 -19.667 93.002 -59c16.667 -65.333 29.667 -179 39 -341c23.333 -40.667 35 -81.667 35 -123c52 46 128.333 69 229 69h15c42.667 0 112.667 -21.333 210 -64c60 -60.667 94 -114.334 102 -161.001c26 -48 44 -126 54 -234
c8 -28.667 16 -115 24 -259c6.66699 0 10 -32.667 10 -98v-24c0 -29.333 -22.667 -44 -68 -44c0 -4.66699 -13 -8 -39 -10c-75.333 11.333 -113 61.666 -113 150.999c-35.333 228.667 -71 370.334 -107 425.001c-36 68.667 -70.333 103 -103 103h-39
c-52 -9.33301 -78 -40.333 -78 -93c-20.667 -48.667 -48.334 -73 -83.001 -73c29.333 -236 50.666 -363 63.999 -381l5 -25c-14 -68 -50 -102 -108 -102c-77.333 0 -121.333 70 -132 210c-36 207.333 -54 406 -54 596v14c-32 74.667 -48 182.334 -48 323.001l-15 97
c14 68.667 49.667 103 107 103z" />
    <glyph glyph-name="i" unicode="i" horiz-adv-x="606" 
d="M323 1388l39 -0.000976562c124.667 -18 187 -76 187 -174v-7c0 -123.333 -112 -207.333 -336 -252h-71c-90.667 0 -136 39 -136 117v6c0 8.66699 4.33301 30.334 13 65.001c-6 0 -12.333 6.33301 -19 19v7c-0 103.333 88.333 174.333 265 213c16 4 35.333 6 58 6z
M491 864.999c25.333 0 37.999 -17.3311 37.999 -51.998c22 -136.667 33 -220.334 33 -251.001c-26 -196 -39 -306 -39 -330c12.667 -25.333 21.334 -57.333 26.001 -96c-74 -90.667 -171 -136 -291 -136h-13c-51.333 -0 -77 45.333 -77 136v19l32 290v33l-26 226v19
c0 61.333 92.667 108.666 278 141.999h39z" />
    <glyph glyph-name="j" unicode="j" horiz-adv-x="698" 
d="M435 1348c46 -2 68.999 -15.999 68.999 -41.999c60 -15.333 90 -40.333 90 -75v-26c0 -39.333 -47.667 -87.333 -143 -144c-61.333 -20.667 -109 -31 -143 -31h-27c-82 0 -135 31.667 -159 95c0 81.333 24.667 132.666 74 153.999c88.667 46 168.334 69 239.001 69z
M514.999 955.001l25.999 0.00195312c28.667 0 43 -24.667 43 -74c52.667 -279.333 79 -447.333 79 -504c0 -169.333 -93.667 -284.333 -281 -345c-74 -21.333 -137.667 -32 -191 -32h-32c-55.333 0 -106.666 37 -153.999 111c-3.33301 7.33301 -5 12.666 -5 15.999
c0 40 70.667 77.333 212 112h43c14.667 0 44.667 -26.667 90 -80c14 41.333 21 84 21 128c0 69.333 -26.333 240.666 -79 513.999v38c0 48 76 86.667 228 116z" />
    <glyph glyph-name="k" unicode="k" horiz-adv-x="1026" 
d="M291 1294h26.001c23.333 0 38.333 -8.66699 45 -26v-660c46.667 35.333 135.334 70 266.001 104c127.333 107.333 248 161 362 161h6c33.333 0 53 -8.33301 59 -25c0 -48 -105.667 -123.667 -317 -227c100.667 -110.667 251.667 -263.667 453 -459c4 -8 6 -16.667 6 -26
c0 -52.667 -90.667 -98 -272 -136h-39c-16.667 -0 -55.334 32.333 -116.001 97c-6.66699 0 -125.334 118.667 -356.001 356c-16.667 -12.667 -29.667 -19 -39 -19c11.333 -134 24.333 -201 39 -201v-19c-82 -82 -172.667 -123 -272 -123h-51c-39.333 0 -59 28 -59 84
c-21.333 178.667 -32 344.667 -32 498v13c0 103.333 2 265 6 485c85.333 82 180.333 123 285 123z" />
    <glyph glyph-name="l" unicode="l" horiz-adv-x="628" 
d="M448 1205l20 -0.000976562c24 0 41.667 -11 53 -33c40 -549.333 60 -877.666 60 -984.999v-53c0 -62.667 -95 -111 -285 -145h-33c-35.333 0 -53 33 -53 99c0 170.667 -19.667 494.667 -59 972c0 45.333 77 91.333 231 138c23.333 4.66699 45.333 7 66 7z" />
    <glyph glyph-name="m" unicode="m" horiz-adv-x="1789" 
d="M1381 919l13.002 -0.000976562c186 0 308.333 -85.667 367 -257l6 -77v-65c-12 -282.667 -31.333 -424 -58 -424c-88.667 -64 -176.334 -96 -263.001 -96h-20c-15.333 0 -32.333 8.66699 -51 26c21.333 150.667 34.333 294 39 430c0 140.667 -64.333 235 -193 283l-32 6
c-38.667 -63.333 -58 -125.333 -58 -186v-19c0 -32.667 6.33301 -69 19 -109c0 -6.66699 -17 -28.334 -51 -65.001v-115c0 -63.333 -94.333 -112.666 -283 -147.999h-26c-21.333 0 -40.333 12.667 -57 38c8 36.667 12 84 12 142v115c0 193.333 -53.333 290 -160 290
c-56 -80 -84 -157.333 -84 -232c0 -14 8.66699 -52.333 26 -115c0 -14.667 -19.333 -34 -58 -58c26 -86.667 39 -136 39 -148c-22.667 -48 -95.667 -88.667 -219 -122c-22.667 -4.66699 -44 -7 -64 -7h-26c-38.667 0 -68.667 60 -90 180
c-72.667 170.667 -109 301.334 -109 392.001v45c0 80 90 135.667 270 167l32 7c38.667 -7.33301 58 -16 58 -26v-32h6c126.667 81.333 257.334 122 392.001 122h39c77.333 0 143.666 -17 198.999 -51c129.333 72.667 257.666 109 384.999 109z" />
    <glyph glyph-name="n" unicode="n" horiz-adv-x="1399" 
d="M1031 1008c190 0 304 -162.668 342 -488.001c10.667 -105.333 16 -183.666 16 -234.999c0 -120.667 -92.333 -199.334 -277 -236.001c0 -11.333 -32.333 -17 -97 -17h-41c-28.667 0 -47.667 11 -57 33v32l17 25v73c-6.66699 306.667 -66.334 502 -179.001 586h-25
c-86.667 -80 -130 -167 -130 -261v-81c0 -41.333 -40.667 -82 -122 -122h-8v-24c10.667 -79.333 16 -122.666 16 -129.999c-117.333 -103.333 -233.666 -155 -348.999 -155h-49c-54.667 0 -82 76 -82 228c-16 224.667 -24 398 -24 520c0 68 114 125 342 171h57
c37.333 0 56 -24.333 56 -73v-25h9c204.667 119.333 399.667 179 585 179z" />
    <glyph glyph-name="o" unicode="o" horiz-adv-x="1187" 
d="M705 979c246.667 0 405.001 -134.332 475.001 -402.999c4.66699 -24.667 7 -53.334 7 -86.001c0 -209.333 -141.333 -360.333 -424 -453c-88 -19.333 -160 -29 -216 -29h-72c-214.667 0 -363.334 96 -446.001 288c-9.33301 36 -14 69.333 -14 100
c0 141.333 60 261.333 180 360c108 148.667 278 223 510 223zM561.001 749.001v-36.001c0 -35.333 -47.667 -78.666 -143 -129.999c0 -33.333 -2.66699 -52.333 -8 -57c0 -149.333 86.333 -255 259 -317c26 -4.66699 47.667 -7 65 -7c33.333 34.667 50 82.667 50 144v65
c0 130 -69.333 242.667 -208 338h-15z" />
    <glyph glyph-name="p" unicode="p" horiz-adv-x="1102" 
d="M804 1186c104.667 0 191.001 -54.668 259.001 -164.001c21.333 -40.667 32 -85 32 -133v-26c0 -165.333 -95 -313 -285 -443c-162.667 -80.667 -289.334 -121 -380.001 -121l6 -63v-51c0 -71.333 -29.667 -119.666 -89 -144.999c-83.333 -34 -144.333 -51 -183 -51h-64
c-6 0 -12.333 6.33301 -19 19v63c0 97.333 -14.667 353 -44 767c0 32 65.333 76.333 196 133c89.333 92 233 159.667 431 203c36 8 82.667 12 140 12zM398.001 755.999c7.33301 -110 15.666 -165.001 24.999 -165.001c15.333 0 47 -34 95 -102c16.667 -12.667 36 -19 58 -19
h12c48.667 0 97.334 74 146.001 222c8.66699 44.667 13 72.334 13 83.001c0 121.333 -61.333 201.333 -184 240c-42.667 0 -76.667 -67.333 -102 -202c0 -16.667 -21 -35.667 -63 -57z" />
    <glyph glyph-name="q" unicode="q" horiz-adv-x="1209" 
d="M626 1157l80 -0.00195312c74 0 132.667 -22.667 176 -68c0 -10 -4 -21.333 -12 -34c31.333 0 50.333 -43.333 57 -130v-108c0 -36 -5.66699 -66.333 -17 -91l40 -199c72 38 136.333 57 193 57h22c21.333 0 34.666 -9.33301 39.999 -28
c-60.667 -190.667 -94.667 -313.667 -102 -369l-51 -97c-87.333 -52.667 -165 -79 -233 -79h-23l-79 23c-15.333 0 -23 5.66699 -23 17l6 39c-18.667 80.667 -45 213.334 -79 398.001c-91.333 -30.667 -174.666 -46 -249.999 -46c-164 0 -277.667 58.667 -341 176
c-7.33301 26.667 -11 49.334 -11 68.001v46c0 100 51 190.667 153 272c172.667 102 324 153 454 153zM331 799.998c0 -114.667 75.667 -182.999 227 -204.999h11c15.333 25.333 23 40.666 23 45.999c-15.333 64.667 -23 165 -23 301l17 28c-46.667 26.667 -88 40 -124 40
c-61.333 0 -103 -53 -125 -159c-4 -20.667 -6 -37.667 -6 -51z" />
    <glyph glyph-name="r" unicode="r" horiz-adv-x="1326" 
d="M834 1076h80.001c264.667 0 397 -83.667 397 -251v-16c-26.667 -58 -115.667 -109 -267 -153c-36.667 -6 -66.334 -9 -89.001 -9h-32c-48.667 0 -73 46 -73 138c-56.667 40 -105.334 61.667 -146.001 65c-19.333 -32.667 -35.333 -65 -48 -97
c10.667 -45.333 16 -94 16 -146c0 -5.33301 -13.667 -24.333 -41 -57c43.333 -159.333 89.333 -278 138 -356c0 -87.333 -127 -152 -381 -194c-57.333 0 -97.666 54 -120.999 162l-202 607c-43.333 65.333 -65 108.333 -65 129c-0 66 113.333 122.667 340 170h32
c52 0 90 -35 114 -105c138 75.333 254 113 348 113z" />
    <glyph glyph-name="s" unicode="s" horiz-adv-x="903" 
d="M577 1012h60.999c105.333 0 192.666 -58.333 261.999 -175v-6c0 -52 -89.667 -96.667 -269 -134c-3.33301 0 -16.666 -2.66699 -39.999 -8c-29.333 0 -67.333 29.333 -114 88l-7 -13v-34c0 -69.333 78.333 -134.333 235 -195c98.667 -56 148 -118.333 148 -187v-41
c0 -148.667 -156.667 -254 -470 -316c-21.333 -4 -52.666 -6 -93.999 -6c-120.667 0 -214.667 65 -282 195v33c88.667 84.667 193.667 127 315 127c29.333 -2 76.333 -51 141 -147l14 -7h7v14c0 98.667 -78.333 174.667 -235 228c-103.333 56 -155 120.667 -155 194
c0 134 78.333 241.667 235 323c100 44.667 182.667 67 248 67z" />
    <glyph glyph-name="t" unicode="t" horiz-adv-x="1061" 
d="M478 1071c50 0 75 -73.0029 75 -219.003c60.667 0 152 4.33301 274 13c59.333 -7.33301 89 -18.666 89 -33.999v-7c0 -67.333 -100.333 -119.666 -301 -156.999h-34v-7c7.33301 -140 43.666 -279.333 108.999 -418c16.667 -27.333 30.334 -41 41.001 -41
c93.333 50.667 175.666 76 246.999 76h20c24.667 0 40.667 -9.33301 48 -28c0 -95.333 -29.667 -154.666 -89 -177.999c-111.333 -82 -227.666 -123 -348.999 -123h-55c-165.333 0 -277 155 -335 465c-18.667 110 -30 194.667 -34 254c-132.667 10 -199 26 -199 48v7
c0 40.667 59.333 81.667 178 123c-9.33301 36 -14 65.667 -14 89c0 47.333 91.333 93 274 137h55z" />
    <glyph glyph-name="u" unicode="u" horiz-adv-x="1469" 
d="M1188 946l22.0029 0.000976562c45.333 0 83 -68 113 -204c30.667 -58.667 46 -154 46 -286c23.333 -52 45.666 -135 66.999 -249c5.33301 0 13 -10 23 -30c0 -72 -108 -127.333 -324 -166h-38c-55.333 10 -83 35 -83 75c-148 -60 -271 -90 -369 -90h-121
c-268.667 0 -434.334 183.333 -497.001 550c-5.33301 27.333 -8 55 -8 83c0 111.333 25 181.666 75 210.999c112 55.333 202.667 83 272 83h38c21.333 0 38.666 -10 51.999 -30c-10 -38 -15 -73 -15 -105v-46c0 -224.667 85.667 -398 257 -520
c69.333 -20 124.333 -30 165 -30c50.667 40 76 95.333 76 166c-60.667 169.333 -91 310 -91 422c3.33301 36 46 73.667 128 113c77.333 35.333 148 53 212 53z" />
    <glyph glyph-name="v" unicode="v" horiz-adv-x="1278" 
d="M1194 1002h48.999c28 -2.66699 42 -9.66699 42 -21v-7c0 -27.333 -42 -67 -126 -119c-54 -114 -124 -291.333 -210 -532c-76 -136.667 -195 -232.334 -357 -287.001c-50 -14 -92 -21 -126 -21h-28c-42 0 -84 58.333 -126 175l-287 553
c0 48.667 93.333 95.334 280 140.001c24.667 4.66699 38.667 7 42 7c48 0 87.667 -42 119 -126c112 -202.667 168 -312.334 168 -329.001c7.33301 2.66699 40 86.667 98 252c74.667 148.667 182 244.334 322 287.001c46.667 18.667 93.334 28 140.001 28z" />
    <glyph glyph-name="w" unicode="w" horiz-adv-x="1811" 
d="M1733 1131l26 -0.00195312c22.667 0 37.667 -11.667 45 -35c0 -32.667 -75.667 -170 -227 -412c-87.333 -149.333 -174 -330 -260 -542c-92 -97.333 -181 -146 -267 -146h-52c-86 0 -157.333 129 -214 387h-7c-118.667 -246.667 -257.334 -370 -416.001 -370h-52
c-55.333 0 -131 192 -227 576l-78 258c72 120.667 169.333 181 292 181h7c50 0 86.667 -66 110 -198c4.66699 -1.33301 39.334 -121.666 104.001 -360.999h13c85.333 164.667 148.333 296.334 189 395.001c98 80.667 184.667 121 260 121h39c40.667 0 71 -92 91 -276
c28 -143.333 47.333 -220.666 58 -231.999c179.333 325.333 290 511.666 332 558.999c91.333 63.333 169.333 95 234 95z" />
    <glyph glyph-name="x" unicode="x" horiz-adv-x="1069" 
d="M852 1075l46 0.000976562c14 -10.667 21 -23.667 21 -39c0 -20.667 -72.333 -125 -217 -313c-16.667 -15.333 -34 -36 -52 -62l253 -298c14 0 58.667 -33.333 134 -100c14 0 21 -12.667 21 -38c0 -61.333 -72.333 -117.333 -217 -168h-113c-19.333 0 -74.333 74 -165 222
c-6 0 -42.333 38 -109 114c-116 -198.667 -177.667 -298 -185 -298c-65.333 -61.333 -127.333 -92 -186 -92h-21c-24 0 -36 12.667 -36 38c15.333 65.333 116.666 234 303.999 506c-99.333 126.667 -154.333 221 -165 283c-54.667 17.333 -82 37.666 -82 60.999
c0 52.667 68.667 103.667 206 153l47 8c40 0 96.667 -38.333 170 -115c0 -17.333 -5.33301 -35.333 -16 -54c26 -50.667 41.667 -76 47 -76c34.667 41.333 76 100 124 176c70.667 61.333 134.334 92 191.001 92z" />
    <glyph glyph-name="y" unicode="y" horiz-adv-x="933" 
d="M864 1304c27.333 -8 40.9961 -17.667 40.9961 -29v-30c0 -111.333 -50 -304 -150 -578c-61.333 -278 -147.666 -465.667 -258.999 -563c-93.333 -69.333 -176.666 -104 -249.999 -104h-23c-107.333 -0 -178.666 64.333 -213.999 193v15c0 50.667 60.667 100 182 148h41
c14.667 0 34.334 -32.333 59.001 -97c30.667 -39.333 61 -59 91 -59c72.667 171.333 109 277.666 109 318.999h-23c-56 2 -157.333 175 -304 519c0 74.667 66.667 131.334 200 170.001h9c28.667 0 56 -42 82 -126c70.667 -146 116 -232.333 136 -259
c45.333 145.333 68 261.333 68 348c70 88.667 138.333 133 205 133z" />
    <glyph glyph-name="z" unicode="z" horiz-adv-x="1183" 
d="M537 1058l23 -0.000976562c79.333 0 251.666 -34 516.999 -102l8 -15c0 -35.333 -94 -150.333 -282 -345c-47.333 -51.333 -123 -176.666 -227 -375.999c68 -15.333 146.333 -23 235 -23h251c78 0 117 -10.667 117 -32c0 -82 -130.667 -142 -392 -180h-141
c-346 0 -520.667 34 -524 102c41.333 61.333 114.333 189.333 219 384c4 0 95.333 101.667 274 305v8l-305 63c-84 -36.667 -152 -55 -204 -55h-71c-20.667 10.667 -31 23.667 -31 39c37.333 75.333 157.333 143.333 360 204c62.667 15.333 120.334 23 173.001 23z" />
    <glyph glyph-name="braceleft" unicode="{" 
d="M240 703c122 3.33301 198.166 24.501 228.499 63.501s45.5 84.167 45.5 135.5v468c0 42.667 28.667 89.167 86 139.5s132 75.5 224 75.5h156v-62h-138c-22.667 0 -45.834 -8.5 -69.501 -25.5s-35.834 -48.167 -36.501 -93.5v-500c0 -48.667 -22.167 -100 -66.5 -154
s-93.166 -81 -146.499 -81v-2c53.333 0 102.333 -26.833 147 -80.5s67 -104.834 67 -153.501l-1 -500c0.666992 -44.667 12.834 -75.667 36.501 -93s46.834 -26 69.501 -26h138v-62h-156c-92 0 -166.5 25.333 -223.5 76s-85.833 97.667 -86.5 141v466
c0 50.667 -15.167 95.5 -45.5 134.5s-106.5 60.167 -228.5 63.5v70z" />
    <glyph glyph-name="bar" unicode="|" 
d="M426 1583h256v-2007h-256v2007z" />
    <glyph glyph-name="braceright" unicode="}" 
d="M868 633c-122 -3.33301 -198.167 -24.501 -228.5 -63.501s-45.5 -83.833 -45.5 -134.5v-466c-0.666992 -43.333 -29.5 -90.333 -86.5 -141s-131.5 -76 -223.5 -76h-156v62h138c22.667 0 45.834 8.66699 69.501 26s35.834 48.333 36.501 93l-1 500
c0 48.667 22.333 99.834 67 153.501s94 80.5 148 80.5v2c-54 0 -103.167 27 -147.5 81s-66.5 105.333 -66.5 154v500c-0.666992 45.333 -12.834 76.5 -36.501 93.5s-46.834 25.5 -69.501 25.5h-138v62h156c92 0 166.667 -25.167 224 -75.5s86 -96.833 86 -139.5v-468
c0 -51.333 15.167 -96.5 45.5 -135.5s106.5 -60.167 228.5 -63.5v-70z" />
    <glyph glyph-name="asciitilde" unicode="~" 
d="M998 928v-232.999c-42 -48.667 -83.667 -81.834 -125 -99.501s-82.333 -26.5 -123 -26.5c-42 0 -108.667 16.167 -200 48.5s-155.666 48.5 -192.999 48.5c-31.333 0 -64.833 -8.83301 -100.5 -26.5s-84.5 -62.167 -146.5 -133.5v233
c42.667 48.667 84.667 82.167 126 100.5s81.666 27.5 120.999 27.5c44.667 0 112.667 -16.5 204 -49.5s154.333 -49.5 189 -49.5c32 0 65.833 8.83301 101.5 26.5s84.5 62.167 146.5 133.5z" />
    <glyph glyph-name="exclamdown" unicode="&#xa1;" horiz-adv-x="672" 
 />
    <glyph glyph-name="cent" unicode="&#xa2;" horiz-adv-x="1139" 
 />
    <glyph glyph-name="sterling" unicode="&#xa3;" 
d="M633 1368c-73.333 0 -131 -31.002 -173 -93.002c-38 -55.333 -57 -131.333 -57 -228c0 -14 0.333008 -28 1 -42c0 -92 16 -179.333 48 -262h365v-80h-331c33.333 -61.333 50 -125 50 -191c0 -113.333 -48.667 -234 -146 -362h393c62.667 0 114 44.333 154 133h92
l-111 -253h-801l1 54c118 150.667 177 291.334 177 422.001c0 68.667 -16 134.334 -48 197.001h-168v80h133c-37.333 91.333 -56 172.333 -56 243c0 146.667 44 263 132 349c85.333 86 202 129 350 129c65.333 0 133.333 -5.33301 204 -16c88 -11.333 132 -25 132 -41v-193
h-69c-2 34 -29 68.333 -81 103c-52 34 -113.667 51 -185 51h-6z" />
    <glyph glyph-name="currency" unicode="&#xa4;" 
d="M435 577c22.667 -19.333 48.334 -32.665 77.001 -39.998c14.667 -3.33301 29 -5 43 -5s28.333 1.66699 43 5c28 7.33301 53.333 20.666 76 39.999c25.333 22.667 44 51.667 56 87c6 18 9 35.667 9 53c0 18 -3 35.667 -9 53c-12 35.333 -30.667 64.333 -56 87
c-22.667 19.333 -48.334 32.666 -77.001 39.999c-14.667 3.33301 -29 5 -43 5c-14.667 0 -29 -2 -43 -6c-28.667 -7.33301 -54 -20.333 -76 -39c-24.667 -22 -43 -50.667 -55 -86c-6.66699 -18 -10 -36.333 -10 -55c0 -16.667 3 -33.667 9 -51c11.333 -36 30 -65.333 56 -88
zM252 904.001l-117 117l114 115l125 -125c7.33301 5.33301 32 14 74 26c36 11.333 72 17 108 17c33.333 0 67 -4.66699 101 -14c43.333 -13.333 69.333 -22.666 78 -27.999l124 124l114 -115l-116 -116c23.333 -34.667 40.666 -70.334 51.999 -107.001
c7.33301 -26.667 11 -53.667 11 -81c0 -26.667 -3.66699 -53.667 -11 -81c-11.333 -36.667 -28.666 -72.334 -51.999 -107.001l116 -116l-114 -115l-124 124c-8.66699 -6 -34.667 -15.333 -78 -28c-34 -9.33301 -68 -14 -102 -14s-68.333 4.66699 -103 14
c-44 12.667 -70.333 22 -79 28l-124 -124l-114 115l117 116c-24 34.667 -41.333 70.667 -52 108c-7.33301 26.667 -11 53.334 -11 80.001c0 28 4 55.667 12 83c10.667 36 27.667 70.667 51 104z" />
    <glyph glyph-name="yen" unicode="&#xa5;" 
d="M698 550v-259c0 -148 33 -222 99 -222h80v-69h-648v69h80c66 0 99 74 99 222v259h-228v80h228v63l-19 37h-209v80h169l-207 411c-56.667 96 -100.667 144 -132 144h-51v69h528v-69h-51c-34.667 0 -52 -12 -52 -36c0 -31.333 18.667 -77.333 56 -138l176 -379l172 388
c30.667 52 46 92.667 46 122c0 28.667 -17.333 43 -52 43h-48v69h415v-69h-36c-52 0 -106.667 -50.667 -164 -152l-194 -403h173v-80h-211l-19 -39v-61h230v-80h-230z" />
    <glyph glyph-name="brokenbar" unicode="&#xa6;" 
d="M426 371h256v-789h-256v789zM426 1434h256v-789h-256v789z" />
    <glyph glyph-name="section" unicode="&#xa7;" 
d="M599 332c81.333 49.333 122 117.998 122 205.998v6c-0.666992 60.667 -23 106.334 -67 137.001s-90 46 -138 46c-36 0 -67.333 -12.667 -94 -38s-40 -64.666 -40 -117.999c0 -85.333 72.333 -165 217 -239zM513 -339.002c58.667 2.66699 108.003 21.665 148.003 56.998
c47.333 42 71 98.667 71 170c0 86.667 -102 178.667 -306 276c-88 46 -149.667 93.5 -185 142.5s-53 106.167 -53 171.5c0 94 29.667 170.667 89 230c50.667 49.333 109.667 79.666 177 90.999c-103.333 45.333 -175 95.5 -215 150.5s-60 115.167 -60 180.5
c0 94 30.5 172.333 91.5 235s150.5 94.334 268.5 95.001c90 0 162.667 -6.33301 218 -19s83 -27.667 83 -45v-200h-77c-3.33301 62.667 -25 108.334 -65 137.001s-99.333 44 -178 46c-44.667 0 -80.334 -12.667 -107.001 -38s-40 -64.666 -40 -117.999
c0 -91.333 92 -181 276 -269c105.333 -47.333 176.833 -96.833 214.5 -148.5s56.5 -112.5 56.5 -182.5c0 -109.333 -33.667 -201 -101 -275c-34.667 -29.333 -71 -53 -109 -71c78 -40.667 134 -84.334 168 -131.001s51 -104.667 51 -174
c0 -109.333 -40 -202.166 -120 -278.499s-191.333 -114.833 -334 -115.5c-74 0 -138.5 6.5 -193.5 19.5s-82.5 27.833 -82.5 44.5v200h87c3.33301 -62 24.666 -107.167 63.999 -135.5s93.666 -43.5 162.999 -45.5z" />
    <glyph glyph-name="dieresis" unicode="&#xa8;" horiz-adv-x="1024" 
d="M244 1291l86 81c10 8.66699 20 13 30 13c8.66699 0 19 -5.33301 31 -16l84 -82c8 -10 12 -19.333 12 -28c0 -9.33301 -5 -19 -15 -29l-82 -85c-14.667 -12.667 -24.667 -19 -30 -19c-11.333 0 -21.333 4.33301 -30 13l-92 98c-6.66699 8 -10 16 -10 24
c0 10 5.33301 20 16 30zM609 1291l86 81c10 8.66699 20 13 30 13c8.66699 0 19 -5.33301 31 -16l84 -82c8 -10 12 -19.333 12 -28c0 -9.33301 -5 -19 -15 -29l-82 -85c-14.667 -12.667 -24.667 -19 -30 -19c-11.333 0 -21.333 4.33301 -30 13l-92 97
c-6.66699 8.66699 -10 17 -10 25c0 9.33301 5.33301 19.333 16 30z" />
    <glyph glyph-name="copyright" unicode="&#xa9;" horiz-adv-x="1674" 
d="M1150 465l68.001 -0.000976562v-102c0 -24.667 -26.5 -51.167 -79.5 -79.5s-135.5 -43.166 -247.5 -44.499c-106 0 -201.167 23.5 -285.5 70.5s-147 107.833 -188 182.5s-61.5 150.334 -61.5 227.001c0 76 20.833 151.667 62.5 227s105 136.166 190 182.499
s174.833 69.5 269.5 69.5c44 0 80.833 -4.5 110.5 -13.5s50.5 -13.5 62.5 -13.5c11.333 0 17 9.33301 17 28h63l75 -207h-64c-70 64 -121.5 103.667 -154.5 119s-74.833 23 -125.5 23c-50 -3.33301 -109.5 -37.5 -178.5 -102.5s-103.5 -164.5 -103.5 -298.5
c0 -110.667 30.833 -210.167 92.5 -298.5s134.5 -132.5 218.5 -132.5c78.667 0.666992 141.167 14.5 187.5 41.5s70.166 67.5 71.499 121.5zM840.001 1462c101.333 0 198.334 -20.167 291.001 -60.5s173.667 -96.833 243 -169.5c66 -68 116.833 -147.167 152.5 -237.5
s53.5 -182.5 53.5 -276.5c0 -94.667 -17.833 -186.5 -53.5 -275.5s-87.834 -168.833 -156.501 -239.5c-70 -73.333 -151 -129.5 -243 -168.5s-190 -58.5 -294 -58.5c-102 0 -198.333 19.833 -289 59.5s-171.334 96.167 -242.001 169.5c-68.667 70 -120.5 149 -155.5 237
s-52.5 180 -52.5 276c0 95.333 17.5 187.5 52.5 276.5s86.167 168.167 153.5 237.5c68 72.667 148.833 129.167 242.5 169.5s192.834 60.5 297.501 60.5zM361.002 1193c-57.333 -56 -104.169 -125.668 -140.502 -209.001s-54.5 -172 -54.5 -266
c0 -94.667 18.167 -183.167 54.5 -265.5s87.833 -155.5 154.5 -219.5c65.333 -60.667 136.833 -106.667 214.5 -138s159.167 -47 244.5 -47c86.667 0 169.334 15.5 248.001 46.5s150.334 76.5 215.001 136.5c66.667 64.667 118.5 138.667 155.5 222
s55.5 171.666 55.5 264.999c0 92.667 -18.5 181.334 -55.5 266.001s-87.5 158 -151.5 220c-64 60.667 -135.833 106.834 -215.5 138.501s-161.834 47.5 -246.501 47.5c-86.667 0 -170.167 -15.833 -250.5 -47.5s-156.166 -81.5 -227.499 -149.5z" />
    <glyph glyph-name="ordfeminine" unicode="&#xaa;" horiz-adv-x="648" 
 />
    <glyph glyph-name="guillemotleft" unicode="&#xab;" horiz-adv-x="987" 
d="M174 479l353 313h48v-47l-205 -266l205 -266v-47h-48zM485 479l353 313h48v-47l-205 -266l205 -266v-47h-48z" />
    <glyph glyph-name="logicalnot" unicode="&#xac;" 
d="M86 773h916v-503l-1 -1h-174v392h-741v112z" />
    <glyph glyph-name="registered" unicode="&#xae;" horiz-adv-x="1674" 
d="M738 1105l0.000976562 -393.001c0 -46 7.66699 -74.667 23 -86s31.666 -17 48.999 -17h3c18 0.666992 32.667 11 44 31s23 53 35 99c8.66699 36 13 73 13 111c0 10.667 -0.333008 21.667 -1 33c-2.66699 49.333 -12.5 94.333 -29.5 135s-33 65.334 -48 74.001
s-29.5 13 -43.5 13h-45zM977.001 573.999l63.001 -100c64 -94 120.333 -141 169 -141h22v-61h-367v61h20c9.33301 0 14 4.33301 14 13c0 20 -22.333 61.667 -67 125l-35 59c-20.667 0.666992 -40 6.33398 -58 17.001v-88c0 -84 17.333 -126 52 -126h21v-61h-368v61h20
c35.333 0 53 42 53 126v520c0 84 0.333008 126 1 126h-55v61h369c58 -0.666992 111.667 -18.334 161 -53.001c43.333 -28.667 75.166 -66 95.499 -112s30.5 -92.667 30.5 -140c0 -46 -10 -91.667 -30 -137s-57 -95.333 -111 -150zM840.002 1462
c101.333 0 198.334 -20.167 291.001 -60.5s173.667 -96.833 243 -169.5c66 -68 116.833 -147.167 152.5 -237.5s53.5 -182.5 53.5 -276.5c0 -94.667 -17.833 -186.5 -53.5 -275.5s-87.834 -168.833 -156.501 -239.5c-70 -73.333 -151 -129.5 -243 -168.5
s-190 -58.5 -294 -58.5c-102 0 -198.333 19.833 -289 59.5s-171.334 96.167 -242.001 169.5c-68.667 70 -120.5 149 -155.5 237s-52.5 180 -52.5 276c0 95.333 17.5 187.5 52.5 276.5s86.167 168.167 153.5 237.5c68 72.667 148.833 129.167 242.5 169.5
s192.834 60.5 297.501 60.5zM361.003 1193c-57.333 -56 -104.169 -125.668 -140.502 -209.001s-54.5 -172 -54.5 -266c0 -94.667 18.167 -183.167 54.5 -265.5s87.833 -155.5 154.5 -219.5c65.333 -60.667 136.833 -106.667 214.5 -138s159.167 -47 244.5 -47
c86.667 0 169.334 15.5 248.001 46.5s150.334 76.5 215.001 136.5c66.667 64.667 118.5 138.667 155.5 222s55.5 171.666 55.5 264.999c0 92.667 -18.5 181.334 -55.5 266.001s-87.5 158 -151.5 220c-64 60.667 -135.833 106.834 -215.5 138.501
s-161.834 47.5 -246.501 47.5c-86.667 0 -170.167 -15.833 -250.5 -47.5s-156.166 -81.5 -227.499 -149.5z" />
    <glyph glyph-name="macron" unicode="&#xaf;" horiz-adv-x="670" 
 />
    <glyph glyph-name="degree" unicode="&#xb0;" horiz-adv-x="722" 
d="M537 1139c0 54.667 -18.667 97.5 -56 128.5s-76.666 46.5 -117.999 46.5s-81 -15.5 -119 -46.5s-57 -73.833 -57 -128.5c0 -53.333 19 -95.833 57 -127.5s77.667 -47.5 119 -47.5s80.666 15.667 117.999 47s56 74 56 128zM362 1441
c89.333 0 161.999 -31.1689 217.999 -93.502s84 -132.166 84 -209.499c0 -76 -28.333 -145.167 -85 -207.5s-129.667 -93.5 -219 -93.5s-161.666 30.667 -216.999 92s-83 131 -83 209c0 78.667 28 148.834 84 210.501s128.667 92.5 218 92.5z" />
    <glyph glyph-name="plusminus" unicode="&#xb1;" horiz-adv-x="1014" 
 />
    <glyph glyph-name="uni00B2" unicode="&#xb2;" horiz-adv-x="1014" 
 />
    <glyph glyph-name="uni00B3" unicode="&#xb3;" horiz-adv-x="1014" 
 />
    <glyph glyph-name="acute" unicode="&#xb4;" horiz-adv-x="1024" 
d="M482 1366c25.333 24.667 47.668 42.499 67.001 53.499s41.666 16.5 66.999 16.5s44.5 -7.5 57.5 -22.5s19.5 -32.5 19.5 -52.5c0 -29.333 -7 -50.666 -21 -63.999s-32.667 -27.333 -56 -42l-309 -177h-85z" />
    <glyph glyph-name="mu" unicode="&#xb5;" horiz-adv-x="1180" 
 />
    <glyph glyph-name="paragraph" unicode="&#xb6;" 
d="M1010 1441v-82h-127v-1365h-118v1365h-130v-1365h-160v700c-107.333 4.66699 -197 43.834 -269 117.501s-108 158.5 -108 254.5c0 113.333 38.167 204.166 114.5 272.499s181.833 102.5 316.5 102.5h481z" />
    <glyph glyph-name="periodcentered" unicode="&#xb7;" horiz-adv-x="553" 
d="M147 717c0 36 12.667 66.667 38 92s56 38 92 38s66.667 -12.667 92 -38s38 -56 38 -92s-12.667 -66.667 -38 -92s-56 -38 -92 -38s-66.667 12.667 -92 38s-38 56 -38 92z" />
    <glyph glyph-name="periodcentered" unicode="&#x2219;" horiz-adv-x="553" 
d="M147 717c0 36 12.667 66.667 38 92s56 38 92 38s66.667 -12.667 92 -38s38 -56 38 -92s-12.667 -66.667 -38 -92s-56 -38 -92 -38s-66.667 12.667 -92 38s-38 56 -38 92z" />
    <glyph glyph-name="cedilla" unicode="&#xb8;" horiz-adv-x="1068" 
d="M355 -257c77.333 -47.333 135.334 -71 174.001 -71c36.667 0 62.667 5.66699 78 17s23 31.666 23 60.999c0 27.333 -13.667 46.333 -41 57c-20 7.33301 -51 11 -93 11c-16 0 -34 -0.666992 -54 -2l54 184h107l-35 -87c1.33301 0.666992 12.666 1.33398 33.999 2.00098
c65.333 0 115.833 -15 151.5 -45s53.5 -69.667 53.5 -119c0 -52 -21.333 -94.167 -64 -126.5s-101.667 -48.5 -177 -48.5c-76.667 0 -147 12.667 -211 38v129z" />
    <glyph glyph-name="uni00B9" unicode="&#xb9;" horiz-adv-x="1014" 
 />
    <glyph glyph-name="ordmasculine" unicode="&#xba;" horiz-adv-x="718" 
 />
    <glyph glyph-name="guillemotright" unicode="&#xbb;" horiz-adv-x="987" 
d="M460 166h-48v47l205 266l-205 266v47h48l353 -313zM149 166h-48v47l205 266l-205 266v47h48l353 -313z" />
    <glyph glyph-name="onequarter" unicode="&#xbc;" horiz-adv-x="1708" 
 />
    <glyph glyph-name="onehalf" unicode="&#xbd;" horiz-adv-x="1964" 
 />
    <glyph glyph-name="threequarters" unicode="&#xbe;" horiz-adv-x="1708" 
 />
    <glyph glyph-name="questiondown" unicode="&#xbf;" horiz-adv-x="748" 
 />
    <glyph glyph-name="Agrave" unicode="&#xc0;" horiz-adv-x="1540" 
 />
    <glyph glyph-name="Aacute" unicode="&#xc1;" horiz-adv-x="1540" 
 />
    <glyph glyph-name="Acircumflex" unicode="&#xc2;" horiz-adv-x="1540" 
 />
    <glyph glyph-name="Atilde" unicode="&#xc3;" horiz-adv-x="1540" 
 />
    <glyph glyph-name="Adieresis" unicode="&#xc4;" horiz-adv-x="1540" 
 />
    <glyph glyph-name="Aring" unicode="&#xc5;" horiz-adv-x="1540" 
 />
    <glyph glyph-name="AE" unicode="&#xc6;" horiz-adv-x="2118" 
 />
    <glyph glyph-name="Ccedilla" unicode="&#xc7;" horiz-adv-x="1399" 
 />
    <glyph glyph-name="Egrave" unicode="&#xc8;" horiz-adv-x="1151" 
 />
    <glyph glyph-name="Eacute" unicode="&#xc9;" horiz-adv-x="1151" 
 />
    <glyph glyph-name="Ecircumflex" unicode="&#xca;" horiz-adv-x="1151" 
 />
    <glyph glyph-name="Edieresis" unicode="&#xcb;" horiz-adv-x="1151" 
 />
    <glyph glyph-name="Igrave" unicode="&#xcc;" horiz-adv-x="657" 
 />
    <glyph glyph-name="Iacute" unicode="&#xcd;" horiz-adv-x="657" 
 />
    <glyph glyph-name="Icircumflex" unicode="&#xce;" horiz-adv-x="657" 
 />
    <glyph glyph-name="Idieresis" unicode="&#xcf;" horiz-adv-x="657" 
 />
    <glyph glyph-name="Eth" unicode="&#xd0;" horiz-adv-x="1518" 
 />
    <glyph glyph-name="Ntilde" unicode="&#xd1;" horiz-adv-x="1554" 
 />
    <glyph glyph-name="Ograve" unicode="&#xd2;" horiz-adv-x="1614" 
 />
    <glyph glyph-name="Oacute" unicode="&#xd3;" horiz-adv-x="1614" 
 />
    <glyph glyph-name="Ocircumflex" unicode="&#xd4;" horiz-adv-x="1614" 
 />
    <glyph glyph-name="Otilde" unicode="&#xd5;" horiz-adv-x="1614" 
 />
    <glyph glyph-name="Odieresis" unicode="&#xd6;" horiz-adv-x="1614" 
 />
    <glyph glyph-name="multiply" unicode="&#xd7;" 
d="M554 604l-270 -270l-113 113l270 270l-270 270l113 113l270 -270l270 270l113 -113l-270 -270l270 -270l-113 -113z" />
    <glyph glyph-name="Oslash" unicode="&#xd8;" horiz-adv-x="1614" 
 />
    <glyph glyph-name="Ugrave" unicode="&#xd9;" horiz-adv-x="1501" 
 />
    <glyph glyph-name="Uacute" unicode="&#xda;" horiz-adv-x="1501" 
 />
    <glyph glyph-name="Ucircumflex" unicode="&#xdb;" horiz-adv-x="1501" 
 />
    <glyph glyph-name="Udieresis" unicode="&#xdc;" horiz-adv-x="1501" 
 />
    <glyph glyph-name="Yacute" unicode="&#xdd;" horiz-adv-x="1233" 
 />
    <glyph glyph-name="Thorn" unicode="&#xde;" horiz-adv-x="1120" 
 />
    <glyph glyph-name="germandbls" unicode="&#xdf;" horiz-adv-x="1251" 
 />
    <glyph glyph-name="agrave" unicode="&#xe0;" horiz-adv-x="922" 
 />
    <glyph glyph-name="aacute" unicode="&#xe1;" horiz-adv-x="922" 
 />
    <glyph glyph-name="acircumflex" unicode="&#xe2;" horiz-adv-x="922" 
 />
    <glyph glyph-name="atilde" unicode="&#xe3;" horiz-adv-x="922" 
 />
    <glyph glyph-name="adieresis" unicode="&#xe4;" horiz-adv-x="922" 
 />
    <glyph glyph-name="aring" unicode="&#xe5;" horiz-adv-x="922" 
 />
    <glyph glyph-name="ae" unicode="&#xe6;" horiz-adv-x="1454" 
 />
    <glyph glyph-name="ccedilla" unicode="&#xe7;" horiz-adv-x="905" 
 />
    <glyph glyph-name="egrave" unicode="&#xe8;" horiz-adv-x="909" 
 />
    <glyph glyph-name="eacute" unicode="&#xe9;" horiz-adv-x="909" 
 />
    <glyph glyph-name="ecircumflex" unicode="&#xea;" horiz-adv-x="909" 
 />
    <glyph glyph-name="edieresis" unicode="&#xeb;" horiz-adv-x="909" 
 />
    <glyph glyph-name="igrave" unicode="&#xec;" horiz-adv-x="514" 
 />
    <glyph glyph-name="iacute" unicode="&#xed;" horiz-adv-x="514" 
 />
    <glyph glyph-name="icircumflex" unicode="&#xee;" horiz-adv-x="514" 
 />
    <glyph glyph-name="idieresis" unicode="&#xef;" horiz-adv-x="514" 
 />
    <glyph glyph-name="eth" unicode="&#xf0;" horiz-adv-x="1139" 
 />
    <glyph glyph-name="ntilde" unicode="&#xf1;" 
 />
    <glyph glyph-name="ograve" unicode="&#xf2;" horiz-adv-x="1010" 
 />
    <glyph glyph-name="oacute" unicode="&#xf3;" horiz-adv-x="1010" 
 />
    <glyph glyph-name="ocircumflex" unicode="&#xf4;" horiz-adv-x="1010" 
 />
    <glyph glyph-name="otilde" unicode="&#xf5;" horiz-adv-x="1010" 
 />
    <glyph glyph-name="odieresis" unicode="&#xf6;" horiz-adv-x="1010" 
 />
    <glyph glyph-name="divide" unicode="&#xf7;" 
d="M80 637v160h948v-160h-948zM428 404l95.001 88.999c12 10 23.333 15 34 15c9.33301 0 20.666 -5.66699 33.999 -17l93 -91c8.66699 -11.333 13 -21.666 13 -30.999c0 -10 -5.33301 -20.667 -16 -32l-91 -94c-16 -14 -27 -21 -33 -21c-12.667 0 -24 5 -34 15l-101 107
c-7.33301 9.33301 -11 18.333 -11 27c0 10.667 5.66699 21.667 17 33zM428.001 1090l95.001 88.999c12 10 23.333 15 34 15c9.33301 0 20.666 -5.66699 33.999 -17l93 -91c8.66699 -11.333 13 -21.666 13 -30.999c0 -10 -5.33301 -20.667 -16 -32l-91 -94
c-16 -14 -27 -21 -33 -21c-12.667 0 -24 5 -34 15l-101 107c-7.33301 9.33301 -11 18.333 -11 27c0 10.667 5.66699 21.667 17 33z" />
    <glyph glyph-name="oslash" unicode="&#xf8;" horiz-adv-x="1010" 
 />
    <glyph glyph-name="ugrave" unicode="&#xf9;" horiz-adv-x="1059" 
 />
    <glyph glyph-name="uacute" unicode="&#xfa;" horiz-adv-x="1059" 
 />
    <glyph glyph-name="ucircumflex" unicode="&#xfb;" horiz-adv-x="1059" 
 />
    <glyph glyph-name="udieresis" unicode="&#xfc;" horiz-adv-x="1059" 
 />
    <glyph glyph-name="yacute" unicode="&#xfd;" horiz-adv-x="868" 
 />
    <glyph glyph-name="thorn" unicode="&#xfe;" horiz-adv-x="1010" 
 />
    <glyph glyph-name="ydieresis" unicode="&#xff;" horiz-adv-x="868" 
 />
    <glyph glyph-name="dotlessi" unicode="&#x131;" horiz-adv-x="610" 
d="M434 226c0 -110 17.333 -165.001 52 -165.001h94v-61h-538v61h94c34.667 0 52 55 52 165v427c0 46.667 -21 70 -63 70h-96v44c148.667 46.667 243.667 110.334 285 191.001h120v-732z" />
    <glyph glyph-name="circumflex" unicode="&#x2c6;" horiz-adv-x="902" 
d="M111 1079l245 358h149l245 -358h-99l-220 196l-221 -196h-99z" />
    <glyph glyph-name="caron" unicode="&#x2c7;" horiz-adv-x="1081" 
d="M221 1437h99l221 -193l220 193h99l-245 -358h-149z" />
    <glyph glyph-name="uni02C9" unicode="&#x2c9;" horiz-adv-x="1068" 
d="M254 1185v145h560v-145h-560z" />
    <glyph glyph-name="breve" unicode="&#x2d8;" horiz-adv-x="1071" 
d="M219 1369l93.9971 -0.000976562c12.667 -53.333 36.167 -90.166 70.5 -110.499s85.166 -30.5 152.499 -30.5c66.667 0 116.834 10 150.501 30s56.834 57 69.501 111h94c-14.667 -96 -48.167 -168.333 -100.5 -217s-123.5 -73 -213.5 -73
c-89.333 0 -160.666 24.5 -213.999 73.5s-87.666 121.167 -102.999 216.5z" />
    <glyph glyph-name="dotaccent" unicode="&#x2d9;" horiz-adv-x="1068" 
d="M434 1292l68.9971 71.999c6 5.33301 13 9.83301 21 13.5s16.667 5.5 26 5.5c8.66699 0 16.834 -1.83301 24.501 -5.5s14.5 -8.5 20.5 -14.5l70 -75c4.66699 -3.33301 7.83398 -7.33301 9.50098 -12s2.5 -9.66699 2.5 -15c-0.666992 -6 -1.66699 -11.167 -3 -15.5
s-4.66602 -9.16602 -9.99902 -14.499l-71 -76c-9.33301 -8.66699 -16.833 -14.667 -22.5 -18s-12.5 -5 -20.5 -5c-10.667 0 -20.167 1.66699 -28.5 5s-14.833 8 -19.5 14l-74 86c-4 4 -6.66699 8 -8 12s-2 8.66699 -2 14c0 4 1.16699 8.5 3.5 13.5s6.5 10.167 12.5 15.5z
" />
    <glyph glyph-name="ring" unicode="&#x2da;" horiz-adv-x="1068" 
d="M435 1274c0 -30 10.167 -54 30.5 -72s42.833 -27 67.5 -27s47.167 9 67.5 27s30.5 42 30.5 72c0 28.667 -10.333 52 -31 70s-43 27 -67 27s-46.333 -9 -67 -27s-31 -41.333 -31 -70zM335 1274c0 52 18.5 97.333 55.5 136s84.5 58 142.5 58
c59.333 0 107.666 -19.5 144.999 -58.5s56 -84.167 56 -135.5c0 -52.667 -18.667 -98.334 -56 -137.001s-85.666 -58 -144.999 -58c-58 0 -105.5 19.333 -142.5 58s-55.5 84.334 -55.5 137.001z" />
    <glyph glyph-name="ogonek" unicode="&#x2db;" horiz-adv-x="1069" 
d="M697 0c-57.333 -43.333 -97.666 -81.333 -120.999 -114s-35 -67.334 -35 -104.001c0 -31.333 7.5 -54.666 22.5 -69.999s33.5 -23 55.5 -23c49.333 0 95.666 21.333 138.999 64l31 -25c-26 -45.333 -59 -80.333 -99 -105s-84.667 -37 -134 -37
c-54 0 -97.5 13.167 -130.5 39.5s-49.5 58.5 -49.5 96.5c0 50.667 19.5 101.167 58.5 151.5s95.833 92.5 170.5 126.5h92z" />
    <glyph glyph-name="tilde" unicode="&#x2dc;" horiz-adv-x="1072" 
d="M856 1392c-14.667 -75.333 -39.667 -131.667 -75 -169s-83.333 -56 -144 -56c-46.667 0 -93.167 7.83301 -139.5 23.5s-86.833 23.5 -121.5 23.5c-18 0 -32.667 -5.33301 -44 -16s-21.666 -36 -30.999 -76h-67c14 78 38.833 136 74.5 174s84.5 57 146.5 57
c41.333 -0.666992 85.333 -8.66699 132 -24s87.334 -23 122.001 -23c19.333 0 34.666 5.33301 45.999 16s22.666 34 33.999 70h67z" />
    <glyph glyph-name="hungarumlaut" unicode="&#x2dd;" horiz-adv-x="1073" 
d="M234 1079l149.001 270.999c16.667 28.667 33.667 50.334 51 65.001s38.333 22 63 22c27.333 0 49.166 -7.83301 65.499 -23.5s24.5 -32.5 24.5 -50.5c0 -10 -3.66699 -21.167 -11 -33.5s-18 -25.833 -32 -40.5l-212 -210h-98zM519.001 1079l149.001 270.999
c16.667 28.667 33.667 50.334 51 65.001s38.333 22 63 22c27.333 0 49.166 -7.83301 65.499 -23.5s24.5 -32.5 24.5 -50.5c0 -10 -3.66699 -21.167 -11 -33.5s-18 -25.833 -32 -40.5l-212 -210h-98z" />
    <glyph glyph-name="endash" unicode="&#x2013;" 
d="M56 399v160h996v-160h-996z" />
    <glyph glyph-name="emdash" unicode="&#x2014;" horiz-adv-x="2048" 
d="M0 399v160h2048v-160h-2048z" />
    <glyph glyph-name="quoteleft" unicode="&#x2018;" horiz-adv-x="625" 
d="M401 1006c-50 0 -90.999 23.501 -122.999 70.501s-48 99.167 -48 156.5c0 72 24.667 149 74 231s110.666 123 183.999 123v-55c-48.667 -28.667 -77.667 -91.334 -87 -188.001c0 -76.667 43 -129 129 -157v-46z" />
    <glyph glyph-name="quoteright" unicode="&#x2019;" horiz-adv-x="625" 
d="M224 1587c50 0 90.999 -23.501 122.999 -70.501s48 -99.167 48 -156.5c0 -72 -24.667 -149 -74 -231s-110.666 -123 -183.999 -123v55c48.667 28.667 77.667 91.334 87 188.001c0 76.667 -43 129 -129 157v46z" />
    <glyph glyph-name="quotesinglbase" unicode="&#x201a;" horiz-adv-x="625" 
d="M348 268c50 0 90.999 -23.501 122.999 -70.501s48 -99.167 48 -156.5c0 -72 -24.667 -149 -74 -231s-110.666 -123 -183.999 -123v55c48.667 28.667 77.667 91.334 87 188.001c0 76.667 -43 129 -129 157v46z" />
    <glyph glyph-name="quotedblleft" unicode="&#x201c;" horiz-adv-x="985" 
d="M401 1006c-50 0 -90.999 23.501 -122.999 70.501s-48 99.167 -48 156.5c0 72 24.667 149 74 231s110.666 123 183.999 123v-55c-48.667 -28.667 -77.667 -91.334 -87 -188.001c0 -76.667 43 -129 129 -157v-46zM761.001 1006c-50 0 -90.999 23.501 -122.999 70.501
s-48 99.167 -48 156.5c0 72 24.667 149 74 231s110.666 123 183.999 123v-55c-48.667 -28.667 -77.667 -91.334 -87 -188.001c0 -76.667 43 -129 129 -157v-46z" />
    <glyph glyph-name="quotedblright" unicode="&#x201d;" horiz-adv-x="985" 
d="M584 1587c50 0 90.999 -23.501 122.999 -70.501s48 -99.167 48 -156.5c0 -72 -24.667 -149 -74 -231s-110.666 -123 -183.999 -123v55c48.667 28.667 77.667 91.334 87 188.001c0 76.667 -43 129 -129 157v46zM223.999 1587c50 0 90.999 -23.501 122.999 -70.501
s48 -99.167 48 -156.5c0 -72 -24.667 -149 -74 -231s-110.666 -123 -183.999 -123v55c48.667 28.667 77.667 91.334 87 188.001c0 76.667 -43 129 -129 157v46z" />
    <glyph glyph-name="quotedblbase" unicode="&#x201e;" horiz-adv-x="985" 
d="M708 267c50 0 90.999 -23.501 122.999 -70.501s48 -99.167 48 -156.5c0 -71.333 -24.667 -148 -74 -230s-110.666 -123 -183.999 -123v55c48.667 28.667 77.667 91.334 87 188.001c0 76 -43 128 -129 156v46zM347.999 267.999c50 0 90.999 -23.501 122.999 -70.501
s48 -99.167 48 -156.5c0 -72 -24.667 -149 -74 -231s-110.666 -123 -183.999 -123v55c48.667 28.667 77.667 91.334 87 188.001c0 76.667 -43 129 -129 157v46z" />
    <glyph glyph-name="dagger" unicode="&#x2020;" 
d="M520 -268c-6.66699 246 -21.5039 433 -44.5039 561s-47.167 244 -72.5 348c46 44.667 85.333 142.334 118 293.001c-88 0 -155.667 -17.833 -203 -53.5s-85.666 -53.5 -114.999 -53.5c-36.667 0 -67.667 11.833 -93 35.5s-38 57.834 -38 102.501
c0 46 12.333 80.667 37 104s55.334 35 92.001 35c34 0 74.667 -17.833 122 -53.5s113.333 -53.5 198 -53.5c-18.667 87.333 -41.167 155.166 -67.5 203.499s-39.5 87.166 -39.5 116.499c0 36.667 11.833 67.667 35.5 93s57.5 38 101.5 38s77.833 -12.667 101.5 -38
s35.5 -56.333 35.5 -93c0 -29.333 -13.167 -68.166 -39.5 -116.499s-48.833 -116.166 -67.5 -203.499c84.667 0 150.667 17.833 198 53.5s88 53.5 122 53.5c36.667 0 67.334 -11.667 92.001 -35s37 -58 37 -104c0 -44.667 -12.667 -78.834 -38 -102.501
s-56.333 -35.5 -93 -35.5c-29.333 0 -67.666 17.833 -114.999 53.5s-115 53.5 -203 53.5c32.667 -150.667 72 -248.334 118 -293.001c-25.333 -104 -49.5 -220 -72.5 -348s-37.833 -314.667 -44.5 -560z" />
    <glyph glyph-name="daggerdbl" unicode="&#x2021;" 
d="M581 246c88 0 155.667 17.833 203 53.5s85.666 53.5 114.999 53.5c36.667 0 67.667 -11.833 93 -35.5s38 -57.834 38 -102.501c0 -46 -12.333 -80.667 -37 -104s-55.334 -35 -92.001 -35c-34 0 -74.667 17.833 -122 53.5s-113.333 53.5 -198 53.5
c18.667 -87.333 41.167 -155.166 67.5 -203.499s39.5 -87.166 39.5 -116.499c0 -36.667 -11.833 -67.667 -35.5 -93s-57.5 -38 -101.5 -38s-77.833 12.667 -101.5 38s-35.5 56.333 -35.5 93c0 29.333 13.167 68.166 39.5 116.499s48.833 116.166 67.5 203.499
c-84.667 0 -150.667 -17.833 -198 -53.5s-88 -53.5 -122 -53.5c-36.667 0 -67.334 11.667 -92.001 35s-37 58 -37 104c0 44.667 12.667 78.834 38 102.501s56.333 35.5 93 35.5c29.333 0 67.666 -17.833 114.999 -53.5s115 -53.5 203 -53.5
c-32.667 150.667 -72 265.334 -118 344.001c46 78.667 85.333 193.334 118 344.001c-88 0 -155.667 -17.833 -203 -53.5s-85.666 -53.5 -114.999 -53.5c-36.667 0 -67.667 11.833 -93 35.5s-38 57.834 -38 102.501c0 46 12.333 80.667 37 104s55.334 35 92.001 35
c34 0 74.667 -17.833 122 -53.5s113.333 -53.5 198 -53.5c-18.667 87.333 -41.167 155.166 -67.5 203.499s-39.5 87.166 -39.5 116.499c0 36.667 11.833 67.667 35.5 93s57.5 38 101.5 38s77.833 -12.667 101.5 -38s35.5 -56.333 35.5 -93
c0 -29.333 -13.167 -68.166 -39.5 -116.499s-48.833 -116.166 -67.5 -203.499c84.667 0 150.667 17.833 198 53.5s88 53.5 122 53.5c36.667 0 67.334 -11.667 92.001 -35s37 -58 37 -104c0 -44.667 -12.667 -78.834 -38 -102.501s-56.333 -35.5 -93 -35.5
c-29.333 0 -67.666 17.833 -114.999 53.5s-115 53.5 -203 53.5c32.667 -150.667 72 -265.334 118 -344.001c-46 -78.667 -85.333 -193.334 -118 -344.001z" />
    <glyph glyph-name="bullet" unicode="&#x2022;" 
d="M220 718c0 86 31.168 163.001 93.501 231.001s142.833 102 241.5 102c98 0 178 -34.333 240 -103s93 -145.334 93 -230.001s-31.333 -161.667 -94 -231s-143 -104 -241 -104c-98.667 0 -178.834 34.5 -240.501 103.5s-92.5 146.167 -92.5 231.5z" />
    <glyph glyph-name="ellipsis" unicode="&#x2026;" horiz-adv-x="2048" 
d="M274 177l95.001 88.999c12 10 23.333 15 34 15c9.33301 0 20.666 -5.66699 33.999 -17l93 -91c8.66699 -11.333 13 -21.666 13 -30.999c0 -10 -5.33301 -20.667 -16 -32l-91 -94c-16 -14 -27 -21 -33 -21c-12.667 0 -24 5 -34 15l-101 107
c-7.33301 9.33301 -11 18.333 -11 27c0 10.667 5.66699 21.667 17 33zM956.001 176.999l95.001 88.999c12 10 23.333 15 34 15c9.33301 0 20.666 -5.66699 33.999 -17l93 -91c8.66699 -11.333 13 -21.666 13 -30.999c0 -10 -5.33301 -20.667 -16 -32l-91 -94
c-16 -14 -27 -21 -33 -21c-12.667 0 -24 5 -34 15l-101 107c-7.33301 9.33301 -11 18.333 -11 27c0 10.667 5.66699 21.667 17 33zM1640 176.998l95.001 88.999c12 10 23.333 15 34 15c9.33301 0 20.666 -5.66699 33.999 -17l93 -91c8.66699 -11.333 13 -21.666 13 -30.999
c0 -10 -5.33301 -20.667 -16 -32l-91 -94c-16 -14 -27 -21 -33 -21c-12.667 0 -24 5 -34 15l-101 107c-7.33301 9.33301 -11 18.333 -11 27c0 10.667 5.66699 21.667 17 33z" />
    <glyph glyph-name="guilsinglleft" unicode="&#x2039;" horiz-adv-x="676" 
d="M174 479l353 313h48v-47l-205 -266l205 -266v-47h-48z" />
    <glyph glyph-name="guilsinglright" unicode="&#x203a;" horiz-adv-x="676" 
d="M149 166h-48v47l205 266l-205 266v47h48l353 -313z" />
    <glyph glyph-name="fraction" unicode="&#x2044;" horiz-adv-x="342" 
d="M-192 -20l640 1474h84l-638 -1474h-86z" />
    <glyph glyph-name="fraction" unicode="&#x2215;" horiz-adv-x="342" 
d="M-192 -20l640 1474h84l-638 -1474h-86z" />
    <glyph glyph-name="franc" unicode="&#x20a3;" 
d="M187 454l-0.000976562 689c0 148 -36.333 222 -109 222h-48v69h943l111 -248h-112c-39.333 119.333 -83.666 179 -132.999 179h-254c-72 0 -108 -74 -108 -222v-367h357c37.333 0 56 17.333 56 52v68h98v-358h-98v71c0 33.333 -18.667 50 -56 50h-357v-205h186v-120h-186
v-43c0 -148 36 -222 108 -222h91v-69h-646v69h48c72.667 0 109 74 109 222v43h-157v120h157z" />
    <glyph glyph-name="lira" unicode="&#x20a4;" 
d="M644 1368h-4.00098c-73.333 0 -131 -31 -173 -93c-38 -55.333 -57 -131.333 -57 -228c0 -14 0.333008 -28 1 -42c0 -50 8.66699 -107.667 26 -173h373v-80h-348c9.33301 -28.667 20.333 -58.667 33 -90h349v-80h-317c10.667 -36 16 -72.667 16 -110
c0 -113.333 -48.667 -234 -146 -362h393c62.667 0 114 44.333 154 133h92l-111 -253h-801l1 54c118 150.667 177 291.334 177 422.001c0 39.333 -5.33301 78 -16 116h-180v80h149l-1 1h1c-13.333 31.333 -25 61 -35 89h-148v80h120c-19.333 63.333 -29 114.666 -29 153.999
c0 146.667 43.833 263 131.5 349s201.834 129 342.501 129h7c66 0 134.333 -5.33301 205 -16c88 -11.333 132 -25 132 -41v-193h-69c-2 34 -29 68.333 -81 103c-52 34 -114.333 51 -187 51z" />
    <glyph glyph-name="peseta" unicode="&#x20a7;" horiz-adv-x="2216" 
d="M510 1365l0.000976562 -647.001c0 -69.333 20.667 -121 62 -155c33.333 -28 63.333 -42 90 -42h5c18 2.66699 42.333 22.834 73 60.501s54.667 94.167 72 169.5c14 60.667 21 123 21 187c0 15.333 -0.333008 31 -1 47c-4.66699 81.333 -19.834 155.833 -45.501 223.5
s-53.167 110.667 -82.5 129s-55 27.5 -77 27.5h-117zM1557 -5.00098c-29.333 -6 -62.001 -9 -98.001 -9c-104.667 0 -177.5 21.333 -218.5 64s-61.5 100 -61.5 172v678h-102c-5.33301 -59.333 -19.333 -117.666 -42 -174.999c-30 -73.333 -77 -134.5 -141 -183.5
s-135.667 -73.5 -215 -73.5c-82.667 0 -139 22.667 -169 68v-245c0 -148 29.667 -222 89 -222h108v-69h-619v69h90c47.333 0 71 74 71 222v852c0 148 -23.667 222 -71 222h-90v69h597c74.667 0 143.667 -24 207 -72s110.333 -109 141 -183
c29.333 -72 44.666 -145.333 45.999 -220h31c112 0 181.333 116.333 208 349h107v-349h276c36.667 11.333 78.334 17.333 125.001 18h2c54.667 0 111.834 -5.5 171.501 -16.5s89.5 -22.833 89.5 -35.5v-162h-67c-16.667 53.333 -40.167 91.166 -70.5 113.499
s-74.166 33.5 -131.499 33.5c-28 0 -53.833 -9.33301 -77.5 -28s-35.5 -51 -35.5 -97c0 -76 74 -148.667 222 -218c88.667 -39.333 148.5 -79.833 179.5 -121.5s46.5 -89.5 46.5 -143.5c0 -85.333 -33.833 -159 -101.5 -221s-153.167 -93 -256.5 -93
c-34.667 0 -74.334 5 -119.001 15c-24.667 -2 -42 -20 -52 -54l-52 1zM1425 897.999l-0.000976562 -676.001c0 -60 10.667 -100 32 -120c15.333 -15.333 39 -24.666 71 -27.999l-74 198h89c54.667 -144 137.334 -216 248.001 -216c46 0 85.667 14.667 119 44
s50 74.333 50 135c0 72 -82.333 147 -247 225c-74 38 -125.667 76.833 -155 116.5s-44 84.167 -44 133.5c0 73.333 26.667 136 80 188h-169z" />
    <glyph glyph-name="Euro" unicode="&#x20ac;" 
d="M90 853c12.667 72.667 35.333 145.001 68 217.001c53.333 117.333 132.666 210.666 237.999 279.999s216.333 104 333 104c62.667 0 110.167 -7 142.5 -21s51.5 -21 57.5 -21c14 0 21 14.667 21 44h84l89 -298h-89c-37.333 88.667 -88 148.167 -152 178.5
s-129.667 45.5 -197 45.5c-100 -6 -185.667 -73.333 -257 -202c-52.667 -94.667 -86 -203.667 -100 -327h571l-17 -80h-561c-0.666992 -20 -1 -40 -1 -60h546l-17 -80h-526c12 -138.667 55.667 -266.334 131 -383.001c88.667 -139.333 185.334 -209 290.001 -209h2
c86.667 1.33301 160.5 25.333 221.5 72s92.167 108.334 93.5 185.001h81v-146c0 -37.333 -31.5 -76.333 -94.5 -117s-163.5 -62 -301.5 -64c-130.667 0 -248.5 35.167 -353.5 105.5s-183.5 163.5 -235.5 279.5c-41.333 90.667 -66.333 183 -75 277h-126l17 80h105
c0 20 0.666992 40 2 60h-90l17 80h83z" />
    <glyph glyph-name="afii61352" unicode="&#x2116;" horiz-adv-x="2271" 
 />
    <glyph glyph-name="trademark" unicode="&#x2122;" horiz-adv-x="1497" 
 />
    <glyph glyph-name="partialdiff" unicode="&#x2202;" 
d="M336 458c9.33301 -82.667 30.167 -159.836 62.5 -231.503s68.166 -123.167 107.499 -154.5c34 -27.333 62.667 -41 86 -41h6c26 2 55.667 21.667 89 59s58 94.333 74 171c10.667 50 16 101.333 16 154c0 28.667 -1.66699 57.334 -5 86.001
c-9.33301 82.667 -30.333 160.334 -63 233.001s-68.667 124.334 -108 155.001c-35.333 26.667 -65.333 40 -90 40h-4c-22.667 -1.33301 -50.667 -20.5 -84 -57.5s-58.666 -94.167 -75.999 -171.5c-10.667 -57.333 -16 -111 -16 -161c0 -28.667 1.66699 -55.667 5 -81z
M1036 479.998c0 -82.667 -18.6699 -162.999 -56.0029 -240.999s-94.833 -141.333 -172.5 -190s-162.167 -73 -253.5 -73s-175.833 24.333 -253.5 73s-135.167 112 -172.5 190s-56 158.333 -56 241s19.167 163.167 57.5 241.5s96.5 141.666 174.5 189.999
s161.333 72.5 250 72.5c104.667 0 171.334 -19.333 200.001 -58c-48 123.333 -118.667 228.833 -212 316.5s-204.666 136.5 -333.999 146.5v70c264.667 0 468.834 -96.667 612.501 -290s215.5 -423 215.5 -689z" />
    <glyph glyph-name="Delta" unicode="&#x2206;" horiz-adv-x="1235" 
d="M599 1470l577 -1470h-1170zM153 102h728l-359 915z" />
    <glyph glyph-name="product" unicode="&#x220f;" horiz-adv-x="1673" 
d="M644 1365c-65.333 0 -98 -74.333 -98 -223v-1268c0 -148.667 33 -223 99 -223h100v-71h-648v71h100c66 0 99 74.333 99 223v1268c0 148.667 -33 223 -99 223h-100v69h1507v-69h-101c-65.333 0 -98 -74.333 -98 -223v-1268c0 -148.667 33 -223 99 -223h100v-70h-648v70
h100c66 0 99 74.333 99 223v1268c0 148.667 -33 223 -99 223h-412z" />
    <glyph glyph-name="summation" unicode="&#x2211;" horiz-adv-x="1285" 
d="M1061 639l-767 -990h686c62.667 0 113.667 43.667 153 131h93l-111 -200h-1003v69c50 0 88.667 17.667 116 53l613 790l-613 818c-27.333 36 -66 54 -116 54v70h1003l111 -201h-93c-39.333 87.333 -90.333 131 -153 131h-466z" />
    <glyph glyph-name="minus" unicode="&#x2212;" 
d="M80 637v160h948v-160h-948z" />
    <glyph glyph-name="radical" unicode="&#x221a;" 
d="M347 -26l-185 431l142 48l77 -171l648 1377h166v-80h-93z" />
    <glyph glyph-name="infinity" unicode="&#x221e;" 
d="M469 758c-7.33301 44 -32.334 75.668 -75.001 95.001c-32.667 14.667 -63.667 22 -93 22c-8.66699 0 -17.334 -0.666992 -26.001 -2c-37.333 -7.33301 -71.833 -22.333 -103.5 -45s-53.834 -47.334 -66.501 -74.001c-12 -24 -18 -45 -18 -63v-6
c0.666992 -20 8.83398 -41.333 24.501 -64s40.834 -39.667 75.501 -51c22.667 -8 46 -12 70 -12c12.667 0 25.334 1 38.001 3c36.667 8 70 22.5 100 43.5s54.667 72.167 74 153.5zM514.999 683.001c5.33301 -40 37.334 -78.668 96.001 -116.001c48 -30.667 93 -46 135 -46
c8.66699 0 17.334 0.666992 26.001 2c47.333 8.66699 91.166 26.334 131.499 53.001s69.5 57 87.5 91c16.667 31.333 25 59.333 25 84v5c-1.33301 26.667 -12.833 54.167 -34.5 82.5s-54.167 49.5 -97.5 63.5c-28.667 8.66699 -58 13 -88 13c-16 0 -32 -1.33301 -48 -4
c-51.333 -6.66699 -98.333 -27 -141 -61s-73.334 -89.667 -92.001 -167zM489 862c4.66699 15.333 12 35.999 22 61.999c26.667 63.333 63 111.5 109 144.5s92.333 49.5 139 49.5c47.333 0 93.666 -16.167 138.999 -48.5s82 -80.666 110 -144.999s42 -133.5 42 -207.5
c0 -73.333 -14 -142.333 -42 -207s-64.667 -113.167 -110 -145.5s-91.666 -48.5 -138.999 -48.5c-46.667 0 -93 16.333 -139 49s-82.333 81 -109 145c-10 26 -17.333 47 -22 63c-1.33301 -7.33301 -5.33301 -18.333 -12 -33c-21.333 -54 -49.666 -94.667 -84.999 -122
s-71.333 -41 -108 -41c-35.333 0 -71.166 13.833 -107.499 41.5s-65.166 69 -86.499 124s-32 113.167 -32 174.5c0 60.667 10.667 118.667 32 174s50.166 96.833 86.499 124.5s72.166 41.5 107.499 41.5c36.667 0 72.667 -13.667 108 -41s63.666 -67.333 84.999 -120
c7.33301 -16.667 11.333 -28 12 -34z" />
    <glyph glyph-name="integral" unicode="&#x222b;" horiz-adv-x="678" 
d="M45 -286c-64.667 0 -97.002 11.667 -97.002 35v165h71c0.666992 -36.667 9 -60.167 25 -70.5s41 -15.5 75 -15.5c44.667 0 74.167 52.333 88.5 157s24.166 208.667 29.499 312l70 733l8 62c17.333 156 63.333 300 138 432s164.334 198 269.001 198
c65.333 0 98 -11.667 98 -35v-165h-72c-0.666992 36.667 -9.16699 60.167 -25.5 70.5s-41.166 15.5 -74.499 15.5c-37.333 0 -67.166 -50.167 -89.499 -150.5s-34.833 -220.833 -37.5 -361.5l-73 -766c-13.333 -150.667 -58 -291 -134 -421s-165.667 -195 -269 -195z" />
    <glyph glyph-name="approxequal" unicode="&#x2248;" 
d="M998 1103v-232.999c-42 -48.667 -83.667 -81.834 -125 -99.501s-82.333 -26.5 -123 -26.5c-42 0 -108.667 16.167 -200 48.5s-155.666 48.5 -192.999 48.5c-31.333 0 -64.833 -8.83301 -100.5 -26.5s-84.5 -62.167 -146.5 -133.5v233
c42.667 48.667 84.667 82.167 126 100.5s81.666 27.5 120.999 27.5c44.667 0 112.667 -16.5 204 -49.5s154.333 -49.5 189 -49.5c32 0 65.833 8.83301 101.5 26.5s84.5 62.167 146.5 133.5zM998 755.001v-232.999c-42 -48.667 -83.667 -81.834 -125 -99.501
s-82.333 -26.5 -123 -26.5c-42 0 -108.667 16.167 -200 48.5s-155.666 48.5 -192.999 48.5c-31.333 0 -64.833 -8.83301 -100.5 -26.5s-84.5 -62.167 -146.5 -133.5v233c42.667 48.667 84.667 82.167 126 100.5s81.666 27.5 120.999 27.5c44.667 0 112.667 -16.5 204 -49.5
s154.333 -49.5 189 -49.5c32 0 65.833 8.83301 101.5 26.5s84.5 62.167 146.5 133.5z" />
    <glyph glyph-name="lessequal" unicode="&#x2264;" 
d="M1028 1066l-637 -350l637 -347v-206l-948 521v65l948 524v-207zM80 1v160h948v-160h-948z" />
    <glyph glyph-name="greaterequal" unicode="&#x2265;" 
d="M80 1272l948 -524v-65l-948 -521v206l637 347l-637 350v207zM80 1v160h948v-160h-948z" />
    <glyph glyph-name="uniF001" unicode="&#xf001;" horiz-adv-x="1073" 
 />
    <glyph glyph-name="uniF001" unicode="&#xfb01;" horiz-adv-x="1073" 
 />
    <glyph glyph-name="uniF002" unicode="&#xf002;" horiz-adv-x="1081" 
 />
    <glyph glyph-name="uniF002" unicode="&#xfb02;" horiz-adv-x="1081" 
 />
    <glyph glyph-name=".null" horiz-adv-x="0" 
 />
    <glyph glyph-name="nonmarkingreturn" horiz-adv-x="508" 
 />
  </font>
</defs>
</svg>
