<?xml version="1.0" standalone="no"?>
<!DOCTYPE svg PUBLIC "-//W3C//DTD SVG 1.1//EN" "http://www.w3.org/Graphics/SVG/1.1/DTD/svg11.dtd" >
<svg>
<metadata>
Created by FontForge 20090914 at Sun Jul 24 13:12:12 2022
 By www-data
Typeface &#194;&#169; The Monotype Corporation plc. Data &#194;&#169; The Monotype Corporation plc/Type Solutions Inc. 1990-1992. All Rights Reserved
</metadata>
<defs>
<font id="CourierCyrPS-Bold" horiz-adv-x="1229" >
  <font-face 
    font-family="Courier New Cyr"
    font-weight="700"
    font-stretch="normal"
    units-per-em="2048"
    panose-1="2 7 6 9 2 2 5 2 4 4"
    ascent="1638"
    descent="-410"
    x-height="908"
    cap-height="1212"
    bbox="-85 -615.001 1318 1684"
    underline-thickness="205"
    underline-position="-375"
    unicode-range="U+0020-U+F000"
  />
<missing-glyph 
d="M103 0v1280h1024v-1280h-1024zM135 32h960v1216h-960v-1216z" />
    <glyph glyph-name=".notdef" unicode="&#xf000;" 
d="M103 0v1280h1024v-1280h-1024zM135 32h960v1216h-960v-1216z" />
    <glyph glyph-name="space" unicode=" " 
 />
    <glyph glyph-name="exclam" unicode="!" 
d="M767 1093l-56.998 -618c-2.66699 -32 -13.334 -56.833 -32.001 -74.5s-42 -26.5 -70 -26.5s-51.333 8.83301 -70 26.5s-29.334 42.5 -32.001 74.5l-58 618c-2.66699 31.333 -4 52 -4 62c0 52 15.667 93.833 47 125.5s70.333 47.5 117 47.5c46 0 84.833 -16 116.5 -48
s47.5 -72.333 47.5 -121c0 -10 -1.66699 -32 -5 -66zM734.002 75c0 -29.333 -11 -54.166 -33 -74.499s-52.333 -30.5 -91 -30.5s-69 10.167 -91 30.5s-33 45.166 -33 74.499c0 28.667 10.833 53.167 32.5 73.5s52.167 30.5 91.5 30.5s69.833 -10 91.5 -30
s32.5 -44.667 32.5 -74z" />
    <glyph glyph-name="quotedbl" unicode="&#x22;" 
d="M264 1237h264l-65 -490c-3.33301 -25.333 -10.5 -43 -21.5 -53s-25.167 -15 -42.5 -15c-18 0 -32.333 5 -43 15s-17.667 27.333 -21 52zM691 1237h264l-65 -490c-3.33301 -25.333 -10.333 -43 -21 -53s-25 -15 -43 -15s-32.333 5 -43 15s-17.667 27.333 -21 52z" />
    <glyph glyph-name="numbersign" unicode="#" 
d="M917 923h48c49.333 0 84.5 -9.5 105.5 -28.5s31.5 -43.833 31.5 -74.5c0 -30 -10.333 -54.5 -31 -73.5s-55.667 -28.5 -105 -28.5h-64l-15 -224h36c49.333 0 84.5 -9.5 105.5 -28.5s31.5 -43.833 31.5 -74.5c0 -30 -10.333 -54.5 -31 -73.5s-55.667 -28.5 -105 -28.5h-52
l-24 -352c-0.666992 -5.33301 -5.66699 -29 -15 -71c-6.66699 -16 -18.667 -29.667 -36 -41s-35.666 -17 -54.999 -17c-27.333 0 -50.833 10.167 -70.5 30.5s-29.5 45.833 -29.5 76.5c0 5.33301 0.666992 18 2 38l24 336h-153l-24 -351
c-2.66699 -35.333 -5.33398 -56.333 -8.00098 -63c-7.33301 -20 -19.833 -36.167 -37.5 -48.5s-37.167 -18.5 -58.5 -18.5c-29.333 0 -53.833 10 -73.5 30s-29.5 45.667 -29.5 77c0 7.33301 0.666992 19.666 2 36.999l23 337h-50c-49.333 0 -84.5 9.5 -105.5 28.5
s-31.5 43.833 -31.5 74.5c0 30 10.5 54.5 31.5 73.5s56.167 28.5 105.5 28.5h65l15 224h-37c-49.333 0 -84.5 9.5 -105.5 28.5s-31.5 43.833 -31.5 74.5c0 30 10.5 54.5 31.5 73.5s55.833 28.5 104.5 28.5h53l24 352c2.66699 34.667 5.66699 56.334 9 65.001
c7.33301 19.333 19.833 35 37.5 47s37.167 18 58.5 18c28 0 52 -10 72 -30s30 -46.667 30 -80c0 -8 -0.666992 -19.667 -2 -35l-23 -337h152l24 352c2.66699 48 13.5 81.667 32.5 101s43.167 29 72.5 29c28.667 0 53 -10.167 73 -30.5s30 -45.166 30 -74.499
c0 -6.66699 -0.333008 -12.334 -1 -17.001l-3 -23zM697 718h-152l-15 -224h152z" />
    <glyph glyph-name="dollar" unicode="$" 
d="M717 1231c47.333 -6 93.6689 -19.3369 139.002 -40.0039c10.667 6 20.834 10.5 30.501 13.5s19.167 4.5 28.5 4.5c30.667 0 55.5 -10.5 74.5 -31.5s28.5 -56.167 28.5 -105.5v-66c0 -49.333 -9.5 -84.5 -28.5 -105.5s-43.5 -31.5 -73.5 -31.5c-27.333 0 -50.5 9 -69.5 27
s-30.167 44.333 -33.5 79c-48 38 -108 57 -180 57c-75.333 0 -130.5 -13.5 -165.5 -40.5s-52.5 -56.833 -52.5 -89.5c0 -25.333 10.667 -48 32 -68s66 -37 134 -51l136 -29c114.667 -23.333 197 -58.333 247 -105c65.333 -59.333 98 -137.666 98 -234.999
c0 -85.333 -29.833 -161.166 -89.5 -227.499s-144.834 -110.166 -255.501 -131.499v-174c0 -49.333 -9.5 -84.5 -28.5 -105.5s-43.833 -31.5 -74.5 -31.5c-30 0 -54.5 10.5 -73.5 31.5s-28.5 56.167 -28.5 105.5v174c-53.333 11.333 -106.666 29 -159.999 53
c-28.667 -24 -55.334 -36 -80.001 -36c-32.667 0 -58.5 10.333 -77.5 31s-28.5 55.667 -28.5 105v129c0 49.333 9.5 84.5 28.5 105.5s43.833 31.5 74.5 31.5c24.667 0 45.334 -6.66699 62.001 -20s28.667 -33.833 36 -61.5s17.666 -48.5 30.999 -62.5
c20 -21.333 50.5 -39.166 91.5 -53.499s83.167 -21.5 126.5 -21.5c76 0 139.333 19.667 190 59c34 26 51 59.667 51 101c0 34 -11.333 62 -34 84c-22.667 21.333 -70.334 39.333 -143.001 54l-154 31c-108.667 21.333 -188.334 60.333 -239.001 117s-76 124.667 -76 204
c0 78.667 27.333 148.667 82 210s127.667 100 219 116v56c0 48.667 9.5 83.5 28.5 104.5s43.833 31.5 74.5 31.5c30 0 54.5 -10.5 73.5 -31.5s28.5 -55.833 28.5 -104.5v-56z" />
    <glyph glyph-name="percent" unicode="%" 
d="M772 995c0 -80 -28.167 -148.167 -84.5 -204.5s-124.5 -84.5 -204.5 -84.5s-148.333 28.167 -205 84.5s-85 124.5 -85 204.5s28.333 148.333 85 205s125 85 205 85s148.167 -28.167 204.5 -84.5s84.5 -124.833 84.5 -205.5zM646 995c0 45.333 -16 83.833 -48 115.5
s-70.333 47.5 -115 47.5c-45.333 0 -83.833 -15.833 -115.5 -47.5s-47.5 -70.167 -47.5 -115.5c0 -44.667 16 -83 48 -115s70.333 -48 115 -48s83 16 115 48s48 70.333 48 115zM1014 690l-756 -245c-18.667 -6 -32.334 -9 -41.001 -9c-15.333 0 -29 6.33301 -41 19
s-18 28.667 -18 48c0 14 4.66699 26.667 14 38c6.66699 8.66699 22.334 17 47.001 25l756 245c18.667 6 32.334 9 41.001 9c16 0 29.833 -6.5 41.5 -19.5s17.5 -28.5 17.5 -46.5c0 -14.667 -4.66699 -27.667 -14 -39c-6.66699 -8.66699 -22.334 -17 -47.001 -25zM1032 259
c0 -80 -28.333 -148.167 -85 -204.5s-125 -84.5 -205 -84.5s-148.333 28.333 -205 85s-85 124.667 -85 204c0 80 28.333 148.333 85 205s125 85 205 85s148.333 -28.167 205 -84.5s85 -124.833 85 -205.5zM905 259c0 45.333 -16 83.833 -48 115.5s-70.333 47.5 -115 47.5
s-83 -15.833 -115 -47.5s-48 -70.167 -48 -115.5c0 -44.667 16 -82.834 48 -114.501s70.333 -47.5 115 -47.5s83 15.833 115 47.5s48 69.834 48 114.501z" />
    <glyph glyph-name="ampersand" unicode="&#x26;" 
d="M828 407l49.999 173.999h105c42.667 0 72 -5 88 -15c32 -20.667 48 -50.334 48 -89.001c0 -28 -8.5 -51.5 -25.5 -70.5s-37.5 -29.167 -61.5 -30.5c-16.667 -71.333 -37.667 -128.333 -63 -171c54 0 88.667 -5 104 -15c32.667 -20 49 -49.333 49 -88
c0 -30 -10.5 -54.5 -31.5 -73.5s-56.167 -28.5 -105.5 -28.5h-122l-24 32c-30 -21.333 -58.667 -36 -86 -44c-40.667 -12 -90 -18 -148 -18c-120.667 0 -214.167 30.833 -280.5 92.5s-99.5 139.834 -99.5 234.501c0 64.667 16.5 126.5 49.5 185.5s83.5 108.5 151.5 148.5
c-29.333 48.667 -48.5 86.5 -57.5 113.5s-13.5 55.833 -13.5 86.5c0 82.667 31.333 155.167 94 217.5s137 93.5 223 93.5c22.667 0 46 -2.83301 70 -8.5s48.667 -14.5 74 -26.5c24 10.667 42 16 54 16c28 0 52 -10.167 72 -30.5s30 -44.5 30 -72.5
c0 -23.333 -5.5 -42.5 -16.5 -57.5s-33.167 -31.5 -66.5 -49.5l-86 -46c-32.667 29.333 -59 49 -79 59c-15.333 7.33301 -33 11 -53 11c-31.333 0 -57.666 -10.5 -78.999 -31.5s-32 -45.167 -32 -72.5c0 -23.333 19.667 -63.666 59 -120.999zM543.999 458.999
c-76 -35.333 -114 -89 -114 -161c0 -38 13 -68 39 -90s71.333 -33 136 -33c41.333 0 79.333 10 114 30z" />
    <glyph glyph-name="quotesingle" unicode="'" 
d="M481 1252l264 0.000976562l-65 -528c-3.33301 -28 -10.5 -47.167 -21.5 -57.5s-25.5 -15.5 -43.5 -15.5c-16.667 0 -30.5 5.16699 -41.5 15.5s-18.167 29.166 -21.5 56.499z" />
    <glyph glyph-name="parenleft" unicode="(" 
d="M541 498c0 116.667 19.333 234.668 58 354.001c28.667 88 73 186 133 294c43.333 77.333 75.333 124.833 96 142.5s43.667 26.5 69 26.5c29.333 0 54 -10 74 -30s30 -44 30 -72c0 -19.333 -8 -42.333 -24 -69c-72 -118 -124.5 -228.667 -157.5 -332
s-49.5 -208 -49.5 -314c0 -106.667 16.5 -211.667 49.5 -315s85.5 -214 157.5 -332c16 -26 24 -49 24 -69c0 -28 -10 -52 -30 -72s-44.667 -30 -74 -30c-24.667 0 -46.334 8 -65.001 24c-26.667 23.333 -62 75.666 -106 156.999c-63.333 118 -106.666 215.333 -129.999 292
c-36.667 117.333 -55 232.333 -55 345z" />
    <glyph glyph-name="parenright" unicode=")" 
d="M702 498c0 -116.667 -19.333 -235 -58 -355c-28.667 -88 -73 -185.667 -133 -293c-43.333 -77.333 -75.333 -125 -96 -143s-43.667 -27 -69 -27c-29.333 0 -54 10 -74 30s-30 44 -30 72c0 20 8 43 24 69c72 118 124.5 228.667 157.5 332s49.5 208.333 49.5 315
c0 106 -16.5 210.667 -49.5 314s-85.5 214 -157.5 332c-16 26.667 -24 49.667 -24 69c0 28 10 52 30 72s44.667 30 74 30c24.667 0 46.334 -8 65.001 -24c26.667 -22.667 62 -75 106 -157c63.333 -118 106.666 -215 129.999 -291c36.667 -118 55 -233 55 -345z" />
    <glyph glyph-name="asterisk" unicode="*" 
d="M447 776l-177.001 57.001c-42 13.333 -68.667 27.666 -80 42.999c-16 19.333 -24 41 -24 65c0 28 9.83301 52.167 29.5 72.5s41.834 30.5 66.501 30.5c16 0 39.667 -5.33301 71 -16l177 -57v186c0 49.333 9.5 84.5 28.5 105.5s43.833 31.5 74.5 31.5
s55.334 -10.5 74.001 -31.5s28 -56.167 28 -105.5v-186l177 57c32 10.667 55.333 16 70 16c25.333 0 47.833 -10 67.5 -30s29.5 -44 29.5 -72c0 -24.667 -6.83301 -45.5 -20.5 -62.5s-41.167 -32.5 -82.5 -46.5l-177 -57l109 -151c26.667 -36.667 40 -65.667 40 -87
c0 -28.667 -10 -53 -30 -73s-44 -30 -72 -30c-20.667 0 -37.834 4.33301 -51.501 13s-31.167 27.667 -52.5 57l-109 150l-110 -150c-20.667 -29.333 -38 -48.5 -52 -57.5s-31 -13.5 -51 -13.5c-28 0 -52.167 10.167 -72.5 30.5s-30.5 45.166 -30.5 74.499
c0 20.667 13.333 49.334 40 86.001z" />
    <glyph glyph-name="plus" unicode="+" 
d="M717 480l0.000976562 -342.999c0 -49.333 -9.33301 -84.5 -28 -105.5s-43.334 -31.5 -74.001 -31.5s-55.5 10.5 -74.5 31.5s-28.5 56.167 -28.5 105.5v343h-293c-49.333 0 -84.5 9.5 -105.5 28.5s-31.5 43.833 -31.5 74.5s10.5 55.5 31.5 74.5s56.167 28.167 105.5 27.5
h293v342c0 48.667 9.5 83.667 28.5 105s43.833 32 74.5 32s55.5 -10.5 74.5 -31.5s28.5 -56.167 28.5 -105.5l-1 -342h293c49.333 0 84.5 -9.33301 105.5 -28s31.5 -43.334 31.5 -74.001s-10.5 -55.5 -31.5 -74.5s-56.167 -28.5 -105.5 -28.5h-293z" />
    <glyph glyph-name="comma" unicode="," 
d="M566 276h273.999l-295 -556c-17.333 -32.667 -39 -49 -65 -49c-17.333 0 -32.166 5.66699 -44.499 17s-18.5 24 -18.5 38c0 10 2.33301 23.667 7 41z" />
    <glyph glyph-name="hyphen" unicode="-" 
d="M1044 488h-856v187h856v-187z" />
    <glyph glyph-name="hyphen" unicode="&#xad;" 
d="M1044 488h-856v187h856v-187z" />
    <glyph glyph-name="period" unicode="." 
d="M771 103c0 -38.667 -13.667 -71 -41 -97s-65 -39 -113 -39s-85.667 13 -113 39s-41 58.333 -41 97s13.667 71 41 97s65 39 113 39s85.667 -13 113 -39s41 -58.333 41 -97z" />
    <glyph glyph-name="slash" unicode="/" 
d="M1037 1270l-657.001 -1416c-16.667 -35.333 -31.667 -58.333 -45 -69c-17.333 -14 -38.333 -21 -63 -21c-28 0 -52.167 10 -72.5 30s-30.5 42.667 -30.5 68c0 18 8 44.333 24 79l659 1415c16.667 35.333 31.334 58.333 44.001 69c18 14 39 21 63 21
c28 0 52 -9.83301 72 -29.5s30 -42.167 30 -67.5c0 -18 -8 -44.333 -24 -79z" />
    <glyph glyph-name="zero" unicode="0" 
d="M1062 761v-225c0 -133.333 -38.5 -261 -115.5 -383s-187.167 -183 -330.5 -183c-82.667 0 -152.5 18.167 -209.5 54.5s-111 103.333 -162 201s-76.5 201.167 -76.5 310.5v225c0 132.667 38.333 260.167 115 382.5s186.667 183.5 330 183.5c82 0 151.5 -18 208.5 -54
s111.333 -102.833 163 -200.5s77.5 -201.5 77.5 -311.5zM856 761c0 111.333 -31 208.667 -93 292c-35.333 46 -85 69 -149 69c-62 0 -112.667 -25.333 -152 -76c-59.333 -76.667 -89 -171.667 -89 -285v-225c0 -112 31.333 -209.333 94 -292
c34.667 -46 84.334 -69 149.001 -69c61.333 0 111.666 25.333 150.999 76c59.333 76.667 89 171.667 89 285v225z" />
    <glyph glyph-name="one" unicode="1" 
d="M719 1327v-1122h207c49.333 0 84.5 -9.5 105.5 -28.5s31.5 -43.833 31.5 -74.5c0 -30 -10.5 -54.5 -31.5 -73.5s-56.167 -28.5 -105.5 -28.5h-619c-49.333 0 -84.5 9.5 -105.5 28.5s-31.5 43.833 -31.5 74.5c0 30 10.5 54.5 31.5 73.5s56.167 28.5 105.5 28.5h207v855
l-183 -48c-29.333 -8 -51.333 -12 -66 -12c-26 0 -48.5 10.333 -67.5 31s-28.5 46 -28.5 76c0 27.333 7 48.833 21 64.5s43.333 29.5 88 41.5z" />
    <glyph glyph-name="two" unicode="2" 
d="M423 205l449.001 -0.000976562c24.667 20 48 30 70 30c31.333 0 56.166 -10.333 74.499 -31s27.5 -56 27.5 -106v-98h-934v217c369.333 304.667 592.333 500.667 669 588c38.667 44.667 58 87 58 127c0 50 -21.833 94.167 -65.5 132.5s-101.834 57.5 -174.501 57.5
c-73.333 0 -134.333 -21.333 -183 -64c-25.333 -22.667 -45.666 -56.334 -60.999 -101.001c-9.33301 -28 -22.166 -48 -38.499 -60s-36.5 -18 -60.5 -18c-28 0 -52.167 10 -72.5 30s-30.5 43.333 -30.5 70c0 40 18.5 90 55.5 150s91 108 162 144s148.167 54 231.5 54
c129.333 0 235.333 -39.167 318 -117.5s124 -173.166 124 -284.499c0 -56.667 -11.833 -109.167 -35.5 -157.5s-80.5 -115.166 -170.5 -200.499c-70.667 -67.333 -208.334 -188 -413.001 -362z" />
    <glyph glyph-name="three" unicode="3" 
d="M907 685c60.667 -41.333 105.998 -89.1641 135.998 -143.497s45 -115.166 45 -182.499c0 -72.667 -19.833 -139.834 -59.5 -201.501s-97.167 -108.334 -172.5 -140.001s-174 -47.5 -296 -47.5c-158.667 0 -278 24.667 -358 74c-44.667 28 -67 61.333 -67 100
c0 29.333 9.83301 54.166 29.5 74.499s43.5 30.5 71.5 30.5c19.333 0 39.333 -6.66699 60 -20c29.333 -20 57 -33.333 83 -40c40 -9.33301 95 -14 165 -14c119.333 0 205.666 15.5 258.999 46.5s80 74.833 80 131.5c0 42 -15.5 82.5 -46.5 121.5s-72.5 69.167 -124.5 90.5
c-30 12 -80.667 20.333 -152 25c-34 2 -60.167 12.5 -78.5 31.5s-27.5 42.5 -27.5 70.5c0 29.333 10 54 30 74s45.333 30 76 30c68 0 104.333 0.333008 109 1c26.667 2.66699 53.334 11.334 80.001 26.001s48.167 34.834 64.5 60.501s24.5 52.167 24.5 79.5
c0 43.333 -19.167 80.833 -57.5 112.5s-95.833 47.5 -172.5 47.5c-98.667 0 -174 -28.667 -226 -86c-15.333 -16.667 -27.666 -27.334 -36.999 -32.001c-14 -7.33301 -29.667 -11 -47 -11c-28 0 -52 10 -72 30s-30 44.667 -30 74c0 46 30.667 90.667 92 134
c89.333 63.333 201 95 335 95c126.667 0 228.334 -36 305.001 -108s115 -158.667 115 -260c0 -52.667 -11.333 -101.834 -34 -147.501s-56.667 -87.834 -102 -126.501z" />
    <glyph glyph-name="four" unicode="4" 
d="M915 1294v-802c43.333 0 75.333 -9.5 96 -28.5s31 -43.5 31 -73.5s-10.5 -54.667 -31.5 -74s-52.833 -29 -95.5 -29v-82c43.333 0 75.333 -9.66699 96 -29s31 -44 31 -74s-10.5 -54.5 -31.5 -73.5s-56.167 -28.5 -105.5 -28.5h-275c-49.333 0 -84.5 9.5 -105.5 28.5
s-31.5 43.833 -31.5 74.5c0 30 10.5 54.5 31.5 73.5s56.167 28.5 105.5 28.5h80v82h-557v171l491 836h271zM710 492v504l-297 -504h297z" />
    <glyph glyph-name="five" unicode="5" 
d="M442 1089v-243.998c76 24 145 36 207 36c126 0 230.667 -43 314 -129s125 -197 125 -333c0 -140 -42.167 -249.833 -126.5 -329.5s-213.5 -119.5 -387.5 -119.5c-153.333 0 -274.666 29 -363.999 87c-52 33.333 -78 71.666 -78 114.999
c0 27.333 10.167 51.166 30.5 71.499s44.5 30.5 72.5 30.5c23.333 0 48.666 -11.167 75.999 -33.5s56 -37.833 86 -46.5c42.667 -12.667 97.334 -19 164.001 -19c124 0 208.667 19.833 254 59.5s68 100.5 68 182.5c0 80.667 -21.833 144 -65.5 190s-99.834 69 -168.501 69
c-74 0 -158.333 -24 -253 -72c-21.333 -11.333 -40 -17 -56 -17c-29.333 0 -53.833 10.667 -73.5 32s-29.5 49 -29.5 83v592h627c49.333 0 84.5 -9.5 105.5 -28.5s31.5 -43.833 31.5 -74.5c0 -30 -10.5 -54.5 -31.5 -73.5s-56.167 -28.5 -105.5 -28.5h-422z" />
    <glyph glyph-name="six" unicode="6" 
d="M422 700c49.333 41.333 96.3301 71.5 140.997 90.5s92.334 28.5 143.001 28.5c107.333 0 201.333 -42.667 282 -128s121 -192.333 121 -321c0 -119.333 -37.5 -215.833 -112.5 -289.5s-176.833 -110.5 -305.5 -110.5c-107.333 0 -195.666 25 -264.999 75
s-121.666 127 -156.999 231s-53 220 -53 348c0 153.333 35 280.833 105 382.5s152.333 180.5 247 236.5s194.667 84 300 84c83.333 0 148 -16.333 194 -49c30 -22 45 -50 45 -84c0 -30 -10 -55.167 -30 -75.5s-44 -30.5 -72 -30.5c-16 0 -39 8 -69 24
c-18 9.33301 -35.333 14 -52 14c-65.333 0 -133 -18.5 -203 -55.5s-130.667 -93.833 -182 -170.5c-35.333 -53.333 -61 -120 -77 -200zM451.997 383c21.333 -80 50.1689 -134.666 86.502 -163.999s88.166 -44 155.499 -44s119.166 17.667 155.499 53s54.5 83.333 54.5 144
c0 69.333 -20.833 127 -62.5 173s-88.5 69 -140.5 69c-41.333 0 -85.5 -20.333 -132.5 -61s-85.833 -97.334 -116.5 -170.001z" />
    <glyph glyph-name="seven" unicode="7" 
d="M826 1089h-469c-2.66699 -40 -13 -68.833 -31 -86.5s-41.667 -26.5 -71 -26.5c-30.667 0 -55.5 10.333 -74.5 31s-28.5 55.667 -28.5 105v182h890v-205l-332 -988c-14 -41.333 -29.5 -68.833 -46.5 -82.5s-37.5 -20.5 -61.5 -20.5c-28.667 0 -53.167 10 -73.5 30
s-30.5 43 -30.5 69c0 14.667 5.33301 38 16 70z" />
    <glyph glyph-name="eight" unicode="8" 
d="M905 655c52.667 -40.667 92.168 -86.833 118.501 -138.5s39.5 -108.5 39.5 -170.5c0 -68.667 -16.833 -131.834 -50.5 -189.501s-86.5 -103.167 -158.5 -136.5s-152 -50 -240 -50s-167.333 16.667 -238 50s-122.834 79 -156.501 137s-50.5 121 -50.5 189
c0 62 13.167 118.833 39.5 170.5s65.833 97.834 118.5 138.501c-46 42.667 -80.667 88 -104 136s-35 98.667 -35 152c0 104.667 40 194.834 120 270.501s182.667 113.5 308 113.5s228 -37.833 308 -113.5s120 -165.834 120 -270.501c0 -54 -11.5 -105 -34.5 -153
s-57.833 -93 -104.5 -135zM834.001 939.001c0 50.667 -19.833 93.834 -59.5 129.501s-93.167 53.5 -160.5 53.5c-68 0 -121.833 -17.833 -161.5 -53.5s-59.5 -78.834 -59.5 -129.501c0 -51.333 19.833 -94.833 59.5 -130.5s93.5 -53.5 161.5 -53.5
c67.333 0 120.833 17.833 160.5 53.5s59.5 79.167 59.5 130.5zM858.001 336.001c0 54 -23.167 102.834 -69.5 146.501s-103.833 65.5 -172.5 65.5s-126.167 -21.833 -172.5 -65.5s-69.5 -93.167 -69.5 -148.5c0 -42.667 20 -79.834 60 -111.501s100.667 -47.5 182 -47.5
c82 0 142.833 15.833 182.5 47.5s59.5 69.5 59.5 113.5z" />
    <glyph glyph-name="nine" unicode="9" 
d="M903 538c-51.333 -44 -98.333 -75.166 -141 -93.499s-87.667 -27.5 -135 -27.5c-110 0 -206.167 44 -288.5 132s-123.5 197.333 -123.5 328c0 102 28.333 194.667 85 278c77.333 114.667 186.333 172 327 172c100.667 0 188.667 -30.167 264 -90.5
s130.666 -147.333 165.999 -261s53 -232.167 53 -355.5c0 -209.333 -81 -377.333 -243 -504c-125.333 -97.333 -262.666 -146 -411.999 -146c-82.667 0 -146.667 16.667 -192 50c-30.667 22 -46 51 -46 87c0 29.333 9.83301 53.833 29.5 73.5s43.834 29.5 72.501 29.5
c16 0 34 -5 54 -15c26 -13.333 53.333 -20 82 -20c103.333 0 198.666 35.167 285.999 105.5s141.333 156.166 162 257.499zM874 861.001c-22 94.667 -54.5 161.832 -97.5 201.499s-92.167 59.5 -147.5 59.5c-58 0 -107.333 -22.167 -148 -66.5s-61 -103.166 -61 -176.499
c0 -76.667 20.5 -138.667 61.5 -186s87.833 -71 140.5 -71c92.667 0 176.667 79.667 252 239z" />
    <glyph glyph-name="colon" unicode=":" 
d="M769 771c0 -38.667 -13.667 -71 -41 -97s-65 -39 -113 -39s-85.667 13 -113 39s-41 58.333 -41 97s13.667 71 41 97s65 39 113 39s85.667 -13 113 -39s41 -58.333 41 -97zM771 100c0 -38.667 -13.667 -71 -41 -97s-65 -39 -113 -39s-85.667 13 -113 39s-41 58.333 -41 97
s13.667 71 41 97s65 39 113 39s85.667 -13 113 -39s41 -58.333 41 -97z" />
    <glyph glyph-name="semicolon" unicode=";" 
d="M864 766c0 -38.667 -13.668 -71 -41.001 -97s-65 -39 -113 -39c-47.333 0 -84.666 13.167 -111.999 39.5s-41 58.833 -41 97.5c0 38 13.5 70.167 40.5 96.5s64.5 39.5 112.5 39.5s85.667 -13 113 -39s41 -58.667 41 -98zM546.999 299l261.001 -0.000976562l-289 -469
c-18.667 -31.333 -37 -47 -55 -47c-16.667 0 -30.834 5 -42.501 15s-17.5 20.667 -17.5 32c0 8.66699 2.33301 20.334 7 35.001z" />
    <glyph glyph-name="less" unicode="&#x3c;" 
d="M400 584l664 -367.995c33.333 -18.667 55.5 -35.334 66.5 -50.001s16.5 -33.334 16.5 -56.001c0 -28.667 -10.333 -53.5 -31 -74.5s-44.667 -31.5 -72 -31.5c-18 0 -45 10 -81 30l-989 550l989 550c36 19.333 62.667 29 80 29c28 0 52.333 -10.333 73 -31
s31 -45.334 31 -74.001c0 -22.667 -5.5 -41.334 -16.5 -56.001s-33.167 -31.334 -66.5 -50.001z" />
    <glyph glyph-name="equal" unicode="=" 
d="M1054 674h-876c-49.333 0 -84.5 9.5 -105.5 28.5s-31.5 43.833 -31.5 74.5c0 30 10.5 54.5 31.5 73.5s56.167 28.5 105.5 28.5h876c49.333 0 84.5 -9.5 105.5 -28.5s31.5 -43.833 31.5 -74.5c0 -30 -10.5 -54.5 -31.5 -73.5s-56.167 -28.5 -105.5 -28.5zM1054 288h-876
c-49.333 0 -84.5 9.33301 -105.5 28s-31.5 43.334 -31.5 74.001s10.5 55.5 31.5 74.5s56.167 28.5 105.5 28.5h876c49.333 0 84.5 -9.5 105.5 -28.5s31.5 -43.833 31.5 -74.5s-10.5 -55.334 -31.5 -74.001s-56.167 -28 -105.5 -28z" />
    <glyph glyph-name="greater" unicode="&#x3e;" 
d="M831 584l-664 367.995c-33.333 18.667 -55.5 35.334 -66.5 50.001s-16.5 33.334 -16.5 56.001c0 28.667 10.333 53.334 31 74.001s45 31 73 31c17.333 0 44 -9.66699 80 -29l989 -550l-989 -550c-36 -20 -62.667 -30 -80 -30c-28 0 -52.333 10.333 -73 31
s-31 45.667 -31 75c0 22.667 5.5 41.334 16.5 56.001s33.167 31.334 66.5 50.001z" />
    <glyph glyph-name="question" unicode="?" 
d="M719 473c-4 -38.667 -15.167 -66.832 -33.5 -84.499s-41.5 -26.5 -69.5 -26.5c-30 0 -54.5 10.5 -73.5 31.5s-28.5 56.167 -28.5 105.5v115c162 62 259.667 109.667 293 143s50 67.333 50 102c0 48.667 -19.5 90.667 -58.5 126s-94.167 53 -165.5 53
c-75.333 0 -148 -17.333 -218 -52v-30c0 -48.667 -9.5 -83.5 -28.5 -104.5s-43.833 -31.5 -74.5 -31.5c-30 0 -54.5 10.333 -73.5 31s-28.5 55.667 -28.5 105v165c104.667 49.333 186 82 244 98s118 24 180 24c129.333 0 233 -37.333 311 -112s117 -168.334 117 -281.001
c0 -80 -23.5 -148 -70.5 -204s-137.833 -113.667 -272.5 -173zM762 77.002c0 -31.333 -11.167 -56.833 -33.5 -76.5s-59.5 -29.5 -111.5 -29.5s-89.167 9.83301 -111.5 29.5s-33.5 45.167 -33.5 76.5s11 56.833 33 76.5s59.333 29.5 112 29.5
c52 0 89.167 -9.83301 111.5 -29.5s33.5 -45.167 33.5 -76.5z" />
    <glyph glyph-name="at" unicode="@" 
d="M824 894l0.000976562 63.001c0 66 -19.167 119 -57.5 159s-87.5 60 -147.5 60c-48 0 -93.167 -15.833 -135.5 -47.5s-74.166 -72.5 -95.499 -122.5c-38 -88.667 -57 -177.334 -57 -266.001v-304c0 -154 34.667 -276.333 104 -367c45.333 -59.333 108.666 -89 189.999 -89
c43.333 0 83.166 5.66699 119.499 17s64.5 27 84.5 47s38.333 30 55 30c22 0 40.333 -7.5 55 -22.5s22 -33.5 22 -55.5c0 -33.333 -23 -66 -69 -98c-66.667 -45.333 -157.667 -68 -273 -68c-88 0 -160.667 20 -218 60c-74 52 -129.333 128.667 -166 230s-55 202 -55 302v329
c0 160 39.667 296 119 408s185 168 317 168c59.333 0 115.333 -12.333 168 -37s97.667 -67.667 135 -129s56 -129.333 56 -204v-547c29.333 -13.333 44 -35.666 44 -66.999c0 -23.333 -8 -42.166 -24 -56.499s-43 -21.5 -81 -21.5h-90v6c-31.333 -4.66699 -54.333 -7 -69 -7
c-80 0 -149.833 29.667 -209.5 89s-89.5 129 -89.5 209c0 85.333 32.833 160.166 98.5 224.499s155.5 100.166 269.5 107.499zM824.001 739.001c-70.667 -6.66699 -124.667 -27.167 -162 -61.5s-56 -73.5 -56 -117.5c0 -38 15.5 -71 46.5 -99s71.833 -42 122.5 -42
c10 0 26.333 1 49 3v317z" />
    <glyph glyph-name="A" unicode="A" 
d="M865 330h-498l-50 -125h50c49.333 0 84.5 -9.5 105.5 -28.5s31.5 -43.833 31.5 -74.5c0 -30 -10.5 -54.5 -31.5 -73.5s-56.167 -28.5 -105.5 -28.5h-276c-49.333 0 -84.5 9.5 -105.5 28.5s-31.5 43.833 -31.5 74.5s11 55.667 33 75s58.333 28.333 109 27l322 802h-134
c-49.333 0 -84.5 9.5 -105.5 28.5s-31.5 43.833 -31.5 74.5s10.5 55.5 31.5 74.5s56.167 28.5 105.5 28.5l443 -1l408 -1007c48 0 79.667 -5.33301 95 -16c30.667 -22 46 -51 46 -87c0 -30 -10.333 -54.5 -31 -73.5s-55.667 -28.5 -105 -28.5h-276
c-49.333 0 -84.5 9.5 -105.5 28.5s-31.5 43.833 -31.5 74.5c0 30 10.5 54.5 31.5 73.5s56.167 28.5 105.5 28.5h50zM780 535l-165 406l-166 -406h331z" />
    <glyph glyph-name="B" unicode="B" 
d="M196 205l-0.00292969 802h-32c-49.333 0 -84.5 9.5 -105.5 28.5s-31.5 43.833 -31.5 74.5s10.5 55.5 31.5 74.5s56.167 28.5 105.5 28.5h514c122.667 0 221.334 -34.167 296.001 -102.5s112 -149.5 112 -243.5c0 -44.667 -8.66699 -86.667 -26 -126
s-43.666 -75.666 -78.999 -108.999c64.667 -38.667 113.167 -83.834 145.5 -135.501s48.5 -110.167 48.5 -175.5c0 -52 -11.667 -100.333 -35 -145c-17.333 -34 -38.666 -61 -63.999 -81c-34 -28 -75.667 -50.833 -125 -68.5s-111 -26.5 -185 -26.5h-602
c-49.333 0 -84.5 9.5 -105.5 28.5s-31.5 43.833 -31.5 74.5c0 30 10.667 54.5 32 73.5s56.333 28.5 105 28.5h32zM400.997 709h225c80.667 0 147.667 20.333 201 61c36 27.333 54 61.333 54 102c0 36 -17 67.5 -51 94.5s-88 40.5 -162 40.5h-267v-298zM400.997 205
l354 -0.000976562c83.333 0 142 12.333 176 37c26 18.667 39 45.334 39 80.001c0 41.333 -25.667 82 -77 122s-125 60 -221 60h-271v-299z" />
    <glyph glyph-name="C" unicode="C" 
d="M936 1160c12.667 17.333 26.4951 30.335 41.4951 39.002s31.167 13 48.5 13c30 0 54.5 -10.333 73.5 -31s28.5 -55.667 28.5 -105v-174c0 -49.333 -9.5 -84.5 -28.5 -105.5s-43.5 -31.5 -73.5 -31.5c-27.333 0 -49.333 7.66699 -66 23s-29 44 -37 86
c-4.66699 28 -14 49.667 -28 65c-27.333 30 -65.5 54 -114.5 72s-98.167 27 -147.5 27c-61.333 0 -117.666 -13.333 -168.999 -40s-96.666 -70 -135.999 -130s-59 -131.333 -59 -214v-133c0 -98.667 35.833 -181 107.5 -247s171.167 -99 298.5 -99
c76 0 140.333 10.333 193 31c30.667 12 63.334 35.667 98.001 71c21.333 21.333 38 35.166 50 41.499s25.667 9.5 41 9.5c27.333 0 51.333 -10.333 72 -31s31 -45 31 -73s-14 -58 -42 -90c-40.667 -46.667 -93 -83.334 -157 -110.001c-86 -36 -181 -54 -285 -54
c-121.333 0 -230.666 25 -327.999 75c-78.667 40 -145.667 103.167 -201 189.5s-83 180.5 -83 282.5v139c0 106.667 24.833 206.167 74.5 298.5s118.5 163.5 206.5 213.5s181.333 75 280 75c59.333 0 114.833 -6.83301 166.5 -20.5s99.834 -34.5 144.501 -62.5z" />
    <glyph glyph-name="D" unicode="D" 
d="M156 205l-0.00195312 802c-43.333 0.666992 -75.333 10.5 -96 29.5s-31 43.5 -31 73.5c0 30.667 10.5 55.5 31.5 74.5s56.167 28.5 105.5 28.5l429 -1c66.667 0 131.834 -12.333 195.501 -37s114.834 -56 153.501 -94c29.333 -28.667 59.833 -68 91.5 -118
s55.5 -99.667 71.5 -149s24 -109.666 24 -180.999v-98c0 -86.667 -14.667 -163.5 -44 -230.5s-67.833 -121.667 -115.5 -164s-92.5 -73.5 -134.5 -93.5c-66.667 -31.333 -153 -47 -259 -47h-412c-49.333 0 -84.5 9.5 -105.5 28.5s-31.5 43.833 -31.5 74.5
c0 30 10.5 54.667 31.5 74s52.833 28.666 95.5 27.999zM360.998 205h218.001c81.333 0 142.666 11.667 183.999 35c54 30.667 94.667 69.667 122 117s41 108.666 41 183.999v97c0 64.667 -12.333 121.334 -37 170.001c-38.667 76 -82.167 128.167 -130.5 156.5
s-108.833 42.5 -181.5 42.5h-216v-802z" />
    <glyph glyph-name="E" unicode="E" 
d="M404 506l0.000976562 -300.999h523v111c0 49.333 9.5 84.5 28.5 105.5s43.833 31.5 74.5 31.5c30 0 54.5 -10.5 73.5 -31.5s28.5 -56.167 28.5 -105.5v-316h-965c-49.333 0 -84.5 9.5 -105.5 28.5s-31.5 43.833 -31.5 74.5c0 30 10.667 54.5 32 73.5
s56.333 28.5 105 28.5h32v802h-32c-49.333 0 -84.5 9.5 -105.5 28.5s-31.5 43.833 -31.5 74.5s10.5 55.5 31.5 74.5s56.167 28.5 105.5 28.5l920 -1v-312c0 -48.667 -9.33301 -83.5 -28 -104.5s-43.334 -31.5 -74.001 -31.5s-55.5 10.333 -74.5 31s-28.5 55.667 -28.5 105
v107h-478v-296h180c0 53.333 5 87.666 15 102.999c20.667 32.667 50 49 88 49c30 0 54.5 -10.5 73.5 -31.5s28.5 -56.167 28.5 -105.5v-236c0 -44.667 -5.33301 -74.667 -16 -90c-21.333 -31.333 -50 -47 -86 -47c-38 0 -67.333 16.333 -88 49c-10 15.333 -15 50 -15 104
h-180z" />
    <glyph glyph-name="F" unicode="F" 
d="M474 505v-299.999h210c49.333 0 84.5 -9.5 105.5 -28.5s31.5 -43.833 31.5 -74.5c0 -30 -10.5 -54.5 -31.5 -73.5s-56.167 -28.5 -105.5 -28.5h-447c-49.333 0 -84.5 9.5 -105.5 28.5s-31.5 43.833 -31.5 74.5c0 30 10.667 54.5 32 73.5s56.333 28.5 105 28.5h32v802h-32
c-49.333 0 -84.5 9.5 -105.5 28.5s-31.5 43.833 -31.5 74.5s10.5 55.5 31.5 74.5s56.167 28.5 105.5 28.5l965 -1v-313c0 -48.667 -9.5 -83.5 -28.5 -104.5s-43.833 -31.5 -74.5 -31.5c-30 0 -54.5 10.333 -73.5 31s-28.5 55.667 -28.5 105v108h-523v-297h180
c0 53.333 5 87.666 15 102.999c20.667 32.667 50 49 88 49c30 0 54.5 -10.5 73.5 -31.5s28.5 -56.167 28.5 -105.5v-236c0 -49.333 -9.5 -84.5 -28.5 -105.5s-43.833 -31.5 -74.5 -31.5c-37.333 0 -66.333 16.333 -87 49c-10 15.333 -15 50 -15 104h-180z" />
    <glyph glyph-name="G" unicode="G" 
d="M1131 375v-275.001c-92.667 -50 -171.5 -84.167 -236.5 -102.5s-135.167 -27.5 -210.5 -27.5c-104.667 0 -201.667 15.667 -291 47c-70 24 -125.167 54.333 -165.5 91s-77.5 90.834 -111.5 162.501s-51 151.834 -51 240.501v148c0 136.667 41.667 258.667 125 366
c112 145.333 264.333 218 457 218c56 0 109.167 -5.66699 159.5 -17s98.166 -28.333 143.499 -51c27.333 24.667 54 37 80 37c30 0 54.333 -10.333 73 -31s28 -55.667 28 -105v-133c0 -49.333 -9.5 -84.5 -28.5 -105.5s-43.5 -31.5 -73.5 -31.5
c-24 0 -44.667 7.33301 -62 22c-13.333 10 -24.5 32.167 -33.5 66.5s-19.167 57.5 -30.5 69.5c-18 19.333 -49.833 36.5 -95.5 51.5s-96.834 22.5 -153.501 22.5c-81.333 0 -152 -16.667 -212 -50c-42.667 -24.667 -82 -67.667 -118 -129s-54 -128 -54 -200v-148
c0 -110 31.833 -193.5 95.5 -250.5s164.834 -85.5 303.501 -85.5c94 0 179.667 17.667 257 53v147h-209c-49.333 0 -84.5 9.5 -105.5 28.5s-31.5 43.833 -31.5 74.5s10.5 55.5 31.5 74.5s56.167 28.5 105.5 28.5l364 -1c49.333 0 84.5 -9.33301 105.5 -28
s31.5 -43.334 31.5 -74.001c0 -24 -7.16699 -45 -21.5 -63s-36.166 -31.333 -65.499 -40z" />
    <glyph glyph-name="H" unicode="H" 
d="M839 502l-438 0.00195312v-297h32c49.333 0 84.5 -9.5 105.5 -28.5s31.5 -43.833 31.5 -74.5c0 -30 -10.5 -54.5 -31.5 -73.5s-56.167 -28.5 -105.5 -28.5h-251c-49.333 0 -84.5 9.5 -105.5 28.5s-31.5 43.833 -31.5 74.5c0 37.333 16.333 66.333 49 87
c16 10.667 50 15.667 102 15v802c-36 3.33301 -63.167 14.333 -81.5 33s-27.5 42 -27.5 70c0 30.667 10.5 55.5 31.5 74.5s56.167 28.5 105.5 28.5l209 -1c49.333 0 84.5 -9.33301 105.5 -28s31.5 -43.334 31.5 -74.001s-10.5 -55.5 -31.5 -74.5s-56.167 -28.5 -105.5 -28.5
h-32v-300h438v300h-32c-49.333 0 -84.5 9.5 -105.5 28.5s-31.5 43.833 -31.5 74.5s10.5 55.5 31.5 74.5s56.167 28.5 105.5 28.5l209 -1c49.333 0 84.5 -9.33301 105.5 -28s31.5 -43.334 31.5 -74.001c0 -28 -9.16699 -51.333 -27.5 -70s-45.5 -29.667 -81.5 -33v-802
c52.667 0 86.667 -5 102 -15c32.667 -20.667 49 -50 49 -88c0 -30 -10.5 -54.5 -31.5 -73.5s-56.167 -28.5 -105.5 -28.5h-251c-49.333 0 -84.5 9.5 -105.5 28.5s-31.5 43.833 -31.5 74.5c0 30 10.667 54.5 32 73.5s56.333 28.5 105 28.5h32v297z" />
    <glyph glyph-name="I" unicode="I" 
d="M717 1007v-801.999h207c49.333 0 84.5 -9.5 105.5 -28.5s31.5 -43.833 31.5 -74.5c0 -30 -10.5 -54.5 -31.5 -73.5s-56.167 -28.5 -105.5 -28.5h-619c-49.333 0 -84.5 9.5 -105.5 28.5s-31.5 43.833 -31.5 74.5c0 30 10.5 54.5 31.5 73.5s56.167 28.5 105.5 28.5h207v802
h-207c-49.333 0 -84.5 9.5 -105.5 28.5s-31.5 43.833 -31.5 74.5s10.5 55.5 31.5 74.5s56.167 28.5 105.5 28.5l619 -1c49.333 0 84.5 -9.33301 105.5 -28s31.5 -43.334 31.5 -74.001s-10.5 -55.5 -31.5 -74.5s-56.167 -28.5 -105.5 -28.5h-207z" />
    <glyph glyph-name="J" unicode="J" 
d="M1000 1007l-0.000976562 -620c0 -78 -13 -140 -39 -186c-40 -71.333 -97.833 -127.666 -173.5 -168.999s-155.167 -62 -238.5 -62c-107.333 0 -253.666 45.333 -438.999 136v337c0 49.333 9.5 84.5 28.5 105.5s43.833 31.5 74.5 31.5c30 0 54.5 -10.5 73.5 -31.5
s28.5 -56.167 28.5 -105.5v-201c94 -44.667 174.333 -67 241 -67c35.333 0 72 8.16699 110 24.5s66.667 35.833 86 58.5s32 45 38 67c3.33301 12 5 40.667 5 86v596h-249c-49.333 0 -84.5 9.5 -105.5 28.5s-31.5 43.833 -31.5 74.5s10.5 55.5 31.5 74.5
s56.167 28.5 105.5 28.5l574 -1c49.333 0 84.5 -9.33301 105.5 -28s31.5 -43.334 31.5 -74.001s-10.5 -55.5 -31.5 -74.5s-56.167 -28.5 -105.5 -28.5h-120z" />
    <glyph glyph-name="K" unicode="K" 
d="M401 432l0.000976562 -226.994h74c49.333 0 84.5 -9.5 105.5 -28.5s31.5 -43.833 31.5 -74.5c0 -30 -10.5 -54.5 -31.5 -73.5s-56.167 -28.5 -105.5 -28.5h-311c-49.333 0 -84.5 9.5 -105.5 28.5s-31.5 43.833 -31.5 74.5c0 30 10.667 54.5 32 73.5s56.333 28.5 105 28.5
h32v802h-32c-49.333 0 -84.5 9.5 -105.5 28.5s-31.5 43.833 -31.5 74.5s10.5 55.5 31.5 74.5s56.167 28.5 105.5 28.5l311 -1c49.333 0 84.5 -9.33301 105.5 -28s31.5 -43.334 31.5 -74.001s-10.5 -55.5 -31.5 -74.5s-56.167 -28.5 -105.5 -28.5h-74v-304l364 313
c-21.333 15.333 -36 29.666 -44 42.999s-12 29.666 -12 48.999c0 31.333 10.5 56.666 31.5 75.999s56.167 29 105.5 29l209 -1c49.333 0 84.5 -9.33301 105.5 -28s31.5 -43.334 31.5 -74.001c0 -30 -10.5 -54.667 -31.5 -74s-53.833 -29 -98.5 -29l-368 -322
c68.667 -39.333 133.167 -99.333 193.5 -180s113.833 -180.667 160.5 -300h55c48.667 0 83.5 -9.5 104.5 -28.5s31.5 -43.833 31.5 -74.5c0 -30 -10.333 -54.5 -31 -73.5s-55.667 -28.5 -105 -28.5h-186c-42.667 102 -89.334 199.333 -140.001 292
c-41.333 75.333 -80.5 130.166 -117.5 164.499s-81.167 61.833 -132.5 82.5z" />
    <glyph glyph-name="L" unicode="L" 
d="M529 1007v-801.999h442v194c0 49.333 9.5 84.5 28.5 105.5s43.833 31.5 74.5 31.5c30 0 54.5 -10.5 73.5 -31.5s28.5 -56.167 28.5 -105.5v-399h-971c-49.333 0 -84.5 9.5 -105.5 28.5s-31.5 43.833 -31.5 74.5c0 30 10.5 54.5 31.5 73.5s56.167 28.5 105.5 28.5h119v802
h-119c-49.333 0 -84.5 9.5 -105.5 28.5s-31.5 43.833 -31.5 74.5s10.5 55.5 31.5 74.5s56.167 28.5 105.5 28.5l444 -1c49.333 0 84.5 -9.33301 105.5 -28s31.5 -43.334 31.5 -74.001s-10.5 -55.5 -31.5 -74.5s-56.167 -28.5 -105.5 -28.5h-120z" />
    <glyph glyph-name="M" unicode="M" 
d="M294 816v-610.999h74c49.333 0 84.5 -9.5 105.5 -28.5s31.5 -43.833 31.5 -74.5c0 -30 -10.5 -54.5 -31.5 -73.5s-56.167 -28.5 -105.5 -28.5h-269c-49.333 0 -84.5 9.5 -105.5 28.5s-31.5 43.833 -31.5 74.5c0 30 10.333 54.5 31 73.5s52.667 28.5 96 28.5v802
c-36 3.33301 -63.167 14.333 -81.5 33s-27.5 42 -27.5 70c0 30.667 10.5 55.5 31.5 74.5s56.167 28.5 105.5 28.5l225 -1l279 -617l274 618l227 -1c49.333 0 84.5 -9.33301 105.5 -28s31.5 -43.334 31.5 -74.001c0 -28 -9.33301 -51.333 -28 -70s-45.667 -29.667 -81 -33
v-802c43.333 0 75.333 -9.66699 96 -29s31 -44 31 -74s-10.5 -54.5 -31.5 -73.5s-56.167 -28.5 -105.5 -28.5h-270c-48.667 0 -83.5 9.5 -104.5 28.5s-31.5 43.833 -31.5 74.5c0 30 10.5 54.5 31.5 73.5s55.833 28.5 104.5 28.5h75v611l-235 -528h-178z" />
    <glyph glyph-name="N" unicode="N" 
d="M358 825l0.000976562 -619.998h74c49.333 0 84.5 -9.5 105.5 -28.5s31.5 -43.833 31.5 -74.5c0 -30 -10.5 -54.5 -31.5 -73.5s-56.167 -28.5 -105.5 -28.5h-269c-49.333 0 -84.5 9.5 -105.5 28.5s-31.5 43.833 -31.5 74.5c0 29.333 10.333 53.666 31 72.999
s52.667 29 96 29v802h-32c-49.333 0 -84.5 9.5 -105.5 28.5s-31.5 43.833 -31.5 74.5s10.5 55.5 31.5 74.5s56.167 28.5 105.5 28.5l237 -1l524 -822v617h-74c-49.333 0 -84.5 9.5 -105.5 28.5s-31.5 43.833 -31.5 74.5s10.5 55.5 31.5 74.5s56.167 28.5 105.5 28.5l269 -1
c49.333 0 84.5 -9.33301 105.5 -28s31.5 -43.334 31.5 -74.001c0 -30 -10.333 -54.667 -31 -74s-52.334 -29 -95.001 -29v-1007h-203z" />
    <glyph glyph-name="O" unicode="O" 
d="M1190 606c0 -182 -57.833 -333.501 -173.5 -454.501s-249.5 -181.5 -401.5 -181.5c-136.667 0 -260 50.333 -370 151c-136 124.667 -204 286.334 -204 485.001s68 360.667 204 486c110 100.667 233.333 151 370 151c152 0 285.833 -60.5 401.5 -181.5
s173.5 -272.833 173.5 -455.5zM985 605.999c0 124.667 -37.667 227.833 -113 309.5s-161 122.5 -257 122.5c-95.333 0 -180.666 -41 -255.999 -123s-113 -185 -113 -309s37.667 -226.833 113 -308.5s160.666 -122.5 255.999 -122.5c96 0 181.667 40.667 257 122
s113 184.333 113 309z" />
    <glyph glyph-name="P" unicode="P" 
d="M496 416l-0.000976562 -210.999h207c49.333 0 84.5 -9.5 105.5 -28.5s31.5 -43.833 31.5 -74.5c0 -30 -10.5 -54.5 -31.5 -73.5s-56.167 -28.5 -105.5 -28.5h-444c-49.333 0 -84.5 9.5 -105.5 28.5s-31.5 43.833 -31.5 74.5c0 30 10.667 54.5 32 73.5
s56.333 28.5 105 28.5h32v802h-32c-49.333 0 -84.5 9.5 -105.5 28.5s-31.5 43.833 -31.5 74.5s10.5 55.5 31.5 74.5s56.167 28.5 105.5 28.5l472 -1c138.667 0 248.5 -37.833 329.5 -113.5s121.5 -167.834 121.5 -276.501c0 -60 -13.667 -116.667 -41 -170
c-20.667 -40 -55.167 -79.5 -103.5 -118.5s-97.666 -68.333 -147.999 -88s-116.833 -29.5 -199.5 -29.5h-194zM495.999 621.001h190.001c89.333 0 160.166 20.167 212.499 60.5s78.5 88.833 78.5 145.5c0 48 -21.167 90 -63.5 126s-102.833 54 -181.5 54h-236v-386z" />
    <glyph glyph-name="Q" unicode="Q" 
d="M662 -28l-6 -8.99902c70.667 0 137 -14.333 199 -43c25.333 -12 46.333 -18 63 -18c24 0 53.333 11.333 88 34s62 34 82 34c28.667 0 52.834 -9.83301 72.501 -29.5s29.5 -44.167 29.5 -73.5c0 -35.333 -18.333 -66 -55 -92c-72.667 -52 -145.667 -78 -219 -78
c-37.333 0 -75 7.33301 -113 22c-61.333 24 -110 36 -146 36c-58 0 -146.333 -15 -265 -45c-24.667 -6 -44 -9 -58 -9c-26 0 -48.833 10.167 -68.5 30.5s-29.5 45.833 -29.5 76.5c0 26.667 13.333 53 40 79l131 127c-108 46.667 -196.167 122.667 -264.5 228
s-102.5 226.666 -102.5 363.999c0 198.667 68.333 360.667 205 486c109.333 100.667 232.333 151 369 151c137.333 0 260.666 -50.333 369.999 -151c136.667 -125.333 205 -287.333 205 -486c0 -170.667 -51.667 -315.5 -155 -434.5s-227.333 -185.5 -372 -199.5z
M984 606.001c0 124.667 -37.667 227.833 -113 309.5s-161 122.5 -257 122.5c-95.333 0 -180.666 -41 -255.999 -123s-113 -185 -113 -309s37.667 -226.833 113 -308.5s160.666 -122.5 255.999 -122.5c96 0 181.667 40.667 257 122s113 184.333 113 309z" />
    <glyph glyph-name="R" unicode="R" 
d="M403 463l-0.000976562 -257.999h74c49.333 0 84.5 -9.5 105.5 -28.5s31.5 -43.833 31.5 -74.5c0 -30 -10.5 -54.5 -31.5 -73.5s-56.167 -28.5 -105.5 -28.5h-311c-49.333 0 -84.5 9.5 -105.5 28.5s-31.5 43.833 -31.5 74.5c0 30 10.667 54.5 32 73.5
s56.333 28.5 105 28.5h32v802h-32c-49.333 0 -84.5 9.5 -105.5 28.5s-31.5 43.833 -31.5 74.5s10.5 55.5 31.5 74.5s56.167 28.5 105.5 28.5l464 -1c144.667 0 256.834 -35.833 336.501 -107.5s119.5 -158.834 119.5 -261.501c0 -64 -18.667 -122.167 -56 -174.5
s-93.666 -98.833 -168.999 -139.5c43.333 -38 89.666 -86.667 138.999 -146c30.667 -38 72 -97.333 124 -178c52 0 86.333 -5.33301 103 -16c30 -20.667 45 -49.667 45 -87c0 -30 -10.333 -54.5 -31 -73.5s-55.667 -28.5 -105 -28.5h-117
c-166 256.667 -303.667 411 -413 463h-203zM402.999 668.001h159.998c59.333 0 112.333 9 159 27c62.667 24 104.834 49.333 126.501 76s32.5 53 32.5 79c0 38.667 -20.667 74.5 -62 107.5s-101.666 49.5 -180.999 49.5h-235v-339z" />
    <glyph glyph-name="S" unicode="S" 
d="M315 52c-18 -21.333 -32.4961 -34.9932 -43.4961 -40.9932s-24.5 -9 -40.5 -9c-31.333 0 -56.5 10.5 -75.5 31.5s-28.5 55.833 -28.5 104.5v138c0 49.333 9.5 84.5 28.5 105.5s44.167 31.5 75.5 31.5c24 0 44.167 -6.33301 60.5 -19s28.833 -33.834 37.5 -63.501
s17.667 -49.834 27 -60.501c19.333 -20.667 53.666 -41.667 102.999 -63s103.333 -32 162 -32c91.333 0 166.333 21.333 225 64c37.333 26 56 58 56 96c0 25.333 -9 49.166 -27 71.499s-47.333 40.833 -88 55.5c-26.667 10 -86.334 23.667 -179.001 41
c-112 20.667 -196.667 45.667 -254 75s-102.666 70.666 -135.999 123.999s-50 111 -50 173c0 98 41 183.833 123 257.5s188.667 110.5 320 110.5c52.667 0 101.5 -5.83301 146.5 -17.5s85.833 -29.5 122.5 -53.5c26.667 26 53.334 39 80.001 39c30 0 54.5 -10.5 73.5 -31.5
s28.5 -55.833 28.5 -104.5v-154c0 -49.333 -9.5 -84.5 -28.5 -105.5s-43.5 -31.5 -73.5 -31.5c-25.333 0 -47.333 7.66699 -66 23c-14.667 11.333 -25.667 34 -33 68s-16.666 58.333 -27.999 73c-19.333 25.333 -48.333 46.666 -87 63.999s-83.334 26 -134.001 26
c-74 0 -132.5 -17.167 -175.5 -51.5s-64.5 -70.166 -64.5 -107.499c0 -25.333 8.83301 -49.833 26.5 -73.5s43.5 -42.167 77.5 -55.5c22.667 -9.33301 86.5 -24.333 191.5 -45s185.667 -43.334 242 -68.001s103.166 -63.334 140.499 -116.001s56 -115.334 56 -188.001
c0 -101.333 -35.667 -182.333 -107 -243c-94.667 -80 -215.334 -120 -362.001 -120c-56.667 0 -111.834 6.83301 -165.501 20.5s-105.834 34.167 -156.501 61.5z" />
    <glyph glyph-name="T" unicode="T" 
d="M714 1007v-802h138c49.333 0 84.5 -9.5 105.5 -28.5s31.5 -43.833 31.5 -74.5c0 -30 -10.5 -54.5 -31.5 -73.5s-56.167 -28.5 -105.5 -28.5h-480c-49.333 0 -84.5 9.5 -105.5 28.5s-31.5 43.833 -31.5 74.5c0 30 10.5 54.5 31.5 73.5s56.167 28.5 105.5 28.5h137v802
h-222v-194c0 -49.333 -9.5 -84.5 -28.5 -105.5s-43.833 -31.5 -74.5 -31.5c-30 0 -54.5 10.5 -73.5 31.5s-28.5 56.167 -28.5 105.5v400l1062 -1v-399c0 -49.333 -9.5 -84.5 -28.5 -105.5s-43.833 -31.5 -74.5 -31.5c-30 0 -54.5 10.5 -73.5 31.5s-28.5 56.167 -28.5 105.5
v194h-225z" />
    <glyph glyph-name="U" unicode="U" 
d="M1083 1007v-580.997c0 -126.667 -45.5 -234.334 -136.5 -323.001s-200.5 -133 -328.5 -133c-63.333 0 -122.833 11.167 -178.5 33.5s-105.667 55.166 -150 98.499s-78.833 88.5 -103.5 135.5s-37 109.833 -37 188.5v581c-43.333 0 -75.333 9.66699 -96 29s-31 44 -31 74
c0 30.667 10.333 55.334 31 74.001s56 28 106 28l269 1c49.333 0 84.5 -9.5 105.5 -28.5s31.5 -43.833 31.5 -74.5s-10.5 -55.5 -31.5 -74.5s-56.167 -28.5 -105.5 -28.5h-74v-599c0 -61.333 25.5 -115.5 76.5 -162.5s112.5 -70.5 184.5 -70.5c48 0 93 11.333 135 34
s76.333 55.667 103 99c16.667 27.333 25 60.666 25 99.999v599h-74c-49.333 0 -84.5 9.5 -105.5 28.5s-31.5 43.833 -31.5 74.5s10.5 55.5 31.5 74.5s56.167 28.5 105.5 28.5l269 -1c49.333 0 84.5 -9.33301 105.5 -28s31.5 -43.334 31.5 -74.001
c0 -30 -10.333 -54.667 -31 -74s-52.667 -29 -96 -29z" />
    <glyph glyph-name="V" unicode="V" 
d="M614 299l296.999 708.002h-47c-49.333 0 -84.5 9.5 -105.5 28.5s-31.5 43.833 -31.5 74.5s10.5 55.5 31.5 74.5s56.167 28.5 105.5 28.5l275 -1c49.333 0 84.5 -9.33301 105.5 -28s31.5 -43.334 31.5 -74.001c0 -36.667 -16 -65.667 -48 -87
c-15.333 -10.667 -46.666 -16 -93.999 -16l-421 -1007h-197l-420 1007c-48 0 -79.667 5.33301 -95 16c-32 20.667 -48 49.667 -48 87c0 30.667 10.5 55.5 31.5 74.5s56.167 28.5 105.5 28.5l277 -1c48.667 0 83.5 -9.33301 104.5 -28s31.5 -43.334 31.5 -74.001
s-10.333 -55.5 -31 -74.5s-55.667 -28.5 -105 -28.5h-48z" />
    <glyph glyph-name="W" unicode="W" 
d="M615 582l-190 -581.998h-230l-122 1007c-31.333 4 -55 14.833 -71 32.5s-24 40.167 -24 67.5c0 32 10.5 57.667 31.5 77s56.167 29 105.5 29l273 -1c49.333 0 84.5 -9.33301 105.5 -28s31.5 -43.334 31.5 -74.001s-10.5 -55.5 -31.5 -74.5s-56.167 -28.5 -105.5 -28.5
h-107l68 -573l161 477h213l160 -477l68 573h-107c-49.333 0 -84.5 9.5 -105.5 28.5s-31.5 43.833 -31.5 74.5s10.5 55.5 31.5 74.5s56.167 28.5 105.5 28.5l272 -1c49.333 0 84.5 -9.33301 105.5 -28s31.5 -43.334 31.5 -74.001c0 -26 -8.33301 -48.333 -25 -67
s-40.667 -30.667 -72 -36l-118 -1007h-226z" />
    <glyph glyph-name="X" unicode="X" 
d="M749 618l342 -412.999c40.667 -0.666992 71.167 -10.5 91.5 -29.5s30.5 -43.5 30.5 -73.5s-10.5 -54.5 -31.5 -73.5s-56.167 -28.5 -105.5 -28.5h-231c-48.667 0 -83.5 9.5 -104.5 28.5s-31.5 43.833 -31.5 74.5c0 28.667 9.66699 52.5 29 71.5s48.333 29.167 87 30.5
l-206 254l-208 -254c38 -1.33301 66.667 -11.666 86 -30.999s29 -43.333 29 -72c0 -30 -10.5 -54.5 -31.5 -73.5s-56.167 -28.5 -105.5 -28.5h-230c-49.333 0 -84.5 9.5 -105.5 28.5s-31.5 43.833 -31.5 74.5c0 29.333 10.333 53.666 31 72.999s51 29 91 29l340 415
l-324 387c-40 1.33301 -69.833 11.5 -89.5 30.5s-29.5 43.167 -29.5 72.5c0 30.667 10.5 55.5 31.5 74.5s56.167 28.5 105.5 28.5l189 -1c49.333 0 84.5 -9.33301 105.5 -28s31.5 -43.334 31.5 -74.001c0 -22.667 -6.66699 -43.334 -20 -62.001
c-8.66699 -11.333 -28 -25 -58 -41l191 -229l187 229c-30 16 -49.333 29.667 -58 41c-13.333 18.667 -20 39.334 -20 62.001c0 30 10.5 54.667 31.5 74s56.167 29 105.5 29l188 -1c49.333 0 84.5 -9.33301 105.5 -28s31.5 -43.334 31.5 -74.001
c0 -29.333 -10.167 -53.666 -30.5 -72.999s-49.833 -29.333 -88.5 -30z" />
    <glyph glyph-name="Y" unicode="Y" 
d="M718 509v-303.999h138c49.333 0 84.5 -9.5 105.5 -28.5s31.5 -43.833 31.5 -74.5c0 -30 -10.5 -54.5 -31.5 -73.5s-56.167 -28.5 -105.5 -28.5h-481c-48.667 0 -83.5 9.5 -104.5 28.5s-31.5 43.833 -31.5 74.5c0 30 10.5 54.5 31.5 73.5s55.833 28.5 104.5 28.5h138v304
l-339 498c-45.333 0 -78.5 9.66699 -99.5 29s-31.5 44 -31.5 74c0 30.667 10.5 55.5 31.5 74.5s56.167 28.5 105.5 28.5l186 -1c49.333 0 84.5 -9.33301 105.5 -28s31.5 -43.334 31.5 -74.001c0 -46 -27 -80.333 -81 -103l194 -286l190 286
c-30 11.333 -51.333 25.666 -64 42.999s-19 37.333 -19 60c0 30.667 10.5 55.334 31.5 74.001s56.167 28.334 105.5 29.001l193 -1c49.333 0 84.5 -9.33301 105.5 -28s31.5 -43.334 31.5 -74.001s-10.667 -55.5 -32 -74.5s-56 -28.5 -104 -28.5z" />
    <glyph glyph-name="Z" unicode="Z" 
d="M413 205h465.001v152c0 49.333 9.5 84.5 28.5 105.5s43.833 31.5 74.5 31.5s55.5 -10.5 74.5 -31.5s28.5 -56.167 28.5 -105.5l-1 -357h-932v205l625 802h-378v-147c0 -49.333 -9.33301 -84.5 -28 -105.5s-43.334 -31.5 -74.001 -31.5s-55.5 10.5 -74.5 31.5
s-28.5 56.167 -28.5 105.5v353l848 -1v-200z" />
    <glyph glyph-name="bracketleft" unicode="[" 
d="M715 1089v-1204h124c49.333 0 84.5 -9.33301 105.5 -28s31.5 -43.334 31.5 -74.001s-10.5 -55.5 -31.5 -74.5s-56.167 -28.5 -105.5 -28.5h-329v1614h328c49.333 0 84.5 -9.5 105.5 -28.5s31.5 -43.833 31.5 -74.5c0 -30 -10.5 -54.5 -31.5 -73.5
s-56.167 -28.5 -105.5 -28.5h-123z" />
    <glyph glyph-name="backslash" unicode="\" 
d="M380 1356l658.001 -1410c3.33301 -7.33301 9 -24.333 17 -51c4 -15.333 6 -27 6 -35c0 -24 -9.5 -45 -28.5 -63s-42.5 -27 -70.5 -27c-26 0 -46.667 6 -62 18s-31.333 35.333 -48 70l-657 1411c-16.667 35.333 -25 61.666 -25 78.999c0 25.333 10.167 48 30.5 68
s44.166 30 71.499 30c24.667 0 44.667 -6 60 -18s31.333 -36 48 -72z" />
    <glyph glyph-name="bracketright" unicode="]" 
d="M514 -115v1204h-124c-49.333 0 -84.5 9.5 -105.5 28.5s-31.5 43.5 -31.5 73.5c0 30.667 10.5 55.5 31.5 74.5s56.167 28.5 105.5 28.5h329v-1614h-328c-49.333 0 -84.5 9.5 -105.5 28.5s-31.5 43.833 -31.5 74.5c0 30 10.5 54.5 31.5 73.5s56.167 28.5 105.5 28.5h123z
" />
    <glyph glyph-name="asciicircum" unicode="^" 
d="M612 1031l-241 -289.999c-22 -26.667 -39.667 -44 -53 -52s-29 -12 -47 -12c-28.667 0 -53.167 10.167 -73.5 30.5s-30.5 45.166 -30.5 74.499c0 23.333 15 53.333 45 90l400 483l403 -483c19.333 -23.333 31.833 -41 37.5 -53s8.5 -24.667 8.5 -38
c0 -28.667 -10.167 -53.167 -30.5 -73.5s-44.5 -30.5 -72.5 -30.5c-18.667 0 -34.667 4 -48 12s-31 25 -53 51z" />
    <glyph glyph-name="underscore" unicode="_" 
d="M1182 -615l-1126 -0.000976562c-49.333 0 -84.5 9.33301 -105.5 28s-31.5 43.334 -31.5 74.001s10.5 55.5 31.5 74.5s56.167 28.5 105.5 28.5h1126c48.667 0 83.5 -9.5 104.5 -28.5s31.5 -43.833 31.5 -74.5c0 -30 -10.333 -54.5 -31 -73.5s-55.667 -28.5 -105 -28.5z
" />
    <glyph glyph-name="grave" unicode="`" 
d="M544 1340l225 -183c27.333 -21.333 41 -42.666 41 -63.999c0 -18.667 -6.5 -34.334 -19.5 -47.001s-28.833 -19 -47.5 -19c-15.333 0 -34.333 9 -57 27l-226 183c-26.667 21.333 -40 42.666 -40 63.999c0 18.667 6.5 34.334 19.5 47.001s28.833 19 47.5 19
c15.333 0 34.333 -9 57 -27z" />
    <glyph glyph-name="a" unicode="a" 
d="M799 0l-0.000976562 47.9971c-51.333 -27.333 -108 -47.833 -170 -61.5s-118.333 -20.5 -169 -20.5c-110 0 -199.333 29.167 -268 87.5s-103 122.833 -103 193.5c0 86 43.833 165.833 131.5 239.5s208.834 110.5 363.501 110.5c62 0 133.667 -6.66699 215 -20v49
c0 30.667 -13.167 55.667 -39.5 75s-76.5 29 -150.5 29c-60.667 0 -139.334 -12 -236.001 -36c-36 -8.66699 -64 -13 -84 -13c-27.333 0 -50.5 9.83301 -69.5 29.5s-28.5 44.834 -28.5 75.501c0 17.333 3.33301 32.333 10 45s16 22.834 28 30.501s37 16.834 75 27.501
c50.667 14 102.334 25.167 155.001 33.5s100.334 12.5 143.001 12.5c127.333 0 226.166 -27.5 296.499 -82.5s105.5 -130.167 105.5 -225.5v-422h35c49.333 0 84.5 -9.5 105.5 -28.5s31.5 -43.833 31.5 -74.5c0 -30 -10.5 -54.5 -31.5 -73.5s-56.167 -28.5 -105.5 -28.5
h-240zM798.999 366.997c-82 16 -157.666 24.001 -226.999 24.001c-83.333 0 -155 -20.333 -215 -61c-37.333 -26 -56 -52.333 -56 -79c0 -19.333 9 -35 27 -47c33.333 -22 79 -33 137 -33c49.333 0 105.166 9.66699 167.499 29s117.833 45.666 166.5 78.999v88z" />
    <glyph glyph-name="b" unicode="b" 
d="M356 1297v-460c50 32.667 100.833 57.167 152.5 73.5s103.834 24.5 156.501 24.5c142 0 262.333 -49 361 -147s148 -216.333 148 -355c0 -132.667 -47 -243.5 -141 -332.5s-218 -133.5 -372 -133.5c-54.667 0 -107.334 7 -158.001 21s-99.667 34.667 -147 62v-50h-240
c-49.333 0 -84.5 9.5 -105.5 28.5s-31.5 43.833 -31.5 74.5c0 30 10.667 54.5 32 73.5s56.333 28.5 105 28.5h35v887h-35c-49.333 0 -84.5 9.5 -105.5 28.5s-31.5 43.833 -31.5 74.5c0 30 10.5 54.5 31.5 73.5s56.167 28.5 105.5 28.5h240zM969 427
c0 84.667 -29.667 156.334 -89 215.001s-132 88 -218 88c-85.333 0 -157.666 -29.333 -216.999 -88s-89 -129.334 -89 -212.001c0 -75.333 26.667 -137.166 80 -185.499s128.666 -72.5 225.999 -72.5s172.833 24.167 226.5 72.5s80.5 109.166 80.5 182.499z" />
    <glyph glyph-name="c" unicode="c" 
d="M934 871c24.667 23.333 49.999 35 75.999 35c29.333 0 53.5 -10.5 72.5 -31.5s28.5 -55.833 28.5 -104.5v-132c0 -49.333 -9.5 -84.333 -28.5 -105s-43.833 -31 -74.5 -31c-28 0 -51.667 8 -71 24c-14 12 -25 36.5 -33 73.5s-27.333 64.5 -58 82.5
c-54 32 -123 48 -207 48c-96.667 0 -174.167 -28.333 -232.5 -85s-87.5 -128.334 -87.5 -215.001c0 -80 28 -143.167 84 -189.5s149 -69.5 279 -69.5c85.333 0 155 8.66699 209 26c32 10.667 62.333 28.834 91 54.501s54.667 38.5 78 38.5c28 0 52.167 -10.333 72.5 -31
s30.5 -45 30.5 -73c0 -45.333 -31 -88.333 -93 -129c-92 -60.667 -226.667 -91 -404 -91c-159.333 0 -283.333 33 -372 99c-120 88.667 -180 210 -180 364c0 146 48.667 266.833 146 362.5s224.333 143.5 381 143.5c56.667 0 109.334 -5.33301 158.001 -16
s93.667 -26.667 135 -48z" />
    <glyph glyph-name="d" unicode="d" 
d="M1085 1297l0.000976562 -1092h35c48.667 0 83.667 -9.5 105 -28.5s32 -43.833 32 -74.5c0 -30 -10.5 -54.5 -31.5 -73.5s-56.167 -28.5 -105.5 -28.5h-240v50c-46.667 -27.333 -95.5 -48 -146.5 -62s-103.833 -21 -158.5 -21c-154 0 -278 44.5 -372 133.5
s-141 199.833 -141 332.5c0 138.667 49.333 257 148 355s219 147 361 147c53.333 0 105.666 -8.16699 156.999 -24.5s102 -40.833 152 -73.5v255h-35c-49.333 0 -84.5 9.5 -105.5 28.5s-31.5 43.5 -31.5 73.5c0 30.667 10.5 55.5 31.5 74.5s56.167 28.5 105.5 28.5h240z
M880.001 427c0 84.667 -29.667 156.334 -89 215.001s-132 88 -218 88c-85.333 0 -157.666 -29.333 -216.999 -88s-89 -129.334 -89 -212.001c0 -75.333 26.667 -137.166 80 -185.499s128.666 -72.5 225.999 -72.5c96.667 0 172 24.167 226 72.5s81 109.166 81 182.499z" />
    <glyph glyph-name="e" unicode="e" 
d="M1129 350l-841 0.000976562c21.333 -53.333 59.166 -96.333 113.499 -129s127.833 -49 220.5 -49c76 0 177 16.333 303 49c52 13.333 88 20 108 20c27.333 0 50.333 -9.66699 69 -29s28 -43.666 28 -72.999c0 -26.667 -10 -49.334 -30 -68.001
c-26.667 -24.667 -91.667 -48.167 -195 -70.5s-202.666 -33.5 -297.999 -33.5c-164 0 -295.167 46.333 -393.5 139s-147.5 206.667 -147.5 342c0 144 53.167 261.167 159.5 351.5s228.833 135.5 367.5 135.5c83.333 0 159.833 -14.667 229.5 -44s121.5 -61 155.5 -95
c48 -49.333 87.667 -110.333 119 -183c21.333 -50.667 32 -109.334 32 -176.001v-87zM902 555.001c-31.333 58.667 -72.333 102.5 -123 131.5s-111 43.5 -181 43.5c-69.333 0 -129.333 -14.5 -180 -43.5s-92 -72.833 -124 -131.5h608z" />
    <glyph glyph-name="f" unicode="f" 
d="M613 703v-498h292c49.333 0 84.5 -9.5 105.5 -28.5s31.5 -43.833 31.5 -74.5c0 -30 -10.5 -54.5 -31.5 -73.5s-56.167 -28.5 -105.5 -28.5h-619c-49.333 0 -84.5 9.5 -105.5 28.5s-31.5 43.833 -31.5 74.5c0 30 10.5 54.5 31.5 73.5s56.167 28.5 105.5 28.5h122v498h-98
c-49.333 0 -84.5 9.5 -105.5 28.5s-31.5 43.833 -31.5 74.5c0 30 10.5 54.5 31.5 73.5s56.167 28.5 105.5 28.5h98v78c0 89.333 33.5 163.5 100.5 222.5s164.167 88.5 291.5 88.5c56.667 0 122.167 -5.16699 196.5 -15.5s122 -24.833 143 -43.5s31.5 -42.667 31.5 -72
c0 -31.333 -9.33301 -56.833 -28 -76.5s-41.667 -29.5 -69 -29.5c-12.667 0 -31.667 2.33301 -57 7c-84.667 16.667 -159.667 25 -225 25c-68 0 -114.833 -10.167 -140.5 -30.5s-38.5 -45.5 -38.5 -75.5v-78h316c49.333 0 84.5 -9.5 105.5 -28.5s31.5 -43.833 31.5 -74.5
c0 -30 -10.5 -54.5 -31.5 -73.5s-56.167 -28.5 -105.5 -28.5h-316z" />
    <glyph glyph-name="g" unicode="g" 
d="M840 847v61.001h240c49.333 0 84.5 -9.5 105.5 -28.5s31.5 -43.833 31.5 -74.5c0 -30 -10.5 -54.5 -31.5 -73.5s-56.167 -28.5 -105.5 -28.5h-35v-746c0 -72 -15.167 -134.833 -45.5 -188.5s-76.833 -99.834 -139.5 -138.501s-133.334 -58 -212.001 -58h-232
c-49.333 0 -84.5 9.5 -105.5 28.5s-31.5 43.5 -31.5 73.5c0 30.667 10.5 55.5 31.5 74.5s56.167 28.5 105.5 28.5h226c62.667 0 111.334 17 146.001 51s52 77 52 129v100c-45.333 -29.333 -91.5 -51.333 -138.5 -66s-95.167 -22 -144.5 -22c-139.333 0 -256 46.5 -350 139.5
s-141 207.833 -141 344.5c0 137.333 47 252.5 141 345.5s210.667 139.5 350 139.5c52 0 101.5 -7.5 148.5 -22.5s91.833 -37.833 134.5 -68.5zM839 454.001c0 75.333 -27.833 140.666 -83.5 195.999s-122.5 83 -200.5 83s-144.833 -27.667 -200.5 -83
s-83.5 -120.666 -83.5 -195.999c0 -76 27.833 -141.5 83.5 -196.5s122.5 -82.5 200.5 -82.5s144.833 27.5 200.5 82.5s83.5 120.5 83.5 196.5z" />
    <glyph glyph-name="h" unicode="h" 
d="M403 1297l-0.00195312 -436.997c42.667 25.333 85.834 44.166 129.501 56.499s87.834 18.5 132.501 18.5c70.667 0 133.667 -12 189 -36s101.166 -61.833 137.499 -113.5s54.5 -116.834 54.5 -195.501v-385c52 0 86 -5 102 -15c32 -20.667 48 -50 48 -88
c0 -30 -10.333 -54.5 -31 -73.5s-55.667 -28.5 -105 -28.5h-234c-48.667 0 -83.5 9.5 -104.5 28.5s-31.5 43.833 -31.5 74.5c0 37.333 16 66.333 48 87c16.667 10.667 50.667 15.667 102 15v371c0 52.667 -12 89.667 -36 111c-31.333 28.667 -77.666 43 -138.999 43
c-45.333 0 -85.5 -8.83301 -120.5 -26.5s-82.167 -55.834 -141.5 -114.501v-384c52.667 0 86.667 -5 102 -15c32.667 -20.667 49 -50 49 -88c0 -30 -10.5 -54.5 -31.5 -73.5s-56.167 -28.5 -105.5 -28.5h-233c-49.333 0 -84.5 9.5 -105.5 28.5s-31.5 43.833 -31.5 74.5
c0 37.333 16.333 66.333 49 87c16 10.667 50 15.667 102 15v887h-35c-49.333 0 -84.5 9.5 -105.5 28.5s-31.5 43.833 -31.5 74.5c0 30 10.5 54.5 31.5 73.5s56.167 28.5 105.5 28.5h240z" />
    <glyph glyph-name="i" unicode="i" 
d="M688 1297v-217h-244v217h244zM716 908v-703h246c49.333 0 84.5 -9.5 105.5 -28.5s31.5 -43.833 31.5 -74.5c0 -30 -10.5 -54.5 -31.5 -73.5s-56.167 -28.5 -105.5 -28.5h-697c-49.333 0 -84.5 9.5 -105.5 28.5s-31.5 43.833 -31.5 74.5c0 30 10.5 54.5 31.5 73.5
s56.167 28.5 105.5 28.5h246v498h-165c-48.667 0 -83.667 9.5 -105 28.5s-32 43.833 -32 74.5c0 30 10.5 54.5 31.5 73.5s56.167 28.5 105.5 28.5h370z" />
    <glyph glyph-name="j" unicode="j" 
d="M821 1297v-217h-245v217h245zM737 703l-418 0.000976562c-49.333 0 -84.5 9.5 -105.5 28.5s-31.5 43.833 -31.5 74.5c0 30 10.5 54.5 31.5 73.5s56.167 28.5 105.5 28.5h623v-951c0 -72 -15.167 -134.833 -45.5 -188.5s-76.833 -99.834 -139.5 -138.501
s-133.334 -58 -212.001 -58h-232c-49.333 0 -84.5 9.5 -105.5 28.5s-31.5 43.5 -31.5 73.5c0 30.667 10.5 55.5 31.5 74.5s56.167 28.5 105.5 28.5h226c62.667 0 111.334 17 146.001 51s52 77 52 129v746z" />
    <glyph glyph-name="k" unicode="k" 
d="M446 341v-341h-240c-49.333 0 -84.5 9.5 -105.5 28.5s-31.5 43.833 -31.5 74.5c0 30 10.667 54.5 32 73.5s56.333 28.5 105 28.5h35v887h-35c-49.333 0 -84.5 9.5 -105.5 28.5s-31.5 43.833 -31.5 74.5c0 30 10.5 54.5 31.5 73.5s56.167 28.5 105.5 28.5h240v-691
l160 129c-16.667 28.667 -25 52 -25 70c0 30.667 10.333 55.5 31 74.5s55.667 28.5 105 28.5h234c49.333 0 84.5 -9.5 105.5 -28.5s31.5 -43.833 31.5 -74.5c0 -30 -10.5 -54.5 -31.5 -73.5s-56.167 -28.5 -105.5 -28.5h-57l-249 -202l335 -296h60
c49.333 0 84.5 -9.5 105.5 -28.5s31.5 -43.833 31.5 -74.5c0 -30 -10.5 -54.5 -31.5 -73.5s-56.167 -28.5 -105.5 -28.5h-236c-49.333 0 -84.5 9.5 -105.5 28.5s-31.5 43.833 -31.5 74.5c0 26 11.333 51.667 34 77l-217 192z" />
    <glyph glyph-name="l" unicode="l" 
d="M717 1297v-1092h246c49.333 0 84.5 -9.5 105.5 -28.5s31.5 -43.833 31.5 -74.5c0 -30 -10.5 -54.5 -31.5 -73.5s-56.167 -28.5 -105.5 -28.5h-697c-49.333 0 -84.5 9.5 -105.5 28.5s-31.5 43.833 -31.5 74.5c0 30 10.5 54.5 31.5 73.5s56.167 28.5 105.5 28.5h246v887
h-165c-48.667 0 -83.667 9.5 -105 28.5s-32 43.833 -32 74.5c0 30 10.5 54.5 31.5 73.5s56.167 28.5 105.5 28.5h370z" />
    <glyph glyph-name="m" unicode="m" 
d="M298 908l-0.00195312 -57.999c33.333 32.667 63.5 55.167 90.5 67.5s58.167 18.5 93.5 18.5c30 0 59.667 -7.33301 89 -22s58 -36.667 86 -66c35.333 29.333 71.166 51.166 107.499 65.499s73.5 21.5 111.5 21.5c76 0 137.667 -20.333 185 -61
c62.667 -53.333 94 -123.333 94 -210v-459c42.667 0 74.334 -9.66699 95.001 -29s31 -44 31 -74s-10.333 -54.5 -31 -73.5s-55.667 -28.5 -105 -28.5h-195v647c0 31.333 -5.66699 53 -17 65s-28.666 18 -51.999 18c-22.667 0 -43.667 -6 -63 -18
c-24.667 -16.667 -54.667 -48 -90 -94v-413c42.667 0 74.334 -9.66699 95.001 -29s31 -44 31 -74s-10.333 -54.5 -31 -73.5s-55.667 -28.5 -105 -28.5h-195v647c0 30.667 -5.83301 52.167 -17.5 64.5s-29.167 18.5 -52.5 18.5c-24 0 -47.667 -7.5 -71 -22.5
s-51.333 -44.833 -84 -89.5v-413c42.667 0 74.5 -9.66699 95.5 -29s31.5 -44 31.5 -74s-10.5 -54.5 -31.5 -73.5s-56.167 -28.5 -105.5 -28.5h-185c-49.333 0 -84.5 9.5 -105.5 28.5s-31.5 43.833 -31.5 74.5c0 30 10.333 54.5 31 73.5s52.667 28.5 96 28.5v498
c-43.333 0 -75.333 9.66699 -96 29s-31 44 -31 74s10.5 54.5 31.5 73.5s56.167 28.5 105.5 28.5h195z" />
    <glyph glyph-name="n" unicode="n" 
d="M407 908l0.000976562 -69.002c37.333 32 78.5 56 123.5 72s93.833 24 146.5 24c121.333 0 217.333 -37.667 288 -113c56 -60 84 -138.667 84 -236v-381c43.333 0 75.333 -9.5 96 -28.5s31 -43.833 31 -74.5c0 -30 -10.5 -54.5 -31.5 -73.5s-56.167 -28.5 -105.5 -28.5
h-185c-49.333 0 -84.5 9.5 -105.5 28.5s-31.5 43.833 -31.5 74.5c0 30 10.333 54.5 31 73.5s52.667 28.5 96 28.5v387c0 44.667 -12 77.334 -36 98.001c-31.333 26.667 -78.333 40 -141 40c-47.333 0 -88.833 -9.16699 -124.5 -27.5s-80.834 -57.166 -135.501 -116.499v-381
c52.667 0 86.667 -5 102 -15c32.667 -20 49 -49.333 49 -88c0 -30 -10.5 -54.5 -31.5 -73.5s-56.167 -28.5 -105.5 -28.5h-233c-49.333 0 -84.5 9.5 -105.5 28.5s-31.5 43.833 -31.5 74.5c0 37.333 16 66.333 48 87c16 10 50.333 15 103 15v498
c-43.333 0 -75.333 9.66699 -96 29s-31 44 -31 74s10.5 54.5 31.5 73.5s56.167 28.5 105.5 28.5h195z" />
    <glyph glyph-name="o" unicode="o" 
d="M1147 437c0 -78.667 -21.833 -154.833 -65.5 -228.5s-108.667 -132.334 -195 -176.001s-176.5 -65.5 -270.5 -65.5c-93.333 0 -182.666 21.5 -267.999 64.5s-150.333 101.5 -195 175.5s-67 151.333 -67 232c0 82 22.667 162.5 68 241.5s110.5 141.167 195.5 186.5
s173.833 68 266.5 68c93.333 0 183.166 -23.167 269.499 -69.5s151.5 -108.666 195.5 -186.999s66 -158.833 66 -241.5zM942 436.001c0 66 -23.667 126.666 -71 181.999c-64.667 74.667 -149.667 112 -255 112c-92.667 0 -170 -29.667 -232 -89s-93 -128 -93 -206
c0 -64 31.333 -123.833 94 -179.5s139.667 -83.5 231 -83.5c92 0 169.333 27.833 232 83.5s94 115.834 94 180.501z" />
    <glyph glyph-name="p" unicode="p" 
d="M360 113v-336h123c49.333 0 84.5 -9.5 105.5 -28.5s31.5 -43.833 31.5 -74.5c0 -30 -10.5 -54.5 -31.5 -73.5s-56.167 -28.5 -105.5 -28.5h-363c-49.333 0 -84.5 9.5 -105.5 28.5s-31.5 43.5 -31.5 73.5c0 30.667 10.667 55.5 32 74.5s56.333 28.5 105 28.5h35v926h-35
c-49.333 0 -84.5 9.5 -105.5 28.5s-31.5 43.833 -31.5 74.5c0 30 10.5 54.5 31.5 73.5s56.167 28.5 105.5 28.5h240v-70c48 32.667 97.667 57 149 73s104 24 158 24c140 0 259.333 -47.5 358 -142.5s148 -203.833 148 -326.5c0 -135.333 -58.333 -247 -175 -335
c-97.333 -73.333 -207 -110 -329 -110c-52.667 0 -104.667 7.66699 -156 23s-102.333 38.333 -153 69zM968 465c0 28.667 -11.333 65.1689 -34 109.502s-57.5 81.333 -104.5 111s-102.167 44.5 -165.5 44.5c-102 0 -183 -38.333 -243 -115
c-40.667 -52.667 -61 -103.334 -61 -152.001c0 -54.667 29.167 -107.834 87.5 -159.501s130.5 -77.5 216.5 -77.5c86.667 0 159 25.667 217 77s87 105.333 87 162z" />
    <glyph glyph-name="q" unicode="q" 
d="M1090 703v-926h36c48.667 0 83.5 -9.5 104.5 -28.5s31.5 -43.833 31.5 -74.5c0 -30 -10.333 -54.5 -31 -73.5s-55.667 -28.5 -105 -28.5h-363c-49.333 0 -84.5 9.5 -105.5 28.5s-31.5 43.5 -31.5 73.5c0 30.667 10.5 55.5 31.5 74.5s56.167 28.5 105.5 28.5h122v336
c-50 -30.667 -100.833 -53.667 -152.5 -69s-103.834 -23 -156.501 -23c-122 0 -231.667 36.667 -329 110c-116.667 88 -175 199.667 -175 335c0 122.667 49.333 231.5 148 326.5s218.334 142.5 359.001 142.5c54 0 106.5 -8 157.5 -24s100.5 -40.333 148.5 -73v70h241
c48.667 0 83.5 -9.5 104.5 -28.5s31.5 -43.833 31.5 -74.5c0 -30 -10.333 -54.5 -31 -73.5s-55.667 -28.5 -105 -28.5h-36zM885 465c0 28.667 -11.333 65.167 -34 109.5s-57.667 81.333 -105 111s-102.333 44.5 -165 44.5c-102.667 0 -183.667 -38.333 -243 -115
c-40.667 -52.667 -61 -103.334 -61 -152.001c0 -55.333 29.167 -108.666 87.5 -159.999s130.5 -77 216.5 -77c86.667 0 159 25.667 217 77s87 105.333 87 162z" />
    <glyph glyph-name="r" unicode="r" 
d="M572 908l-0.000976562 -128.001c86 62 153.833 103.333 203.5 124s96.167 31 139.5 31c66.667 0 131.334 -24.667 194.001 -74c42.667 -33.333 64 -67.333 64 -102c0 -29.333 -10.167 -54.166 -30.5 -74.499s-44.833 -30.5 -73.5 -30.5c-25.333 0 -52 12.667 -80 38
s-53 38 -75 38c-28.667 0 -71.5 -18 -128.5 -54s-128.167 -90 -213.5 -162v-309h292c49.333 0 84.5 -9.5 105.5 -28.5s31.5 -43.833 31.5 -74.5c0 -30 -10.5 -54.5 -31.5 -73.5s-56.167 -28.5 -105.5 -28.5h-619c-49.333 0 -84.5 9.5 -105.5 28.5s-31.5 43.833 -31.5 74.5
c0 30 10.5 54.5 31.5 73.5s56.167 28.5 105.5 28.5h122v498h-74c-49.333 0 -84.5 9.5 -105.5 28.5s-31.5 43.833 -31.5 74.5c0 30 10.5 54.5 31.5 73.5s56.167 28.5 105.5 28.5h279z" />
    <glyph glyph-name="s" unicode="s" 
d="M836 668c-33.333 20.667 -68.334 36.1709 -105.001 46.5039s-75 15.5 -115 15.5c-79.333 0 -142.333 -13 -189 -39c-20.667 -11.333 -31 -23.666 -31 -36.999c0 -15.333 14 -30.333 42 -45c21.333 -10.667 69 -21 143 -31c136 -18.667 230.667 -37.334 284 -56.001
c70 -24.667 124 -61.334 162 -110.001s57 -100 57 -154c0 -73.333 -32.333 -134.666 -97 -183.999c-92.667 -71.333 -213 -107 -361 -107c-59.333 0 -114.166 5.16699 -164.499 15.5s-96.5 25.5 -138.5 45.5c-10 -8.66699 -20.667 -15.334 -32 -20.001s-23 -7 -35 -7
c-32 0 -57.5 10.5 -76.5 31.5s-28.5 56.167 -28.5 105.5v69c0 49.333 9.5 84.5 28.5 105.5s43.833 31.5 74.5 31.5c24.667 0 45.334 -6.83301 62.001 -20.5s29.667 -37.167 39 -70.5c31.333 -26.667 69 -46.834 113 -60.501s94.667 -20.5 152 -20.5c94 0 167 14.667 219 44
c24.667 14.667 37 30 37 46c0 26.667 -17.667 48.667 -53 66s-108.333 32 -219 44c-164.667 17.333 -274.667 50.666 -330 99.999c-55.333 48.667 -83 108.667 -83 180c0 73.333 31 134.333 93 183c84 66.667 194 100 330 100c47.333 0 92.833 -4.5 136.5 -13.5
s85.5 -22.833 125.5 -41.5c12.667 9.33301 24.5 16.333 35.5 21s21.167 7 30.5 7c28 0 51.333 -10.5 70 -31.5s28 -56.167 28 -105.5v-50c0 -44.667 -5.33301 -75 -16 -91c-21.333 -30.667 -50.333 -46 -87 -46c-24.667 0 -46.334 7.66699 -65.001 23
s-30.667 35.666 -36 60.999z" />
    <glyph glyph-name="t" unicode="t" 
d="M564 703l-0.00195312 -411.001c0 -44 9 -73 27 -87c28 -22 78 -33 150 -33c104.667 0 201.334 22.333 290.001 67c34 17.333 60.667 26 80 26c26.667 0 49.834 -10 69.501 -30s29.5 -44.333 29.5 -73c0 -26.667 -10.667 -49.667 -32 -69
c-32.667 -31.333 -97.167 -60.166 -193.5 -86.499s-177.5 -39.5 -243.5 -39.5c-127.333 0 -222.833 27.5 -286.5 82.5s-95.5 122.5 -95.5 202.5v451h-74c-49.333 0 -84.5 9.5 -105.5 28.5s-31.5 43.833 -31.5 74.5c0 30 10.5 54.5 31.5 73.5s56.167 28.5 105.5 28.5h74v185
c0 49.333 9.5 84.5 28.5 105.5s43.833 31.5 74.5 31.5c30 0 54.5 -10.5 73.5 -31.5s28.5 -56.167 28.5 -105.5v-185h379c49.333 0 84.5 -9.5 105.5 -28.5s31.5 -43.833 31.5 -74.5c0 -30 -10.5 -54.5 -31.5 -73.5s-56.167 -28.5 -105.5 -28.5h-379z" />
    <glyph glyph-name="u" unicode="u" 
d="M1050 908l-0.000976562 -703.001c43.333 0 75.333 -9.66699 96 -29s31 -44 31 -74s-10.5 -54.5 -31.5 -73.5s-56.167 -28.5 -105.5 -28.5h-195v47c-58.667 -26.667 -114.667 -46.667 -168 -60s-104 -20 -152 -20c-67.333 0 -125.666 14.167 -174.999 42.5
s-88.333 67.5 -117 117.5c-20.667 36 -31 81 -31 135v441h-35c-49.333 0 -84.5 9.5 -105.5 28.5s-31.5 43.833 -31.5 74.5c0 30 10.5 54.5 31.5 73.5s56.167 28.5 105.5 28.5h240v-610c0 -43.333 10.5 -75.166 31.5 -95.499s53.167 -30.5 96.5 -30.5
c41.333 0 85.833 8.16699 133.5 24.5s106.5 45.833 176.5 88.5v418h-74c-49.333 0 -84.5 9.5 -105.5 28.5s-31.5 43.833 -31.5 74.5c0 30 10.5 54.5 31.5 73.5s56.167 28.5 105.5 28.5h279z" />
    <glyph glyph-name="v" unicode="v" 
d="M616 249l221 453.999c-54.667 0 -89.667 4.66699 -105 14c-33.333 20.667 -50 50.334 -50 89.001c0 30 10.5 54.5 31.5 73.5s56.167 28.5 105.5 28.5h281c49.333 0 84.5 -9.5 105.5 -28.5s31.5 -43.833 31.5 -74.5c0 -30 -10.5 -54.5 -31.5 -73.5
s-56.167 -28.5 -105.5 -28.5h-34l-343 -703h-214l-343 703h-29c-49.333 0 -84.5 9.5 -105.5 28.5s-31.5 43.833 -31.5 74.5c0 30 10.5 54.5 31.5 73.5s56.167 28.5 105.5 28.5h275c48.667 0 83.5 -9.5 104.5 -28.5s31.5 -43.833 31.5 -74.5c0 -38 -16 -67 -48 -87
c-16 -10 -51.667 -15 -107 -15z" />
    <glyph glyph-name="w" unicode="w" 
d="M616 378l-142 -378h-193l-172 703c-37.333 2 -65.5 12.5 -84.5 31.5s-28.5 42.833 -28.5 71.5c0 30 10.5 54.5 31.5 73.5s56.167 28.5 105.5 28.5h191c49.333 0 84.5 -9.5 105.5 -28.5s31.5 -43.833 31.5 -74.5s-12 -56.667 -36 -78c-18 -16 -53.333 -24 -106 -24
l78 -325l127 333h182l128 -333l80 325c-50.667 0 -84 5 -100 15c-32 20.667 -48 50 -48 88c0 30 10.5 54.5 31.5 73.5s56.167 28.5 105.5 28.5h193c49.333 0 84.5 -9.5 105.5 -28.5s31.5 -43.833 31.5 -74.5c0 -27.333 -9.16699 -50.5 -27.5 -69.5
s-45.5 -29.833 -81.5 -32.5l-168 -703h-190z" />
    <glyph glyph-name="x" unicode="x" 
d="M768 472l310.999 -267c37.333 -2 65.333 -12.5 84 -31.5s28 -42.833 28 -71.5c0 -30 -10.5 -54.5 -31.5 -73.5s-56.167 -28.5 -105.5 -28.5h-233c-49.333 0 -84.5 9.5 -105.5 28.5s-31.5 44.167 -31.5 75.5c0 24 7.5 45.167 22.5 63.5s35.5 30.833 61.5 37.5l-153 132
l-156 -132c31.333 -8 53.833 -20.333 67.5 -37s20.5 -38 20.5 -64c0 -31.333 -10.333 -56.5 -31 -75.5s-55.667 -28.5 -105 -28.5h-231c-49.333 0 -84.5 9.5 -105.5 28.5s-31.5 43.833 -31.5 74.5c0 28 9.33301 51.5 28 70.5s46.667 29.5 84 31.5l304 268l-269 230
c-35.333 2.66699 -62.166 13.5 -80.499 32.5s-27.5 42.5 -27.5 70.5c0 30 10.5 54.5 31.5 73.5s56.167 28.5 105.5 28.5h192c49.333 0 84.5 -9.5 105.5 -28.5s31.5 -43.167 31.5 -72.5c0 -39.333 -18.667 -71.333 -56 -96l124 -103l122 105c-36.667 26 -55 56 -55 90
c0 32 10.5 57.5 31.5 76.5s56.167 28.5 105.5 28.5h190c49.333 0 84.5 -9.5 105.5 -28.5s31.5 -43.833 31.5 -74.5c0 -27.333 -9.16699 -50.5 -27.5 -69.5s-45.5 -29.833 -81.5 -32.5z" />
    <glyph glyph-name="y" unicode="y" 
d="M500 7l-355.001 695.999c-33.333 4 -58.666 15.333 -75.999 34s-26 41.334 -26 68.001c0 30.667 10.5 55.5 31.5 74.5s56.167 28.5 105.5 28.5h187c49.333 0 84.5 -9.5 105.5 -28.5s31.5 -43.833 31.5 -74.5c0 -30 -10.5 -54.5 -31.5 -73.5s-54.167 -28.5 -99.5 -28.5
l242 -471l240 471c-44 0 -76.5 9.5 -97.5 28.5s-31.5 43.833 -31.5 74.5c0 30 10.5 54.5 31.5 73.5s56.167 28.5 105.5 28.5h193c48.667 0 83.5 -9.5 104.5 -28.5s31.5 -43.833 31.5 -74.5c0 -27.333 -9 -50.5 -27 -69.5s-44.667 -29.833 -80 -32.5l-470 -926
c51.333 0 85 -5 101 -15c32 -20.667 48 -50 48 -88c0 -30 -10.5 -54.5 -31.5 -73.5s-56.167 -28.5 -105.5 -28.5h-447c-49.333 0 -84.5 9.5 -105.5 28.5s-31.5 43.5 -31.5 73.5c0 30.667 10.5 55.5 31.5 74.5s56.167 28.5 105.5 28.5h204z" />
    <glyph glyph-name="z" unicode="z" 
d="M504 205h360c2 38 12.5 66.5 31.5 85.5s42.5 28.5 70.5 28.5c30.667 0 55.5 -10.5 74.5 -31.5s28.5 -56.167 28.5 -105.5v-182h-892v170l540 533h-314v-20c0 -48.667 -9.5 -83.5 -28.5 -104.5s-43.833 -31.5 -74.5 -31.5s-55.5 10.5 -74.5 31.5s-28.5 55.833 -28.5 104.5
l1 225h848v-168z" />
    <glyph glyph-name="braceleft" unicode="{" 
d="M656 497c24 -27.333 40.332 -53.8379 48.999 -79.5049s13 -67.167 13 -124.5v-326c0 -27.333 5.16699 -46.833 15.5 -58.5s29.5 -18.667 57.5 -21s51 -13.166 69 -32.499s27 -43 27 -71c0 -29.333 -10.167 -54 -30.5 -74s-46.166 -30 -77.499 -30
c-44.667 0 -87.667 11.833 -129 35.5s-77.333 62.167 -108 115.5c-19.333 34.667 -29 75 -29 121v361c0 28.667 -4.66699 48.334 -14 59.001s-29.333 17.834 -60 21.501s-54.167 14.5 -70.5 32.5s-24.5 41.667 -24.5 71c0 30 8.16699 54 24.5 72s40 28.833 71 32.5
s49.833 9.83398 56.5 18.501c11.333 13.333 17 34 17 62v342c0 73.333 26.667 136.833 80 190.5s115 80.5 185 80.5c32 0 58.167 -10 78.5 -30s30.5 -44.667 30.5 -74c0 -27.333 -9 -50.666 -27 -69.999s-41.333 -30.333 -70 -33s-46.667 -8.66699 -54 -18
c-12 -14 -18 -34.667 -18 -62v-326c0 -46 -4.5 -81.5 -13.5 -106.5s-25.167 -51.167 -48.5 -78.5z" />
    <glyph glyph-name="bar" unicode="|" 
d="M718 1097v-1220c0 -70 -1.66699 -111.667 -5 -125c-5.33301 -20 -17.166 -37 -35.499 -51s-38.833 -21 -61.5 -21c-23.333 0 -44.166 7 -62.499 21s-30.166 31.667 -35.499 53c-3.33301 12 -5 53 -5 123v1220c0 70 1.66699 111.667 5 125c5.33301 20 17.166 37 35.499 51
s39.166 21 62.499 21c22.667 0 43.167 -7 61.5 -21s30.166 -31.333 35.499 -52c3.33301 -13.333 5 -54.666 5 -123.999z" />
    <glyph glyph-name="braceright" unicode="}" 
d="M568 497c-23.333 27.333 -39.499 53.835 -48.499 79.502s-13.5 60.834 -13.5 105.501v326c0 27.333 -5.16699 46.833 -15.5 58.5s-29.5 18.834 -57.5 21.501s-51 13.667 -69 33s-27 42.666 -27 69.999c0 29.333 10.167 54 30.5 74s46.166 30 77.499 30
c44.667 0 87.667 -11.833 129 -35.5s77.333 -62.167 108 -115.5c19.333 -34.667 29 -74.667 29 -120v-342c0 -28.667 4.66699 -48.5 14 -59.5s29.333 -18.167 60 -21.5s54.167 -14 70.5 -32s24.5 -42 24.5 -72c0 -29.333 -8.16699 -53 -24.5 -71s-40 -28.833 -71 -32.5
s-49.833 -9.83398 -56.5 -18.501c-11.333 -13.333 -17 -34 -17 -62v-361c0 -74 -26.667 -137.833 -80 -191.5s-115 -80.5 -185 -80.5c-32 0 -58.167 10 -78.5 30s-30.5 44.667 -30.5 74c0 27.333 9 50.666 27 69.999s41.333 30.333 70 33s46.667 8.66699 54 18
c12 14 18 34.667 18 62v326c0 57.333 4.16699 98.666 12.5 123.999s24.833 52 49.5 80z" />
    <glyph glyph-name="asciitilde" unicode="~" 
d="M1001 729c29.333 0 53.9971 -9.99609 73.9971 -29.9961s30 -44 30 -72c0 -28.667 -15 -60.667 -45 -96c-45.333 -52.667 -83.333 -90 -114 -112c-45.333 -33.333 -93.666 -50 -144.999 -50c-38.667 0 -77 9.66699 -115 29s-85.5 56.166 -142.5 110.499
s-93.5 81.5 -109.5 81.5c-8 0 -15.667 -2.66699 -23 -8c-14.667 -9.33301 -38.5 -32.333 -71.5 -69s-56.167 -58.834 -69.5 -66.501s-26.666 -11.5 -39.999 -11.5c-28 0 -52.5 10.333 -73.5 31s-31.5 44.667 -31.5 72c0 40.667 34.667 93.667 104 159s137.333 98 204 98
c36.667 0 74.334 -9.5 113.001 -28.5s89.667 -59.833 153 -122.5c32.667 -32.667 56.667 -53.334 72 -62.001c10 -5.33301 19 -8 27 -8c9.33301 0 17.666 2.66699 24.999 8c16.667 11.333 43.334 38.666 80.001 81.999c23.333 28 41.5 45.833 54.5 53.5s27.5 11.5 43.5 11.5
z" />
    <glyph glyph-name="nbspace" unicode="&#xa0;" 
 />
    <glyph glyph-name="currency" unicode="&#xa4;" 
d="M264 809l-66.0029 66c-12 12 -26.333 31.667 -43 59c-6 9.33301 -9 22.666 -9 39.999c0 28.667 10.167 53 30.5 73s45.5 30 75.5 30c14.667 0 28.334 -3.33301 41.001 -10s30.334 -21 53.001 -43l65 -65c32 18.667 65 32.667 99 42s69 14 105 14
c35.333 0 70 -4.66699 104 -14s67.333 -23.333 100 -42l62 62c23.333 23.333 41.166 38.166 53.499 44.499s26.833 9.5 43.5 9.5c28.667 0 53.167 -10.333 73.5 -31s30.5 -46 30.5 -76c0 -15.333 -3.33301 -29.333 -10 -42s-21 -30 -43 -52l-64 -64
c34.667 -63.333 52 -130.333 52 -201c0 -72 -17.667 -139.667 -53 -203l67 -67c22.667 -23.333 37.334 -41.166 44.001 -53.499s10 -26.833 10 -43.5c0 -28 -10.667 -52.667 -32 -74s-46.666 -32 -75.999 -32c-15.333 0 -29.333 3.5 -42 10.5s-30.334 21.833 -53.001 44.5
l-66 67c-30.667 -18 -62.834 -31.667 -96.501 -41s-68.5 -14 -104.5 -14s-70.833 4.66699 -104.5 14s-66.167 23 -97.5 41l-67 -66c-23.333 -23.333 -41.166 -38.333 -53.499 -45s-26.833 -10 -43.5 -10c-28 0 -52.333 10.5 -73 31.5s-31 46.167 -31 75.5
c0 15.333 3.33301 29.333 10 42s21.334 30.334 44.001 53.001l67 67c-36 63.333 -54 131 -54 203s17.333 138.667 52 200zM810.997 611c0 55.333 -19.333 102.333 -58 141s-84.667 58 -138 58c-54 0 -100.167 -19.5 -138.5 -58.5s-57.5 -86.167 -57.5 -141.5
c0 -56 19.167 -103.667 57.5 -143s84.5 -59 138.5 -59c53.333 0 99.333 19.667 138 59s58 87.333 58 144z" />
    <glyph glyph-name="brokenbar" unicode="&#xa6;" 
d="M718 1097v-315c0 -70 -1.66699 -111.667 -5 -125c-5.33301 -20 -17.166 -37 -35.499 -51s-38.833 -21 -61.5 -21c-23.333 0 -44.166 7 -62.499 21s-30.166 31.667 -35.499 53c-3.33301 12 -5 53 -5 123v315c0 70 1.66699 111.667 5 125c5.33301 20 17.166 37 35.499 51
s39.166 21 62.499 21c22.667 0 43.167 -7 61.5 -21s30.166 -31 35.499 -51c3.33301 -14 5 -55.667 5 -125zM718 192v-315c0 -70 -1.66699 -111.667 -5 -125c-5.33301 -20 -17.166 -37 -35.499 -51s-38.833 -21 -61.5 -21c-23.333 0 -44.166 7 -62.499 21
s-30.166 31.667 -35.499 53c-3.33301 12 -5 53 -5 123v315c0 70 1.66699 111.667 5 125c5.33301 20 17.166 37 35.499 51s39.166 21 62.499 21c22.667 0 43.167 -7 61.5 -21s30.166 -31 35.499 -51c3.33301 -14 5 -55.667 5 -125z" />
    <glyph glyph-name="section" unicode="&#xa7;" 
d="M895 1148l-304.002 0.00195312c-44 0 -80.167 -13.333 -108.5 -40s-42.5 -56 -42.5 -88c0 -23.333 11.333 -48.333 34 -75c31.333 -36.667 94.333 -81.667 189 -135l181 -101c110.667 -62 186.667 -119 228 -171s62 -104.667 62 -158c0 -46 -16.667 -87.5 -50 -124.5
s-83.666 -62.5 -150.999 -76.5c7.33301 -28.667 11 -53.334 11 -74.001c0 -41.333 -8.16699 -79 -24.5 -113s-38.833 -64 -67.5 -90s-54.667 -44 -78 -54c-34 -14.667 -78.667 -22 -134 -22h-453v247c0 37.333 7.16699 64 21.5 80s32.5 24 54.5 24s40 -8 54 -24
s21 -42.667 21 -80v-96h306c41.333 0 75.833 13.167 103.5 39.5s41.5 54.833 41.5 85.5c0 18.667 -6 37.5 -18 56.5s-37.667 43.667 -77 74s-80.333 57.833 -123 82.5l-209 119c-87.333 50 -153 102.5 -197 157.5s-66 106.167 -66 153.5
c0 45.333 16.167 86.166 48.5 122.499s82.833 62.833 151.5 79.5c-8 20 -12 39.333 -12 58c0 54 14.333 105.167 43 153.5s70.334 86.5 125.001 114.5c38.667 20 88.667 30 150 30h440v-249c0 -37.333 -7 -64 -21 -80s-32 -24 -54 -24s-40 8 -54 24s-21 42.667 -21 80v94z
M403.998 800.002c-58.667 0 -101.669 -8.33203 -129.002 -24.999c-17.333 -10.667 -26 -21.334 -26 -32.001c0 -43.333 68.667 -104.333 206 -183l202 -115c69.333 -39.333 125.333 -78 168 -116c66.667 0 111.334 7 134.001 21c17.333 10.667 26 23 26 37
c0 40.667 -76 104.667 -228 192l-196 113c-55.333 31.333 -107.666 67.333 -156.999 108z" />
    <glyph glyph-name="dieresis" unicode="&#xa8;" 
d="M509 1177c0 -30.667 -10.5 -56.5 -31.5 -77.5s-46.5 -31.5 -76.5 -31.5s-55.667 10.667 -77 32s-32 47 -32 77s10.667 55.5 32 76.5s47 31.5 77 31.5s55.5 -10.5 76.5 -31.5s31.5 -46.5 31.5 -76.5zM937 1177c0 -30.667 -10.667 -56.5 -32 -77.5s-47 -31.5 -77 -31.5
s-55.5 10.667 -76.5 32s-31.5 47 -31.5 77s10.5 55.5 31.5 76.5s46.5 31.5 76.5 31.5s55.667 -10.5 77 -31.5s32 -46.5 32 -76.5z" />
    <glyph glyph-name="copyright" unicode="&#xa9;" 
d="M1235 591c0 -106.667 -26.6689 -208.666 -80.002 -305.999s-129.666 -174 -228.999 -230s-203 -84 -311 -84s-211 27.333 -309 82s-174.5 131 -229.5 229s-82.5 201 -82.5 309s27.5 211 82.5 309s131.333 174.5 229 229.5s200.834 82.5 309.501 82.5s212.5 -28 311.5 -84
s175.167 -132.833 228.5 -230.5s80 -199.834 80 -306.501zM1115 591.001c0 85.333 -21.333 167.166 -64 245.499s-104 140.166 -184 185.499s-163.667 68 -251 68c-138 0 -255.833 -48.667 -353.5 -146s-146.5 -215 -146.5 -353c0 -137.333 48.833 -254.666 146.5 -351.999
s215.5 -146 353.5 -146c87.333 0 171 22.5 251 67.5s141.333 106.833 184 185.5s64 160.334 64 245.001zM776.998 886.001c6.66699 10 14 17.332 22 21.999s16.667 7 26 7c16.667 0 30.167 -5.66699 40.5 -17s15.5 -30.333 15.5 -57l-1 -95c0 -26.667 -5 -45.667 -15 -57
s-23.333 -17 -40 -17c-14.667 0 -26.5 4.16699 -35.5 12.5s-15.5 23.666 -19.5 45.999s-17.333 40.833 -40 55.5c-34 22.667 -73.333 34 -118 34c-57.333 0 -104.666 -20 -141.999 -60s-56 -89.333 -56 -148v-73c0 -53.333 19.5 -97.833 58.5 -133.5
s93.167 -53.5 162.5 -53.5c41.333 0 76.333 5.66699 105 17c16.667 6 34.167 18.5 52.5 37.5s34.833 28.5 49.5 28.5s27.667 -5.66699 39 -17s17 -24.666 17 -39.999c0 -26 -20 -53 -60 -81c-52 -38 -119.333 -57 -202 -57c-102 0 -183 29 -243 87s-90 128 -90 210v75
c0 91.333 29.667 167.333 89 228s131.333 91 216 91c31.333 0 61.166 -3.66699 89.499 -11s54.833 -18.666 79.5 -33.999z" />
    <glyph glyph-name="guillemotleft" unicode="&#xab;" 
d="M340 435l285.999 -280.999c20 -19.333 30 -38 30 -56c0 -16.667 -6 -30.834 -18 -42.501s-26.667 -17.5 -44 -17.5c-15.333 0 -29.666 6.33301 -42.999 19c-4 3.33301 -7.33301 6.33301 -10 9l-470 361l477 403c22 18.667 40 28 54 28c17.333 0 31.833 -6 43.5 -18
s17.5 -27 17.5 -45c0 -15.333 -10 -33.333 -30 -54zM812.999 435.001l285.998 -281c20 -19.333 30 -38 30 -56c0 -16.667 -6 -31 -18 -43s-26.667 -18 -44 -18c-15.333 0 -29.666 6.33301 -42.999 19c-4 4 -7.33301 7 -10 9l-470 361l477 404c22 18 40.333 27 55 27
c16.667 0 30.834 -6 42.501 -18s17.5 -26.667 17.5 -44c0 -15.333 -10 -33.333 -30 -54z" />
    <glyph glyph-name="logicalnot" unicode="&#xac;" 
d="M940 480l-842 -0.000976562c-49.333 0 -84.5 9.5 -105.5 28.5s-31.5 43.833 -31.5 74.5s10.5 55.334 31.5 74.001s56.167 28 105.5 28h1048v-548c0 -49.333 -9.5 -84.5 -28.5 -105.5s-43.833 -31.5 -74.5 -31.5s-55.5 10.5 -74.5 31.5s-28.5 56.167 -28.5 105.5v343z" />
    <glyph glyph-name="registered" unicode="&#xae;" 
d="M1235 591c0 -106.667 -26.6689 -208.666 -80.002 -305.999s-129.666 -174 -228.999 -230s-203 -84 -311 -84s-211 27.333 -309 82s-174.5 131 -229.5 229s-82.5 201 -82.5 309s27.5 211 82.5 309s131.333 174.5 229 229.5s200.834 82.5 309.501 82.5s212.5 -28 311.5 -84
s175.167 -132.833 228.5 -230.5s80 -199.834 80 -306.501zM1115 591.001c0 85.333 -21.333 167.166 -64 245.499s-104 140.166 -184 185.499s-163.667 68 -251 68c-138 0 -255.833 -48.667 -353.5 -146s-146.5 -215 -146.5 -353c0 -137.333 48.833 -254.666 146.5 -351.999
s215.5 -146 353.5 -146c87.333 0 171 22.5 251 67.5s141.333 106.833 184 185.5s64 160.334 64 245.001zM492.998 511.001l0.000976562 -139.997h40c26.667 0 45.667 -5.16699 57 -15.5s17 -23.833 17 -40.5c0 -16 -5.66699 -29.167 -17 -39.5s-30.333 -15.5 -57 -15.5h-169
c-26.667 0 -45.667 5.16699 -57 15.5s-17 23.833 -17 40.5c0 17.333 7 31.666 21 42.999c9.33301 8 32.666 12 69.999 12v435c-37.333 0 -61 4.33301 -71 13c-13.333 11.333 -20 25.666 -20 42.999c0 16.667 5.66699 30.167 17 40.5s30.333 15.5 57 15.5h252
c78 0 138.667 -19.5 182 -58.5s65 -86.5 65 -142.5c0 -34.667 -10.167 -66.167 -30.5 -94.5s-50.833 -53.5 -91.5 -75.5c45.333 -38.667 93 -97.334 143 -176.001c30.667 0 51.667 -5 63 -15s17 -23.667 17 -41c0 -16 -5.66699 -29.167 -17 -39.5s-30.333 -15.5 -57 -15.5
h-63c-91.333 140 -166 223.667 -224 251h-110zM492.999 622.004h85.999c54.667 0 101 13.667 139 41c22.667 16 34 35.333 34 58c0 21.333 -11.167 40.833 -33.5 58.5s-55.166 26.5 -98.499 26.5h-127v-184z" />
    <glyph glyph-name="degree" unicode="&#xb0;" 
d="M295 1172c0 88.667 31.167 164 93.5 226s137.5 93 225.5 93s163.167 -31.167 225.5 -93.5s93.5 -137.5 93.5 -225.5s-31.167 -163.167 -93.5 -225.5s-137.5 -93.5 -225.5 -93.5s-163.167 31.167 -225.5 93.5s-93.5 137.5 -93.5 225.5zM461 1172c0 -42 15 -78 45 -108
s66 -45 108 -45s78 15 108 45s45 66 45 108s-15 78 -45 108s-66 45 -108 45s-78 -15 -108 -45s-45 -66 -45 -108z" />
    <glyph glyph-name="plusminus" unicode="&#xb1;" 
d="M717 760l0.000976562 -343c0 -49.333 -9.33301 -84.5 -28 -105.5s-43.334 -31.5 -74.001 -31.5s-55.5 10.5 -74.5 31.5s-28.5 56.167 -28.5 105.5v343h-293c-49.333 0 -84.5 9.5 -105.5 28.5s-31.5 43.833 -31.5 74.5c0 30 10.5 54.5 31.5 73.5s56.167 28.5 105.5 28.5
h293v342c0 48.667 9.5 83.5 28.5 104.5s43.833 31.5 74.5 31.5s55.5 -10.333 74.5 -31s28.5 -55.667 28.5 -105l-1 -342h293c49.333 0 84.5 -9.5 105.5 -28.5s31.5 -43.833 31.5 -74.5c0 -30 -10.5 -54.5 -31.5 -73.5s-56.167 -28.5 -105.5 -28.5h-293zM950.001 0h-671
c-70 0 -111.667 1.66699 -125 5c-20 5.33301 -37 17.166 -51 35.499s-21 39.166 -21 62.499c0 22.667 7 43.167 21 61.5s31.333 30.166 52 35.499c13.333 3.33301 54.666 5 123.999 5h671c70 0 111.667 -1.66699 125 -5c20 -5.33301 37 -17.166 51 -35.499
s21 -38.833 21 -61.5c0 -23.333 -7 -44.166 -21 -62.499s-31.333 -30.166 -52 -35.499c-13.333 -3.33301 -54.666 -5 -123.999 -5z" />
    <glyph glyph-name="acute" unicode="&#xb4;" 
d="M769 1235l-225 -183c-22.667 -18 -41.667 -27 -57 -27c-18.667 0 -34.5 6.33301 -47.5 19s-19.5 28.334 -19.5 47.001c0 21.333 13.333 42.666 40 63.999l226 183c22.667 18 41.667 27 57 27c18.667 0 34.5 -6.33301 47.5 -19s19.5 -28 19.5 -46
c0 -22 -13.667 -43.667 -41 -65z" />
    <glyph glyph-name="mu" unicode="&#xb5;" 
d="M406 -12v-279.001c0 -49.333 -9.5 -84.5 -28.5 -105.5s-43.833 -31.5 -74.5 -31.5c-30 0 -54.5 10.5 -73.5 31.5s-28.5 56.167 -28.5 105.5v994h-35c-49.333 0 -84.5 9.5 -105.5 28.5s-31.5 43.833 -31.5 74.5c0 30 10.5 54.5 31.5 73.5s56.167 28.5 105.5 28.5h240v-610
c0 -43.333 10.5 -75.166 31.5 -95.499s53.167 -30.5 96.5 -30.5c41.333 0 85.833 8.16699 133.5 24.5s106.5 45.833 176.5 88.5v418h-74c-49.333 0 -84.5 9.5 -105.5 28.5s-31.5 43.833 -31.5 74.5c0 30 10.5 54.5 31.5 73.5s56.167 28.5 105.5 28.5h279v-703
c43.333 0 75.333 -9.66699 96 -29s31 -44 31 -74s-10.5 -54.5 -31.5 -73.5s-56.167 -28.5 -105.5 -28.5h-195v47l-104 -46c-24.667 -9.33301 -55.667 -17.5 -93 -24.5s-73 -10.5 -107 -10.5c-22 0 -44.167 1.83301 -66.5 5.5s-44.833 9.16699 -67.5 16.5z" />
    <glyph glyph-name="paragraph" unicode="&#xb6;" 
d="M941 1143l-0.00195312 -1171h69c36.667 0 63 -7 79 -21s24 -32 24 -54s-7.83301 -40 -23.5 -54s-42.167 -21 -79.5 -21h-182c-18.667 0 -34.167 4.5 -46.5 13.5s-22.833 26.167 -31.5 51.5c-11.333 -27.333 -22.666 -45 -33.999 -53s-27.666 -12 -48.999 -12h-266
c-37.333 0 -64 7 -80 21s-24 32 -24 54s8 40.167 24 54.5s42.667 21.5 80 21.5l154 -1v548c-90.667 9.33301 -169.667 32.333 -237 69s-121 86.667 -161 150c-21.333 34.667 -32 76.334 -32 125.001v89c0 55.333 19.5 108.833 58.5 160.5s88.5 90.5 148.5 116.5
c97.333 42 194 63.333 290 64h384c37.333 0 64 -7.16699 80 -21.5s24 -32.5 24 -54.5s-8 -40 -24 -54s-42.667 -21 -80 -21h-65zM790.998 1143h-86v-1171c22 -10 36.667 -27.667 44 -53c8.66699 25.333 22.667 43 42 53v1171zM554.998 1133
c-72.667 -15.333 -126 -40.501 -160 -75.501s-51 -71.5 -51 -109.5v-84c0 -37.333 16.667 -73.666 50 -108.999s87 -61 161 -77v455z" />
    <glyph glyph-name="periodcentered" unicode="&#xb7;" 
d="M769 639c0 -38.667 -13.667 -71 -41 -97s-65 -39 -113 -39s-85.667 13 -113 39s-41 58.333 -41 97s13.667 71 41 97s65 39 113 39s85.667 -13 113 -39s41 -58.333 41 -97z" />
    <glyph glyph-name="periodcentered" unicode="&#x2219;" 
d="M769 639c0 -38.667 -13.667 -71 -41 -97s-65 -39 -113 -39s-85.667 13 -113 39s-41 58.333 -41 97s13.667 71 41 97s65 39 113 39s85.667 -13 113 -39s41 -58.333 41 -97z" />
    <glyph glyph-name="guillemotright" unicode="&#xbb;" 
d="M900 447l-293 305.999c-20 20.667 -30 39.334 -30 56.001s6 31 18 43s26.667 18 44 18c14 0 32 -9.33301 54 -28l476 -403l-469 -361l-10 -9c-14.667 -12.667 -29.667 -19 -45 -19c-16.667 0 -31 6 -43 18s-18 26.667 -18 44c0 16.667 10 34.667 30 54zM427 446.999
l-293 305.998c-20 20.667 -30 39.334 -30 56.001s6 30.834 18 42.501s26.667 17.5 44 17.5c14 0 31.667 -9 53 -27l477 -404l-469 -361l-10 -8c-14.667 -13.333 -29.667 -20 -45 -20c-16.667 0 -31 6 -43 18s-18 27 -18 45c0 16.667 10 34.667 30 54z" />
    <glyph glyph-name="dotlessi" unicode="&#x131;" 
d="M716 908v-703h246c49.333 0 84.5 -9.5 105.5 -28.5s31.5 -43.833 31.5 -74.5c0 -30 -10.5 -54.5 -31.5 -73.5s-56.167 -28.5 -105.5 -28.5h-697c-49.333 0 -84.5 9.5 -105.5 28.5s-31.5 43.833 -31.5 74.5c0 30 10.5 54.5 31.5 73.5s56.167 28.5 105.5 28.5h246v498h-165
c-48.667 0 -83.667 9.5 -105 28.5s-32 43.833 -32 74.5c0 30 10.5 54.5 31.5 73.5s56.167 28.5 105.5 28.5h370z" />
    <glyph glyph-name="breve" unicode="&#x2d8;" 
d="M358 1340c17.333 0 31.0039 -4.33301 41.0039 -13s18.667 -27.5 26 -56.5s25.666 -53.167 54.999 -72.5c38.667 -25.333 83.667 -38 135 -38c52 0 95 11.333 129 34c33.333 22 53.833 47.5 61.5 76.5s16.5 47.833 26.5 56.5s23.667 13 41 13
c19.333 0 35.166 -6.5 47.499 -19.5s18.5 -29.833 18.5 -50.5c0 -57.333 -30.333 -112.166 -91 -164.499s-138.334 -78.5 -233.001 -78.5s-172.334 26.167 -233.001 78.5s-91 107.166 -91 164.499c0 20.667 6.33301 37.5 19 50.5s28.667 19.5 48 19.5z" />
    <glyph glyph-name="afii10023" unicode="&#x401;" 
d="M404 506l0.000976562 -300.999h523v111c0 49.333 9.5 84.5 28.5 105.5s43.833 31.5 74.5 31.5c30 0 54.5 -10.5 73.5 -31.5s28.5 -56.167 28.5 -105.5v-316h-965c-49.333 0 -84.5 9.5 -105.5 28.5s-31.5 43.833 -31.5 74.5c0 30 10.667 54.5 32 73.5
s56.333 28.5 105 28.5h32v802h-32c-49.333 0 -84.5 9.5 -105.5 28.5s-31.5 43.833 -31.5 74.5s10.5 55.5 31.5 74.5s56.167 28.5 105.5 28.5l920 -1v-312c0 -48.667 -9.33301 -83.5 -28 -104.5s-43.334 -31.5 -74.001 -31.5s-55.5 10.333 -74.5 31s-28.5 55.667 -28.5 105
v107h-478v-296h180c0 53.333 5 87.666 15 102.999c20.667 32.667 50 49 88 49c30 0 54.5 -10.5 73.5 -31.5s28.5 -56.167 28.5 -105.5v-236c0 -44.667 -5.33301 -74.667 -16 -90c-21.333 -31.333 -50 -47 -86 -47c-38 0 -67.333 16.333 -88 49c-10 15.333 -15 50 -15 104
h-180zM509.001 1496c0 -30.667 -10.5 -56.5 -31.5 -77.5s-46.5 -31.5 -76.5 -31.5s-55.667 10.667 -77 32s-32 47 -32 77s10.667 55.5 32 76.5s47 31.5 77 31.5s55.5 -10.5 76.5 -31.5s31.5 -46.5 31.5 -76.5zM937.001 1496c0 -30.667 -10.667 -56.5 -32 -77.5
s-47 -31.5 -77 -31.5s-55.5 10.667 -76.5 32s-31.5 47 -31.5 77s10.5 55.5 31.5 76.5s46.5 31.5 76.5 31.5s55.667 -10.5 77 -31.5s32 -46.5 32 -76.5z" />
    <glyph glyph-name="afii10051" unicode="&#x402;" 
d="M353 1007l-140.997 0.000976562l-7 -58c-8.66699 -68 -21.167 -110 -37.5 -126s-36.833 -24 -61.5 -24c-71.333 0 -107 36 -107 108c0 14.667 1.33301 37 4 67l7 73c7.33301 78 21.166 125 41.499 141s66.5 24 138.5 24h529c84.667 0 134.5 -10.667 149.5 -32
s23.167 -65 24.5 -131l2 -67c0.666992 -30.667 1 -49.334 1 -56.001c0 -76.667 -32 -115 -96 -115c-26 0 -47.833 7.83301 -65.5 23.5s-28.5 32.667 -32.5 51s-6.66699 58.833 -8 121.5h-136v-387c116 73.333 220.333 110 313 110c97.333 0 176.833 -32 238.5 -96
s92.5 -150.667 92.5 -260c0 -116 -31.833 -212.333 -95.5 -289s-135.167 -115 -214.5 -115c-72 0 -108 33.667 -108 101c0 50 30 84.333 90 103c51.333 16 84.666 36.167 99.999 60.5s23 64.5 23 120.5c0 46.667 -14 86.667 -42 120s-63.667 50 -107 50
c-64.667 0 -161.334 -43.667 -290.001 -131v-186c52 0 90.167 -8 114.5 -24s36.5 -42.667 36.5 -80c0 -38 -12 -64.833 -36 -80.5s-69.667 -23.5 -137 -23.5l-180 2l-50 -2c-81.333 0 -122 34.667 -122 104c0 36 11.5 62.333 34.5 79s67.833 25 134.5 25v799z" />
    <glyph glyph-name="afii10052" unicode="&#x403;" 
d="M529 205h120c91.333 0 137 -34.333 137 -103c0 -68 -45.667 -102 -137 -102h-444c-91.333 -0 -137 34.333 -137 103c0 68 45.667 102 137 102h119v802h-119c-91.333 0 -137 34.333 -137 103c0 68 45.667 102 137 102h971v-399c0 -90.667 -34 -136 -102 -136
c-68.667 0 -103 45.333 -103 136v194h-442v-802zM769 1554l-225 -183c-22.667 -18 -41.667 -27 -57 -27c-18.667 0 -34.5 6.33301 -47.5 19s-19.5 28.334 -19.5 47.001c0 21.333 13.333 42.666 40 63.999l226 183c22.667 18 41.667 27 57 27
c18.667 0 34.5 -6.33301 47.5 -19s19.5 -28 19.5 -46c0 -22 -13.667 -43.667 -41 -65z" />
    <glyph glyph-name="afii10053" unicode="&#x404;" 
d="M272 711l477.998 0.00195312c86 0 129 -34 129 -102c0 -68.667 -43 -103 -129 -103h-481c4.66699 -102 44.5 -182.667 119.5 -242s170.5 -89 286.5 -89c76.667 0 135.667 8.16699 177 24.5s79.333 42.166 114 77.499c34 34 64.333 51 91 51s50.5 -10.167 71.5 -30.5
s31.5 -44.833 31.5 -73.5c0 -55.333 -46.167 -111.5 -138.5 -168.5s-208.5 -85.5 -348.5 -85.5c-184.667 0 -332.334 53.167 -443.001 159.5s-166 235.5 -166 387.5v138c0 168 54.333 308 163 420s241.334 168 398.001 168c118 0 221.667 -27.667 311 -83
c24 34.667 54 52 90 52c68 0 102 -45.333 102 -136v-174c0 -91.333 -34 -137 -102 -137c-55.333 0 -89.666 36.333 -102.999 109c-9.33301 54.667 -45.666 95.667 -108.999 123s-124 41 -182 41c-92 0 -172 -30.333 -240 -91s-108 -139.334 -120 -236.001z" />
    <glyph glyph-name="afii10054" unicode="&#x405;" 
d="M315 52c-18 -21.333 -32.4961 -34.9932 -43.4961 -40.9932s-24.5 -9 -40.5 -9c-31.333 0 -56.5 10.5 -75.5 31.5s-28.5 55.833 -28.5 104.5v138c0 49.333 9.5 84.5 28.5 105.5s44.167 31.5 75.5 31.5c24 0 44.167 -6.33301 60.5 -19s28.833 -33.834 37.5 -63.501
s17.667 -49.834 27 -60.501c19.333 -20.667 53.666 -41.667 102.999 -63s103.333 -32 162 -32c91.333 0 166.333 21.333 225 64c37.333 26 56 58 56 96c0 25.333 -9 49.166 -27 71.499s-47.333 40.833 -88 55.5c-26.667 10 -86.334 23.667 -179.001 41
c-112 20.667 -196.667 45.667 -254 75s-102.666 70.666 -135.999 123.999s-50 111 -50 173c0 98 41 183.833 123 257.5s188.667 110.5 320 110.5c52.667 0 101.5 -5.83301 146.5 -17.5s85.833 -29.5 122.5 -53.5c26.667 26 53.334 39 80.001 39c30 0 54.5 -10.5 73.5 -31.5
s28.5 -55.833 28.5 -104.5v-154c0 -49.333 -9.5 -84.5 -28.5 -105.5s-43.5 -31.5 -73.5 -31.5c-25.333 0 -47.333 7.66699 -66 23c-14.667 11.333 -25.667 34 -33 68s-16.666 58.333 -27.999 73c-19.333 25.333 -48.333 46.666 -87 63.999s-83.334 26 -134.001 26
c-74 0 -132.5 -17.167 -175.5 -51.5s-64.5 -70.166 -64.5 -107.499c0 -25.333 8.83301 -49.833 26.5 -73.5s43.5 -42.167 77.5 -55.5c22.667 -9.33301 86.5 -24.333 191.5 -45s185.667 -43.334 242 -68.001s103.166 -63.334 140.499 -116.001s56 -115.334 56 -188.001
c0 -101.333 -35.667 -182.333 -107 -243c-94.667 -80 -215.334 -120 -362.001 -120c-56.667 0 -111.834 6.83301 -165.501 20.5s-105.834 34.167 -156.501 61.5z" />
    <glyph glyph-name="afii10055" unicode="&#x406;" 
d="M717 1007v-801.999h207c49.333 0 84.5 -9.5 105.5 -28.5s31.5 -43.833 31.5 -74.5c0 -30 -10.5 -54.5 -31.5 -73.5s-56.167 -28.5 -105.5 -28.5h-619c-49.333 0 -84.5 9.5 -105.5 28.5s-31.5 43.833 -31.5 74.5c0 30 10.5 54.5 31.5 73.5s56.167 28.5 105.5 28.5h207v802
h-207c-49.333 0 -84.5 9.5 -105.5 28.5s-31.5 43.833 -31.5 74.5s10.5 55.5 31.5 74.5s56.167 28.5 105.5 28.5l619 -1c49.333 0 84.5 -9.33301 105.5 -28s31.5 -43.334 31.5 -74.001s-10.5 -55.5 -31.5 -74.5s-56.167 -28.5 -105.5 -28.5h-207z" />
    <glyph glyph-name="afii10056" unicode="&#x407;" 
d="M717 1007v-801.999h207c49.333 0 84.5 -9.5 105.5 -28.5s31.5 -43.833 31.5 -74.5c0 -30 -10.5 -54.5 -31.5 -73.5s-56.167 -28.5 -105.5 -28.5h-619c-49.333 0 -84.5 9.5 -105.5 28.5s-31.5 43.833 -31.5 74.5c0 30 10.5 54.5 31.5 73.5s56.167 28.5 105.5 28.5h207v802
h-207c-49.333 0 -84.5 9.5 -105.5 28.5s-31.5 43.833 -31.5 74.5s10.5 55.5 31.5 74.5s56.167 28.5 105.5 28.5l619 -1c49.333 0 84.5 -9.33301 105.5 -28s31.5 -43.334 31.5 -74.001s-10.5 -55.5 -31.5 -74.5s-56.167 -28.5 -105.5 -28.5h-207zM508 1496
c0 -30.667 -10.5 -56.5 -31.5 -77.5s-46.5 -31.5 -76.5 -31.5s-55.667 10.667 -77 32s-32 47 -32 77s10.667 55.5 32 76.5s47 31.5 77 31.5s55.5 -10.5 76.5 -31.5s31.5 -46.5 31.5 -76.5zM936 1496c0 -30.667 -10.667 -56.5 -32 -77.5s-47 -31.5 -77 -31.5
s-55.5 10.667 -76.5 32s-31.5 47 -31.5 77s10.5 55.5 31.5 76.5s46.5 31.5 76.5 31.5s55.667 -10.5 77 -31.5s32 -46.5 32 -76.5z" />
    <glyph glyph-name="afii10057" unicode="&#x408;" 
d="M1000 1007l-0.000976562 -620c0 -78 -13 -140 -39 -186c-40 -71.333 -97.833 -127.666 -173.5 -168.999s-155.167 -62 -238.5 -62c-107.333 0 -253.666 45.333 -438.999 136v337c0 49.333 9.5 84.5 28.5 105.5s43.833 31.5 74.5 31.5c30 0 54.5 -10.5 73.5 -31.5
s28.5 -56.167 28.5 -105.5v-201c94 -44.667 174.333 -67 241 -67c35.333 0 72 8.16699 110 24.5s66.667 35.833 86 58.5s32 45 38 67c3.33301 12 5 40.667 5 86v596h-249c-49.333 0 -84.5 9.5 -105.5 28.5s-31.5 43.833 -31.5 74.5s10.5 55.5 31.5 74.5
s56.167 28.5 105.5 28.5l574 -1c49.333 0 84.5 -9.33301 105.5 -28s31.5 -43.334 31.5 -74.001s-10.5 -55.5 -31.5 -74.5s-56.167 -28.5 -105.5 -28.5h-120z" />
    <glyph glyph-name="afii10058" unicode="&#x409;" 
d="M539 1007l0.00195312 -571.001c0 -158.667 -28.5 -276.5 -85.5 -353.5s-134.833 -115.5 -233.5 -115.5c-66.667 0 -119.667 10.333 -159 31s-59 60 -59 118v93c0 56.667 7.83301 95.667 23.5 117s42.5 32 80.5 32c30.667 0 55.167 -7.83301 73.5 -23.5
s27.5 -53.834 27.5 -114.501v-43c9.33301 -0.666992 16.666 -1 21.999 -1c70 0 105 86.667 105 260v571h-23c-93.333 0 -140 34.333 -140 103c0 36.667 11.667 62.834 35 78.501s68.666 23.5 135.999 23.5h509c66.667 0 111.834 -7.66699 135.501 -23
s35.5 -41.666 35.5 -78.999c0 -38 -12 -64.667 -36 -80s-71 -23 -141 -23v-280c124 -8.66699 218.833 -47.5 284.5 -116.5s98.5 -150.833 98.5 -245.5c0 -96.667 -32.333 -181.667 -97 -255s-168.334 -110 -311.001 -110h-149c-92.667 -0 -139 33.333 -139 100
c0 62.667 36 97.667 108 105v802h-101zM845.002 519.999v-310.998c112.667 11.333 169 61.666 169 150.999s-56.333 142.666 -169 159.999z" />
    <glyph glyph-name="afii10059" unicode="&#x40a;" 
d="M775 708h30c142.667 0 256.5 -32.667 341.5 -98s127.5 -158.666 127.5 -279.999c0 -106.667 -35.333 -188.334 -106 -245.001s-170.667 -85 -300 -85h-279c-83.333 -0 -125 34.333 -125 103c0 27.333 9.66699 51 29 71s45 30.333 77 31v299h-248v-299
c34.667 0 61.5 -10.5 80.5 -31.5s28.5 -44.5 28.5 -70.5c0 -68.667 -42.667 -103 -128 -103h-200c-91.333 -0 -137 34.333 -137 103c0 36 11.667 62 35 78s62 24 116 24v802c-72.667 6 -109 40.333 -109 103c0 68 45.667 102 137 102h158c85.333 0 128 -34 128 -102
c0 -26.667 -9.5 -50.334 -28.5 -71.001s-45.833 -31.334 -80.5 -32.001v-299h248v299c-32.667 0.666992 -58.5 11.334 -77.5 32.001s-28.5 44.334 -28.5 71.001c0 68 41.667 102 125 102h158c91.333 0 137 -34 137 -102c0 -62.667 -36.333 -97 -109 -103v-299zM775 205h95
c132.667 0 199 45 199 135c0 48 -23.833 87.333 -71.5 118s-106.167 46 -175.5 46h-47v-299z" />
    <glyph glyph-name="afii10060" unicode="&#x40b;" 
d="M559 656c84 54 161.335 81 232.002 81c93.333 0 170.5 -33.5 231.5 -100.5s91.5 -158.5 91.5 -274.5v-157c79.333 -4.66699 119 -38.667 119 -102c0 -37.333 -11.667 -63.833 -35 -79.5s-68.333 -23.5 -135 -23.5h-131c-66.667 0 -111.834 7.66699 -135.501 23
s-35.5 42 -35.5 80c0 68 49.333 102 148 102v151c0 119.333 -42.333 179 -127 179c-63.333 0 -137.666 -42.333 -222.999 -127v-203c98 0 147 -34 147 -102c0 -37.333 -11.667 -63.833 -35 -79.5s-68.333 -23.5 -135 -23.5h-182c-66 0 -110.833 7.66699 -134.5 23
s-35.5 41.666 -35.5 78.999s11.833 63.833 35.5 79.5s68.5 23.5 134.5 23.5v802h-142c-1.33301 -76.667 -9.33301 -128.5 -24 -155.5s-41.334 -40.5 -80.001 -40.5c-65.333 0 -98 41 -98 123c0 15.333 0.333008 32 1 50l2 66c2.66699 62 11.667 102.667 27 122
s30.666 30.833 45.999 34.5s49.666 5.5 102.999 5.5h530c59.333 0 98 -3.66699 116 -11s32 -20.833 42 -40.5s16 -56.5 18 -110.5l3 -66c0.666992 -19.333 1 -37.666 1 -54.999c0 -78.667 -32.667 -118 -98 -118c-29.333 0 -53.666 10.833 -72.999 32.5
s-29 47.834 -29 78.501c0 41.333 -0.333008 69.666 -1 84.999h-139v-351z" />
    <glyph glyph-name="afii10061" unicode="&#x40c;" 
d="M958 1003c-6.66699 -2 -45.002 -57.001 -115.002 -165.001c-50 -76.667 -83.333 -126.667 -100 -150l-12 -24c65.333 -54 121.666 -128 168.999 -222l121 -237h38c66.667 0 111.834 -7.66699 135.501 -23s35.5 -41.666 35.5 -78.999s-11.667 -63.833 -35 -79.5
s-68.666 -23.5 -135.999 -23.5h-23c-70.667 0 -112.667 5.16699 -126 15.5s-34.666 43.833 -63.999 100.5l-121 236c-66 127.333 -136 191 -210 191h-58v-338c9.33301 0.666992 18.666 1 27.999 1c94 0 141 -34.333 141 -103c0 -37.333 -11.5 -63.833 -34.5 -79.5
s-67.833 -23.5 -134.5 -23.5h-205c-66 0 -110.833 7.66699 -134.5 23s-35.5 41.666 -35.5 78.999s11.833 63.833 35.5 79.5s68.5 23.5 134.5 23.5v802c-9.33301 -0.666992 -18.666 -1 -27.999 -1c-94.667 0 -142 34.667 -142 104c0 37.333 11.667 63.666 35 78.999
s68.333 23 135 23h205c66 0 110.667 -7.66699 134 -23s35 -41.666 35 -78.999s-11.667 -63.833 -35 -79.5s-68 -23.5 -134 -23.5v-258h28c22.667 0 41.334 4.66699 56.001 14s35.667 34.666 63 75.999l148 225c31.333 47.333 66.666 84 105.999 110s94.666 39 165.999 39
c44.667 0 76.334 -6.66699 95.001 -20s30.334 -28.666 35.001 -45.999s7 -52.666 7 -105.999v-20c0 -64.667 -7.33301 -108.5 -22 -131.5s-40.334 -34.5 -77.001 -34.5c-67.333 0 -102 49.333 -104 148zM804.998 1554l-225 -183c-22.667 -18 -41.667 -27 -57 -27
c-18.667 0 -34.5 6.33301 -47.5 19s-19.5 28.334 -19.5 47.001c0 21.333 13.333 42.666 40 63.999l226 183c22.667 18 41.667 27 57 27c18.667 0 34.5 -6.33301 47.5 -19s19.5 -28 19.5 -46c0 -22 -13.667 -43.667 -41 -65z" />
    <glyph glyph-name="afii10062" unicode="&#x40e;" 
d="M391 1007l239 -429.005l241 429c-68 10.667 -102 45 -102 103c0 36.667 11.667 62.834 35 78.501s68.666 23.5 135.999 23.5h133c66 0 111 -7.66699 135 -23s36 -41.666 36 -78.999c0 -68.667 -46 -103 -138 -103l-458 -818c-47.333 -84 -92.666 -142 -135.999 -174
s-91.333 -48 -144 -48c-158.667 0 -238 39.333 -238 118v107c0 70.667 8.5 115.834 25.5 135.501s41.5 29.5 73.5 29.5c34 0 59.667 -10.667 77 -32s26 -62.333 26 -123v-24c8.66699 -0.666992 16 -1 22 -1c35.333 0 73 36 113 108l46 82l-357 640
c-96.667 0 -145 34.333 -145 103c0 36.667 11.667 62.834 35 78.501s68.666 23.5 135.999 23.5h140c66.667 0 111.834 -7.66699 135.501 -23s35.5 -41.666 35.5 -78.999c0 -58 -34 -92.333 -102 -103zM377 1659c17.333 0 31.0039 -4.33301 41.0039 -13
s18.667 -27.5 26 -56.5s25.666 -53.167 54.999 -72.5c38.667 -25.333 83.667 -38 135 -38c52 0 95 11.333 129 34c33.333 22 53.833 47.5 61.5 76.5s16.5 47.833 26.5 56.5s23.667 13 41 13c19.333 0 35.166 -6.5 47.499 -19.5s18.5 -29.833 18.5 -50.5
c0 -57.333 -30.333 -112.166 -91 -164.499s-138.334 -78.5 -233.001 -78.5s-172.334 26.167 -233.001 78.5s-91 107.166 -91 164.499c0 20.667 6.33301 37.5 19 50.5s28.667 19.5 48 19.5z" />
    <glyph glyph-name="afii10145" unicode="&#x40f;" 
d="M395 205h438v802h-32c-91.333 0 -137 34.333 -137 103c0 68 45.667 102 137 102h251c91.333 0 137 -34 137 -102c0 -36.667 -11.667 -63 -35 -79s-62 -24 -116 -24v-802c72.667 -5.33301 109 -39.666 109 -102.999c0 -68 -45.667 -102 -137 -102h-293v-98
c0 -91.333 -34.333 -137 -103 -137s-103 45.667 -103 137v98h-293c-91.333 0 -137 34 -137 102c0 63.333 36.333 97.666 109 102.999v802c-53.333 0 -91.833 7.83301 -115.5 23.5s-35.5 42.167 -35.5 79.5c0 68 45.667 102 137 102h251c91.333 0 137 -34 137 -102
c0 -68.667 -45.667 -103 -137 -103h-32v-802z" />
    <glyph glyph-name="afii10017" unicode="&#x410;" 
d="M865 330h-498l-50 -125h50c49.333 0 84.5 -9.5 105.5 -28.5s31.5 -43.833 31.5 -74.5c0 -30 -10.5 -54.5 -31.5 -73.5s-56.167 -28.5 -105.5 -28.5h-276c-49.333 0 -84.5 9.5 -105.5 28.5s-31.5 43.833 -31.5 74.5s11 55.667 33 75s58.333 28.333 109 27l322 802h-134
c-49.333 0 -84.5 9.5 -105.5 28.5s-31.5 43.833 -31.5 74.5s10.5 55.5 31.5 74.5s56.167 28.5 105.5 28.5l443 -1l408 -1007c48 0 79.667 -5.33301 95 -16c30.667 -22 46 -51 46 -87c0 -30 -10.333 -54.5 -31 -73.5s-55.667 -28.5 -105 -28.5h-276
c-49.333 0 -84.5 9.5 -105.5 28.5s-31.5 43.833 -31.5 74.5c0 30 10.5 54.5 31.5 73.5s56.167 28.5 105.5 28.5h50zM780 535l-165 406l-166 -406h331z" />
    <glyph glyph-name="afii10018" unicode="&#x411;" 
d="M1127 1212v-254c0 -91.333 -34 -137 -102 -137c-68.667 0 -103 45.667 -103 137v49h-521v-298h262c173.333 0 302 -33 386 -99s126 -159 126 -279c0 -220.667 -145.333 -331 -436 -331h-575c-91.333 -0 -137 34.333 -137 103c0 68 45.667 102 137 102h32v802h-32
c-91.333 0 -137 34.333 -137 103c0 68 45.667 102 137 102h963zM401 205h354c143.333 0 215 45 215 135c0 109.333 -99.333 164 -298 164h-271v-299z" />
    <glyph glyph-name="afii10019" unicode="&#x412;" 
d="M196 205l-0.00292969 802h-32c-49.333 0 -84.5 9.5 -105.5 28.5s-31.5 43.833 -31.5 74.5s10.5 55.5 31.5 74.5s56.167 28.5 105.5 28.5h514c122.667 0 221.334 -34.167 296.001 -102.5s112 -149.5 112 -243.5c0 -44.667 -8.66699 -86.667 -26 -126
s-43.666 -75.666 -78.999 -108.999c64.667 -38.667 113.167 -83.834 145.5 -135.501s48.5 -110.167 48.5 -175.5c0 -52 -11.667 -100.333 -35 -145c-17.333 -34 -38.666 -61 -63.999 -81c-34 -28 -75.667 -50.833 -125 -68.5s-111 -26.5 -185 -26.5h-602
c-49.333 0 -84.5 9.5 -105.5 28.5s-31.5 43.833 -31.5 74.5c0 30 10.667 54.5 32 73.5s56.333 28.5 105 28.5h32zM400.997 709h225c80.667 0 147.667 20.333 201 61c36 27.333 54 61.333 54 102c0 36 -17 67.5 -51 94.5s-88 40.5 -162 40.5h-267v-298zM400.997 205
l354 -0.000976562c83.333 0 142 12.333 176 37c26 18.667 39 45.334 39 80.001c0 41.333 -25.667 82 -77 122s-125 60 -221 60h-271v-299z" />
    <glyph glyph-name="afii10020" unicode="&#x413;" 
d="M529 205h120c91.333 0 137 -34.333 137 -103c0 -68 -45.667 -102 -137 -102h-444c-91.333 -0 -137 34.333 -137 103c0 68 45.667 102 137 102h119v802h-119c-91.333 0 -137 34.333 -137 103c0 68 45.667 102 137 102h971v-399c0 -90.667 -34 -136 -102 -136
c-68.667 0 -103 45.333 -103 136v194h-442v-802z" />
    <glyph glyph-name="afii10021" unicode="&#x414;" 
d="M976 0l-727.999 -0.000976562l-6 -104c-4 -64 -13.333 -107 -28 -129s-39.667 -33 -75 -33c-36 0 -61.5 11.333 -76.5 34s-22.5 67 -22.5 133v304c23.333 -0.666992 41 -1 53 -1c70 0 129.833 26.833 179.5 80.5s74.5 157.5 74.5 311.5v411
c-12 -0.666992 -24.333 -1 -37 -1c-94.667 0 -142 34.667 -142 104c0 37.333 11.5 63.666 34.5 78.999s68.833 23 137.5 23h679c66 0 111 -7.66699 135 -23s36 -41.666 36 -78.999c0 -68.667 -50 -103 -150 -103v-802c52.667 0 88.167 -6.16699 106.5 -18.5
s30.166 -27.166 35.499 -44.499s8 -53.333 8 -108v-133c0 -64.667 -7.5 -108.667 -22.5 -132s-40.833 -35 -77.5 -35c-34 0 -58.5 10.333 -73.5 31s-25.5 62.667 -31.5 126zM552.001 1007v-410.999c0 -160.667 -27 -289.334 -81 -386.001l364 -5v802h-283z" />
    <glyph glyph-name="afii10022" unicode="&#x415;" 
d="M404 506l0.000976562 -300.999h523v111c0 49.333 9.5 84.5 28.5 105.5s43.833 31.5 74.5 31.5c30 0 54.5 -10.5 73.5 -31.5s28.5 -56.167 28.5 -105.5v-316h-965c-49.333 0 -84.5 9.5 -105.5 28.5s-31.5 43.833 -31.5 74.5c0 30 10.667 54.5 32 73.5
s56.333 28.5 105 28.5h32v802h-32c-49.333 0 -84.5 9.5 -105.5 28.5s-31.5 43.833 -31.5 74.5s10.5 55.5 31.5 74.5s56.167 28.5 105.5 28.5l920 -1v-312c0 -48.667 -9.33301 -83.5 -28 -104.5s-43.334 -31.5 -74.001 -31.5s-55.5 10.333 -74.5 31s-28.5 55.667 -28.5 105
v107h-478v-296h180c0 53.333 5 87.666 15 102.999c20.667 32.667 50 49 88 49c30 0 54.5 -10.5 73.5 -31.5s28.5 -56.167 28.5 -105.5v-236c0 -44.667 -5.33301 -74.667 -16 -90c-21.333 -31.333 -50 -47 -86 -47c-38 0 -67.333 16.333 -88 49c-10 15.333 -15 50 -15 104
h-180z" />
    <glyph glyph-name="afii10024" unicode="&#x416;" 
d="M513 205l0.00390625 349.001c-42 -37.333 -80 -103 -114 -197l-85 -232c-16.667 -44.667 -33.167 -76.667 -49.5 -96s-45.5 -29 -87.5 -29h-69c-29.333 0 -53.166 9.5 -71.499 28.5s-27.5 43.167 -27.5 72.5c0 64 39 98.667 117 104l83 232
c31.333 88 82.666 166.333 153.999 235c-14 19.333 -26.667 38.666 -38 57.999l-123 229c-10.667 -69.333 -41.334 -104 -92.001 -104c-33.333 0 -57.166 10.667 -71.499 32s-21.5 63 -21.5 125v29c0 70 6.33301 116 19 138s41.334 33 86.001 33s85 -11.833 121 -35.5
s75.667 -74.834 119 -153.501l151 -277v261c-67.333 10 -101 44.333 -101 103c0 36.667 11.667 62.834 35 78.501s68.666 23.5 135.999 23.5h71c63.333 0 107 -7.66699 131 -23s36 -42 36 -80c0 -56.667 -34.333 -90.667 -103 -102v-261
c111.333 214.667 187.166 346.167 227.499 394.5s95.166 72.5 164.499 72.5c43.333 0 71.333 -11.167 84 -33.5s19 -68.5 19 -138.5v-29c0 -61.333 -7 -102.833 -21 -124.5s-37.333 -32.5 -70 -32.5c-54 0 -85 36 -93 108l-123 -229
c-16.667 -30.667 -31.334 -51.334 -44.001 -62.001c70.667 -61.333 123 -139.666 157 -234.999l84 -232c78.667 -6.66699 118 -42.667 118 -108c0 -28 -9.16699 -51.167 -27.5 -69.5s-42.5 -27.5 -72.5 -27.5h-66c-37.333 -0 -65.166 7.33301 -83.499 22s-37.5 49 -57.5 103
l-86 232c-38 102 -74.667 167.667 -110 197v-349c73.333 -8.66699 110 -42.667 110 -102c0 -37.333 -11.833 -63.833 -35.5 -79.5s-67.834 -23.5 -132.501 -23.5h-90c-66.667 0 -111.834 7.66699 -135.501 23s-35.5 42 -35.5 80c0 61.333 38 95.333 114 102z" />
    <glyph glyph-name="afii10025" unicode="&#x417;" 
d="M368 1174c86.667 46 179.67 69 279.003 69c124.667 0 227.334 -32.333 308.001 -97s121 -148.667 121 -252c0 -95.333 -39.333 -178 -118 -248c107.333 -67.333 161 -164 161 -290c0 -111.333 -43.167 -204 -129.5 -278s-214.833 -111 -385.5 -111
c-154.667 0 -283.167 25.167 -385.5 75.5s-166 87.833 -191 112.5s-37.5 52.667 -37.5 84c0 32.667 11.333 59 34 79s45.334 30 68.001 30c25.333 0 62.333 -15.667 111 -47c64 -42 125.667 -73.5 185 -94.5s132.666 -31.5 219.999 -31.5c197.333 0 296 63.667 296 191
c0 51.333 -20 90.166 -60 116.499s-110 39.5 -210 39.5h-67c-80 0 -130.5 9 -151.5 27s-31.5 43.333 -31.5 76c0 37.333 11.667 63.833 35 79.5s68.666 23.5 135.999 23.5h40c82 0 146.833 14.167 194.5 42.5s71.5 67.5 71.5 117.5c0 48.667 -23.5 85.834 -70.5 111.501
s-101.833 38.5 -164.5 38.5c-152 0 -245.667 -69.667 -281 -209c-10.667 -42 -23.334 -70.833 -38.001 -86.5s-36 -23.5 -64 -23.5c-28.667 0 -52.167 9.83301 -70.5 29.5s-27.5 40.5 -27.5 62.5c0 12 6.66699 59.667 20 143c4.66699 28.667 7 73.334 7 134.001
c0 47.333 -0.666992 82.666 -2 105.999v23c0 28.667 9.66699 52.667 29 72s42.666 29 69.999 29s50.666 -9.83301 69.999 -29.5s29 -42.5 29 -68.5l-1 -32c0 -2 0.333008 -6.66699 1 -14z" />
    <glyph glyph-name="afii10026" unicode="&#x418;" 
d="M131 205v802.001c-84.667 0 -127 34.333 -127 103c0 68 45.667 102 137 102h270c91.333 0 137 -34 137 -102c0 -68.667 -45.667 -103 -137 -103h-75v-617l524 822h238c90.667 0 136 -34 136 -102c0 -68.667 -45.333 -103 -136 -103h-33v-802
c53.333 0 91.833 -7.83301 115.5 -23.5s35.5 -41.834 35.5 -78.501c0 -68.667 -45.667 -103 -137 -103h-269c-90.667 -0 -136 34.333 -136 103c0 68 45.333 102 136 102h50v620l-524 -825h-205c-91.333 -0 -137 34.333 -137 103c0 68 45.667 102 137 102z" />
    <glyph glyph-name="afii10027" unicode="&#x419;" 
d="M131 205v802.001c-84.667 0 -127 34.333 -127 103c0 68 45.667 102 137 102h270c91.333 0 137 -34 137 -102c0 -68.667 -45.667 -103 -137 -103h-75v-617l524 822h238c90.667 0 136 -34 136 -102c0 -68.667 -45.333 -103 -136 -103h-33v-802
c53.333 0 91.833 -7.83301 115.5 -23.5s35.5 -41.834 35.5 -78.501c0 -68.667 -45.667 -103 -137 -103h-269c-90.667 -0 -136 34.333 -136 103c0 68 45.333 102 136 102h50v620l-524 -825h-205c-91.333 -0 -137 34.333 -137 103c0 68 45.667 102 137 102zM358 1659
c17.333 0 31.0039 -4.33301 41.0039 -13s18.667 -27.5 26 -56.5s25.666 -53.167 54.999 -72.5c38.667 -25.333 83.667 -38 135 -38c52 0 95 11.333 129 34c33.333 22 53.833 47.5 61.5 76.5s16.5 47.833 26.5 56.5s23.667 13 41 13c19.333 0 35.166 -6.5 47.499 -19.5
s18.5 -29.833 18.5 -50.5c0 -57.333 -30.333 -112.166 -91 -164.499s-138.334 -78.5 -233.001 -78.5s-172.334 26.167 -233.001 78.5s-91 107.166 -91 164.499c0 20.667 6.33301 37.5 19 50.5s28.667 19.5 48 19.5z" />
    <glyph glyph-name="afii10028" unicode="&#x41a;" 
d="M958 1003c-6.66699 -2 -45.002 -57.001 -115.002 -165.001c-50 -76.667 -83.333 -126.667 -100 -150l-12 -24c65.333 -54 121.666 -128 168.999 -222l121 -237h38c66.667 0 111.834 -7.66699 135.501 -23s35.5 -41.666 35.5 -78.999s-11.667 -63.833 -35 -79.5
s-68.666 -23.5 -135.999 -23.5h-23c-70.667 0 -112.667 5.16699 -126 15.5s-34.666 43.833 -63.999 100.5l-121 236c-66 127.333 -136 191 -210 191h-58v-338c9.33301 0.666992 18.666 1 27.999 1c94 0 141 -34.333 141 -103c0 -37.333 -11.5 -63.833 -34.5 -79.5
s-67.833 -23.5 -134.5 -23.5h-205c-66 0 -110.833 7.66699 -134.5 23s-35.5 41.666 -35.5 78.999s11.833 63.833 35.5 79.5s68.5 23.5 134.5 23.5v802c-9.33301 -0.666992 -18.666 -1 -27.999 -1c-94.667 0 -142 34.667 -142 104c0 37.333 11.667 63.666 35 78.999
s68.333 23 135 23h205c66 0 110.667 -7.66699 134 -23s35 -41.666 35 -78.999s-11.667 -63.833 -35 -79.5s-68 -23.5 -134 -23.5v-258h28c22.667 0 41.334 4.66699 56.001 14s35.667 34.666 63 75.999l148 225c31.333 47.333 66.666 84 105.999 110s94.666 39 165.999 39
c44.667 0 76.334 -6.66699 95.001 -20s30.334 -28.666 35.001 -45.999s7 -52.666 7 -105.999v-20c0 -64.667 -7.33301 -108.5 -22 -131.5s-40.334 -34.5 -77.001 -34.5c-67.333 0 -102 49.333 -104 148z" />
    <glyph glyph-name="afii10029" unicode="&#x41b;" 
d="M1039 1007l0.000976562 -802.002c56.667 0 96 -8.66699 118 -26s33 -42.666 33 -75.999c0 -37.333 -11.833 -63.833 -35.5 -79.5s-68.834 -23.5 -135.501 -23.5h-164c-66.667 0 -111.834 7.66699 -135.501 23s-35.5 42 -35.5 80c0 35.333 11.333 61.166 34 77.499
s61.334 24.5 116.001 24.5v802h-281v-571c0 -150.667 -28.167 -266.5 -84.5 -347.5s-139.166 -121.5 -248.499 -121.5c-143.333 0 -215 35.333 -215 106v124c0 64.667 8.66699 107.667 26 129s43 32 77 32c68 0 102 -49.667 102 -149v-32
c8.66699 -0.666992 15.334 -1 20.001 -1c35.333 0 63.666 20.333 84.999 61s32 107 32 199v571c-10.667 -0.666992 -21.667 -1 -33 -1c-95.333 0 -143 34.667 -143 104c0 36.667 11.667 62.834 35 78.501s68.666 23.5 135.999 23.5h677c66 0 111 -7.66699 135 -23
s36 -41.666 36 -78.999c0 -32.667 -11 -58 -33 -76s-61.333 -27 -118 -27z" />
    <glyph glyph-name="afii10030" unicode="&#x41c;" 
d="M294 816v-610.999h74c49.333 0 84.5 -9.5 105.5 -28.5s31.5 -43.833 31.5 -74.5c0 -30 -10.5 -54.5 -31.5 -73.5s-56.167 -28.5 -105.5 -28.5h-269c-49.333 0 -84.5 9.5 -105.5 28.5s-31.5 43.833 -31.5 74.5c0 30 10.333 54.5 31 73.5s52.667 28.5 96 28.5v802
c-36 3.33301 -63.167 14.333 -81.5 33s-27.5 42 -27.5 70c0 30.667 10.5 55.5 31.5 74.5s56.167 28.5 105.5 28.5l225 -1l279 -617l274 618l227 -1c49.333 0 84.5 -9.33301 105.5 -28s31.5 -43.334 31.5 -74.001c0 -28 -9.33301 -51.333 -28 -70s-45.667 -29.667 -81 -33
v-802c43.333 0 75.333 -9.66699 96 -29s31 -44 31 -74s-10.5 -54.5 -31.5 -73.5s-56.167 -28.5 -105.5 -28.5h-270c-48.667 0 -83.5 9.5 -104.5 28.5s-31.5 43.833 -31.5 74.5c0 30 10.5 54.5 31.5 73.5s55.833 28.5 104.5 28.5h75v611l-235 -528h-178z" />
    <glyph glyph-name="afii10031" unicode="&#x41d;" 
d="M839 502l-438 0.00195312v-297h32c49.333 0 84.5 -9.5 105.5 -28.5s31.5 -43.833 31.5 -74.5c0 -30 -10.5 -54.5 -31.5 -73.5s-56.167 -28.5 -105.5 -28.5h-251c-49.333 0 -84.5 9.5 -105.5 28.5s-31.5 43.833 -31.5 74.5c0 37.333 16.333 66.333 49 87
c16 10.667 50 15.667 102 15v802c-36 3.33301 -63.167 14.333 -81.5 33s-27.5 42 -27.5 70c0 30.667 10.5 55.5 31.5 74.5s56.167 28.5 105.5 28.5l209 -1c49.333 0 84.5 -9.33301 105.5 -28s31.5 -43.334 31.5 -74.001s-10.5 -55.5 -31.5 -74.5s-56.167 -28.5 -105.5 -28.5
h-32v-300h438v300h-32c-49.333 0 -84.5 9.5 -105.5 28.5s-31.5 43.833 -31.5 74.5s10.5 55.5 31.5 74.5s56.167 28.5 105.5 28.5l209 -1c49.333 0 84.5 -9.33301 105.5 -28s31.5 -43.334 31.5 -74.001c0 -28 -9.16699 -51.333 -27.5 -70s-45.5 -29.667 -81.5 -33v-802
c52.667 0 86.667 -5 102 -15c32.667 -20.667 49 -50 49 -88c0 -30 -10.5 -54.5 -31.5 -73.5s-56.167 -28.5 -105.5 -28.5h-251c-49.333 0 -84.5 9.5 -105.5 28.5s-31.5 43.833 -31.5 74.5c0 30 10.667 54.5 32 73.5s56.333 28.5 105 28.5h32v297z" />
    <glyph glyph-name="afii10032" unicode="&#x41e;" 
d="M1190 606c0 -182 -57.833 -333.501 -173.5 -454.501s-249.5 -181.5 -401.5 -181.5c-136.667 0 -260 50.333 -370 151c-136 124.667 -204 286.334 -204 485.001s68 360.667 204 486c110 100.667 233.333 151 370 151c152 0 285.833 -60.5 401.5 -181.5
s173.5 -272.833 173.5 -455.5zM985 605.999c0 124.667 -37.667 227.833 -113 309.5s-161 122.5 -257 122.5c-95.333 0 -180.666 -41 -255.999 -123s-113 -185 -113 -309s37.667 -226.833 113 -308.5s160.666 -122.5 255.999 -122.5c96 0 181.667 40.667 257 122
s113 184.333 113 309z" />
    <glyph glyph-name="afii10033" unicode="&#x41f;" 
d="M839 1007l-438 0.000976562v-802h32c91.333 0 137 -34 137 -102c0 -68.667 -45.667 -103 -137 -103h-251c-91.333 0 -137 34.333 -137 103c0 36 11.667 62 35 78s62 24 116 24v802c-72.667 6 -109 40.333 -109 103c0 68 45.667 102 137 102h792
c91.333 0 137 -34 137 -102c0 -62.667 -36.333 -97 -109 -103v-802c53.333 0 91.833 -7.83301 115.5 -23.5s35.5 -41.834 35.5 -78.501c0 -68.667 -45.667 -103 -137 -103h-251c-91.333 -0 -137 34.333 -137 103c0 68 45.667 102 137 102h32v802z" />
    <glyph glyph-name="afii10034" unicode="&#x420;" 
d="M496 416l-0.000976562 -210.999h207c49.333 0 84.5 -9.5 105.5 -28.5s31.5 -43.833 31.5 -74.5c0 -30 -10.5 -54.5 -31.5 -73.5s-56.167 -28.5 -105.5 -28.5h-444c-49.333 0 -84.5 9.5 -105.5 28.5s-31.5 43.833 -31.5 74.5c0 30 10.667 54.5 32 73.5
s56.333 28.5 105 28.5h32v802h-32c-49.333 0 -84.5 9.5 -105.5 28.5s-31.5 43.833 -31.5 74.5s10.5 55.5 31.5 74.5s56.167 28.5 105.5 28.5l472 -1c138.667 0 248.5 -37.833 329.5 -113.5s121.5 -167.834 121.5 -276.501c0 -60 -13.667 -116.667 -41 -170
c-20.667 -40 -55.167 -79.5 -103.5 -118.5s-97.666 -68.333 -147.999 -88s-116.833 -29.5 -199.5 -29.5h-194zM495.999 621.001h190.001c89.333 0 160.166 20.167 212.499 60.5s78.5 88.833 78.5 145.5c0 48 -21.167 90 -63.5 126s-102.833 54 -181.5 54h-236v-386z" />
    <glyph glyph-name="afii10035" unicode="&#x421;" 
d="M936 1160c12.667 17.333 26.4951 30.335 41.4951 39.002s31.167 13 48.5 13c30 0 54.5 -10.333 73.5 -31s28.5 -55.667 28.5 -105v-174c0 -49.333 -9.5 -84.5 -28.5 -105.5s-43.5 -31.5 -73.5 -31.5c-27.333 0 -49.333 7.66699 -66 23s-29 44 -37 86
c-4.66699 28 -14 49.667 -28 65c-27.333 30 -65.5 54 -114.5 72s-98.167 27 -147.5 27c-61.333 0 -117.666 -13.333 -168.999 -40s-96.666 -70 -135.999 -130s-59 -131.333 -59 -214v-133c0 -98.667 35.833 -181 107.5 -247s171.167 -99 298.5 -99
c76 0 140.333 10.333 193 31c30.667 12 63.334 35.667 98.001 71c21.333 21.333 38 35.166 50 41.499s25.667 9.5 41 9.5c27.333 0 51.333 -10.333 72 -31s31 -45 31 -73s-14 -58 -42 -90c-40.667 -46.667 -93 -83.334 -157 -110.001c-86 -36 -181 -54 -285 -54
c-121.333 0 -230.666 25 -327.999 75c-78.667 40 -145.667 103.167 -201 189.5s-83 180.5 -83 282.5v139c0 106.667 24.833 206.167 74.5 298.5s118.5 163.5 206.5 213.5s181.333 75 280 75c59.333 0 114.833 -6.83301 166.5 -20.5s99.834 -34.5 144.501 -62.5z" />
    <glyph glyph-name="afii10036" unicode="&#x422;" 
d="M714 1007v-802h138c49.333 0 84.5 -9.5 105.5 -28.5s31.5 -43.833 31.5 -74.5c0 -30 -10.5 -54.5 -31.5 -73.5s-56.167 -28.5 -105.5 -28.5h-480c-49.333 0 -84.5 9.5 -105.5 28.5s-31.5 43.833 -31.5 74.5c0 30 10.5 54.5 31.5 73.5s56.167 28.5 105.5 28.5h137v802
h-222v-194c0 -49.333 -9.5 -84.5 -28.5 -105.5s-43.833 -31.5 -74.5 -31.5c-30 0 -54.5 10.5 -73.5 31.5s-28.5 56.167 -28.5 105.5v400l1062 -1v-399c0 -49.333 -9.5 -84.5 -28.5 -105.5s-43.833 -31.5 -74.5 -31.5c-30 0 -54.5 10.5 -73.5 31.5s-28.5 56.167 -28.5 105.5
v194h-225z" />
    <glyph glyph-name="afii10037" unicode="&#x423;" 
d="M391 1007l239 -429.005l241 429c-68 10.667 -102 45 -102 103c0 36.667 11.667 62.834 35 78.501s68.666 23.5 135.999 23.5h133c66 0 111 -7.66699 135 -23s36 -41.666 36 -78.999c0 -68.667 -46 -103 -138 -103l-458 -818c-47.333 -84 -92.666 -142 -135.999 -174
s-91.333 -48 -144 -48c-158.667 0 -238 39.333 -238 118v107c0 70.667 8.5 115.834 25.5 135.501s41.5 29.5 73.5 29.5c34 0 59.667 -10.667 77 -32s26 -62.333 26 -123v-24c8.66699 -0.666992 16 -1 22 -1c35.333 0 73 36 113 108l46 82l-357 640
c-96.667 0 -145 34.333 -145 103c0 36.667 11.667 62.834 35 78.501s68.666 23.5 135.999 23.5h140c66.667 0 111.834 -7.66699 135.501 -23s35.5 -41.666 35.5 -78.999c0 -58 -34 -92.333 -102 -103z" />
    <glyph glyph-name="afii10038" unicode="&#x424;" 
d="M717 1025v-80c119.333 -2 208.666 -12 267.999 -30s107.5 -53.167 144.5 -105.5s55.5 -116.833 55.5 -193.5c0 -230 -142.667 -345 -428 -345h-40v-84h65c79.333 0 119 -30.667 119 -92c0 -63.333 -42 -95 -126 -95h-321c-81.333 -0 -122 30.333 -122 91
c0 64 40.667 96 122 96h58v84h-77c-136.667 0 -236 31.667 -298 95s-93 145.333 -93 246c0 83.333 20 150.833 60 202.5s87.833 85.667 143.5 102s143.834 25.833 264.501 28.5v80h-58c-80 0 -120 32.333 -120 97c0 60 44 90 132 90h301c88 0 132 -31.667 132 -95
c0 -61.333 -41.333 -92 -124 -92h-58zM512 761h-64c-132.667 0 -199 -49 -199 -147c0 -105.333 74 -158 222 -158h41v305zM717 761v-305h28c156.667 0 235 52 235 156c0 99.333 -68.333 149 -205 149h-58z" />
    <glyph glyph-name="afii10039" unicode="&#x425;" 
d="M749 618l342 -412.999c40.667 -0.666992 71.167 -10.5 91.5 -29.5s30.5 -43.5 30.5 -73.5s-10.5 -54.5 -31.5 -73.5s-56.167 -28.5 -105.5 -28.5h-231c-48.667 0 -83.5 9.5 -104.5 28.5s-31.5 43.833 -31.5 74.5c0 28.667 9.66699 52.5 29 71.5s48.333 29.167 87 30.5
l-206 254l-208 -254c38 -1.33301 66.667 -11.666 86 -30.999s29 -43.333 29 -72c0 -30 -10.5 -54.5 -31.5 -73.5s-56.167 -28.5 -105.5 -28.5h-230c-49.333 0 -84.5 9.5 -105.5 28.5s-31.5 43.833 -31.5 74.5c0 29.333 10.333 53.666 31 72.999s51 29 91 29l340 415
l-324 387c-40 1.33301 -69.833 11.5 -89.5 30.5s-29.5 43.167 -29.5 72.5c0 30.667 10.5 55.5 31.5 74.5s56.167 28.5 105.5 28.5l189 -1c49.333 0 84.5 -9.33301 105.5 -28s31.5 -43.334 31.5 -74.001c0 -22.667 -6.66699 -43.334 -20 -62.001
c-8.66699 -11.333 -28 -25 -58 -41l191 -229l187 229c-30 16 -49.333 29.667 -58 41c-13.333 18.667 -20 39.334 -20 62.001c0 30 10.5 54.667 31.5 74s56.167 29 105.5 29l188 -1c49.333 0 84.5 -9.33301 105.5 -28s31.5 -43.334 31.5 -74.001
c0 -29.333 -10.167 -53.666 -30.5 -72.999s-49.833 -29.333 -88.5 -30z" />
    <glyph glyph-name="afii10040" unicode="&#x426;" 
d="M1011 1007v-801.999h205v-334c0 -91.333 -34 -137 -102 -137c-68.667 0 -103 45.667 -103 137v129h-820c-91.333 0 -137 34 -137 102c0 63.333 36.333 97.666 109 102.999v802c-53.333 0 -91.833 7.83301 -115.5 23.5s-35.5 42.167 -35.5 79.5c0 68 45.667 102 137 102
h251c91.333 0 137 -34 137 -102c0 -68.667 -45.667 -103 -137 -103h-32v-802h438v802h-32c-91.333 0 -137 34.333 -137 103c0 68 45.667 102 137 102h251c91.333 0 137 -34 137 -102c0 -36.667 -11.667 -63 -35 -79s-62 -24 -116 -24z" />
    <glyph glyph-name="afii10041" unicode="&#x427;" 
d="M824 205l-0.000976562 256.996c-98 -64.667 -200.667 -97 -308 -97c-220 0 -330 126 -330 378v264c-57.333 0 -97 8.5 -119 25.5s-33 42.833 -33 77.5c0 36.667 11.667 62.834 35 78.501s68.666 23.5 135.999 23.5h186c67.333 0 113 -7.66699 137 -23
s36 -41.666 36 -78.999s-12 -63.833 -36 -79.5s-69.667 -23.5 -137 -23.5v-255c0 -72 10 -119.667 30 -143s54.667 -35 104 -35c84.667 0 184.334 43 299.001 129v304h-19c-93.333 0 -140 34.333 -140 103c0 36.667 11.833 62.834 35.5 78.501s68.834 23.5 135.501 23.5h177
c66 0 111 -7.66699 135 -23s36 -41.666 36 -78.999c0 -36 -11.5 -62.167 -34.5 -78.5s-63.167 -24.5 -120.5 -24.5v-802c58 0 98.333 -8.33301 121 -25s34 -42.334 34 -77.001c0 -37.333 -11.833 -63.833 -35.5 -79.5s-68.834 -23.5 -135.501 -23.5h-312
c-66 0 -111 7.66699 -135 23s-36 42 -36 80c0 36.667 11.833 62.834 35.5 78.501s68.834 23.5 135.501 23.5h123z" />
    <glyph glyph-name="afii10042" unicode="&#x428;" 
d="M512 205v802.001c-68.667 6 -103 40.667 -103 104c0 67.333 40.667 101 122 101h162c85.333 0 128 -34 128 -102c0 -65.333 -34.667 -99.666 -104 -102.999v-802h179v1007h217c92.667 0 139 -34 139 -102c0 -36 -11.833 -62.167 -35.5 -78.5s-62.167 -24.5 -115.5 -24.5
v-802c84.667 0 127 -34.333 127 -103c0 -30.667 -10.667 -55.334 -32 -74.001s-49 -28 -83 -28h-956c-91.333 0 -137 34 -137 102c0 63.333 36.333 97.666 109 102.999v802c-53.333 0 -91.833 7.83301 -115.5 23.5s-35.5 42.167 -35.5 79.5c0 68 45.667 102 137 102h219
v-1007h178z" />
    <glyph glyph-name="afii10043" unicode="&#x429;" 
d="M489 205l-0.000976562 802.001c-68.667 6 -103 40.667 -103 104c0 67.333 40.667 101 122 101h162c85.333 0 128 -34 128 -102c0 -30 -9.66699 -54.5 -29 -73.5s-44.333 -28.833 -75 -29.5v-802h179v1007h219c90.667 0 136 -34 136 -102c0 -36.667 -11.667 -63 -35 -79
s-61.666 -24 -114.999 -24v-802h205v-334c0 -91.333 -34.333 -137 -103 -137c-68 0 -102 45.667 -102 137v129h-944c-91.333 0 -137 34 -137 102c0 63.333 36.333 97.666 109 102.999v802c-53.333 0 -91.833 7.83301 -115.5 23.5s-35.5 42.167 -35.5 79.5
c0 68 45.667 102 137 102h219v-1007h178z" />
    <glyph glyph-name="afii10044" unicode="&#x42a;" 
d="M-32 1212h760.001c91.333 0 137 -34 137 -102c0 -68.667 -45.667 -103 -137 -103h-92v-298h80c191.333 0 324.666 -36.5 399.999 -109.5s113 -162.5 113 -268.5c0 -220.667 -145.333 -331 -436 -331h-394c-91.333 -0 -137 34.333 -137 103c0 68 45.667 102 137 102h32
v802h-258v-49c0 -91.333 -34.333 -137 -103 -137c-68 0 -102 45.667 -102 137v254zM636.001 205h173c142.667 0 214 44.333 214 133c0 47.333 -23 86.833 -69 118.5s-122.333 47.5 -229 47.5h-89v-299z" />
    <glyph glyph-name="afii10045" unicode="&#x42b;" 
d="M780 131c-67.333 -87.333 -189.667 -131 -367 -131h-292c-91.333 0 -137 35 -137 105c0 66.667 37.667 100 113 100h32v802h-32c-91.333 0 -137 34.333 -137 103c0 68 45.667 102 137 102h330c91.333 0 137 -34 137 -102c0 -68.667 -45.667 -103 -137 -103h-93v-298h45
c142 0 254.5 -33.833 337.5 -101.5s124.5 -160.167 124.5 -277.5c0 -66.667 -20.333 -133 -61 -199zM333.999 205h115c125.333 0 188 45.667 188 137c0 108 -82.333 162 -247 162h-56v-299zM945.999 205v802.001c-85.333 0 -128 34.667 -128 104
c0 67.333 40.667 101 122 101h211c84.667 0 127 -34 127 -102c0 -68.667 -42.333 -103 -127 -103v-802c95.333 0 143 -34.333 143 -103c0 -68 -45.667 -102 -137 -102h-205c-90.667 0 -136 33.333 -136 100c0 32 11 57.667 33 77s54.333 28.666 97 27.999z" />
    <glyph glyph-name="afii10046" unicode="&#x42c;" 
d="M401 1007v-298h262c173.333 0 302 -33 386 -99s126 -159 126 -279c0 -220.667 -145.333 -331 -436 -331h-575c-91.333 -0 -137 34.333 -137 103c0 68 45.667 102 137 102h32v802h-32c-91.333 0 -137 34.333 -137 103c0 68 45.667 102 137 102h297
c91.333 0 137 -34 137 -102c0 -68.667 -45.667 -103 -137 -103h-60zM401 205h354c143.333 0 215 45 215 135c0 109.333 -99.333 164 -298 164h-271v-299z" />
    <glyph glyph-name="afii10047" unicode="&#x42d;" 
d="M957 711l-477.998 0.00195312c-86 0 -129 -34 -129 -102c0 -68.667 43 -103 129 -103h481c-4.66699 -102 -44.5 -182.667 -119.5 -242s-170.5 -89 -286.5 -89c-76.667 0 -135.667 8.16699 -177 24.5s-79.333 42.166 -114 77.499c-34 34 -64.333 51 -91 51
s-50.5 -10.167 -71.5 -30.5s-31.5 -44.833 -31.5 -73.5c0 -55.333 46.167 -111.5 138.5 -168.5s208.5 -85.5 348.5 -85.5c184.667 0 332.334 53.167 443.001 159.5s166 235.5 166 387.5v138c0 168 -54.333 308 -163 420s-241.334 168 -398.001 168
c-118 0 -221.667 -27.667 -311 -83c-24 34.667 -54 52 -90 52c-68 0 -102 -45.333 -102 -136v-174c0 -91.333 34 -137 102 -137c55.333 0 89.666 36.333 102.999 109c9.33301 54.667 45.666 95.667 108.999 123s124 41 182 41c92 0 172 -30.333 240 -91
s108 -139.334 120 -236.001z" />
    <glyph glyph-name="afii10048" unicode="&#x42e;" 
d="M415 502l-94.999 -0.000976562v-297h20c91.333 0 137 -34 137 -102c0 -68.667 -45.667 -103 -137 -103h-239c-91.333 0 -137 34.333 -137 103c0 36 11.667 62 35 78s62 24 116 24v802c-72.667 6 -109 40.333 -109 103c0 68 45.667 102 137 102h197
c91.333 0 137 -34 137 -102c0 -68.667 -45.667 -103 -137 -103h-20v-300h95c5.33301 166.667 47.666 297.667 126.999 393s180.333 143 303 143c124 0 225 -47.667 303 -143s117 -256.666 117 -483.999c0 -430.667 -141.667 -646 -425 -646c-126 0 -225.667 47 -299 141
s-115.333 224.333 -126 391zM840.001 1038c-69.333 0 -123.833 -31 -163.5 -93s-59.5 -175 -59.5 -339c0 -171.333 21 -286 63 -344s95 -87 159 -87c67.333 0 121 30.833 161 92.5s60 174.5 60 338.5c0 288 -73.333 432 -220 432z" />
    <glyph glyph-name="afii10049" unicode="&#x42f;" 
d="M825 463l0.000976562 -257.999h-74c-49.333 0 -84.5 -9.5 -105.5 -28.5s-31.5 -43.833 -31.5 -74.5c0 -30 10.5 -54.5 31.5 -73.5s56.167 -28.5 105.5 -28.5h311c49.333 0 84.5 9.5 105.5 28.5s31.5 43.833 31.5 74.5c0 30 -10.667 54.5 -32 73.5s-56.333 28.5 -105 28.5
h-32v802h32c49.333 0 84.5 9.5 105.5 28.5s31.5 43.833 31.5 74.5s-10.5 55.5 -31.5 74.5s-56.167 28.5 -105.5 28.5l-464 -1c-144.667 0 -256.834 -35.833 -336.501 -107.5s-119.5 -158.834 -119.5 -261.501c0 -64 18.667 -122.167 56 -174.5
s93.666 -98.833 168.999 -139.5c-43.333 -38 -89.666 -86.667 -138.999 -146c-30.667 -38 -72 -97.333 -124 -178c-52 0 -86.333 -5.33301 -103 -16c-30 -20.667 -45 -49.667 -45 -87c0 -30 10.333 -54.5 31 -73.5s55.667 -28.5 105 -28.5h117
c166 256.667 303.667 411 413 463h203zM825.001 668.001h-159.998c-59.333 0 -112.333 9 -159 27c-62.667 24 -104.834 49.333 -126.501 76s-32.5 53 -32.5 79c0 38.667 20.667 74.5 62 107.5s101.666 49.5 180.999 49.5h235v-339z" />
    <glyph glyph-name="afii10065" unicode="&#x430;" 
d="M799 0l-0.000976562 47.9971c-51.333 -27.333 -108 -47.833 -170 -61.5s-118.333 -20.5 -169 -20.5c-110 0 -199.333 29.167 -268 87.5s-103 122.833 -103 193.5c0 86 43.833 165.833 131.5 239.5s208.834 110.5 363.501 110.5c62 0 133.667 -6.66699 215 -20v49
c0 30.667 -13.167 55.667 -39.5 75s-76.5 29 -150.5 29c-60.667 0 -139.334 -12 -236.001 -36c-36 -8.66699 -64 -13 -84 -13c-27.333 0 -50.5 9.83301 -69.5 29.5s-28.5 44.834 -28.5 75.501c0 17.333 3.33301 32.333 10 45s16 22.834 28 30.501s37 16.834 75 27.501
c50.667 14 102.334 25.167 155.001 33.5s100.334 12.5 143.001 12.5c127.333 0 226.166 -27.5 296.499 -82.5s105.5 -130.167 105.5 -225.5v-422h35c49.333 0 84.5 -9.5 105.5 -28.5s31.5 -43.833 31.5 -74.5c0 -30 -10.5 -54.5 -31.5 -73.5s-56.167 -28.5 -105.5 -28.5
h-240zM798.999 366.997c-82 16 -157.666 24.001 -226.999 24.001c-83.333 0 -155 -20.333 -215 -61c-37.333 -26 -56 -52.333 -56 -79c0 -19.333 9 -35 27 -47c33.333 -22 79 -33 137 -33c49.333 0 105.166 9.66699 167.499 29s117.833 45.666 166.5 78.999v88z" />
    <glyph glyph-name="afii10066" unicode="&#x431;" 
d="M339 804c77.333 62.667 178.666 93.999 303.999 93.999c145.333 0 261 -45 347 -135s129 -200 129 -330c0 -128 -47.833 -236.5 -143.5 -325.5s-215.834 -133.5 -360.501 -133.5c-107.333 0 -200 23.333 -278 70s-135.667 106.5 -173 179.5s-56 175.167 -56 306.5
c0 185.333 14.667 313 44 383s72.833 124.333 130.5 163s136.5 58 236.5 58h177c42 0 69.667 2.33301 83 7s20 16.667 20 36l-1 24c0 38 10 67.667 30 89s45.333 32 76 32c28 0 52.5 -10.167 73.5 -30.5s31.5 -47.166 31.5 -80.499c0 -74 -18.667 -132.667 -56 -176
s-119.666 -65 -246.999 -65h-178c-66 0 -112.167 -11.167 -138.5 -33.5s-43.166 -66.5 -50.499 -132.5zM322 434.999c0 -70 25.833 -131.667 77.5 -185s123.167 -80 214.5 -80s162.833 26.667 214.5 80s77.5 115.333 77.5 186s-25.833 132.667 -77.5 186
s-123.167 80 -214.5 80c-98 0 -171.167 -28 -219.5 -84s-72.5 -117 -72.5 -183z" />
    <glyph glyph-name="afii10067" unicode="&#x432;" 
d="M196 205v497.999h-32c-91.333 0 -137 34 -137 102c0 68.667 45.667 103 137 103h477c266.667 0 400 -79.667 400 -239c0 -70.667 -33.667 -135.667 -101 -195c120.667 -43.333 181 -112.666 181 -207.999c0 -77.333 -30.333 -141 -91 -191s-160.667 -75 -300 -75h-566
c-91.333 -0 -137 34.333 -137 103c0 68 45.667 102 137 102h32zM401 559.999l189 0.000976562c118 0 188.5 7.16699 211.5 21.5s34.5 32.166 34.5 53.499c0 45.333 -68 68 -204 68h-231v-143zM401 205h318c131.333 0 197 26.667 197 80c0 28 -14 46.667 -42 56
s-94 14 -198 14h-275v-150z" />
    <glyph glyph-name="afii10068" unicode="&#x433;" 
d="M529 205h120c91.333 0 137 -34.333 137 -103c0 -68 -45.667 -102 -137 -102h-444c-91.333 -0 -137 34.333 -137 103c0 68 45.667 102 137 102h119v498h-119c-91.333 0 -137 34 -137 102c0 68.667 45.667 103 137 103h971v-399c0 -91.333 -34 -137 -102 -137
c-68.667 0 -103 45.667 -103 137v194h-442v-498z" />
    <glyph glyph-name="afii10069" unicode="&#x434;" 
d="M955 0h-681v-82c0 -61.333 -7.5 -103.333 -22.5 -126s-41.5 -34 -79.5 -34c-44.667 0 -73 11.833 -85 35.5s-18 67.5 -18 131.5v280h60c89.333 0 149.833 15.667 181.5 47s47.5 96 47.5 194v257c-8.66699 -0.666992 -17.667 -1 -27 -1c-94 0 -141 34.333 -141 103
c0 37.333 11.667 63.833 35 79.5s68.666 23.5 135.999 23.5h628c66.667 0 111.834 -7.83301 135.501 -23.5s35.5 -42.167 35.5 -79.5c0 -68 -46.667 -102 -140 -102v-498c46.667 0 79.167 -6.5 97.5 -19.5s30 -28 35 -45s7.5 -52.5 7.5 -106.5v-109
c0 -64.667 -7.5 -108.667 -22.5 -132s-41.167 -35 -78.5 -35c-69.333 0 -104 51.333 -104 154v88zM563 703v-257c0 -98 -20.667 -178.333 -62 -241h314v498h-252z" />
    <glyph glyph-name="afii10070" unicode="&#x435;" 
d="M1129 350l-841 0.000976562c21.333 -53.333 59.166 -96.333 113.499 -129s127.833 -49 220.5 -49c76 0 177 16.333 303 49c52 13.333 88 20 108 20c27.333 0 50.333 -9.66699 69 -29s28 -43.666 28 -72.999c0 -26.667 -10 -49.334 -30 -68.001
c-26.667 -24.667 -91.667 -48.167 -195 -70.5s-202.666 -33.5 -297.999 -33.5c-164 0 -295.167 46.333 -393.5 139s-147.5 206.667 -147.5 342c0 144 53.167 261.167 159.5 351.5s228.833 135.5 367.5 135.5c83.333 0 159.833 -14.667 229.5 -44s121.5 -61 155.5 -95
c48 -49.333 87.667 -110.333 119 -183c21.333 -50.667 32 -109.334 32 -176.001v-87zM902 555.001c-31.333 58.667 -72.333 102.5 -123 131.5s-111 43.5 -181 43.5c-69.333 0 -129.333 -14.5 -180 -43.5s-92 -72.833 -124 -131.5h608z" />
    <glyph glyph-name="afii10072" unicode="&#x436;" 
d="M716 536l164.001 263c46 72.667 112.333 109 199 109c82 0 123 -40.333 123 -121v-86c0 -77.333 -30.333 -116 -91 -116c-53.333 0 -86 33 -98 99c-22 -94.667 -65.333 -158 -130 -190c43.333 -32.667 82.333 -80.334 117 -143.001l81 -146c90 0 135 -35.667 135 -107
c0 -65.333 -33.667 -98 -101 -98h-133l-139 253c-40 72.667 -82.333 113 -127 121v-169c48 -28.667 72 -62 72 -100c0 -70 -47 -105 -141 -105h-66c-93.333 0 -140 34.333 -140 103c0 37.333 24 71.333 72 102v169c-44.667 -8.66699 -87 -49 -127 -121l-139 -253h-133
c-67.333 0 -101 32.667 -101 98c0 71.333 45 107 135 107l80 146c34.667 62.667 74 110.334 118 143.001c-64.667 32 -108.334 95.333 -131.001 190c-11.333 -66.667 -43.333 -100 -96 -100c-61.333 0 -92 39 -92 117v86c0 80.667 40 121 120 121
c88.667 0 156 -36.333 202 -109l164 -262v166c-48 30.667 -72 64.667 -72 102c0 68.667 46.667 103 140 103h66c94 0 141 -34 141 -102c0 -38.667 -24 -73 -72 -103v-167z" />
    <glyph glyph-name="afii10073" unicode="&#x437;" 
d="M399 851c81.333 56 173.997 84 277.997 84c110.667 0 203.5 -24.833 278.5 -74.5s112.5 -117.5 112.5 -203.5c0 -56 -25.667 -112.667 -77 -170c80.667 -55.333 121 -125.666 121 -210.999c0 -87.333 -39.167 -159.5 -117.5 -216.5s-194.166 -85.5 -347.499 -85.5
c-127.333 0 -255.166 24 -383.499 72s-192.5 102.333 -192.5 163c0 30.667 10.667 56.167 32 76.5s44 30.5 68 30.5c22.667 0 50.334 -9.33301 83.001 -28c128 -70.667 257.333 -106 388 -106c75.333 0 137 9.5 185 28.5s72 42.833 72 71.5c0 55.333 -91 83 -273 83h-21
c-66.667 0 -111.834 7.66699 -135.501 23s-35.5 41.666 -35.5 78.999c0 68.667 41.667 103 125 103c197.333 0 296 26.667 296 80c0 20 -17.833 37.833 -53.5 53.5s-88.5 23.5 -158.5 23.5c-59.333 0 -110.166 -8.5 -152.499 -25.5s-71.5 -60.833 -87.5 -131.5
c-16 -72.667 -49.333 -109 -100 -109c-26 0 -48.333 9 -67 27s-28 42.333 -28 73c0 11.333 0.333008 28.333 1 51c2 26.667 3 57.334 3 92.001c0 70 -2 116 -6 138c-6.66699 37.333 -10 61.666 -10 72.999c0 22 9.16699 42.667 27.5 62s41.5 29 69.5 29
c32 0 55.333 -10 70 -30s26.667 -61.667 36 -125z" />
    <glyph glyph-name="afii10074" unicode="&#x438;" 
d="M144 205v498c-84.667 0 -127 34 -127 102c0 68.667 45.667 103 137 103h233c52 0 89.833 -8 113.5 -24s35.5 -42.333 35.5 -79c0 -36 -11.667 -62 -35 -78s-61.333 -24 -114 -24h-38v-406l488 611h237c91.333 0 137 -34.333 137 -103c0 -68 -45.667 -102 -137 -102h-32
v-498c93.333 0 140 -34 140 -102c0 -68.667 -45.667 -103 -137 -103h-233c-90.667 -0 -136 34.333 -136 103c0 68 45.333 102 136 102h25v409l-488 -614h-205c-83.333 -0 -125 34.333 -125 103c0 68 41.667 102 125 102z" />
    <glyph glyph-name="afii10075" unicode="&#x439;" 
d="M144 205v498c-84.667 0 -127 34 -127 102c0 68.667 45.667 103 137 103h233c52 0 89.833 -8 113.5 -24s35.5 -42.333 35.5 -79c0 -36 -11.667 -62 -35 -78s-61.333 -24 -114 -24h-38v-406l488 611h237c91.333 0 137 -34.333 137 -103c0 -68 -45.667 -102 -137 -102h-32
v-498c93.333 0 140 -34 140 -102c0 -68.667 -45.667 -103 -137 -103h-233c-90.667 -0 -136 34.333 -136 103c0 68 45.333 102 136 102h25v409l-488 -614h-205c-83.333 -0 -125 34.333 -125 103c0 68 41.667 102 125 102zM358 1340c17.333 0 31.0039 -4.33301 41.0039 -13
s18.667 -27.5 26 -56.5s25.666 -53.167 54.999 -72.5c38.667 -25.333 83.667 -38 135 -38c52 0 95 11.333 129 34c33.333 22 53.833 47.5 61.5 76.5s16.5 47.833 26.5 56.5s23.667 13 41 13c19.333 0 35.166 -6.5 47.499 -19.5s18.5 -29.833 18.5 -50.5
c0 -57.333 -30.333 -112.166 -91 -164.499s-138.334 -78.5 -233.001 -78.5s-172.334 26.167 -233.001 78.5s-91 107.166 -91 164.499c0 20.667 6.33301 37.5 19 50.5s28.667 19.5 48 19.5z" />
    <glyph glyph-name="afii10076" unicode="&#x43a;" 
d="M929 698c-9.33301 -5.33301 -23.3301 -18.332 -41.9971 -38.999l-146 -154c53.333 -34 102 -82.333 146 -145l109 -155c73.333 0 122.333 -7.33301 147 -22s37 -41.334 37 -80.001c0 -68.667 -40.333 -103 -121 -103h-92c-36.667 0 -62.667 5 -78 15
s-39.333 37.667 -72 83l-105 146c-64.667 90.667 -128.334 136 -191.001 136h-60v-175c6 0.666992 12 1 18 1c92.667 0 139 -34.333 139 -103c0 -37.333 -11.667 -63.833 -35 -79.5s-68.666 -23.5 -135.999 -23.5h-179c-66.667 0 -111.834 7.66699 -135.501 23
s-35.5 42 -35.5 80c0 36 11.667 62 35 78s64.666 24 123.999 24v498c-6.66699 -0.666992 -13.334 -1 -20.001 -1c-92.667 0 -139 34.333 -139 103c0 37.333 11.667 63.833 35 79.5s68.666 23.5 135.999 23.5h179c66.667 0 111.834 -7.83301 135.501 -23.5
s35.5 -42.167 35.5 -79.5c0 -36 -11.5 -62 -34.5 -78s-63.833 -24 -122.5 -24v-117h31c21.333 0 38.833 3.16699 52.5 9.5s33.5 24.166 59.5 53.499l137 154c62 70 148.667 105 260 105c88.667 0 133 -40.333 133 -121c0 -83.333 -7.5 -136.666 -22.5 -159.999
s-41.5 -35 -79.5 -35c-58 0 -92.333 35.333 -103 106z" />
    <glyph glyph-name="afii10077" unicode="&#x43b;" 
d="M1008 703l0.000976562 -498.003c94 0 141 -34 141 -102c0 -37.333 -11.667 -63.833 -35 -79.5s-68.666 -23.5 -135.999 -23.5h-144c-66.667 0 -111.834 7.66699 -135.501 23s-35.5 42 -35.5 80c0 68 46.667 102 140 102v498h-266v-371
c0 -119.333 -29.333 -208.833 -88 -268.5s-138.334 -89.5 -239.001 -89.5c-134.667 0 -202 27.333 -202 82v105c0 58 7.33301 98 22 120s39.334 33 74.001 33c62.667 0 95.667 -42.667 99 -128l22 -1c36.667 0 63.667 10.833 81 32.5s26 59.834 26 114.501v371
c-74 0 -123.167 7.33301 -147.5 22s-36.5 41.334 -36.5 80.001c0 37.333 11.667 63.833 35 79.5s68.666 23.5 135.999 23.5h659c66.667 0 111.834 -7.83301 135.501 -23.5s35.5 -42.167 35.5 -79.5c0 -32 -10.833 -57.167 -32.5 -75.5s-57.834 -27.166 -108.501 -26.499z
" />
    <glyph glyph-name="afii10078" unicode="&#x43c;" 
d="M335 607v-402.001h74c91.333 0 137 -34 137 -102c0 -68.667 -45.667 -103 -137 -103h-269c-91.333 0 -137 34.333 -137 103c0 28.667 10 52.834 30 72.501s47 29.5 81 29.5h16v498c-72.667 5.33301 -109 39.333 -109 102c0 68.667 45.667 103 137 103h218l240 -410
l235 410h221c91.333 0 137 -34.333 137 -103c0 -62.667 -36.333 -96.667 -109 -102v-498c84.667 0 127 -34 127 -102c0 -68.667 -45.667 -103 -137 -103h-270c-90.667 -0 -136 34.333 -136 103c0 68 45.333 102 136 102h75v402l-202 -363h-147z" />
    <glyph glyph-name="afii10079" unicode="&#x43d;" 
d="M839 358l-438 0.000976562v-153h20c91.333 0 137 -34 137 -102c0 -68.667 -45.667 -103 -137 -103h-239c-91.333 0 -137 34.333 -137 103c0 36 11.667 62 35 78s62 24 116 24v498c-72.667 5.33301 -109 39.333 -109 102c0 68.667 45.667 103 137 103h197
c91.333 0 137 -34.333 137 -103c0 -68 -45.667 -102 -137 -102h-20v-140h438v140h-20c-91.333 0 -137 34 -137 102c0 68.667 45.667 103 137 103h197c91.333 0 137 -34.333 137 -103c0 -62.667 -36.333 -96.667 -109 -102v-498c53.333 0 91.833 -7.83301 115.5 -23.5
s35.5 -41.834 35.5 -78.501c0 -68.667 -45.667 -103 -137 -103h-239c-91.333 -0 -137 34.333 -137 103c0 68 45.667 102 137 102h20v153z" />
    <glyph glyph-name="afii10080" unicode="&#x43e;" 
d="M1147 437c0 -78.667 -21.833 -154.833 -65.5 -228.5s-108.667 -132.334 -195 -176.001s-176.5 -65.5 -270.5 -65.5c-93.333 0 -182.666 21.5 -267.999 64.5s-150.333 101.5 -195 175.5s-67 151.333 -67 232c0 82 22.667 162.5 68 241.5s110.5 141.167 195.5 186.5
s173.833 68 266.5 68c93.333 0 183.166 -23.167 269.499 -69.5s151.5 -108.666 195.5 -186.999s66 -158.833 66 -241.5zM942 436.001c0 66 -23.667 126.666 -71 181.999c-64.667 74.667 -149.667 112 -255 112c-92.667 0 -170 -29.667 -232 -89s-93 -128 -93 -206
c0 -64 31.333 -123.833 94 -179.5s139.667 -83.5 231 -83.5c92 0 169.333 27.833 232 83.5s94 115.834 94 180.501z" />
    <glyph glyph-name="afii10081" unicode="&#x43f;" 
d="M833 703l-438 0.000976562v-498h32c91.333 0 137 -34 137 -102c0 -68.667 -45.667 -103 -137 -103h-251c-91.333 0 -137 34.333 -137 103c0 36 11.667 62 35 78s62 24 116 24v498c-72.667 5.33301 -109 39.333 -109 102c0 68.667 45.667 103 137 103h792
c91.333 0 137 -34.333 137 -103c0 -62.667 -36.333 -96.667 -109 -102v-498c53.333 0 91.833 -7.83301 115.5 -23.5s35.5 -41.834 35.5 -78.501c0 -68.667 -45.667 -103 -137 -103h-251c-91.333 -0 -137 34.333 -137 103c0 68 45.667 102 137 102h32v498z" />
    <glyph glyph-name="afii10082" unicode="&#x440;" 
d="M360 113v-336h123c49.333 0 84.5 -9.5 105.5 -28.5s31.5 -43.833 31.5 -74.5c0 -30 -10.5 -54.5 -31.5 -73.5s-56.167 -28.5 -105.5 -28.5h-363c-49.333 0 -84.5 9.5 -105.5 28.5s-31.5 43.5 -31.5 73.5c0 30.667 10.667 55.5 32 74.5s56.333 28.5 105 28.5h35v926h-35
c-49.333 0 -84.5 9.5 -105.5 28.5s-31.5 43.833 -31.5 74.5c0 30 10.5 54.5 31.5 73.5s56.167 28.5 105.5 28.5h240v-70c48 32.667 97.667 57 149 73s104 24 158 24c140 0 259.333 -47.5 358 -142.5s148 -203.833 148 -326.5c0 -135.333 -58.333 -247 -175 -335
c-97.333 -73.333 -207 -110 -329 -110c-52.667 0 -104.667 7.66699 -156 23s-102.333 38.333 -153 69zM968 465c0 28.667 -11.333 65.1689 -34 109.502s-57.5 81.333 -104.5 111s-102.167 44.5 -165.5 44.5c-102 0 -183 -38.333 -243 -115
c-40.667 -52.667 -61 -103.334 -61 -152.001c0 -54.667 29.167 -107.834 87.5 -159.501s130.5 -77.5 216.5 -77.5c86.667 0 159 25.667 217 77s87 105.333 87 162z" />
    <glyph glyph-name="afii10083" unicode="&#x441;" 
d="M934 871c24.667 23.333 49.999 35 75.999 35c29.333 0 53.5 -10.5 72.5 -31.5s28.5 -55.833 28.5 -104.5v-132c0 -49.333 -9.5 -84.333 -28.5 -105s-43.833 -31 -74.5 -31c-28 0 -51.667 8 -71 24c-14 12 -25 36.5 -33 73.5s-27.333 64.5 -58 82.5
c-54 32 -123 48 -207 48c-96.667 0 -174.167 -28.333 -232.5 -85s-87.5 -128.334 -87.5 -215.001c0 -80 28 -143.167 84 -189.5s149 -69.5 279 -69.5c85.333 0 155 8.66699 209 26c32 10.667 62.333 28.834 91 54.501s54.667 38.5 78 38.5c28 0 52.167 -10.333 72.5 -31
s30.5 -45 30.5 -73c0 -45.333 -31 -88.333 -93 -129c-92 -60.667 -226.667 -91 -404 -91c-159.333 0 -283.333 33 -372 99c-120 88.667 -180 210 -180 364c0 146 48.667 266.833 146 362.5s224.333 143.5 381 143.5c56.667 0 109.334 -5.33301 158.001 -16
s93.667 -26.667 135 -48z" />
    <glyph glyph-name="afii10084" unicode="&#x442;" 
d="M714 703v-498h138c91.333 0 137 -34 137 -102c0 -68.667 -45.667 -103 -137 -103h-480c-91.333 -0 -137 34.333 -137 103c0 68 45.667 102 137 102h137v498h-222v-195c0 -91.333 -34 -137 -102 -137c-68.667 0 -103 45.667 -103 137v400h1062v-400
c0 -91.333 -34.333 -137 -103 -137c-68 0 -102 45.667 -102 137v195h-225z" />
    <glyph glyph-name="afii10085" unicode="&#x443;" 
d="M415 703l214.001 -385.001l217 385c-68.667 10.667 -103 44.667 -103 102c0 37.333 11.667 63.833 35 79.5s68.666 23.5 135.999 23.5h126c66.667 0 111.834 -7.83301 135.501 -23.5s35.5 -42.167 35.5 -79.5c0 -68 -44 -102 -132 -102l-428 -766
c-78.667 -140.667 -172.667 -211 -282 -211c-36 0 -76.833 6.16699 -122.5 18.5s-73 23.333 -82 33s-13.5 27.834 -13.5 54.501v109c0 64 7.5 107.5 22.5 130.5s43.167 34.5 84.5 34.5c37.333 0 63.166 -12.167 77.499 -36.5s21.5 -68.5 21.5 -132.5
c6 -0.666992 11 -1 15 -1c29.333 0 62.333 32.333 99 97l41 73l-332 597c-92 0 -138 34 -138 102c0 37.333 11.667 63.833 35 79.5s68.666 23.5 135.999 23.5h133c66.667 0 111.834 -7.83301 135.501 -23.5s35.5 -42.167 35.5 -79.5c0 -57.333 -34 -91.333 -102 -102z" />
    <glyph glyph-name="afii10086" unicode="&#x444;" 
d="M715 926c34.667 5.33301 62.335 8.00098 83.002 8.00098c92 0 171 -45.833 237 -137.5s99 -205.167 99 -340.5c0 -128.667 -29.167 -240 -87.5 -334s-139.833 -141 -244.5 -141c-22 0 -51 1.66699 -87 5v-68h42c66.667 0 112 -7.66699 136 -23s36 -41.666 36 -78.999
s-11.833 -63.833 -35.5 -79.5s-69.167 -23.5 -136.5 -23.5h-286c-66 0 -111 7.66699 -135 23s-36 41.666 -36 78.999s11.667 63.833 35 79.5s68.666 23.5 135.999 23.5h39v68c-36 -4 -64.333 -6 -85 -6c-102.667 0 -183.5 47.833 -242.5 143.5s-88.5 206.167 -88.5 331.5
c0 134.667 33 248.167 99 340.5s146.333 138.5 241 138.5c18 0 43.333 -2.66699 76 -8v125h-51c-44.667 0 -76.334 6.83301 -95.001 20.5s-28 38.167 -28 73.5c0 24.667 7.33301 48.167 22 70.5s59.834 36.166 135.501 41.499s115.5 8 119.5 8
c39.333 0 66.166 -11.833 80.499 -35.5s21.5 -68.167 21.5 -133.5v-170zM510.001 721.001c-24 4.66699 -41.668 6.99902 -53.001 6.99902c-42.667 0 -79.667 -24.667 -111 -74s-47 -115.333 -47 -198c0 -77.333 13.333 -141.666 40 -192.999s66 -77 118 -77
c14.667 0 32.334 2.33301 53.001 7v528zM715 721v-528c26 -4.66699 46 -7 60 -7c48.667 0 86.5 25.5 113.5 76.5s40.5 118.167 40.5 201.5c0 80 -14.667 144 -44 192s-67 72 -113 72c-10 0 -29 -2.33301 -57 -7z" />
    <glyph glyph-name="afii10087" unicode="&#x445;" 
d="M768 472l310.999 -267c37.333 -2 65.333 -12.5 84 -31.5s28 -42.833 28 -71.5c0 -30 -10.5 -54.5 -31.5 -73.5s-56.167 -28.5 -105.5 -28.5h-233c-49.333 0 -84.5 9.5 -105.5 28.5s-31.5 44.167 -31.5 75.5c0 24 7.5 45.167 22.5 63.5s35.5 30.833 61.5 37.5l-153 132
l-156 -132c31.333 -8 53.833 -20.333 67.5 -37s20.5 -38 20.5 -64c0 -31.333 -10.333 -56.5 -31 -75.5s-55.667 -28.5 -105 -28.5h-231c-49.333 0 -84.5 9.5 -105.5 28.5s-31.5 43.833 -31.5 74.5c0 28 9.33301 51.5 28 70.5s46.667 29.5 84 31.5l304 268l-269 230
c-35.333 2.66699 -62.166 13.5 -80.499 32.5s-27.5 42.5 -27.5 70.5c0 30 10.5 54.5 31.5 73.5s56.167 28.5 105.5 28.5h192c49.333 0 84.5 -9.5 105.5 -28.5s31.5 -43.167 31.5 -72.5c0 -39.333 -18.667 -71.333 -56 -96l124 -103l122 105c-36.667 26 -55 56 -55 90
c0 32 10.5 57.5 31.5 76.5s56.167 28.5 105.5 28.5h190c49.333 0 84.5 -9.5 105.5 -28.5s31.5 -43.833 31.5 -74.5c0 -27.333 -9.16699 -50.5 -27.5 -69.5s-45.5 -29.833 -81.5 -32.5z" />
    <glyph glyph-name="afii10088" unicode="&#x446;" 
d="M1011 703v-498h205v-310c0 -91.333 -34 -137 -102 -137c-68.667 0 -103 45.667 -103 137v105h-820c-91.333 0 -137 34 -137 102c0 63.333 36.333 97.666 109 102.999v498c-53.333 0 -91.833 7.83301 -115.5 23.5s-35.5 41.834 -35.5 78.501c0 68.667 45.667 103 137 103
h251c91.333 0 137 -34.333 137 -103c0 -68 -45.667 -102 -137 -102h-32v-498h438v498h-32c-91.333 0 -137 34 -137 102c0 68.667 45.667 103 137 103h251c91.333 0 137 -34.333 137 -103c0 -36 -11.667 -62 -35 -78s-62 -24 -116 -24z" />
    <glyph glyph-name="afii10089" unicode="&#x447;" 
d="M805 205v116c-88.667 -45.333 -183.334 -68 -284.001 -68c-209.333 0 -314 100.333 -314 301v149c-95.333 1.33301 -143 35.333 -143 102c0 37.333 11.667 63.833 35 79.5s68.666 23.5 135.999 23.5h167c66.667 0 111.834 -7.83301 135.501 -23.5
s35.5 -42.167 35.5 -79.5c0 -36 -11.167 -61.833 -33.5 -77.5s-65.166 -23.834 -128.499 -24.501v-149c0 -34 8.5 -58 25.5 -72s49.5 -21 97.5 -21c78.667 0 169 29 271 87v155c-98.667 0 -148 34 -148 102c0 37.333 11.667 63.833 35 79.5s68.666 23.5 135.999 23.5h156
c66.667 0 111.834 -7.83301 135.501 -23.5s35.5 -42.167 35.5 -79.5c0 -68 -48.333 -102 -145 -102v-498c96.667 0 145 -34 145 -102c0 -37.333 -11.667 -63.833 -35 -79.5s-68.666 -23.5 -135.999 -23.5h-283c-66 0 -111 7.66699 -135 23s-36 42 -36 80
c0 36.667 11.667 62.834 35 78.501s68.666 23.5 135.999 23.5h104z" />
    <glyph glyph-name="afii10090" unicode="&#x448;" 
d="M512 205v498.002c-68.667 2.66699 -103 37 -103 103c0 68 40.667 102 122 102h162c85.333 0 128 -34.333 128 -103c0 -64.667 -34.667 -98.667 -104 -102v-498h179v703h218c92 0 138 -34.333 138 -103c0 -36.667 -11.833 -62.834 -35.5 -78.501
s-62.167 -23.5 -115.5 -23.5v-498c84.667 0 127 -34.333 127 -103c0 -36.667 -11.833 -62.834 -35.5 -78.501s-63.167 -23.5 -118.5 -23.5h-917c-91.333 0 -137 34 -137 102c0 63.333 36.333 97.666 109 102.999v498c-53.333 0 -91.833 7.83301 -115.5 23.5
s-35.5 41.834 -35.5 78.501c0 68.667 45.667 103 137 103h219v-703h178z" />
    <glyph glyph-name="afii10091" unicode="&#x449;" 
d="M489 205v498c-68.667 4.66699 -103 39 -103 103c0 68 40.667 102 122 102h162c85.333 0 128 -34.333 128 -103c0 -63.333 -34.667 -97.333 -104 -102v-498h179v703h219c91.333 0 137 -34.333 137 -103c0 -36 -11.833 -62 -35.5 -78s-62.167 -24 -115.5 -24v-498h205v-310
c0 -91.333 -34.333 -137 -103 -137c-68 0 -102 45.667 -102 137v105h-944c-91.333 0 -137 34 -137 102c0 63.333 36.333 97.666 109 102.999v498c-53.333 0 -91.833 7.83301 -115.5 23.5s-35.5 41.834 -35.5 78.501c0 68.667 45.667 103 137 103h219v-703h178z" />
    <glyph glyph-name="afii10092" unicode="&#x44a;" 
d="M507 703h-290v-195c0 -91.333 -34 -137 -102 -137c-68.667 0 -103 45.667 -103 137v400h758c91.333 0 137 -34.333 137 -103c0 -68 -45.667 -102 -137 -102h-58v-143h97c158.667 0 266 -28.833 322 -86.5s84 -125.5 84 -203.5c0 -180 -130.667 -270 -392 -270h-348
c-91.333 -0 -137 34.333 -137 103c0 68 45.667 102 137 102h32v498zM712 205h100c132 0 198 26 198 78c0 26 -14 44.5 -42 55.5s-94 16.5 -198 16.5h-58v-150z" />
    <glyph glyph-name="afii10093" unicode="&#x44b;" 
d="M131 908h274.999c91.333 0 137 -34.333 137 -103c0 -68 -45.667 -102 -137 -102h-45v-143h44c145.333 0 247 -28.167 305 -84.5s87 -124.833 87 -205.5c0 -84 -31.667 -150 -95 -198s-157.666 -72 -282.999 -72h-288c-91.333 -0 -137 34.333 -137 103
c0 68 45.667 102 137 102h25v498h-25c-91.333 0 -137 34 -137 102c0 68.667 45.667 103 137 103zM360.999 205h47c122.667 0 184 26 184 78c0 20 -11.167 37 -33.5 51s-77.5 21 -165.5 21h-32v-150zM919.999 703l-21 0.000976562c-26.667 0 -50.167 9.66699 -70.5 29
s-30.5 43.666 -30.5 72.999c0 68.667 40.667 103 122 103h177c92 0 138 -32.333 138 -97c0 -65.333 -36.667 -101.333 -110 -108v-498c73.333 -3.33301 110 -39.333 110 -108c0 -64.667 -46 -97 -138 -97h-177c-81.333 0 -122 34 -122 102c0 31.333 10.667 56.333 32 75
s44.333 28 69 28h21v498z" />
    <glyph glyph-name="afii10094" unicode="&#x44c;" 
d="M451 908c91.333 0 137 -34.333 137 -103c0 -68 -45.667 -102 -137 -102h-50v-143h314c158 0 265.167 -29 321.5 -87s84.5 -125.667 84.5 -203c0 -180 -130.333 -270 -391 -270h-566c-91.333 -0 -137 34.333 -137 103c0 68 45.667 102 137 102h32v498h-32
c-91.333 0 -137 34 -137 102c0 68.667 45.667 103 137 103h287zM401 205l318 -0.000976562c131.333 0 197 26 197 78c0 26.667 -14 45.334 -42 56.001s-94 16 -198 16h-275v-150z" />
    <glyph glyph-name="afii10095" unicode="&#x44d;" 
d="M883 558l-336 -0.00292969c-86.667 0 -130 -33 -130 -99c0 -70.667 43.333 -106 130 -106h352c-32 -121.333 -149.333 -182 -352 -182c-139.333 0 -240.333 27.667 -303 83c-26.667 24 -51.667 36 -75 36c-28.667 0 -53 -10.667 -73 -32s-30 -45.333 -30 -72
c0 -61.333 46.5 -113.166 139.5 -155.499s212.167 -63.5 357.5 -63.5c112 0 206.5 15.833 283.5 47.5s141 83.834 192 156.501s76.5 158.667 76.5 258c0 143.333 -48.333 263.5 -145 360.5s-223.667 145.5 -381 145.5c-113.333 0 -211.333 -21.333 -294 -64
c-24 23.333 -49.333 35 -76 35c-67.333 0 -101 -45.333 -101 -136v-132c0 -90.667 34.333 -136 103 -136c30 0 53 7.33301 69 22s28 40.334 36 77.001c18.667 86 106.667 129 264 129c142 0 239.667 -57.333 293 -172z" />
    <glyph glyph-name="afii10096" unicode="&#x44e;" 
d="M454 358l-127.001 -0.000976562v-153h20c91.333 0 137 -34 137 -102c0 -68.667 -45.667 -103 -137 -103h-239c-91.333 0 -137 34.333 -137 103c0 36 11.667 62 35 78s62 24 116 24v498c-72.667 5.33301 -109 39.333 -109 102c0 68.667 45.667 103 137 103h197
c91.333 0 137 -34.333 137 -103c0 -68 -45.667 -102 -137 -102h-20v-140h130c13.333 110.667 55.833 200.334 127.5 269.001s160.834 103 267.501 103c123.333 0 221 -43.667 293 -131s108 -205 108 -353c0 -149.333 -36 -267.333 -108 -354s-169.667 -130 -293 -130
c-117.333 0 -211 39.333 -281 118s-109 169.667 -117 273zM850.999 729.999c-55.333 0 -102.166 -25 -140.499 -75s-57.5 -118 -57.5 -204s19.167 -154 57.5 -204s85.166 -75 140.499 -75c54 0 100.333 24.833 139 74.5s58 117.834 58 204.501
c0 89.333 -19.5 158.166 -58.5 206.499s-85.167 72.5 -138.5 72.5z" />
    <glyph glyph-name="afii10097" unicode="&#x44f;" 
d="M761 0c-91.333 0 -136.999 34.3311 -136.999 102.998c0 68 45.667 102 137 102h50v143h-95c-152.667 -64 -289.334 -180 -410.001 -348h-117c-91.333 0 -137 34 -137 102c0 36.667 11.333 63 34 79s61 24 115 24c50 67.333 97.667 118.333 143 153
c-88 16.667 -152.167 50.834 -192.5 102.501s-60.5 110.834 -60.5 177.501c0 180 130.333 270 391 270h566c91.333 0 137 -34.333 137 -103c0 -68 -45.667 -102 -137 -102h-32v-498h32c91.333 0 137 -34 137 -102c0 -68.667 -45.667 -103 -137 -103h-287zM811.001 702.998
h-317c-132 0 -198 -26 -198 -78c0 -26 14 -44.5 42 -55.5s94.333 -16.5 199 -16.5h274v150z" />
    <glyph glyph-name="afii10071" unicode="&#x451;" 
d="M1129 350l-841 0.000976562c21.333 -53.333 59.166 -96.333 113.499 -129s127.833 -49 220.5 -49c76 0 177 16.333 303 49c52 13.333 88 20 108 20c27.333 0 50.333 -9.66699 69 -29s28 -43.666 28 -72.999c0 -26.667 -10 -49.334 -30 -68.001
c-26.667 -24.667 -91.667 -48.167 -195 -70.5s-202.666 -33.5 -297.999 -33.5c-164 0 -295.167 46.333 -393.5 139s-147.5 206.667 -147.5 342c0 144 53.167 261.167 159.5 351.5s228.833 135.5 367.5 135.5c83.333 0 159.833 -14.667 229.5 -44s121.5 -61 155.5 -95
c48 -49.333 87.667 -110.333 119 -183c21.333 -50.667 32 -109.334 32 -176.001v-87zM902 555.001c-31.333 58.667 -72.333 102.5 -123 131.5s-111 43.5 -181 43.5c-69.333 0 -129.333 -14.5 -180 -43.5s-92 -72.833 -124 -131.5h608zM509 1177
c0 -30.667 -10.5 -56.5 -31.5 -77.5s-46.5 -31.5 -76.5 -31.5s-55.667 10.667 -77 32s-32 47 -32 77s10.667 55.5 32 76.5s47 31.5 77 31.5s55.5 -10.5 76.5 -31.5s31.5 -46.5 31.5 -76.5zM937 1177c0 -30.667 -10.667 -56.5 -32 -77.5s-47 -31.5 -77 -31.5
s-55.5 10.667 -76.5 32s-31.5 47 -31.5 77s10.5 55.5 31.5 76.5s46.5 31.5 76.5 31.5s55.667 -10.5 77 -31.5s32 -46.5 32 -76.5z" />
    <glyph glyph-name="afii10099" unicode="&#x452;" 
d="M403 1212h234.001c86.667 0 130 -31.667 130 -95c0 -73.333 -43.333 -110 -130 -110h-234v-147c81.333 50 169.333 75 264 75c112.667 0 204 -30.5 274 -91.5s105 -145.5 105 -253.5v-633c0 -55.333 -12 -111.5 -36 -168.5s-69.167 -107.333 -135.5 -151
s-141.833 -65.5 -226.5 -65.5h-231c-92 0 -138 34 -138 102c0 68.667 46 103 138 103h225c59.333 0 107.166 15.833 143.499 47.5s54.5 75.834 54.5 132.501v619c0 102.667 -58.333 154 -175 154c-90 0 -177.333 -46.667 -262 -140v-385
c53.333 0 91.833 -7.83301 115.5 -23.5s35.5 -41.834 35.5 -78.501c0 -68.667 -45.667 -103 -137 -103h-233c-91.333 -0 -137 34.333 -137 103c0 36 11.667 62 35 78s62 24 116 24v887h-35c-91.333 0 -137 34 -137 102c0 68.667 45.667 103 137 103h240v-85z" />
    <glyph glyph-name="afii10100" unicode="&#x453;" 
d="M529 205h120c91.333 0 137 -34.333 137 -103c0 -68 -45.667 -102 -137 -102h-444c-91.333 -0 -137 34.333 -137 103c0 68 45.667 102 137 102h119v498h-119c-91.333 0 -137 34 -137 102c0 68.667 45.667 103 137 103h971v-399c0 -91.333 -34 -137 -102 -137
c-68.667 0 -103 45.667 -103 137v194h-442v-498zM769 1235l-225 -183c-22.667 -18 -41.667 -27 -57 -27c-18.667 0 -34.5 6.33301 -47.5 19s-19.5 28.334 -19.5 47.001c0 21.333 13.333 42.666 40 63.999l226 183c22.667 18 41.667 27 57 27
c18.667 0 34.5 -6.33301 47.5 -19s19.5 -28 19.5 -46c0 -22 -13.667 -43.667 -41 -65z" />
    <glyph glyph-name="afii10101" unicode="&#x454;" 
d="M346 558l336 -0.00292969c86.667 0 130 -33 130 -99c0 -70.667 -43.333 -106 -130 -106h-352c32 -121.333 149.333 -182 352 -182c139.333 0 240.333 27.667 303 83c26.667 24 51.667 36 75 36c28.667 0 53 -10.667 73 -32s30 -45.333 30 -72
c0 -61.333 -46.5 -113.166 -139.5 -155.499s-212.167 -63.5 -357.5 -63.5c-112 0 -206.5 15.833 -283.5 47.5s-141 83.834 -192 156.501s-76.5 158.667 -76.5 258c0 143.333 48.333 263.5 145 360.5s223.667 145.5 381 145.5c113.333 0 211.333 -21.333 294 -64
c24 23.333 49.333 35 76 35c67.333 0 101 -45.333 101 -136v-132c0 -90.667 -34.333 -136 -103 -136c-30 0 -53 7.33301 -69 22s-28 40.334 -36 77.001c-18.667 86 -106.667 129 -264 129c-142 0 -239.667 -57.333 -293 -172z" />
    <glyph glyph-name="afii10102" unicode="&#x455;" 
d="M836 668c-33.333 20.667 -68.334 36.1709 -105.001 46.5039s-75 15.5 -115 15.5c-79.333 0 -142.333 -13 -189 -39c-20.667 -11.333 -31 -23.666 -31 -36.999c0 -15.333 14 -30.333 42 -45c21.333 -10.667 69 -21 143 -31c136 -18.667 230.667 -37.334 284 -56.001
c70 -24.667 124 -61.334 162 -110.001s57 -100 57 -154c0 -73.333 -32.333 -134.666 -97 -183.999c-92.667 -71.333 -213 -107 -361 -107c-59.333 0 -114.166 5.16699 -164.499 15.5s-96.5 25.5 -138.5 45.5c-10 -8.66699 -20.667 -15.334 -32 -20.001s-23 -7 -35 -7
c-32 0 -57.5 10.5 -76.5 31.5s-28.5 56.167 -28.5 105.5v69c0 49.333 9.5 84.5 28.5 105.5s43.833 31.5 74.5 31.5c24.667 0 45.334 -6.83301 62.001 -20.5s29.667 -37.167 39 -70.5c31.333 -26.667 69 -46.834 113 -60.501s94.667 -20.5 152 -20.5c94 0 167 14.667 219 44
c24.667 14.667 37 30 37 46c0 26.667 -17.667 48.667 -53 66s-108.333 32 -219 44c-164.667 17.333 -274.667 50.666 -330 99.999c-55.333 48.667 -83 108.667 -83 180c0 73.333 31 134.333 93 183c84 66.667 194 100 330 100c47.333 0 92.833 -4.5 136.5 -13.5
s85.5 -22.833 125.5 -41.5c12.667 9.33301 24.5 16.333 35.5 21s21.167 7 30.5 7c28 0 51.333 -10.5 70 -31.5s28 -56.167 28 -105.5v-50c0 -44.667 -5.33301 -75 -16 -91c-21.333 -30.667 -50.333 -46 -87 -46c-24.667 0 -46.334 7.66699 -65.001 23
s-30.667 35.666 -36 60.999z" />
    <glyph glyph-name="afii10103" unicode="&#x456;" 
d="M688 1297v-217h-244v217h244zM716 908v-703h246c49.333 0 84.5 -9.5 105.5 -28.5s31.5 -43.833 31.5 -74.5c0 -30 -10.5 -54.5 -31.5 -73.5s-56.167 -28.5 -105.5 -28.5h-697c-49.333 0 -84.5 9.5 -105.5 28.5s-31.5 43.833 -31.5 74.5c0 30 10.5 54.5 31.5 73.5
s56.167 28.5 105.5 28.5h246v498h-165c-48.667 0 -83.667 9.5 -105 28.5s-32 43.833 -32 74.5c0 30 10.5 54.5 31.5 73.5s56.167 28.5 105.5 28.5h370z" />
    <glyph glyph-name="afii10104" unicode="&#x457;" 
d="M716 908v-703h246c49.333 0 84.5 -9.5 105.5 -28.5s31.5 -43.833 31.5 -74.5c0 -30 -10.5 -54.5 -31.5 -73.5s-56.167 -28.5 -105.5 -28.5h-697c-49.333 0 -84.5 9.5 -105.5 28.5s-31.5 43.833 -31.5 74.5c0 30 10.5 54.5 31.5 73.5s56.167 28.5 105.5 28.5h246v498h-165
c-48.667 0 -83.667 9.5 -105 28.5s-32 43.833 -32 74.5c0 30 10.5 54.5 31.5 73.5s56.167 28.5 105.5 28.5h370zM424 1177c0 -30.667 -10.5 -56.5 -31.5 -77.5s-46.5 -31.5 -76.5 -31.5s-55.667 10.667 -77 32s-32 47 -32 77s10.667 55.5 32 76.5s47 31.5 77 31.5
s55.5 -10.5 76.5 -31.5s31.5 -46.5 31.5 -76.5zM852 1177c0 -30.667 -10.667 -56.5 -32 -77.5s-47 -31.5 -77 -31.5s-55.5 10.667 -76.5 32s-31.5 47 -31.5 77s10.5 55.5 31.5 76.5s46.5 31.5 76.5 31.5s55.667 -10.5 77 -31.5s32 -46.5 32 -76.5z" />
    <glyph glyph-name="afii10105" unicode="&#x458;" 
d="M821 1297v-217h-245v217h245zM737 703l-418 0.000976562c-49.333 0 -84.5 9.5 -105.5 28.5s-31.5 43.833 -31.5 74.5c0 30 10.5 54.5 31.5 73.5s56.167 28.5 105.5 28.5h623v-951c0 -72 -15.167 -134.833 -45.5 -188.5s-76.833 -99.834 -139.5 -138.501
s-133.334 -58 -212.001 -58h-232c-49.333 0 -84.5 9.5 -105.5 28.5s-31.5 43.5 -31.5 73.5c0 30.667 10.5 55.5 31.5 74.5s56.167 28.5 105.5 28.5h226c62.667 0 111.334 17 146.001 51s52 77 52 129v746z" />
    <glyph glyph-name="afii1016" unicode="&#x459;" 
d="M836 703l-0.000976562 -133.002c127.333 0 219.166 -29.167 275.499 -87.5s84.5 -125.166 84.5 -200.499c0 -64 -19.5 -119.833 -58.5 -167.5s-85.167 -78.667 -138.5 -93s-132.666 -21.5 -237.999 -21.5h-88c-96.667 0 -145 34 -145 102c0 58 34.333 92.333 103 103v498
h-131v-371c0 -117.333 -28.5 -206.333 -85.5 -267s-132.167 -91 -225.5 -91c-40 0 -78.667 4.5 -116 13.5s-60.333 17.667 -69 26s-13 22.5 -13 42.5v105c0 58.667 7 98.834 21 120.501s38 32.5 72 32.5c60.667 0 92.667 -43 96 -129h21c42 0 70.5 10.5 85.5 31.5
s22.5 59.5 22.5 115.5v371c-8 -0.666992 -16.333 -1 -25 -1c-94 0 -141 34.333 -141 103c0 37.333 11.667 63.833 35 79.5s68.666 23.5 135.999 23.5h486c66.667 0 111.834 -7.83301 135.501 -23.5s35.5 -42.167 35.5 -79.5c0 -31.333 -10.667 -56.333 -32 -75
s-55.666 -27.667 -102.999 -27zM835.999 363.998v-159.002h24c82 0 123 25.667 123 77c0 24.667 -8.5 43.834 -25.5 57.501s-57.5 21.834 -121.5 24.501z" />
    <glyph glyph-name="afii10107" unicode="&#x45a;" 
d="M788 563l73 -0.000976562c270.667 0 406 -97 406 -291c0 -181.333 -130.667 -272 -392 -272h-274c-82.667 0 -124 34.333 -124 103c0 27.333 9.66699 51 29 71s45 30.333 77 31v153h-263v-153c34.667 0 61.5 -10.5 80.5 -31.5s28.5 -44.5 28.5 -70.5
c0 -68.667 -42.667 -103 -128 -103h-200c-91.333 0 -137 34.333 -137 103c0 36 11.667 62 35 78s62 24 116 24v498c-72.667 5.33301 -109 39.333 -109 102c0 68.667 45.667 103 137 103h158c85.333 0 128 -34.333 128 -103c0 -26 -9.5 -49.5 -28.5 -70.5
s-45.833 -31.5 -80.5 -31.5v-140h263v140c-32.667 0 -58.5 10.333 -77.5 31s-28.5 44.334 -28.5 71.001c0 68.667 41.333 103 124 103h159c91.333 0 137 -34.333 137 -103c0 -62.667 -36.333 -96.667 -109 -102v-140zM788 204.999h76c132 0 198 26.333 198 79
c0 28 -14.167 47.333 -42.5 58s-94.5 16 -198.5 16h-33v-153z" />
    <glyph glyph-name="afii10108" unicode="&#x45b;" 
d="M403 1212l234 0.00195312c86.667 0 130 -32.667 130 -98c0 -71.333 -43.333 -107 -130 -107h-234v-147c81.333 50 169.333 75 264 75c112.667 0 204 -30.5 274 -91.5s105 -145.5 105 -253.5v-385c52.667 0 90.834 -7.83301 114.501 -23.5s35.5 -41.834 35.5 -78.501
c0 -68.667 -45.333 -103 -136 -103h-234c-90.667 0 -136 34.333 -136 103c0 36 11.667 62 35 78s61.666 24 114.999 24v371c0 102.667 -58.333 154 -175 154c-90 0 -177.333 -46.667 -262 -140v-385c53.333 0 91.833 -7.83301 115.5 -23.5s35.5 -41.834 35.5 -78.501
c0 -68.667 -45.667 -103 -137 -103h-233c-91.333 -0 -137 34.333 -137 103c0 36 11.667 62 35 78s62 24 116 24v887h-35c-91.333 0 -137 34 -137 102c0 68.667 45.667 103 137 103h240v-85z" />
    <glyph glyph-name="afii10109" unicode="&#x45c;" 
d="M929 698c-9.33301 -5.33301 -23.3301 -18.332 -41.9971 -38.999l-146 -154c53.333 -34 102 -82.333 146 -145l109 -155c73.333 0 122.333 -7.33301 147 -22s37 -41.334 37 -80.001c0 -68.667 -40.333 -103 -121 -103h-92c-36.667 0 -62.667 5 -78 15
s-39.333 37.667 -72 83l-105 146c-64.667 90.667 -128.334 136 -191.001 136h-60v-175c6 0.666992 12 1 18 1c92.667 0 139 -34.333 139 -103c0 -37.333 -11.667 -63.833 -35 -79.5s-68.666 -23.5 -135.999 -23.5h-179c-66.667 0 -111.834 7.66699 -135.501 23
s-35.5 42 -35.5 80c0 36 11.667 62 35 78s64.666 24 123.999 24v498c-6.66699 -0.666992 -13.334 -1 -20.001 -1c-92.667 0 -139 34.333 -139 103c0 37.333 11.667 63.833 35 79.5s68.666 23.5 135.999 23.5h179c66.667 0 111.834 -7.83301 135.501 -23.5
s35.5 -42.167 35.5 -79.5c0 -36 -11.5 -62 -34.5 -78s-63.833 -24 -122.5 -24v-117h31c21.333 0 38.833 3.16699 52.5 9.5s33.5 24.166 59.5 53.499l137 154c62 70 148.667 105 260 105c88.667 0 133 -40.333 133 -121c0 -83.333 -7.5 -136.666 -22.5 -159.999
s-41.5 -35 -79.5 -35c-58 0 -92.333 35.333 -103 106zM769.003 1235l-225 -183c-22.667 -18 -41.667 -27 -57 -27c-18.667 0 -34.5 6.33301 -47.5 19s-19.5 28.334 -19.5 47.001c0 21.333 13.333 42.666 40 63.999l226 183c22.667 18 41.667 27 57 27
c18.667 0 34.5 -6.33301 47.5 -19s19.5 -28 19.5 -46c0 -22 -13.667 -43.667 -41 -65z" />
    <glyph glyph-name="afii10110" unicode="&#x45e;" 
d="M415 703l214.001 -385.001l217 385c-68.667 10.667 -103 44.667 -103 102c0 37.333 11.667 63.833 35 79.5s68.666 23.5 135.999 23.5h126c66.667 0 111.834 -7.83301 135.501 -23.5s35.5 -42.167 35.5 -79.5c0 -68 -44 -102 -132 -102l-428 -766
c-78.667 -140.667 -172.667 -211 -282 -211c-36 0 -76.833 6.16699 -122.5 18.5s-73 23.333 -82 33s-13.5 27.834 -13.5 54.501v109c0 64 7.5 107.5 22.5 130.5s43.167 34.5 84.5 34.5c37.333 0 63.166 -12.167 77.499 -36.5s21.5 -68.5 21.5 -132.5
c6 -0.666992 11 -1 15 -1c29.333 0 62.333 32.333 99 97l41 73l-332 597c-92 0 -138 34 -138 102c0 37.333 11.667 63.833 35 79.5s68.666 23.5 135.999 23.5h133c66.667 0 111.834 -7.83301 135.501 -23.5s35.5 -42.167 35.5 -79.5c0 -57.333 -34 -91.333 -102 -102z
M358.001 1340c17.333 0 31.0039 -4.33301 41.0039 -13s18.667 -27.5 26 -56.5s25.666 -53.167 54.999 -72.5c38.667 -25.333 83.667 -38 135 -38c52 0 95 11.333 129 34c33.333 22 53.833 47.5 61.5 76.5s16.5 47.833 26.5 56.5s23.667 13 41 13
c19.333 0 35.166 -6.5 47.499 -19.5s18.5 -29.833 18.5 -50.5c0 -57.333 -30.333 -112.166 -91 -164.499s-138.334 -78.5 -233.001 -78.5s-172.334 26.167 -233.001 78.5s-91 107.166 -91 164.499c0 20.667 6.33301 37.5 19 50.5s28.667 19.5 48 19.5z" />
    <glyph glyph-name="afii10193" unicode="&#x45f;" 
d="M395 205h438v498h-32c-91.333 0 -137 34 -137 102c0 68.667 45.667 103 137 103h251c91.333 0 137 -34.333 137 -103c0 -36.667 -11.667 -62.834 -35 -78.501s-62 -23.5 -116 -23.5v-498c72.667 -5.33301 109 -39.666 109 -102.999c0 -68 -45.667 -102 -137 -102h-293
v-98c0 -91.333 -34.333 -137 -103 -137s-103 45.667 -103 137v98h-293c-91.333 0 -137 34 -137 102c0 63.333 36.333 97.666 109 102.999v498c-53.333 0 -91.833 7.83301 -115.5 23.5s-35.5 41.834 -35.5 78.501c0 68.667 45.667 103 137 103h251
c91.333 0 137 -34.333 137 -103c0 -68 -45.667 -102 -137 -102h-32v-498z" />
    <glyph glyph-name="afii10050" unicode="&#x490;" 
d="M971 1212v114c0 91.333 34.333 137 103 137c68 0 102 -45.667 102 -137v-319h-647v-802h120c91.333 0 137 -34.333 137 -103c0 -68 -45.667 -102 -137 -102h-444c-91.333 -0 -137 34.333 -137 103c0 68 45.667 102 137 102h119v802h-119c-91.333 0 -137 34.333 -137 103
c0 68 45.667 102 137 102h766z" />
    <glyph glyph-name="afii10098" unicode="&#x491;" 
d="M971 908v113c0 91.333 34.333 137 103 137c68 0 102 -45.667 102 -137v-318h-647v-498h120c91.333 0 137 -34.333 137 -103c0 -68 -45.667 -102 -137 -102h-444c-91.333 -0 -137 34.333 -137 103c0 68 45.667 102 137 102h119v498h-119c-91.333 0 -137 34 -137 102
c0 68.667 45.667 103 137 103h766z" />
    <glyph glyph-name="endash" unicode="&#x2013;" 
d="M1008 478h-789c-49.333 0 -84.5 9.5 -105.5 28.5s-31.5 43.833 -31.5 74.5c0 30 10.5 54.5 31.5 73.5s56.167 28.5 105.5 28.5h789c49.333 0 84.5 -9.5 105.5 -28.5s31.5 -43.833 31.5 -74.5c0 -30 -10.5 -54.5 -31.5 -73.5s-56.167 -28.5 -105.5 -28.5z" />
    <glyph glyph-name="emdash" unicode="&#x2014;" 
d="M1154 477h-1078c-49.333 0 -84.5 9.5 -105.5 28.5s-31.5 43.833 -31.5 74.5c0 30 10.5 54.5 31.5 73.5s56.167 28.5 105.5 28.5h1078c48.667 0 83.5 -9.5 104.5 -28.5s31.5 -43.833 31.5 -74.5c0 -30 -10.333 -54.5 -31 -73.5s-55.667 -28.5 -105 -28.5z" />
    <glyph glyph-name="quoteleft" unicode="&#x2018;" 
d="M510 1253h273.999l141 -509c5.33301 -17.333 8 -31 8 -41c0 -14 -6.16699 -26.667 -18.5 -38s-27.166 -17 -44.499 -17c-26.667 0 -48.667 16.333 -66 49z" />
    <glyph glyph-name="quoteright" unicode="&#x2019;" 
d="M445 1253h273.999l-295 -556c-17.333 -32.667 -39 -49 -65 -49c-17.333 0 -32.166 5.66699 -44.499 17s-18.5 24 -18.5 38c0 10 2.33301 23.667 7 41z" />
    <glyph glyph-name="quotesinglbase" unicode="&#x201a;" 
d="M445 276l274.001 0.000976562l-303 -552c-16 -29.333 -35 -44 -57 -44c-18.667 0 -33.834 5 -45.501 15s-17.5 20.667 -17.5 32c0 9.33301 2.33301 22.666 7 39.999z" />
    <glyph glyph-name="quotedblleft" unicode="&#x201c;" 
d="M836 1262l176 -439c6 -15.333 9 -28.333 9 -39c0 -14 -6.5 -27 -19.5 -39s-28.167 -18 -45.5 -18c-20 0 -38.333 13.667 -55 41l-309 494h244zM406 1262l175.999 -439c6 -15.333 9 -28.333 9 -39c0 -14 -6.66699 -27 -20 -39s-28.666 -18 -45.999 -18
c-19.333 0 -37.333 13.667 -54 41l-309 494h244z" />
    <glyph glyph-name="quotedblright" unicode="&#x201d;" 
d="M394 1262l242.998 0.000976562l-308 -494c-17.333 -27.333 -35.666 -41 -54.999 -41c-17.333 0 -32.666 6 -45.999 18s-20 24.667 -20 38c0 11.333 3 24.666 9 39.999zM823.998 1262l242.998 0.000976562l-308 -494c-17.333 -27.333 -35.666 -41 -54.999 -41
c-17.333 0 -32.666 6 -45.999 18s-20 24.667 -20 38c0 11.333 3 24.666 9 39.999z" />
    <glyph glyph-name="quotedblbase" unicode="&#x201e;" 
d="M394 268l242.998 0.00195312l-308 -494c-17.333 -27.333 -35.666 -41 -54.999 -41c-17.333 0 -32.666 6.16699 -45.999 18.5s-20 25.166 -20 38.499c0 11.333 3 24.666 9 39.999zM823.998 268.002l242.998 0.00195312l-308 -494c-17.333 -27.333 -35.666 -41 -54.999 -41
c-17.333 0 -32.666 6.16699 -45.999 18.5s-20 25.166 -20 38.499c0 11.333 3 24.666 9 39.999z" />
    <glyph glyph-name="dagger" unicode="&#x2020;" 
d="M716 703v-759c0 -49.333 -9.5 -84.5 -28.5 -105.5s-43.833 -31.5 -74.5 -31.5s-55.334 10.5 -74.001 31.5s-28 56.167 -28 105.5v759h-185c-49.333 0 -84.5 9.5 -105.5 28.5s-31.5 43.833 -31.5 74.5c0 30 10.5 54.5 31.5 73.5s56.167 28.5 105.5 28.5h185v249
c0 49.333 9.33301 84.5 28 105.5s43.334 31.5 74.001 31.5s55.5 -10.5 74.5 -31.5s28.5 -56.167 28.5 -105.5v-249h186c49.333 0 84.5 -9.5 105.5 -28.5s31.5 -43.833 31.5 -74.5c0 -30 -10.5 -54.5 -31.5 -73.5s-56.167 -28.5 -105.5 -28.5h-186z" />
    <glyph glyph-name="daggerdbl" unicode="&#x2021;" 
d="M715 697v-291.999h186c49.333 0 84.5 -9.33301 105.5 -28s31.5 -43.334 31.5 -74.001s-10.5 -55.5 -31.5 -74.5s-56.167 -28.5 -105.5 -28.5h-186v-256c0 -49.333 -9.5 -84.5 -28.5 -105.5s-43.833 -31.5 -74.5 -31.5c-30 0 -54.5 10.5 -73.5 31.5
s-28.5 56.167 -28.5 105.5v256h-183c-49.333 0 -84.5 9.5 -105.5 28.5s-31.5 43.833 -31.5 74.5s11 55.667 33 75s56.667 28.333 104 27l183 -4v296h-183c-49.333 0 -84.5 9.5 -105.5 28.5s-31.5 43.833 -31.5 74.5c0 30 10.5 54.5 31.5 73.5s56.167 28.5 105.5 28.5h183
v255c0 49.333 9.5 84.5 28.5 105.5s43.5 31.5 73.5 31.5c30.667 0 55.5 -10.5 74.5 -31.5s28.5 -56.167 28.5 -105.5v-255h183c48.667 0 83.5 -9.5 104.5 -28.5s31.5 -43.833 31.5 -74.5c0 -30 -10.333 -54.5 -31 -73.5s-55.667 -28.5 -105 -28.5h-183z" />
    <glyph glyph-name="bullet" unicode="&#x2022;" 
d="M924 634c0 -86 -30.167 -159.333 -90.5 -220s-132.5 -91 -216.5 -91c-85.333 0 -158 30.333 -218 91s-90 134 -90 220s30 159.333 90 220s132.667 91 218 91c84.667 0 157 -30.167 217 -90.5s90 -133.833 90 -220.5z" />
    <glyph glyph-name="ellipsis" unicode="&#x2026;" 
d="M307 74c0 -29.333 -10 -54 -30 -74s-44 -30 -72 -30c-28.667 0 -53 10.167 -73 30.5s-30 44.833 -30 73.5s10 53.167 30 73.5s44.333 30.5 73 30.5c28 0 52 -10.167 72 -30.5s30 -44.833 30 -73.5zM717 74c0 -29.333 -10 -54 -30 -74s-44 -30 -72 -30
c-28.667 0 -53 10.167 -73 30.5s-30 44.833 -30 73.5s10 53.167 30 73.5s44.333 30.5 73 30.5c28 0 52 -10.167 72 -30.5s30 -44.833 30 -73.5zM1127 74c0 -29.333 -10 -54 -30 -74s-44 -30 -72 -30s-52.167 10.167 -72.5 30.5s-30.5 44.833 -30.5 73.5s10 53.167 30 73.5
s44.333 30.5 73 30.5c28 0 52 -10.167 72 -30.5s30 -44.833 30 -73.5z" />
    <glyph glyph-name="perthousand" unicode="&#x2030;" 
d="M472 1035c0 -65.333 -23.165 -123.168 -69.498 -173.501s-95.166 -75.5 -146.499 -75.5c-50.667 0 -99.334 25.167 -146.001 75.5s-70 108.166 -70 173.499c0 64.667 23.167 122.334 69.5 173.001s95.166 76 146.499 76s100.166 -25.167 146.499 -75.5
s69.5 -108.166 69.5 -173.499zM351.002 1035c0 29.333 -13.332 59.999 -39.999 91.999c-20 24 -38.667 36 -56 36c-16 0 -35.667 -14 -59 -42s-35 -56.667 -35 -86s11.667 -58.166 35 -86.499s43.666 -42.5 60.999 -42.5c15.333 0 34.833 14 58.5 42s35.5 57 35.5 87z
M1015 772.997l-758.998 -245c-18.667 -6 -32.334 -9 -41.001 -9c-16 0 -29.833 6.33301 -41.5 19s-17.5 28.667 -17.5 48c0 14 4 26 12 36s24.333 19 49 27l760 243c18 6 31.667 9 41 9c15.333 0 28.833 -6.33301 40.5 -19s17.5 -28 17.5 -46
c0 -14 -4.66699 -26.667 -14 -38c-6.66699 -8.66699 -22.334 -17 -47.001 -25zM658.005 254.997c0 -65.333 -23.167 -123.168 -69.5 -173.501s-95.166 -75.5 -146.499 -75.5c-50.667 0 -99.334 25.167 -146.001 75.5s-70 108.166 -70 173.499
c0 64.667 23.333 122.334 70 173.001s95.334 76 146.001 76c51.333 0 100.166 -25.167 146.499 -75.5s69.5 -108.166 69.5 -173.499zM538.005 254.995c0 29.333 -13.666 59.998 -40.999 91.998c-20 24.667 -38.667 37 -56 37c-16 0 -35.667 -14.167 -59 -42.5
s-35 -57.166 -35 -86.499s11.667 -58.166 35 -86.499s43.666 -42.5 60.999 -42.5c16 0 35.833 14 59.5 42s35.5 57 35.5 87zM1195.01 254.993c0 -65.333 -23.167 -123.168 -69.5 -173.501s-95.166 -75.5 -146.499 -75.5s-100.166 25.167 -146.499 75.5
s-69.5 108.166 -69.5 173.499c0 64.667 23.167 122.334 69.5 173.001s95.166 76 146.499 76s100.166 -25.167 146.499 -75.5s69.5 -108.166 69.5 -173.499zM1074.01 254.991c0 29.333 -13.332 59.998 -39.999 91.998c-20 24.667 -38.667 37 -56 37
c-16 0 -35.667 -14.167 -59 -42.5s-35 -57.166 -35 -86.499s11.667 -58.166 35 -86.499s43.666 -42.5 60.999 -42.5c15.333 0 34.833 14 58.5 42s35.5 57 35.5 87z" />
    <glyph glyph-name="guilsinglleft" unicode="&#x2039;" 
d="M541 429l285.999 -273c20 -18.667 30 -37.334 30 -56.001c0 -16 -6 -30 -18 -42s-26.667 -18 -44 -18c-15.333 0 -29.666 6.33301 -42.999 19c-4 3.33301 -7.33301 6.33301 -10 9l-470 361l477 403c22 18.667 40 28 54 28c17.333 0 31.833 -6 43.5 -18
s17.5 -26.667 17.5 -44c0 -15.333 -10 -33.666 -30 -54.999z" />
    <glyph glyph-name="guilsinglright" unicode="&#x203a;" 
d="M701 429l-293 314c-20 21.333 -30 40 -30 56c0 16.667 6 31 18 43s26.667 18 44 18c14 0 31.667 -9.33301 53 -28l477 -403l-469 -361l-10 -9c-14.667 -12.667 -29.667 -19 -45 -19c-16.667 0 -31 6 -43 18s-18 26.667 -18 44s10 35.333 30 54z" />
    <glyph glyph-name="afii61352" unicode="&#x2116;" 
d="M814 1007v-802.001c0 -56.667 -2 -95.834 -6 -117.501s-17 -41.667 -39 -60s-48 -27.5 -78 -27.5c-35.333 0 -62 9.66699 -80 29s-39.667 61.666 -65 126.999l-209 543v-494c56.667 0 96 -8.5 118 -25.5s33 -42.5 33 -76.5c0 -37.333 -11.667 -63.833 -35 -79.5
s-68.666 -23.5 -135.999 -23.5h-117c-66.667 0 -111.834 7.66699 -135.501 23s-35.5 42 -35.5 80c0 57.333 34.333 91.333 103 102v802c-68.667 10.667 -103 45.667 -103 105c0 27.333 10.167 50.833 30.5 70.5s51.833 29.5 94.5 29.5h97c40.667 0 69 -6.66699 85 -20
s35.667 -49.666 59 -108.999l214 -555v479c-100 0 -150 34.333 -150 103c0 36.667 11.667 62.834 35 78.501s68.666 23.5 135.999 23.5h119c66.667 0 111.834 -7.66699 135.501 -23s35.5 -41.666 35.5 -78.999c0 -58.667 -35.333 -93 -106 -103zM896 648.999v225
c0 47.333 14.5 85.833 43.5 115.5s68.5 44.5 118.5 44.5c49.333 0 88.5 -14.333 117.5 -43s43.5 -67.667 43.5 -117v-225c0 -111.333 -53 -167 -159 -167c-109.333 0 -164 55.667 -164 167zM1080 858.999c0 24 -8.33301 36 -25 36c-13.333 0 -20 -12 -20 -36v-205
c0 -22.667 8.33301 -34 25 -34c13.333 0 20 11.333 20 34v205zM1031 407.999l43 0.000976562c65.333 0 104.5 -10.833 117.5 -32.5s19.5 -41.834 19.5 -60.501c0 -61.333 -44 -92 -132 -92h-53c-90.667 0 -136 30.667 -136 92c0 18 6.5 38 19.5 60s53.5 33 121.5 33z" />
    <glyph glyph-name="trademark" unicode="&#x2122;" 
d="M687 1095l-0.00195312 -365.998h41c27.333 0 46 -5 56 -15c13.333 -12.667 20 -28.334 20 -47.001s-6.66699 -34.334 -20 -47.001c-10 -9.33301 -28.667 -14 -56 -14h-150c-26.667 0 -46 5.5 -58 16.5s-18 25.833 -18 44.5s5.83301 33.667 17.5 45s29.5 17 53.5 17v481
c-20 2 -35.167 8.5 -45.5 19.5s-15.5 25.167 -15.5 42.5c0 18.667 6.66699 34.334 20 47.001c10.667 9.33301 29.334 14 56.001 14h125l155 -371l153 371h126c26.667 0 45.334 -4.66699 56.001 -14c13.333 -12.667 20 -28.334 20 -47.001
c0 -17.333 -5.16699 -31.5 -15.5 -42.5s-25.5 -17.5 -45.5 -19.5v-481c24 0 41.833 -5.66699 53.5 -17s17.5 -26.333 17.5 -45s-6.66699 -34.334 -20 -47.001c-10.667 -9.33301 -29.334 -14 -56.001 -14h-150c-27.333 0 -46.833 5.5 -58.5 16.5s-17.5 25.833 -17.5 44.5
s6.66699 34.334 20 47.001c10.667 10 29.334 15 56.001 15h41v366l-130 -317h-99zM265.998 1210l0.00390625 -480.999h77c26.667 0 46 -5.66699 58 -17s18 -26.333 18 -45s-6.66699 -34.334 -20 -47.001c-10 -9.33301 -28.667 -14 -56 -14h-267
c-28.667 0 -48.5 4.66699 -59.5 14s-16.5 24 -16.5 44c0 21.333 5.66699 37.5 17 48.5s31 16.5 59 16.5h76v481h-123v-117c0 -30 -5.33301 -51.167 -16 -63.5s-24.334 -18.5 -41.001 -18.5s-30.334 6.16699 -41.001 18.5s-16 33.5 -16 63.5v240h590v-240
c0 -30 -5.33301 -51.167 -16 -63.5s-24.334 -18.5 -41.001 -18.5s-30.334 6.16699 -41.001 18.5s-16 33.5 -16 63.5v117h-125z" />
    <glyph glyph-name="glyph1" horiz-adv-x="0" 
 />
    <glyph glyph-name="glyph2" 
 />
  </font>
</defs>
</svg>
