<?xml version="1.0" standalone="no"?>
<!DOCTYPE svg PUBLIC "-//W3C//DTD SVG 1.1//EN" "http://www.w3.org/Graphics/SVG/1.1/DTD/svg11.dtd" >
<svg>
<metadata>
Created by FontForge 20090914 at Sun Jul 24 13:12:41 2022
 By www-data
Typeface &#194;&#169; The Monotype Corporation plc. Data &#194;&#169; The Monotype Corporation plc/Type Solutions Inc. 1990-1992. All Rights Reserved
</metadata>
<defs>
<font id="CourierCyrPS-Inclined" horiz-adv-x="1229" >
  <font-face 
    font-family="Courier New Cyr"
    font-weight="400"
    font-style="italic"
    font-stretch="normal"
    units-per-em="2048"
    panose-1="2 7 4 9 2 2 5 9 4 4"
    ascent="1638"
    descent="-410"
    x-height="866"
    cap-height="1170"
    bbox="-138 -561 1454 1630"
    underline-thickness="84"
    underline-position="-435"
    slope="-12"
    unicode-range="U+0020-U+F000"
  />
<missing-glyph 
d="M103 0v1280h1024v-1280h-1024zM135 32h960v1216h-960v-1216z" />
    <glyph glyph-name=".notdef" unicode="&#xf000;" 
d="M103 0v1280h1024v-1280h-1024zM135 32h960v1216h-960v-1216z" />
    <glyph glyph-name="space" unicode=" " 
 />
    <glyph glyph-name="exclam" unicode="!" 
d="M944 1170l-181.999 -677.999c-6 -22 -13.667 -37.167 -23 -45.5s-20 -12.5 -32 -12.5c-9.33301 0 -17 3.16699 -23 9.5s-9 14.5 -9 24.5c0 4.66699 0.666992 12.667 2 24l107 678c6.66699 42 19.167 71.667 37.5 89s40.833 26 67.5 26
c19.333 0 35.166 -5.83301 47.499 -17.5s18.5 -25.5 18.5 -41.5c0 -10.667 -3.66699 -29.334 -11 -56.001zM633.001 178.001h40c24.667 0 44.834 -7.83301 60.501 -23.5s23.5 -35.167 23.5 -58.5c0 -33.333 -13 -62.666 -39 -87.999s-56 -38 -90 -38h-39
c-24.667 0 -44.834 7.66699 -60.501 23s-23.5 35 -23.5 59c0 33.333 13 62.666 39 87.999s55.667 38 89 38z" />
    <glyph glyph-name="quotedbl" unicode="&#x22;" 
d="M537 1255l266 0.00195312l-182 -525c-10 -28.667 -21.5 -48.334 -34.5 -59.001s-27.833 -16 -44.5 -16c-14 0 -25.333 4.5 -34 13.5s-13 23.167 -13 42.5c0 5.33301 0.333008 11.666 1 18.999zM966 1255l266 0.00195312l-182 -525
c-10 -28.667 -21.5 -48.334 -34.5 -59.001s-27.833 -16 -44.5 -16c-14 0 -25.333 4.5 -34 13.5s-13 23.167 -13 42.5c0 5.33301 0.333008 11.666 1 18.999z" />
    <glyph glyph-name="numbersign" unicode="#" 
d="M958 740l-74 -263.998h160c19.333 0 31.666 -2.33301 36.999 -7c8 -6.66699 12 -15.334 12 -26.001c0 -14 -5.5 -26 -16.5 -36s-27.5 -15 -49.5 -15h-167l-132 -468c-5.33301 -20 -13 -34 -23 -42s-20.333 -12 -31 -12l-16 4c-12 8 -18 17 -18 27
c0 6.66699 1.66699 16.334 5 29.001l131 462h-189l-133 -468c-5.33301 -20 -12.833 -34 -22.5 -42s-19.834 -12 -30.501 -12l-17 4c-12 8 -18 17 -18 27c0 6.66699 2 16.334 6 29.001l130 462h-175c-18.667 0 -31 2.33301 -37 7c-7.33301 7.33301 -11 16.333 -11 27
c0 13.333 5.5 25 16.5 35s27.5 15 49.5 15h181l74 264h-156c-18.667 0 -31.5 3 -38.5 9s-10.5 14.333 -10.5 25c0 13.333 5.66699 25 17 35s28 15 50 15h162l132 468c6 19.333 13.833 33.166 23.5 41.499s19.834 12.5 30.501 12.5l17 -4c12 -8 18 -17.667 18 -29
c0 -6 -2 -15 -6 -27l-130 -462h189l132 468c5.33301 19.333 12.833 33.166 22.5 41.499s19.834 12.5 30.501 12.5l17 -4c12 -8 18 -17.667 18 -29c0 -6 -1.66699 -15 -5 -27l-131 -462h179c18.667 0 30.667 -2.33301 36 -7c8 -6.66699 12 -15.334 12 -26.001
c0 -14 -5.5 -26 -16.5 -36s-27.5 -15 -49.5 -15h-185zM874 740.002h-189l-75 -264h189z" />
    <glyph glyph-name="dollar" unicode="$" 
d="M825 1198l22.9971 105.992c4 20.667 10.833 35.334 20.5 44.001s20.834 13 33.501 13c10 0 18.167 -3.16699 24.5 -9.5s9.5 -13.5 9.5 -21.5c0 -6 -1.33301 -14.667 -4 -26l-22 -106c44.667 -4 80.5 -11.333 107.5 -22s57.5 -29 91.5 -55
c4.66699 16.667 11.834 29 21.501 37s20.5 12 32.5 12c9.33301 0 17.166 -3 23.499 -9s9.5 -13.333 9.5 -22c0 -6 -1.33301 -14.333 -4 -25l-26 -125c-4.66699 -20 -11.834 -34.333 -21.501 -43s-20.834 -13 -33.501 -13c-8.66699 0 -16.334 2.83301 -23.001 8.5
s-10 11.167 -10 16.5l2 39c0 22.667 -17.333 46.334 -52 71.001c-46 33.333 -104.333 50 -175 50c-85.333 0 -158.166 -26.833 -218.499 -80.5s-90.5 -110.167 -90.5 -169.5c0 -43.333 16 -75.333 48 -96c32 -21.333 94 -41.166 186 -59.499s153.667 -33.833 185 -46.5
c42 -18 74.5 -42 97.5 -72s34.5 -67.667 34.5 -113c0 -89.333 -36.667 -169.666 -110 -240.999s-175.333 -113.666 -306 -126.999l-53 -247c-4 -20.667 -10.833 -35.334 -20.5 -44.001s-20.834 -13 -33.501 -13c-9.33301 0 -17.333 3.16699 -24 9.5s-10 13.5 -10 21.5
c0 6 1.33301 14.667 4 26l53 247c-101.333 6.66699 -180.333 40 -237 100c-7.33301 -34 -14.666 -54.667 -21.999 -62c-11.333 -10.667 -24 -16 -38 -16c-9.33301 0 -17.166 3 -23.499 9s-9.5 13.333 -9.5 22c0 5.33301 1 13.666 3 24.999l35 164
c4.66699 20.667 11.834 35.334 21.501 44.001s20.834 13 33.501 13c8.66699 0 16.334 -3 23.001 -9s10 -10.667 10 -14l-4 -60c0 -6.66699 8.66699 -20 26 -40c25.333 -31.333 55.333 -53.666 90 -66.999c45.333 -18 96 -27 152 -27c106 0 191.5 27.333 256.5 82
s97.5 116 97.5 184c0 30 -8.33301 56 -25 78s-43.667 40 -81 54c-22 8.66699 -73 21 -153 37c-110.667 22.667 -187 49.334 -229 80.001s-63 77.334 -63 140.001c0 80 34.333 154.833 103 224.5s156.667 110.834 264 123.501z" />
    <glyph glyph-name="percent" unicode="%" 
d="M704 756c-58.667 0 -107.333 19.3311 -146 57.998s-58 88 -58 148c0 80 32.333 152.167 97 216.5s138.667 96.5 222 96.5c59.333 0 108.333 -19.167 147 -57.5s58 -86.166 58 -143.499c0 -83.333 -32.5 -157.166 -97.5 -221.499s-139.167 -96.5 -222.5 -96.5z
M718.001 816.998c63.333 0 119.832 24.668 169.499 74.001s74.5 105.666 74.5 168.999c0 44.667 -14.667 81.667 -44 111s-66.666 44 -111.999 44c-64 0 -120.833 -24.667 -170.5 -74s-74.5 -105 -74.5 -167c0 -46 14.833 -83.667 44.5 -113s67.167 -44 112.5 -44z
M1228 724.999l-832 -253c-9.33301 -2.66699 -16.666 -4 -21.999 -4s-10.333 2.33301 -15 7s-7 10 -7 16c0 8 2.83301 15.333 8.5 22s15.5 12.334 29.5 17.001l832 253c9.33301 2.66699 16.666 4 21.999 4c6 0 11.167 -2.33301 15.5 -7s6.5 -10 6.5 -16
c0 -8 -2.83301 -15.333 -8.5 -22s-15.5 -12.334 -29.5 -17.001zM797 -24.001c-59.333 0 -108.333 19.333 -147 58s-58 87.667 -58 147c0 80.667 32.5 153.167 97.5 217.5s138.833 96.5 221.5 96.5c59.333 0 108.333 -19.167 147 -57.5s58 -86.5 58 -144.5
c0 -82.667 -32.333 -156.167 -97 -220.5s-138.667 -96.5 -222 -96.5zM810 35.999c64 0 120.834 24.667 170.501 74s74.5 106 74.5 170c0 44 -14.833 80.667 -44.5 110s-67.167 44 -112.5 44c-64 0 -120.667 -24.667 -170 -74s-74 -105 -74 -167
c0 -45.333 14.667 -82.833 44 -112.5s66.666 -44.5 111.999 -44.5z" />
    <glyph glyph-name="ampersand" unicode="&#x26;" 
d="M855 0l-42.999 99c-78.667 -88 -165.334 -132 -260.001 -132c-68 0 -125 23.833 -171 71.5s-69 109.167 -69 184.5c0 82 27.5 158.167 82.5 228.5s128.167 118.5 219.5 144.5c-27.333 66.667 -43.833 110.5 -49.5 131.5s-8.5 40.5 -8.5 58.5
c0 71.333 32 137.833 96 199.5s136.333 92.5 217 92.5c22.667 0 44.667 -3.33301 66 -10s41.666 -17 60.999 -31c32 14.667 51.333 22 58 22c10 0 18.167 -3.16699 24.5 -9.5s9.5 -14.166 9.5 -23.499c0 -10 -3 -19.333 -9 -28s-18 -17 -36 -25l-73 -35
c-16.667 18.667 -34.834 32.5 -54.501 41.5s-40.834 13.5 -63.501 13.5c-53.333 0 -101.833 -21.167 -145.5 -63.5s-65.5 -86.833 -65.5 -133.5c0 -38 16.667 -96.667 50 -176l154 -369c56.667 77.333 107.334 166 152.001 266h82c14.667 0 24.5 -1.16699 29.5 -3.5
s9.33301 -6.33301 13 -12s5.5 -11.834 5.5 -18.501c0 -8.66699 -3.16699 -17.667 -9.5 -27s-14.166 -15.666 -23.499 -18.999c-6.66699 -3.33301 -24 -5 -52 -5c-54 -110.667 -109 -198 -165 -262l39 -86h71c18.667 0 31.334 -2.83301 38.001 -8.5s10 -13.834 10 -24.501
c0 -14 -5.5 -26 -16.5 -36s-27.5 -15 -49.5 -15h-114zM635.001 522c-70 -15.333 -127 -49.832 -171 -103.499s-66 -113.834 -66 -180.501c0 -54 16.5 -98.667 49.5 -134s73.167 -53 120.5 -53c74 0 144.667 42 212 126z" />
    <glyph glyph-name="quotesingle" unicode="'" 
d="M748 1255l266 0.00195312l-182 -525c-10 -28.667 -21.5 -48.334 -34.5 -59.001s-27.833 -16 -44.5 -16c-14 0 -25.333 4.5 -34 13.5s-13 23.167 -13 42.5c0 5.33301 0.333008 11.666 1 18.999z" />
    <glyph glyph-name="parenleft" unicode="(" 
d="M1167 1255c10 0 18.334 -3.16797 25.001 -9.50098s10 -14.166 10 -23.499s-4 -19.333 -12 -30c-136 -178 -233 -341.667 -291 -491s-87 -298.666 -87 -447.999c0 -134 26.667 -281.333 80 -442c3.33301 -10.667 5 -17.667 5 -21c0 -12.667 -5.16699 -24 -15.5 -34
s-22.5 -15 -36.5 -15c-8.66699 0 -16 3 -22 9c-20.667 21.333 -48.167 91 -82.5 209s-51.5 221 -51.5 309c0 119.333 16.667 230.333 50 333s75.166 195.667 125.499 279s109.166 168 176.499 254c50.667 63.333 84 100.666 100 111.999c8.66699 6 17.334 9 26.001 9z" />
    <glyph glyph-name="parenright" unicode=")" 
d="M288 -260c-10 0 -18.3311 3.16699 -24.998 9.5s-10 14.166 -10 23.499c0 10 4 20.333 12 31c135.333 176.667 232.166 339.667 290.499 489s87.5 299 87.5 449c0 134 -27 281.667 -81 443c-3.33301 10 -5 16.667 -5 20c0 12.667 5.33301 24.167 16 34.5s23 15.5 37 15.5
c8.66699 0 16 -3 22 -9c20.667 -21.333 48.167 -91.166 82.5 -209.499s51.5 -221.166 51.5 -308.499c0 -119.333 -16.5 -229.833 -49.5 -331.5s-74.167 -193.834 -123.5 -276.501s-108.666 -168 -177.999 -256c-50.667 -64.667 -84.334 -102.667 -101.001 -114
c-8.66699 -6.66699 -17.334 -10 -26.001 -10z" />
    <glyph glyph-name="asterisk" unicode="*" 
d="M762 911l61 287c4.66699 20.667 11.834 35.334 21.501 44.001s20.834 13 33.501 13c9.33301 0 17.166 -3.16699 23.499 -9.5s9.5 -13.5 9.5 -21.5c0 -6 -1 -14.667 -3 -26l-62 -287l293 89c13.333 4 23.666 6 30.999 6c8 0 15.167 -3.16699 21.5 -9.5
s9.5 -13.833 9.5 -22.5c0 -12 -3.83301 -22.667 -11.5 -32s-21.5 -17 -41.5 -23l-292 -89l119 -232c6 -12.667 9 -22.667 9 -30c0 -12 -5.33301 -23.167 -16 -33.5s-22.667 -15.5 -36 -15.5c-14 0 -26 9.66699 -36 29l-120 233l-218 -233c-18 -19.333 -34.333 -29 -49 -29
c-10 0 -18.167 3.33301 -24.5 10s-9.5 15 -9.5 25c0 11.333 8.33301 26 25 44l219 233l-255 89c-14 4.66699 -23.167 9.5 -27.5 14.5s-6.5 11.833 -6.5 20.5c0 13.333 5.16699 25.166 15.5 35.499s21.833 15.5 34.5 15.5c6.66699 0 15.667 -2 27 -6z" />
    <glyph glyph-name="plus" unicode="+" 
d="M772 543l-89.9971 -420.004c-4 -20.667 -10.833 -35.167 -20.5 -43.5s-20.834 -12.5 -33.501 -12.5c-9.33301 0 -17.166 3 -23.499 9s-9.5 13 -9.5 21c0 6 1 14.667 3 26l89 420h-372c-18.667 0 -31.334 2.83301 -38.001 8.5s-10 13.834 -10 24.501c0 14 5.5 26 16.5 36
s27.5 15 49.5 15h372l89 418c4 20 11 34.333 21 43s21.333 13 34 13c9.33301 0 17.166 -3 23.499 -9s9.5 -13.333 9.5 -22c0 -5.33301 -1 -13.666 -3 -24.999l-89 -418h372c14.667 0 24.667 -1.16699 30 -3.5s9.66602 -6.16602 12.999 -11.499s5 -11.666 5 -18.999
c0 -13.333 -5.5 -25 -16.5 -35s-27.5 -15 -49.5 -15h-372z" />
    <glyph glyph-name="comma" unicode="," 
d="M632 302h274l-415 -552c-25.333 -33.333 -50.333 -50 -75 -50c-14.667 0 -26.5 4.33301 -35.5 13s-13.5 19.667 -13.5 33c0 11.333 3 23.333 9 36z" />
    <glyph glyph-name="hyphen" unicode="-" 
d="M1179 639l-26 -120h-857l26 120h857z" />
    <glyph glyph-name="hyphen" unicode="&#xad;" 
d="M1179 639l-26 -120h-857l26 120h857z" />
    <glyph glyph-name="period" unicode="." 
d="M648 241l36 0.000976562c32 0 58.333 -10 79 -30s31 -45.667 31 -77c0 -42.667 -17 -80.667 -51 -114s-73 -50 -117 -50h-36c-32.667 0 -59.167 10.167 -79.5 30.5s-30.5 46.166 -30.5 77.499c0 42.667 17 80.5 51 113.5s73 49.5 117 49.5z" />
    <glyph glyph-name="slash" unicode="/" 
d="M1272 1316l-983.002 -1448c-10.667 -15.333 -19.667 -25.333 -27 -30s-15.666 -7 -24.999 -7c-10 0 -18.167 3.16699 -24.5 9.5s-9.5 14.5 -9.5 24.5c0 9.33301 5.66699 22.333 17 39l983 1448c10.667 15.333 19.834 25.333 27.501 30s16.167 7 25.5 7
c10 0 18.167 -3.16699 24.5 -9.5s9.5 -14.5 9.5 -24.5c0 -8.66699 -6 -21.667 -18 -39z" />
    <glyph glyph-name="zero" unicode="0" 
d="M1156 731l-45.001 -207.999c-38 -181.333 -111 -324.333 -219 -429c-85.333 -82.667 -178.333 -124 -279 -124c-66.667 0 -122.5 16 -167.5 48s-75.5 73.667 -91.5 125c-22.667 73.333 -34 142.666 -34 207.999c0 50.667 6.66699 108 20 172l45 208
c38 182 111.333 325.333 220 430c84.667 82.667 177.334 124 278.001 124c67.333 0 123.333 -16 168 -48s75 -74.333 91 -127c22.667 -73.333 34 -142.333 34 -207c0 -50 -6.66699 -107.333 -20 -172zM1069 720.001c10.667 51.333 16 98.668 16 142.001
c0 91.333 -9.33301 160.333 -28 207s-43.334 80.167 -74.001 100.5s-68.667 30.5 -114 30.5c-94.667 0 -178.667 -48.333 -252 -145s-123.333 -208.334 -150 -335.001l-40 -185c-10.667 -52 -16 -99.333 -16 -142c0 -90.667 9.33301 -159.5 28 -206.5
s43.334 -80.833 74.001 -101.5s68.667 -31 114 -31c94.667 0 178.667 48.5 252 145.5s123.333 208.833 150 335.5z" />
    <glyph glyph-name="one" unicode="1" 
d="M926 1272l-252 -1188h288c18.667 0 31.334 -2.83301 38.001 -8.5s10 -13.834 10 -24.501c0 -14 -5.5 -26 -16.5 -36s-27.5 -15 -49.5 -15h-660c-18.667 0 -31.334 3 -38.001 9s-10 14.333 -10 25c0 13.333 5.5 25 16.5 35s27.5 15 49.5 15h288l227 1072l-292 -86
c-14 -4 -24.333 -6 -31 -6c-8 0 -15 3.16699 -21 9.5s-9 14.166 -9 23.499c0 11.333 3.66699 21.666 11 30.999s21.333 17 42 23z" />
    <glyph glyph-name="two" unicode="2" 
d="M271 84l644.999 0.000976562c8.66699 40.667 16.667 64.667 24 72c10.667 11.333 23.334 17 38.001 17c9.33301 0 17.166 -3 23.499 -9s9.5 -13 9.5 -21c0 -6.66699 -1 -15.334 -3 -26.001l-25 -117h-812l27 124l616 483c92 76 155.833 133 191.5 171
s60.334 72.5 74.001 103.5s20.5 62.167 20.5 93.5c0 62.667 -22.833 115.834 -68.5 159.501s-103.5 65.5 -173.5 65.5c-73.333 0 -143 -20.667 -209 -62s-114.333 -93.666 -145 -156.999c-13.333 -27.333 -30.666 -41 -51.999 -41c-9.33301 0 -17.166 3 -23.499 9
s-9.5 13.333 -9.5 22c0 22.667 17.333 57 52 103c51.333 67.333 113.166 119.333 185.499 156s146.166 55 221.499 55c87.333 0 160.5 -28.833 219.5 -86.5s88.5 -127.167 88.5 -208.5c0 -38.667 -8.16699 -78.334 -24.5 -119.001s-43.666 -82 -81.999 -124
s-102.833 -100.333 -193.5 -175c-248.667 -204.667 -453.334 -365.334 -614.001 -482.001z" />
    <glyph glyph-name="three" unicode="3" 
d="M933 683c58.667 -29.333 102.334 -67.6699 131.001 -115.003s43 -97.666 43 -150.999c0 -64 -22.667 -132.5 -68 -205.5s-109.833 -131.5 -193.5 -175.5s-168.834 -66 -255.501 -66c-102 0 -199 29 -291 87c-49.333 31.333 -74 57.333 -74 78c0 12.667 5 24 15 34
s21 15 33 15c11.333 0 22.666 -5 33.999 -15c86.667 -76.667 187.334 -115 302.001 -115c110.667 0 207 37.167 289 111.5s123 152.166 123 233.499c0 43.333 -12.333 84.333 -37 123s-62.667 69.834 -114 93.501s-104.333 35.5 -159 35.5c-20.667 0 -33.667 2.33301 -39 7
c-8 6.66699 -12 15.334 -12 26.001c0 14 5.33301 26 16 36s25 15 43 15l75 -1c84.667 0 157.667 28.667 219 86c61.333 56.667 92 118.334 92 185.001c0 54.667 -20.5 101 -61.5 139s-97.833 57 -170.5 57c-57.333 0 -112.666 -9.83301 -165.999 -29.5
s-98.333 -47.167 -135 -82.5c-20 -19.333 -36.667 -29 -50 -29c-10.667 0 -19 3 -25 9s-9 13.667 -9 23c0 11.333 6.33301 23.666 19 36.999c42 44.667 98.667 81.834 170 111.501s143.333 44.5 216 44.5c92 0 164.667 -25 218 -75s80 -111.667 80 -185
c0 -67.333 -22.333 -132.333 -67 -195s-108.334 -111.667 -191.001 -147z" />
    <glyph glyph-name="four" unicode="4" 
d="M846 351l-557 0.00195312l21 97l638 807h175l-174 -820h70c18.667 0 31 -2.33301 37 -7c7.33301 -6.66699 11 -15.334 11 -26.001c0 -14 -5.5 -26 -16.5 -36s-27.5 -15 -49.5 -15h-70l-57 -267h71c18.667 0 31.334 -2.83301 38.001 -8.5s10 -13.834 10 -24.501
c0 -14 -5.5 -26 -16.5 -36s-27.5 -15 -49.5 -15h-313c-18.667 0 -31.334 3 -38.001 9s-10 14.333 -10 25c0 13.333 5.5 25 16.5 35s27.5 15 49.5 15h158zM864 435.002l156 735h-44l-581 -735h469z" />
    <glyph glyph-name="five" unicode="5" 
d="M632 1170l-88.0039 -411.003c54 20.667 104.833 36.167 152.5 46.5s92.167 15.5 133.5 15.5c88.667 0 160 -27.167 214 -81.5s81 -126.5 81 -216.5s-24.667 -180.5 -74 -271.5s-115.166 -160.667 -197.499 -209s-167.166 -72.5 -254.499 -72.5c-67.333 0 -131 13 -191 39
s-111.667 63 -155 111c-14.667 16.667 -22 30 -22 40c0 14 5.16699 26.333 15.5 37s21.833 16 34.5 16c11.333 0 22.333 -6 33 -18c80 -94 179.667 -141 299 -141c72.667 0 141.667 19.667 207 59s118 96.5 158 171.5s60 148.167 60 219.5c0 70.667 -21 127.167 -63 169.5
s-99.333 63.5 -172 63.5c-87.333 0 -179.666 -23 -276.999 -69c-23.333 -10.667 -39.666 -16 -48.999 -16s-17 2.83301 -23 8.5s-9 13.167 -9 22.5c0 4.66699 0.666992 9.66699 2 15l118 557h586c15.333 0 25.5 -1.16699 30.5 -3.5s9.33301 -6.16602 13 -11.499
s5.5 -11.666 5.5 -18.999c0 -13.333 -5.66699 -25.166 -17 -35.499s-28 -15.5 -50 -15.5h-501z" />
    <glyph glyph-name="six" unicode="6" 
d="M477 531c70.667 79.333 137.501 136.666 200.501 171.999s128.167 53 195.5 53c74 0 136.833 -27.5 188.5 -82.5s77.5 -127.5 77.5 -217.5c0 -63.333 -14.833 -127 -44.5 -191s-65.5 -117 -107.5 -159s-88 -75.167 -138 -99.5s-104.333 -36.5 -163 -36.5
c-89.333 0 -162.333 32.333 -219 97s-85 167 -85 307c0 186 38.833 349.5 116.5 490.5s190.5 251.833 338.5 332.5c108 58.667 214.667 88 320 88c50 0 92 -10 126 -30c14.667 -9.33301 22 -20.666 22 -33.999c0 -14 -4.83301 -26 -14.5 -36s-20.834 -15 -33.501 -15
c-9.33301 0 -19.333 3.33301 -30 10c-24 13.333 -56.333 20 -97 20c-74.667 0 -153 -20.667 -235 -62s-155.5 -97 -220.5 -167s-113.833 -145.333 -146.5 -226c-22 -54 -39 -125.333 -51 -214zM467.001 392c0 -122 21.498 -208.833 64.498 -260.5s101.833 -77.5 176.5 -77.5
c86.667 0 165.667 39 237 117s107 168.333 107 271c0 68.667 -19.667 124.167 -59 166.5s-86.666 63.5 -141.999 63.5c-65.333 0 -133 -26.667 -203 -80c-49.333 -37.333 -109.666 -104 -180.999 -200z" />
    <glyph glyph-name="seven" unicode="7" 
d="M1138 1132l8 38h-601l-16 -74c-4.66699 -20 -11.834 -34.333 -21.501 -43s-20.834 -13 -33.501 -13c-9.33301 0 -17.166 3 -23.499 9s-9.5 13.333 -9.5 22c0 6 1 14.333 3 25l34 159h771l-29 -134l-567 -1080c-9.33301 -17.333 -18.166 -28.833 -26.499 -34.5
s-17.5 -8.5 -27.5 -8.5s-18 3 -24 9s-9 14 -9 24c0 7.33301 4.33301 19 13 35z" />
    <glyph glyph-name="eight" unicode="8" 
d="M924 651c51.333 -28 89.833 -62.332 115.5 -102.999s38.5 -88 38.5 -142c0 -65.333 -20.667 -133 -62 -203s-100.833 -126.333 -178.5 -169s-155.5 -64 -233.5 -64c-89.333 0 -163.333 28.333 -222 85s-88 126 -88 208c0 76.667 24.667 150.167 74 220.5
s120.333 126.166 213 167.499c-47.333 31.333 -81.833 64.5 -103.5 99.5s-32.5 77.5 -32.5 127.5c0 49.333 12.667 98.833 38 148.5s57.833 93 97.5 130s86 67.667 139 92s110.167 36.5 171.5 36.5c85.333 0 155.5 -26.833 210.5 -80.5s82.5 -120.167 82.5 -199.5
c0 -67.333 -20.667 -131.5 -62 -192.5s-107.333 -114.833 -198 -161.5zM761 693.001c90.667 0 169.166 30.333 235.499 91s99.5 128.667 99.5 204c0 60.667 -21 111.167 -63 151.5s-96 60.5 -162 60.5c-90.667 0 -170.167 -32.333 -238.5 -97s-102.5 -136 -102.5 -214
c0 -52.667 21.333 -98.5 64 -137.5s98.334 -58.5 167.001 -58.5zM624.999 54.001c104 0 191.001 36.3311 261.001 108.998s105 147.334 105 224.001c0 62.667 -22.333 115.5 -67 158.5s-104.334 64.5 -179.001 64.5c-98.667 0 -184.167 -34.167 -256.5 -102.5
s-108.5 -143.166 -108.5 -224.499c0 -65.333 22.5 -119.833 67.5 -163.5s104.167 -65.5 177.5 -65.5z" />
    <glyph glyph-name="nine" unicode="9" 
d="M1111 710c-60.667 -76.667 -124.835 -134.333 -192.502 -173s-134.167 -58 -199.5 -58c-75.333 0 -138.666 27.333 -189.999 82s-77 129 -77 223c0 112.667 43 224.334 129 335.001s192.667 166 320 166c88.667 0 161.667 -33.167 219 -99.5s86 -168.833 86 -307.5
c0 -124 -17.667 -244.333 -53 -361c-22.667 -74 -52.334 -139.167 -89.001 -195.5s-88.334 -112.666 -155.001 -168.999s-141 -100.833 -223 -133.5s-163 -49 -243 -49c-54 0 -97.667 10 -131 30c-16.667 10 -25 21.333 -25 34c0 13.333 5 25 15 35s21.667 15 35 15
c8.66699 0 19.667 -3.66699 33 -11c23.333 -12.667 52 -19 86 -19c66 0 131.333 12.167 196 36.5s124.334 57.166 179.001 98.499s100.334 85.166 137.001 131.499s65.334 96.833 86.001 151.5s39.667 134 57 238zM1124 850.001
c-6.66699 134.667 -30.833 226.666 -72.5 275.999s-97.5 74 -167.5 74c-84 0 -162.667 -40 -236 -120s-110 -173.333 -110 -280c0 -71.333 19.833 -128.666 59.5 -171.999s88.167 -65 145.5 -65c61.333 0 125.333 25.333 192 76c49.333 38 112.333 108.333 189 211z" />
    <glyph glyph-name="colon" unicode=":" 
d="M780 866h36c32.667 0 59.167 -10.167 79.5 -30.5s30.5 -46.166 30.5 -77.499c0 -34.667 -11.167 -66.167 -33.5 -94.5s-50.833 -48.833 -85.5 -61.5c-14 -5.33301 -42.333 -8 -85 -8c-32 0 -58.167 10.167 -78.5 30.5s-30.5 46.166 -30.5 77.499
c0 42.667 16.833 80.667 50.5 114s72.5 50 116.5 50zM648 241l36 0.000976562c32 0 58.333 -10 79 -30s31 -45.667 31 -77c0 -42.667 -17 -80.667 -51 -114s-73 -50 -117 -50h-36c-32.667 0 -59.167 10.167 -79.5 30.5s-30.5 46.166 -30.5 77.499c0 42.667 17 80.5 51 113.5
s73 49.5 117 49.5z" />
    <glyph glyph-name="semicolon" unicode=";" 
d="M883 866h36c32.667 0 59.167 -10.167 79.5 -30.5s30.5 -46.166 30.5 -77.499c0 -42.667 -17 -80.667 -51 -114s-73 -50 -117 -50h-36c-32 0 -58.333 10.167 -79 30.5s-31 46.166 -31 77.499c0 42.667 17 80.667 51 114s73 50 117 50zM617 302h263.998l-382 -464
c-19.333 -23.333 -33.666 -37.833 -42.999 -43.5s-19.666 -8.5 -30.999 -8.5c-14 0 -25.167 3.83301 -33.5 11.5s-12.5 17.167 -12.5 28.5s4.33301 25.333 13 42z" />
    <glyph glyph-name="less" unicode="&#x3c;" 
d="M222 583l1016 506c16.667 8 28.334 12 35.001 12c10 0 18.167 -3.16699 24.5 -9.5s9.5 -14.166 9.5 -23.499c0 -20.667 -14.667 -38.334 -44 -53.001l-870 -432l685 -432c17.333 -10.667 26 -22 26 -34c0 -13.333 -5.33301 -25.333 -16 -36s-22.667 -16 -36 -16
c-7.33301 0 -17.333 4 -30 12z" />
    <glyph glyph-name="equal" unicode="=" 
d="M1220 695l-915.999 0.000976562c-18.667 0 -31.334 3 -38.001 9s-10 14.333 -10 25c0 13.333 5.66699 25.166 17 35.499s27.666 15.5 48.999 15.5h916c18.667 0 31.334 -3 38.001 -9s10 -14.333 10 -25c0 -14 -5.5 -26 -16.5 -36s-27.5 -15 -49.5 -15zM1156 394.001
l-915.999 -0.000976562c-18.667 0 -31.334 2.83301 -38.001 8.5s-10 13.834 -10 24.501c0 14 5.5 26 16.5 36s27.5 15 49.5 15h916c18.667 0 30.667 -2.66699 36 -8c8 -6.66699 12 -15 12 -25c0 -14 -5.5 -26 -16.5 -36s-27.5 -15 -49.5 -15z" />
    <glyph glyph-name="greater" unicode="&#x3e;" 
d="M1255 583l-1016 -506c-16 -8 -27.667 -12 -35 -12c-10 0 -18.167 3.16699 -24.5 9.5s-9.5 14.5 -9.5 24.5c0 20 14.667 37.333 44 52l870 432l-685 432c-17.333 10.667 -26 22.334 -26 35.001c0 13.333 5.33301 25.166 16 35.499s22.667 15.5 36 15.5
c7.33301 0 17.333 -4 30 -12z" />
    <glyph glyph-name="question" unicode="?" 
d="M770 514l-18 -85.001c-4.66699 -20.667 -11.834 -35.167 -21.501 -43.5s-20.834 -12.5 -33.501 -12.5c-9.33301 0 -17.166 3 -23.499 9s-9.5 13 -9.5 21c0 6 1 14.667 3 26l30 141c176.667 60.667 293.334 119.667 350.001 177c38.667 39.333 58 89.333 58 150
c0 64.667 -21 117.334 -63 158.001s-100.667 61 -176 61c-44.667 0 -87.5 -5 -128.5 -15s-92.833 -28.667 -155.5 -56l-18 -86c-4.66699 -20.667 -11.834 -35.167 -21.501 -43.5s-20.834 -12.5 -33.501 -12.5c-9.33301 0 -17.166 3 -23.499 9s-9.5 13 -9.5 21
c0 6 1 14.667 3 26l30 141c114.667 46 188.334 73 221.001 81c54 12.667 107.333 19 160 19c97.333 0 172 -25.167 224 -75.5s78 -117.5 78 -201.5c0 -82.667 -25.333 -154 -76 -214s-166 -125 -346 -195zM612 177.999h85c24.667 0 44.834 -7.83301 60.501 -23.5
s23.5 -35.167 23.5 -58.5c0 -33.333 -13 -62.666 -39 -87.999s-55.667 -38 -89 -38h-85c-24.667 0 -44.834 7.66699 -60.501 23s-23.5 35 -23.5 59c0 33.333 13 62.666 39 87.999s55.667 38 89 38z" />
    <glyph glyph-name="at" unicode="@" 
d="M923 302l2.99902 10.998c-34 -5.33301 -63 -8 -87 -8c-71.333 0 -127.5 19.667 -168.5 59s-61.5 88.666 -61.5 147.999c0 76 30.667 147.333 92 214c85.333 92.667 199.333 139 342 139l21 97c4 18.667 6 38 6 58c0 59.333 -17.167 106.166 -51.5 140.499
s-80.833 51.5 -139.5 51.5c-52 0 -102.167 -13.667 -150.5 -41s-99.833 -78.5 -154.5 -153.5s-93.334 -166.167 -116.001 -273.5l-70 -331c-10 -46.667 -15 -93.667 -15 -141c0 -109.333 25 -193.666 75 -252.999c37.333 -43.333 95 -65 173 -65c100 0 180 23.667 240 71
c13.333 10.667 25.333 16 36 16c10 0 17.667 -2.66699 23 -8c6.66699 -7.33301 10 -15.666 10 -24.999c0 -11.333 -5 -22.333 -15 -33c-26 -28 -68.5 -52.5 -127.5 -73.5s-124.833 -31.5 -197.5 -31.5c-91.333 0 -161 28 -209 84c-64 74 -96 173.333 -96 298
c0 50 6 103.667 18 161l72 336c36 172 111 311.333 225 418c91.333 86.667 190 130 296 130c78 0 140.833 -23.833 188.5 -71.5s71.5 -112.167 71.5 -193.5c0 -21.333 -2.66699 -44.666 -8 -69.999l-122 -576c11.333 -1.33301 19.5 -4.66602 24.5 -9.99902
s7.5 -12.333 7.5 -21c0 -9.33301 -2.66699 -18.5 -8 -27.5s-12.166 -15.5 -20.499 -19.5s-21.166 -6 -38.499 -6h-68zM1025 781.998c-98 -0.666992 -177.5 -27.168 -238.5 -79.501s-91.5 -109.166 -91.5 -170.499c0 -42.667 14.333 -77.167 43 -103.5s72 -39.5 130 -39.5
c22.667 0 48 3 76 9z" />
    <glyph glyph-name="A" unicode="A" 
d="M1017 391l-551.998 0.00195312l-179 -307h161c19.333 0 32.333 -2.83301 39 -8.5s10 -13.834 10 -24.501c0 -14 -5.66699 -26 -17 -36s-28 -15 -50 -15h-313c-18.667 0 -31.334 3 -38.001 9s-10 14.333 -10 25c0 13.333 5.5 25 16.5 35s27.5 15 49.5 15h64l585 1002h-248
c-18.667 0 -31.334 2.83301 -38.001 8.5s-10 14.167 -10 25.5c0 13.333 5.5 25 16.5 35s27.5 15 49.5 15h422l180 -1086h65c18.667 0 31.334 -2.83301 38.001 -8.5s10 -13.834 10 -24.501c0 -14 -5.5 -26 -16.5 -36s-27.5 -15 -49.5 -15h-314c-18.667 0 -31.334 3 -38.001 9
s-10 14.333 -10 25c0 13.333 5.5 25 16.5 35s27.5 15 49.5 15h161zM1003 475.002l-102 611h-31l-356 -611h489z" />
    <glyph glyph-name="B" unicode="B" 
d="M274 84l213.002 1002h-113c-18.667 0 -31.334 2.83301 -38.001 8.5s-10 14.167 -10 25.5c0 13.333 5.5 25 16.5 35s27.5 15 49.5 15h528c92 0 164.167 -23.833 216.5 -71.5s78.5 -105.5 78.5 -173.5c0 -64 -18.667 -121.5 -56 -172.5s-93.333 -95.833 -168 -134.5
c69.333 -26.667 119.333 -60.5 150 -101.5s46 -86.833 46 -137.5c0 -49.333 -13.5 -99.5 -40.5 -150.5s-59.5 -92.333 -97.5 -124s-86.333 -58.834 -145 -81.501c-40 -15.333 -84.333 -23 -133 -23h-628c-18.667 0 -31.334 3 -38.001 9s-10 14.333 -10 25
c0 13.333 5.5 25 16.5 35s27.5 15 49.5 15h113zM478.002 650.001l297 -0.000976562c65.333 0 126 11.833 182 35.5s98.667 57.167 128 100.5s44 83.333 44 120c0 48.667 -19.833 90.834 -59.5 126.501s-95.167 53.5 -166.5 53.5h-332zM358.002 84h425
c56 0 108.833 13.833 158.5 41.5s88.5 63.5 116.5 107.5s42 85.667 42 125c0 66 -28.5 117 -85.5 153s-141.167 54 -252.5 54h-302z" />
    <glyph glyph-name="C" unicode="C" 
d="M1219 1055l12.998 58.999c4 20 10.833 34.333 20.5 43s20.834 13 33.501 13c10 0 18.167 -3 24.5 -9s9.5 -13.333 9.5 -22c0 -5.33301 -1.33301 -13.666 -4 -24.999l-50 -233c-4 -20.667 -10.833 -35.334 -20.5 -44.001s-20.834 -13 -33.501 -13
c-9.33301 0 -17.166 3.16699 -23.499 9.5s-9.5 13.5 -9.5 21.5c0 4.66699 0.666992 11.167 2 19.5s2 16.833 2 25.5c0 50.667 -24.667 95.667 -74 135c-64 52 -141.667 78 -233 78c-63.333 0 -127 -14 -191 -42c-48.667 -21.333 -88.667 -47.333 -120 -78
c-58 -56 -106 -115.333 -144 -178c-26 -43.333 -45.333 -94 -58 -152l-31 -147c-6.66699 -31.333 -10 -62.333 -10 -93c0 -106 34.667 -194.5 104 -265.5s155.666 -106.5 258.999 -106.5c70 0 136.833 15.333 200.5 46s129.834 78.334 198.501 143.001
c14.667 14 28.667 21 42 21c10.667 0 18.834 -2.83301 24.501 -8.5s8.5 -12.834 8.5 -21.501c0 -14 -7.33301 -28.667 -22 -44c-64.667 -68.667 -139.167 -122.5 -223.5 -161.5s-165.833 -58.5 -244.5 -58.5c-66.667 0 -130 13.667 -190 41c-44.667 20 -80 43.667 -106 71
c-40 42 -73.167 91.833 -99.5 149.5s-39.5 113.834 -39.5 168.501c0 36 3.66699 71.667 11 107l36 171c18 82.667 58.667 167.5 122 254.5s138.5 153.333 225.5 199s174.5 68.5 262.5 68.5c69.333 0 131.333 -11.833 186 -35.5s102 -59.167 142 -106.5z" />
    <glyph glyph-name="D" unicode="D" 
d="M290 84l213.001 1002h-70c-18.667 0 -31.334 2.83301 -38.001 8.5s-10 14.167 -10 25.5c0 13.333 5.5 25 16.5 35s27.5 15 49.5 15h451c108.667 0 198.834 -38 270.501 -114s107.5 -176.667 107.5 -302c0 -33.333 -4.33301 -70.333 -13 -111l-25 -116
c-18 -86.667 -55.167 -171 -111.5 -253s-138.5 -153.667 -246.5 -215c-70 -39.333 -147 -59 -231 -59h-451c-18.667 0 -31.334 3 -38.001 9s-10 14.333 -10 25c0 13.333 5.5 25 16.5 35s27.5 15 49.5 15h70zM375.001 84l305.001 0.000976562
c45.333 0 87.166 7.33301 125.499 22s88.5 45.667 150.5 93c44 33.333 85 79.166 123 137.499s63 115.833 75 172.5l32 152c6 26 9 50 9 72c0 107.333 -29.333 193 -88 257s-130 96 -214 96h-305z" />
    <glyph glyph-name="E" unicode="E" 
d="M461 565l-101.999 -481.001h646l52 248c4.66699 20 11.834 34.333 21.501 43s20.834 13 33.501 13c9.33301 0 17.166 -3 23.499 -9s9.5 -13 9.5 -21c0 -6 -1 -14.667 -3 -26l-71 -332h-927c-18.667 0 -31.334 3 -38.001 9s-10 14.333 -10 25c0 13.333 5.5 25 16.5 35
s27.5 15 49.5 15h113l213 1002h-113c-18.667 0 -31.334 2.83301 -38.001 8.5s-10 14.167 -10 25.5c0 13.333 5.5 25 16.5 35s27.5 15 49.5 15h883l-62 -289c-4 -20.667 -10.833 -35.167 -20.5 -43.5s-20.834 -12.5 -33.501 -12.5c-10 0 -18.167 3 -24.5 9s-9.5 13 -9.5 21
c0 6 1.33301 14.667 4 26l43 205h-601l-93 -437h301l20 95c4.66699 20 11.834 34.333 21.501 43s20.834 13 33.501 13c9.33301 0 17.333 -3 24 -9s10 -13.333 10 -22c0 -5.33301 -1.33301 -13.666 -4 -24.999l-58 -274c-4.66699 -20 -11.834 -34.333 -21.501 -43
s-20.834 -13 -33.501 -13c-9.33301 0 -17.166 3 -23.499 9s-9.5 13.333 -9.5 22c0 6 1 14.333 3 25l20 95h-301z" />
    <glyph glyph-name="F" unicode="F" 
d="M551 565l-102.001 -481h288c18.667 0 31.334 -2.83301 38.001 -8.5s10 -13.834 10 -24.501c0 -14 -5.5 -26 -16.5 -36s-27.5 -15 -49.5 -15h-485c-18.667 0 -31.334 3 -38.001 9s-10 14.333 -10 25c0 13.333 5.5 25 16.5 35s27.5 15 49.5 15h113l213 1002h-113
c-18.667 0 -31.334 2.83301 -38.001 8.5s-10 14.167 -10 25.5c0 13.333 5.5 25 16.5 35s27.5 15 49.5 15h924l-61 -289c-4 -20.667 -11 -35.167 -21 -43.5s-21.333 -12.5 -34 -12.5c-9.33301 0 -17.166 3 -23.499 9s-9.5 13 -9.5 21c0 6 1.33301 14.667 4 26l43 205h-643
l-93 -437h301l20 95c4.66699 20 11.834 34.333 21.501 43s20.834 13 33.501 13c9.33301 0 17.333 -3 24 -9s10 -13.333 10 -22c0 -5.33301 -1.33301 -13.666 -4 -24.999l-58 -274c-4.66699 -20 -11.834 -34.333 -21.501 -43s-20.834 -13 -33.501 -13
c-9.33301 0 -17.166 3 -23.499 9s-9.5 13.333 -9.5 22c0 6 1 14.333 3 25l20 95h-301z" />
    <glyph glyph-name="G" unicode="G" 
d="M1163 434l-76.001 -360.002c-142.667 -71.333 -279 -107 -409 -107c-154.667 0 -275 44.333 -361 133c-64 66.667 -96 158.667 -96 276c0 40 5 83.333 15 130l33 154c19.333 92 61.333 181.833 126 269.5s141.667 154.167 231 199.5s180 68 272 68
c67.333 0 127.666 -9.16699 180.999 -27.5s99.333 -46.166 138 -83.499c8 37.333 15.667 59.666 23 66.999c11.333 11.333 24 17 38 17c9.33301 0 17.166 -3 23.499 -9s9.5 -13.333 9.5 -22c0 -5.33301 -1 -13.666 -3 -24.999l-41 -190
c-4 -20.667 -10.833 -35.167 -20.5 -43.5s-20.834 -12.5 -33.501 -12.5c-9.33301 0 -17 2.83301 -23 8.5s-9 12.5 -9 20.5c0 4.66699 0.666992 12.334 2 23.001c1.33301 6 2 12.333 2 19c0 41.333 -20.333 77 -61 107c-60.667 44.667 -139.667 67 -237 67
c-79.333 0 -154.166 -17.5 -224.499 -52.5s-144.166 -102.5 -221.499 -202.5c-42.667 -55.333 -72 -121.666 -88 -198.999l-33 -153c-8.66699 -42 -13 -83.333 -13 -124c0 -98 34 -177.667 102 -239s166 -92 294 -92c50.667 0 98.834 5.16699 144.501 15.5
s100.834 29.166 165.501 56.499l66 311h-289c-18.667 0 -31.334 3 -38.001 9s-10 14.333 -10 25c0 13.333 5.5 25.166 16.5 35.499s27.5 15.5 49.5 15.5l403 -1c18.667 0 31 -2.33301 37 -7c7.33301 -6.66699 11 -15.334 11 -26.001
c0 -9.33301 -3.16699 -18.666 -9.5 -27.999s-14.166 -15.666 -23.499 -18.999c-7.33301 -2.66699 -28.333 -4 -63 -4z" />
    <glyph glyph-name="H" unicode="H" 
d="M1018 566l-557.994 0.00292969l-102 -482h95c30.667 0 49.334 -2.83301 56.001 -8.5s10 -13.834 10 -24.501c0 -14 -5.5 -26 -16.5 -36s-27.5 -15 -49.5 -15h-292c-18.667 0 -31 3.83301 -37 11.5s-9 16.834 -9 27.501c0 13.333 5.16699 24.166 15.5 32.499
s26.5 12.5 48.5 12.5h95l213 1002h-94c-28 0 -46.833 2.66699 -56.5 8s-13.834 15 -12.501 29c0 12.667 4.5 23.167 13.5 31.5s27.833 13.833 56.5 16.5h281c24 -3.33301 39.167 -6.16602 45.5 -8.49902s10.5 -10.166 12.5 -23.499c0 -14 -4 -25.667 -12 -35
s-26.333 -15.333 -55 -18h-95l-93 -436h558l92 436h-95c-30.667 0 -49.334 2.83301 -56.001 8.5s-10 14.167 -10 25.5c0 13.333 5.5 25 16.5 35s27.5 15 49.5 15h250c36 -0.666992 59.667 -3.33398 71 -8.00098s17.666 -13 18.999 -25
c1.33301 -14 -2.83398 -25.333 -12.501 -34s-27.167 -14.334 -52.5 -17.001h-95l-213 -1002h94c27.333 1.33301 45.166 -2.5 53.499 -11.5s12.5 -18.833 12.5 -29.5c0 -14 -6.83301 -24.667 -20.5 -32s-34.834 -11 -63.501 -11h-271c-18.667 0 -31.834 2.5 -39.501 7.5
s-11.5 12.833 -11.5 23.5c0 13.333 3 24.666 9 33.999s25 15.666 57 18.999h95z" />
    <glyph glyph-name="I" unicode="I" 
d="M888 1086l-213 -1002h288c18.667 0 31.334 -2.83301 38.001 -8.5s10 -13.834 10 -24.501c0 -14 -5.5 -26 -16.5 -36s-27.5 -15 -49.5 -15h-660c-18.667 0 -31.334 3 -38.001 9s-10 14.333 -10 25c0 13.333 5.5 25 16.5 35s27.5 15 49.5 15h288l213 1002h-288
c-18.667 0 -31.334 2.83301 -38.001 8.5s-10 14.167 -10 25.5c0 13.333 5.5 25 16.5 35s27.5 15 49.5 15h659c19.333 0 32.333 -2.83301 39 -8.5s10 -13.834 10 -24.501c0 -14 -5.66699 -26 -17 -36s-27.666 -15 -48.999 -15h-288z" />
    <glyph glyph-name="J" unicode="J" 
d="M1174 1086l-157.999 -741.999c-21.333 -102.667 -78.166 -191.167 -170.499 -265.5s-190.5 -111.5 -294.5 -111.5c-64.667 0 -124.167 14.5 -178.5 43.5s-110.5 76.5 -168.5 142.5l66 310c4 20 10.833 34.333 20.5 43s21.167 13 34.5 13c9.33301 0 17.166 -3 23.499 -9
s9.5 -13.333 9.5 -22c0 -6 -1.33301 -14.333 -4 -25l-57 -270c82 -94.667 172.667 -142 272 -142c52.667 0 102.667 11.333 150 34s91.666 58 132.999 106s68 99 80 153l158 742h-330c-18.667 0 -31.334 2.83301 -38.001 8.5s-10 14.167 -10 25.5c0 13.333 5.5 25 16.5 35
s27.5 15 49.5 15h614c18.667 0 31.334 -2.83301 38.001 -8.5s10 -13.834 10 -24.501c0 -14 -5.5 -26 -16.5 -36s-27.5 -15 -49.5 -15h-200z" />
    <glyph glyph-name="K" unicode="K" 
d="M482 458l-79.998 -373.997h155c18.667 0 31.334 -2.83301 38.001 -8.5s10 -13.834 10 -24.501c0 -14 -5.5 -26 -16.5 -36s-27.5 -15 -49.5 -15h-352c-18.667 0 -31.334 3 -38.001 9s-10 14.333 -10 25c0 13.333 5.5 25 16.5 35s27.5 15 49.5 15h113l213 1002h-113
c-18.667 0 -31.334 2.83301 -38.001 8.5s-10 14.167 -10 25.5c0 13.333 5.5 25 16.5 35s27.5 15 49.5 15h352c18.667 0 31.334 -2.83301 38.001 -8.5s10 -13.834 10 -24.501c0 -14 -5.5 -26 -16.5 -36s-27.5 -15 -49.5 -15h-155l-110 -517l689 517h-92
c-18.667 0 -31.334 2.83301 -38.001 8.5s-10 14.167 -10 25.5c0 13.333 5.5 25 16.5 35s27.5 15 49.5 15h247c19.333 0 32.333 -2.83301 39 -8.5s10 -13.834 10 -24.501c0 -10 -3.33301 -19.667 -10 -29s-14.667 -15.666 -24 -18.999c-7.33301 -2 -29.666 -3 -66.999 -3
l-549 -413c63.333 -28 113.166 -63 149.499 -105s67.166 -102 92.499 -180c14.667 -44.667 37 -146 67 -304h105c18.667 0 31.334 -2.83301 38.001 -8.5s10 -13.834 10 -24.501c0 -14 -5.5 -26 -16.5 -36s-27.5 -15 -49.5 -15h-162
c-36.667 240.667 -77.834 395.5 -123.501 464.5s-110.5 117.5 -194.5 145.5z" />
    <glyph glyph-name="L" unicode="L" 
d="M700 1086l-212.999 -1002h558l71 334c4 20 11 34.333 21 43s21 13 33 13c10 0 18.167 -3 24.5 -9s9.5 -13.333 9.5 -22c0 -5.33301 -1 -13.666 -3 -24.999l-89 -418h-928c-18.667 0 -31.334 3 -38.001 9s-10 14.333 -10 25c0 13.333 5.5 25 16.5 35s27.5 15 49.5 15h200
l213 1002h-200c-18.667 0 -31.334 2.83301 -38.001 8.5s-10 14.167 -10 25.5c0 13.333 5.5 25 16.5 35s27.5 15 49.5 15h485c18.667 0 31.334 -2.83301 38.001 -8.5s10 -13.834 10 -24.501c0 -14 -5.5 -26 -16.5 -36s-27.5 -15 -49.5 -15h-200z" />
    <glyph glyph-name="M" unicode="M" 
d="M745 351l-97 0.00292969l-166 735h-16l-213 -1002h155c18.667 0 31.334 -2.83301 38.001 -8.5s10 -13.834 10 -24.501c0 -14 -5.5 -26 -16.5 -36s-27.5 -15 -49.5 -15h-310c-18.667 0 -31.334 3 -38.001 9s-10 14.333 -10 25c0 13.333 5.5 25 16.5 35s27.5 15 49.5 15h70
l213 1002h-52c-18.667 0 -31.334 2.83301 -38.001 8.5s-10 14.167 -10 25.5c0 13.333 5.5 25 16.5 35s27.5 15 49.5 15h206l164 -724l466 724h207c18.667 0 31.334 -2.83301 38.001 -8.5s10 -13.834 10 -24.501c0 -14 -5.5 -26 -16.5 -36s-27.5 -15 -49.5 -15h-52
l-213 -1002h70c19.333 0 32.333 -2.83301 39 -8.5s10 -13.834 10 -24.501c0 -14 -5.66699 -26 -17 -36s-28 -15 -50 -15h-309c-18.667 0 -31.5 3 -38.5 9s-10.5 14.333 -10.5 25c0 13.333 5.66699 25 17 35s28 15 50 15h154l213 1002h-17z" />
    <glyph glyph-name="N" unicode="N" 
d="M1027 0l-107.999 0.00195312l-396 1047l-205 -963h155c18.667 0 31.334 -2.83301 38.001 -8.5s10 -13.834 10 -24.501c0 -14 -5.5 -26 -16.5 -36s-27.5 -15 -49.5 -15h-310c-18.667 0 -31.334 3 -38.001 9s-10 14.333 -10 25c0 13.333 5.5 25 16.5 35s27.5 15 49.5 15h70
l213 1002h-112c-18.667 0 -31.334 2.83301 -38.001 8.5s-10 14.167 -10 25.5c0 13.333 5.5 25 16.5 35s27.5 15 49.5 15h219l397 -1049l205 965h-155c-18.667 0 -31.334 2.83301 -38.001 8.5s-10 14.167 -10 25.5c0 13.333 5.5 25 16.5 35s27.5 15 49.5 15h310
c18.667 0 31.334 -2.83301 38.001 -8.5s10 -13.834 10 -24.501c0 -14 -5.5 -26 -16.5 -36s-27.5 -15 -49.5 -15h-70z" />
    <glyph glyph-name="O" unicode="O" 
d="M609 -33c-114 0 -208.833 41.167 -284.5 123.5s-113.5 193.5 -113.5 333.5c0 110 22 215 66 315s99.333 184.333 166 253s136 120 208 154s145 51 219 51c134.667 0 234.667 -47.167 300 -141.5s98 -197.5 98 -309.5c0 -134 -33.167 -263.333 -99.5 -388
s-151 -221 -254 -289s-204.833 -102 -305.5 -102zM624 51c83.333 0 169.498 29.833 258.498 89.5s161 144 216 253s82.5 219.167 82.5 330.5c0 118.667 -31.667 213.167 -95 283.5s-139.666 105.5 -228.999 105.5c-62.667 0 -124.5 -14.833 -185.5 -44.5
s-119.667 -74.167 -176 -133.5s-103.5 -132.5 -141.5 -219.5s-57 -176.167 -57 -267.5c0 -123.333 31.833 -220.333 95.5 -291s140.834 -106 231.501 -106z" />
    <glyph glyph-name="P" unicode="P" 
d="M564 480l-83.999 -396h288c18.667 0 31.334 -2.83301 38.001 -8.5s10 -13.834 10 -24.501c0 -14 -5.5 -26 -16.5 -36s-27.5 -15 -49.5 -15h-485c-18.667 0 -31.334 3 -38.001 9s-10 14.333 -10 25c0 13.333 5.5 25 16.5 35s27.5 15 49.5 15h113l213 1002h-113
c-18.667 0 -31.334 2.83301 -38.001 8.5s-10 14.167 -10 25.5c0 13.333 5.5 25 16.5 35s27.5 15 49.5 15h488c101.333 0 181 -26.833 239 -80.5s87 -119.167 87 -196.5c0 -45.333 -10.667 -92 -32 -140s-52.666 -91.333 -93.999 -130c-24 -22.667 -58 -45.667 -102 -69
s-82.333 -40.666 -115 -51.999c-44.667 -14.667 -97.334 -22 -158.001 -22h-263zM582.001 564h268c64.667 0 134.334 17.667 209.001 53c55.333 27.333 99.5 65.333 132.5 114s49.5 95 49.5 139c0 60 -22.333 111 -67 153s-105.334 63 -182.001 63h-299z" />
    <glyph glyph-name="Q" unicode="Q" 
d="M618 -33l-129 -84.001c57.333 11.333 104.333 17 141 17c58 0 113.333 -10.667 166 -32c36.667 -15.333 66 -23 88 -23c38.667 0 85 15.667 139 47c21.333 12 36 18 44 18c10 0 18 -2.83301 24 -8.5s9 -13.5 9 -23.5c0 -12 -4 -22.667 -12 -32
c-12.667 -14.667 -44.167 -32.5 -94.5 -53.5s-94.5 -31.5 -132.5 -31.5c-28 0 -64.833 9 -110.5 27s-91.5 27 -137.5 27c-32 0 -72.333 -4 -121 -12c-70.667 -11.333 -127.667 -22.666 -171 -33.999c-14 -3.33301 -24 -5 -30 -5c-10 0 -18 3 -24 9s-9 14 -9 24
c0 18 10.667 33.667 32 47l216 135c-85.333 21.333 -155.833 71.5 -211.5 150.5s-83.5 177.167 -83.5 294.5c0 110 22 215 66 315s99.333 184.333 166 253s136 120 208 154s145 51 219 51c114 0 208.833 -41 284.5 -123s113.5 -193.333 113.5 -334
c0 -131.333 -32.833 -258.833 -98.5 -382.5s-149.5 -219.167 -251.5 -286.5s-202 -102 -300 -104zM624 50.999c83.333 0 169.498 29.833 258.498 89.5s161 144 216 253s82.5 219.167 82.5 330.5c0 118.667 -31.667 213.167 -95 283.5s-139.666 105.5 -228.999 105.5
c-62.667 0 -124.5 -14.833 -185.5 -44.5s-119.667 -74.167 -176 -133.5s-103.5 -132.5 -141.5 -219.5s-57 -176.167 -57 -267.5c0 -123.333 31.833 -220.333 95.5 -291s140.834 -106 231.501 -106z" />
    <glyph glyph-name="R" unicode="R" 
d="M453 522l-93 -437.999h155c18.667 0 31.334 -2.83301 38.001 -8.5s10 -13.834 10 -24.501c0 -14 -5.5 -26 -16.5 -36s-27.5 -15 -49.5 -15h-352c-18.667 0 -31.334 3 -38.001 9s-10 14.333 -10 25c0 13.333 5.5 25 16.5 35s27.5 15 49.5 15h113l213 1002h-113
c-18.667 0 -31.334 2.83301 -38.001 8.5s-10 14.167 -10 25.5c0 13.333 5.5 25 16.5 35s27.5 15 49.5 15h507c92 0 166.5 -26.5 223.5 -79.5s85.5 -116.167 85.5 -189.5c0 -69.333 -27.833 -136.166 -83.5 -200.499s-147.167 -116.5 -274.5 -156.5
c50.667 -40.667 91.667 -86.5 123 -137.5s77 -158.5 137 -322.5h65c18.667 0 31.334 -2.83301 38.001 -8.5s10 -13.834 10 -24.501c0 -14 -5.5 -26 -16.5 -36s-27.5 -15 -49.5 -15h-113c-62.667 185.333 -116.167 309.833 -160.5 373.5s-99.833 113.167 -166.5 148.5h-266z
M471 606.001h227.999c77.333 0 151.5 15.333 222.5 46s122.667 67.334 155 110.001s48.5 82.667 48.5 120c0 53.333 -22.667 100.666 -68 141.999s-103.666 62 -174.999 62h-309z" />
    <glyph glyph-name="S" unicode="S" 
d="M1146 1086c8 37.333 15.332 59.6611 21.999 66.9941c11.333 11.333 24.333 17 39 17c9.33301 0 17.166 -3 23.499 -9s9.5 -13.333 9.5 -22c0 -5.33301 -1.33301 -13.666 -4 -24.999l-45 -214c-4.66699 -20 -11.834 -34.333 -21.501 -43s-20.834 -13 -33.501 -13
c-9.33301 0 -17.166 3 -23.499 9s-9.5 13.333 -9.5 22c0 4.66699 0.833008 11.5 2.5 20.5s2.5 18.167 2.5 27.5c0 50 -22.667 94.167 -68 132.5s-107.666 57.5 -186.999 57.5c-105.333 0 -191.5 -29.167 -258.5 -87.5s-100.5 -123.166 -100.5 -194.499
c0 -52.667 20 -92.667 60 -120c40 -28 110.333 -50.667 211 -68s168.667 -33 204 -47c49.333 -20 86.666 -47.333 111.999 -82s38 -77.667 38 -129c0 -69.333 -20.5 -136.5 -61.5 -201.5s-103.167 -117.333 -186.5 -157s-169.666 -59.5 -258.999 -59.5
c-72.667 0 -135.667 11.5 -189 34.5s-97 57.167 -131 102.5l-10 -48c-4 -20 -11 -34.333 -21 -43s-21.333 -13 -34 -13c-9.33301 0 -17.166 3 -23.499 9s-9.5 13.333 -9.5 22c0 6 1 14.333 3 25l50 232c4 20.667 10.833 35.334 20.5 44.001s20.834 13 33.501 13
c10 0 18.167 -3 24.5 -9s9.5 -13 9.5 -21c0 -4.66699 -0.833008 -11.667 -2.5 -21s-2.5 -18.666 -2.5 -27.999c0 -57.333 26 -107.5 78 -150.5s126.333 -64.5 223 -64.5c72.667 0 141.667 15.5 207 46.5s114.166 71 146.499 120s48.5 97.833 48.5 146.5
c0 36.667 -9.66699 68.334 -29 95.001s-49 48 -89 64c-26 10.667 -83.667 24 -173 40c-119.333 20.667 -204.666 49.667 -255.999 87c-52 37.333 -78 92 -78 164c0 98 43.667 186.333 131 265s196.666 118 327.999 118c58.667 0 111.334 -9.16699 158.001 -27.5
s87 -46.166 121 -83.499z" />
    <glyph glyph-name="T" unicode="T" 
d="M887 1086l-213 -1002h218c18.667 0 31.334 -2.83301 38.001 -8.5s10 -13.834 10 -24.501c0 -14 -5.5 -26 -16.5 -36s-27.5 -15 -49.5 -15h-521c-18.667 0 -31.334 3 -38.001 9s-10 14.333 -10 25c0 13.333 5.5 25 16.5 35s27.5 15 49.5 15h218l213 1002h-344l-62 -291
c-4 -20.667 -10.833 -35.334 -20.5 -44.001s-20.834 -13 -33.501 -13c-10 0 -18.167 3.16699 -24.5 9.5s-9.5 13.5 -9.5 21.5c0 6 1.33301 14.667 4 26l80 375h941l-80 -375c-4 -20.667 -11 -35.334 -21 -44.001s-21.333 -13 -34 -13
c-9.33301 0 -17.166 3.16699 -23.499 9.5s-9.5 13.5 -9.5 21.5c0 6 1.33301 14.667 4 26l62 291h-344z" />
    <glyph glyph-name="U" unicode="U" 
d="M1252 1086l-148.999 -702.001c-25.333 -119.333 -86.166 -218.666 -182.499 -297.999s-201.5 -119 -315.5 -119c-94.667 0 -172.334 30.333 -233.001 91s-91 140 -91 238c0 26.667 3.33301 56 10 88l149 702h-70c-18.667 0 -31.334 2.83301 -38.001 8.5
s-10 13.834 -10 24.501c0 14 5.5 26 16.5 36s27.5 15 49.5 15h310c18.667 0 31.334 -2.83301 38.001 -8.5s10 -13.834 10 -24.501c0 -14 -5.66699 -26 -17 -36s-27.666 -15 -48.999 -15h-155l-149 -702c-5.33301 -24 -8 -48.333 -8 -73c0 -75.333 24.167 -137.5 72.5 -186.5
s108.166 -73.5 179.499 -73.5c56.667 0 110.5 12.333 161.5 37s99.667 63.834 146 117.501s76.5 113.167 90.5 178.5l150 702h-155c-18.667 0 -31.5 2.83301 -38.5 8.5s-10.5 14.167 -10.5 25.5c0 13.333 5.66699 25 17 35s28 15 50 15h309
c19.333 0 32.166 -2.83301 38.499 -8.5s9.5 -13.834 9.5 -24.501c0 -14 -5.5 -26 -16.5 -36s-27.5 -15 -49.5 -15h-70z" />
    <glyph glyph-name="V" unicode="V" 
d="M677 0h-117.003l-192 1086h-65c-14.667 0 -24.667 1.16699 -30 3.5s-9.66602 6.16602 -12.999 11.499s-5 11.666 -5 18.999c0 8.66699 2.83301 17.167 8.5 25.5s12.5 14.5 20.5 18.5s20.333 6 37 6h312c15.333 0 25.5 -1.16699 30.5 -3.5s9.33301 -6.16602 13 -11.499
s5.5 -11.333 5.5 -18c0 -9.33301 -2.83301 -18.166 -8.5 -26.499s-12.5 -14.5 -20.5 -18.5s-20.667 -6 -38 -6h-160l177 -1002h6l598 1002h-160c-15.333 0 -25.666 1.16699 -30.999 3.5s-9.66602 6.16602 -12.999 11.499s-5 11.666 -5 18.999
c0 8.66699 2.83301 17.167 8.5 25.5s12.5 14.5 20.5 18.5s20.667 6 38 6h312c14.667 0 24.667 -1.16699 30 -3.5s9.66602 -6.16602 12.999 -11.499s5 -11.333 5 -18c0 -9.33301 -2.66699 -18.166 -8 -26.499s-12.166 -14.5 -20.499 -18.5s-20.833 -6 -37.5 -6h-64z" />
    <glyph glyph-name="W" unicode="W" 
d="M983 0l-131.001 0.00195312l-62 831l-410 -831h-132l108 1086h-31c-18.667 0 -31.5 2.83301 -38.5 8.5s-10.5 14.167 -10.5 25.5c0 13.333 5.66699 25 17 35s28 15 50 15h312c18.667 0 31.334 -2.83301 38.001 -8.5s10 -13.834 10 -24.501c0 -14 -5.5 -26 -16.5 -36
s-27.5 -15 -49.5 -15h-197l-99 -990l401 815h128l60 -815l319 990h-197c-18.667 0 -31.334 2.83301 -38.001 8.5s-10 14.167 -10 25.5c0 13.333 5.5 25 16.5 35s27.5 15 49.5 15h311c18.667 0 31.334 -2.83301 38.001 -8.5s10 -13.834 10 -24.501
c0 -10 -3.33301 -19.5 -10 -28.5s-14.667 -15.167 -24 -18.5c-6.66699 -2.66699 -27.667 -4 -63 -4z" />
    <glyph glyph-name="X" unicode="X" 
d="M792 599l289.999 -514.994h31c19.333 0 32.333 -2.83301 39 -8.5s10 -13.834 10 -24.501c0 -14 -5.66699 -26 -17 -36s-28 -15 -50 -15h-269c-18.667 0 -31.334 3 -38.001 9s-10 14.333 -10 25c0 13.333 5.5 25 16.5 35s27.5 15 49.5 15h134l-252 446l-438 -446h134
c18.667 0 31.334 -2.83301 38.001 -8.5s10 -13.834 10 -24.501c0 -14 -5.5 -26 -16.5 -36s-27.5 -15 -49.5 -15h-268c-18.667 0 -31.334 3 -38.001 9s-10 14.333 -10 25c0 9.33301 3.33301 18.666 10 27.999s14.667 15.666 24 18.999c6.66699 2 27.667 3 63 3l504 515
l-273 487h-31c-18.667 0 -31.334 2.83301 -38.001 8.5s-10 14.167 -10 25.5c0 13.333 5.5 25 16.5 35s27.5 15 49.5 15h229c18.667 0 31.334 -2.83301 38.001 -8.5s10 -13.834 10 -24.501c0 -14 -5.5 -26 -16.5 -36s-27.5 -15 -49.5 -15h-95l236 -419l411 419h-95
c-18.667 0 -31.334 2.83301 -38.001 8.5s-10 14.167 -10 25.5c0 13.333 5.5 25 16.5 35s27.5 15 49.5 15h230c18.667 0 31.334 -2.83301 38.001 -8.5s10 -13.834 10 -24.501c0 -10 -3.16699 -19.5 -9.5 -28.5s-14.166 -15.167 -23.499 -18.5
c-7.33301 -2.66699 -28.666 -4 -63.999 -4z" />
    <glyph glyph-name="Y" unicode="Y" 
d="M770 528l-94.001 -443.997h218c18.667 0 31.334 -2.83301 38.001 -8.5s10 -13.834 10 -24.501c0 -14 -5.5 -26 -16.5 -36s-27.5 -15 -49.5 -15h-521c-18.667 0 -31.334 3 -38.001 9s-10 14.333 -10 25c0 13.333 5.5 25 16.5 35s27.5 15 49.5 15h218l95 444l-251 558h-50
c-18.667 0 -31.334 2.83301 -38.001 8.5s-10 14.167 -10 25.5c0 13.333 5.5 25 16.5 35s27.5 15 49.5 15h231c18.667 0 31.334 -2.83301 38.001 -8.5s10 -13.834 10 -24.501c0 -14 -5.5 -26 -16.5 -36s-27.5 -15 -49.5 -15h-83l213 -473l408 473h-82
c-19.333 0 -32.333 2.83301 -39 8.5s-10 14.167 -10 25.5c0 13.333 5.5 25 16.5 35s27.5 15 49.5 15h231c18.667 0 31.334 -2.83301 38.001 -8.5s10 -13.834 10 -24.501c0 -14 -5.5 -26 -16.5 -36s-27.5 -15 -49.5 -15h-50z" />
    <glyph glyph-name="Z" unicode="Z" 
d="M1022 0h-808.999l26 122l885 957l2 7h-559l-53 -247c-4.66699 -20.667 -11.834 -35.334 -21.501 -44.001s-20.834 -13 -33.501 -13c-9.33301 0 -17.166 3.16699 -23.499 9.5s-9.5 13.5 -9.5 21.5c0 6 1.33301 14.667 4 26l70 331h725l-25 -119l-887 -958l-1 -9h644
l62 293c4 20.667 11 35.334 21 44.001s21 13 33 13c10 0 18.167 -3.16699 24.5 -9.5s9.5 -13.5 9.5 -21.5c0 -6 -1.33301 -14.667 -4 -26z" />
    <glyph glyph-name="bracketleft" unicode="[" 
d="M906 1170l-286.001 -1345h203c19.333 0 32.333 -2.83301 39 -8.5s10 -14.167 10 -25.5c0 -13.333 -5.66699 -25 -17 -35s-27.666 -15 -48.999 -15h-288l322 1514h287c15.333 0 25.5 -1.16699 30.5 -3.5s9.33301 -6.33301 13 -12s5.5 -11.834 5.5 -18.501
c0 -13.333 -5.66699 -25.166 -17 -35.499s-28 -15.5 -50 -15.5h-203z" />
    <glyph glyph-name="backslash" unicode="\" 
d="M600 1346l366.999 -1448c3.33301 -10.667 5 -19 5 -25c0 -11.333 -5.33301 -22.166 -16 -32.499s-22.667 -15.5 -36 -15.5c-9.33301 0 -16.833 2.5 -22.5 7.5s-10.5 14.833 -14.5 29.5l-367 1449c-2.66699 10 -4 18 -4 24c0 11.333 5.33301 22.166 16 32.499
s22.334 15.5 35.001 15.5c10 0 17.667 -2.33301 23 -7s10 -14.667 14 -30z" />
    <glyph glyph-name="bracketright" unicode="]" 
d="M538 -175l286 1345h-203c-18.667 0 -31 2.66699 -37 8c-7.33301 6.66699 -11 15.334 -11 26.001c0 13.333 5.5 25.166 16.5 35.499s27.5 15.5 49.5 15.5h288l-322 -1514h-288c-18.667 0 -31 2.33301 -37 7c-7.33301 6.66699 -11 15.334 -11 26.001c0 14 5.5 26 16.5 36
s27.5 15 49.5 15h203z" />
    <glyph glyph-name="asciicircum" unicode="^" 
d="M886 1279l270 -462.999c8 -12.667 12 -22.334 12 -29.001c0 -12.667 -5.33301 -24.167 -16 -34.5s-23 -15.5 -37 -15.5c-13.333 0 -25.333 8.66699 -36 26l-221 384l-383 -384c-18 -18 -34 -27 -48 -27c-10 0 -18.167 3.16699 -24.5 9.5s-9.5 14.5 -9.5 24.5
c0 7.33301 1.5 13.833 4.5 19.5s10.5 14.5 22.5 26.5z" />
    <glyph glyph-name="underscore" unicode="_" 
d="M1081 -561l-1171 0.00292969c-14.667 0 -24.5 1.16699 -29.5 3.5s-9.33301 6.16602 -13 11.499s-5.5 11.666 -5.5 18.999c0 13.333 5.5 25 16.5 35s27.5 15 49.5 15h1171c18.667 0 31 -2.33301 37 -7c8 -6.66699 12 -15.334 12 -26.001c0 -14 -5.66699 -26 -17 -36
s-28 -15 -50 -15z" />
    <glyph glyph-name="grave" unicode="`" 
d="M663 1309l193 -204c12 -16.667 18 -27.334 18 -32.001c0 -13.333 -5.33301 -25.333 -16 -36s-23 -16 -37 -16c-10.667 0 -22 6.66699 -34 20l-193 204c-11.333 12.667 -17 23.334 -17 32.001c0 13.333 5.33301 25.333 16 36s23 16 37 16
c5.33301 0 10.333 -1.16699 15 -3.5s10.667 -7.83301 18 -16.5z" />
    <glyph glyph-name="a" unicode="a" 
d="M857 0l24.998 121.002c-143.333 -102.667 -284.666 -154 -423.999 -154c-89.333 0 -156.666 20 -201.999 60s-68 90 -68 150c0 91.333 40 169.666 120 234.999c99.333 82 229 123 389 123c76.667 0 165.667 -10.333 267 -31l29 136c2 10 3 20 3 30
c0 38.667 -15.333 69.667 -46 93c-41.333 32 -100.333 48 -177 48c-64.667 0 -164 -20 -298 -60c-15.333 -4.66699 -26.333 -7 -33 -7c-8.66699 0 -16 3 -22 9s-9 14 -9 24c0 12.667 4.83301 24 14.5 34s47.167 23.333 112.5 40c115.333 30 201 45 257 45
c95.333 0 167.166 -21 215.499 -63s72.5 -89.333 72.5 -142c0 -17.333 -2 -34.333 -6 -51l-118 -556h113c18.667 0 31.334 -2.83301 38.001 -8.5s10 -13.834 10 -24.501c0 -14 -5.5 -26 -16.5 -36s-27.5 -15 -49.5 -15h-197zM945.998 418.002
c-75.333 22 -161.334 32.999 -258.001 32.999c-134 0 -241.333 -31 -322 -93c-60.667 -46.667 -91 -100 -91 -160c0 -43.333 15.833 -78.666 47.5 -105.999s80.5 -41 146.5 -41c72.667 0 143.334 14.167 212.001 42.5s143.667 74.833 225 139.5z" />
    <glyph glyph-name="b" unicode="b" 
d="M565 1255l-117.999 -557.001c128 132 264 198 408 198c104.667 0 190.834 -33.667 258.501 -101s101.5 -152.666 101.5 -255.999c0 -91.333 -25.667 -182.666 -77 -273.999s-122.5 -163.833 -213.5 -217.5s-179.5 -80.5 -265.5 -80.5c-148 0 -256.667 66 -326 198
l-35 -165h-197c-18.667 0 -31.334 3 -38.001 9s-10 14.333 -10 25c0 13.333 5.5 25 16.5 35s27.5 15 49.5 15h113l230 1086h-112c-18.667 0 -31.334 3 -38.001 9s-10 14.333 -10 25c0 13.333 5.5 25.166 16.5 35.499s27.5 15.5 49.5 15.5h197zM675.001 50.999
c52.667 0 105.502 12.168 158.502 36.501s101.167 56.666 144.5 96.999s79.166 90 107.499 149s42.5 121.833 42.5 188.5c0 80.667 -28.167 149 -84.5 205s-126.166 84 -209.499 84c-67.333 0 -139.333 -22.167 -216 -66.5s-135.334 -103.333 -176.001 -177
s-61 -148.167 -61 -223.5c0 -82.667 28.167 -152.167 84.5 -208.5s126.166 -84.5 209.499 -84.5z" />
    <glyph glyph-name="c" unicode="c" 
d="M1131 781c8 38 15.667 60.6709 23 68.0039c11.333 11.333 24 17 38 17c9.33301 0 17.166 -3.16699 23.499 -9.5s9.5 -13.5 9.5 -21.5c0 -6 -1 -14.667 -3 -26l-41 -190c-4.66699 -20.667 -11.834 -35.334 -21.501 -44.001s-20.5 -13 -32.5 -13c-10 0 -18.167 3 -24.5 9
s-9.5 13 -9.5 21c0 4 0.666992 10.667 2 20c0.666992 5.33301 1 10.666 1 15.999c0 45.333 -21.333 84.333 -64 117c-56 44 -130.333 66 -223 66c-81.333 0 -158 -19.833 -230 -59.5s-130.333 -98.834 -175 -177.501s-67 -156.334 -67 -233.001
c0 -87.333 27.667 -157.5 83 -210.5s132 -79.5 230 -79.5c64 0 132.333 11.833 205 35.5s142.667 62.5 210 116.5c16.667 13.333 30.667 20 42 20c9.33301 0 17 -2.83301 23 -8.5s9 -13.167 9 -22.5c0 -13.333 -6.66699 -27 -20 -41
c-47.333 -49.333 -118.166 -92.333 -212.499 -129s-189.5 -55 -285.5 -55c-112.667 0 -202.667 32.5 -270 97.5s-101 149.5 -101 253.5c0 79.333 16.833 155 50.5 227s76.334 133 128.001 183s111 90.5 178 121.5s141.833 46.5 224.5 46.5c64.667 0 122 -9.5 172 -28.5
s92.667 -47.833 128 -86.5z" />
    <glyph glyph-name="d" unicode="d" 
d="M1292 1255l-249.001 -1171h113c18.667 0 31.334 -2.83301 38.001 -8.5s10 -13.834 10 -24.501c0 -14 -5.5 -26 -16.5 -36s-27.5 -15 -49.5 -15h-198l36 167c-125.333 -133.333 -264.333 -200 -417 -200c-101.333 0 -185.333 34 -252 102s-100 156.667 -100 266
c0 88.667 26.833 178.834 80.5 270.501s124.5 163 212.5 214s175 76.5 261 76.5c146.667 0 256 -66.667 328 -200l100 474h-112c-18.667 0 -31.5 3 -38.5 9s-10.5 14.333 -10.5 25c0 13.333 5.66699 25.166 17 35.499s28 15.5 50 15.5h197zM582.999 51.001
c60 0 116.5 12.499 169.5 37.499s101 58.333 144 100s77.833 91.834 104.5 150.501s40 118.667 40 180c0 84 -27.5 153.667 -82.5 209s-124.167 83 -207.5 83c-118 0 -223.833 -47 -317.5 -141s-140.5 -200.667 -140.5 -320c0 -88 27.5 -159.833 82.5 -215.5
s124.167 -83.5 207.5 -83.5z" />
    <glyph glyph-name="e" unicode="e" 
d="M1158 413l-855.999 -0.000976562c-2 -20.667 -3 -36.334 -3 -47.001c0 -91.333 31 -166.666 93 -225.999s146 -89 252 -89c62 0 129.333 10.167 202 30.5s135 47.833 187 82.5c15.333 10 27.666 15 36.999 15c8.66699 0 16 -3.16699 22 -9.5s9 -14.5 9 -24.5
c0 -12 -5.33301 -23.333 -16 -34c-30.667 -32.667 -92 -64.834 -184 -96.501s-185.333 -47.5 -280 -47.5c-122.667 0 -221.167 36.333 -295.5 109s-111.5 165 -111.5 277c0 74 16 143.833 48 209.5s74.167 122.334 126.5 170.001s112.666 86.834 180.999 117.501
s142.833 46 223.5 46c114.667 0 206.834 -33.667 276.501 -101s104.5 -153.333 104.5 -258c0 -34.667 -5.33301 -76 -16 -124zM1090 497.999c3.33301 92 -23.999 167.333 -81.999 226c-58.667 58 -137.334 87 -236.001 87c-96 0 -185.667 -28.333 -269 -85
s-144.333 -132.667 -183 -228h770z" />
    <glyph glyph-name="f" unicode="f" 
d="M725 781l-148 -696.999h369c18.667 0 31.334 -2.83301 38.001 -8.5s10 -13.834 10 -24.501c0 -14 -5.5 -26 -16.5 -36s-27.5 -15 -49.5 -15h-657c-18.667 0 -31.334 3 -38.001 9s-10 14.333 -10 25c0 13.333 5.5 25 16.5 35s27.5 15 49.5 15h203l148 697h-182
c-18.667 0 -31.334 3 -38.001 9s-10 14.333 -10 25c0 13.333 5.5 25.166 16.5 35.499s27.5 15.5 49.5 15.5h182l27 127c15.333 71.333 57.166 132.833 125.499 184.5s150.166 77.5 245.499 77.5c74 0 153.667 -6.66699 239 -20c36.667 -6 57.834 -12 63.501 -18
s8.5 -13.333 8.5 -22c0 -14 -5.16699 -26 -15.5 -36s-23.5 -15 -39.5 -15c-4.66699 0 -13 1 -25 3c-97.333 15.333 -180 23 -248 23c-75.333 0 -136.666 -18.167 -183.999 -54.5s-75.666 -77.166 -84.999 -122.499l-27 -127h393c18.667 0 31 -2.66699 37 -8
c7.33301 -6.66699 11 -15.334 11 -26.001c0 -13.333 -5.5 -25.166 -16.5 -35.499s-27.5 -15.5 -49.5 -15.5h-393z" />
    <glyph glyph-name="g" unicode="g" 
d="M1048 712l33.0049 154h197c18.667 0 31 -2.66699 37 -8c8 -6.66699 12 -15.334 12 -26.001c0 -13.333 -5.66699 -25.166 -17 -35.499s-28 -15.5 -50 -15.5h-112l-179 -839c-11.333 -54 -33 -103 -65 -147c-22.667 -30.667 -57 -62 -103 -94s-85 -54.5 -117 -67.5
s-74 -19.5 -126 -19.5h-238c-18.667 0 -31.334 3 -38.001 9s-10 14 -10 24c0 14 5.5 26.167 16.5 36.5s27.5 15.5 49.5 15.5l241 -1c47.333 0 93.333 12 138 36s86 61.333 124 112c21.333 28 36.666 64 45.999 108l54 252c-116.667 -123.333 -247 -185 -391 -185
c-96.667 0 -177 32.5 -241 97.5s-96 148.5 -96 250.5c0 71.333 16.667 139.833 50 205.5s73.666 121 120.999 166s101.166 82.167 161.499 111.5s125.166 44 194.499 44c142 0 244.667 -61.333 308 -184zM573.005 106c56.667 0 110 11.6689 160 35.002s95 54.166 135 92.499
s72.5 84.666 97.5 138.999s37.5 109.833 37.5 166.5c0 78 -26 142.833 -78 194.5s-117.333 77.5 -196 77.5c-111.333 0 -210.833 -43.667 -298.5 -131s-131.5 -186 -131.5 -296c0 -81.333 26 -148 78 -200s117.333 -78 196 -78z" />
    <glyph glyph-name="h" unicode="h" 
d="M606 1255l-110.001 -516.996c66.667 58.667 127 99.667 181 123s110.667 35 170 35c86.667 0 153.5 -22 200.5 -66s70.5 -100 70.5 -168c0 -18 -2 -37 -6 -57l-111 -521h95c18.667 0 31.334 -2.83301 38.001 -8.5s10 -13.834 10 -24.501c0 -14 -5.5 -26 -16.5 -36
s-27.5 -15 -49.5 -15h-274c-18.667 0 -31.334 3 -38.001 9s-10 14.333 -10 25c0 13.333 5.5 25 16.5 35s27.5 15 49.5 15h95l109 515c3.33301 14.667 5 29.667 5 45c0 49.333 -17.167 89.666 -51.5 120.999s-85.166 47 -152.499 47c-56 0 -104.667 -10.5 -146 -31.5
s-111.666 -75.833 -210.999 -164.5l-113 -532h95c18.667 0 31.334 -2.83301 38.001 -8.5s10 -13.834 10 -24.501c0 -14 -5.5 -26 -16.5 -36s-27.5 -15 -49.5 -15h-274c-18.667 0 -31.334 3 -38.001 9s-10 14.333 -10 25c0 13.333 5.5 25 16.5 35s27.5 15 49.5 15h95
l230 1086h-112c-18.667 0 -31.334 3 -38.001 9s-10 14.333 -10 25c0 13.333 5.5 25.166 16.5 35.499s27.5 15.5 49.5 15.5h197z" />
    <glyph glyph-name="i" unicode="i" 
d="M931 1297l-46 -217h-123l46 217h123zM843 866l-166 -781.998h330c18.667 0 31.334 -2.83301 38.001 -8.5s10 -13.834 10 -24.501c0 -14 -5.5 -26 -16.5 -36s-27.5 -15 -49.5 -15h-744c-18.667 0 -31.334 3 -38.001 9s-10 14.333 -10 25c0 13.333 5.5 25 16.5 35
s27.5 15 49.5 15h330l148 697h-245c-18.667 0 -31.5 3 -38.5 9s-10.5 14.333 -10.5 25c0 13.333 5.66699 25.166 17 35.499s28 15.5 50 15.5h329z" />
    <glyph glyph-name="j" unicode="j" 
d="M1010 1297l-46 -217h-123l46 217h123zM906 781h-498.998c-18.667 0 -31.334 3 -38.001 9s-10 14.333 -10 25c0 13.333 5.5 25.166 16.5 35.499s27.5 15.5 49.5 15.5h583l-196 -925c-16 -73.333 -44 -133.666 -84 -180.999s-93 -86 -159 -116
c-44 -20 -93.333 -30 -148 -30h-267c-18.667 0 -31.334 3 -38.001 9s-10 14 -10 24c0 14 5.5 26.167 16.5 36.5s27.5 15.5 49.5 15.5l265 -1c71.333 0 130 20 176 60c61.333 52.667 99.333 113.667 114 183z" />
    <glyph glyph-name="k" unicode="k" 
d="M464 374l-79.9971 -373.997h-197c-18.667 0 -31.334 3 -38.001 9s-10 14.333 -10 25c0 13.333 5.5 25 16.5 35s27.5 15 49.5 15h113l230 1086h-112c-18.667 0 -31.334 3 -38.001 9s-10 14.333 -10 25c0 13.333 5.5 25.166 16.5 35.499s27.5 15.5 49.5 15.5h197l-165 -774
l421 300h-43c-18.667 0 -31.334 3 -38.001 9s-10 14.333 -10 25c0 13.333 5.5 25.166 16.5 35.499s27.5 15.5 49.5 15.5h269c18.667 0 31 -2.66699 37 -8c8 -6.66699 12 -15.334 12 -26.001c0 -13.333 -5.66699 -25.166 -17 -35.499s-28 -15.5 -50 -15.5h-97l-386 -274
l325 -423h97c18.667 0 31.334 -2.83301 38.001 -8.5s10 -13.834 10 -24.501c0 -14 -5.5 -26 -16.5 -36s-27.5 -15 -49.5 -15h-272c-18.667 0 -31.334 3 -38.001 9s-10 14.333 -10 25c0 13.333 5.5 25 16.5 35s27.5 15 49.5 15h58l-281 371z" />
    <glyph glyph-name="l" unicode="l" 
d="M925 1255l-248.999 -1171h330c18.667 0 31.334 -2.83301 38.001 -8.5s10 -13.834 10 -24.501c0 -14 -5.5 -26 -16.5 -36s-27.5 -15 -49.5 -15h-744c-18.667 0 -31.334 3 -38.001 9s-10 14.333 -10 25c0 13.333 5.5 25 16.5 35s27.5 15 49.5 15h330l231 1086h-243
c-18.667 0 -31.334 3 -38.001 9s-10 14.333 -10 25c0 13.333 5.5 25.166 16.5 35.499s27.5 15.5 49.5 15.5h327z" />
    <glyph glyph-name="m" unicode="m" 
d="M416 866l-17.9961 -84.9941c87.333 76.667 167.666 115 240.999 115c40 0 74.333 -11.667 103 -35s49.334 -58 62.001 -104c47.333 46.667 92.666 81.5 135.999 104.5s84.666 34.5 123.999 34.5c49.333 0 90.333 -16.833 123 -50.5s49 -77.167 49 -130.5
c0 -13.333 -2 -28 -6 -44l-124 -587h70c19.333 0 32.333 -2.83301 39 -8.5s10 -13.834 10 -24.501c0 -14 -5.66699 -26 -17 -36s-28 -15 -50 -15h-155l141 663c2.66699 11.333 4 22.666 4 33.999c0 35.333 -9.5 63.166 -28.5 83.499s-42.5 30.5 -70.5 30.5
c-30.667 0 -62.667 -9.33301 -96 -28c-44.667 -26 -96.334 -73.333 -155.001 -142l-119 -557h71c18.667 0 31.334 -2.83301 38.001 -8.5s10 -13.834 10 -24.501c0 -14 -5.5 -26 -16.5 -36s-27.5 -15 -49.5 -15h-155l140 657c2.66699 13.333 4 26.333 4 39
c0 34 -9.83301 61.667 -29.5 83s-42.5 32 -68.5 32c-30 0 -61.333 -9 -94 -27c-47.333 -27.333 -101 -75 -161 -143l-118 -557h70c19.333 0 32.333 -2.83301 39 -8.5s10 -13.834 10 -24.501c0 -14 -5.66699 -26 -17 -36s-28 -15 -50 -15h-225c-18.667 0 -31.334 3 -38.001 9
s-10 14.333 -10 25c0 13.333 5.5 25 16.5 35s27.5 15 49.5 15h70l149 697h-71c-18.667 0 -31.334 3 -38.001 9s-10 14.333 -10 25c0 13.333 5.5 25.166 16.5 35.499s27.5 15.5 49.5 15.5h155z" />
    <glyph glyph-name="n" unicode="n" 
d="M527 866l-26.999 -126.999c73.333 60.667 135.833 102 187.5 124s107.5 33 167.5 33c82.667 0 147.5 -22 194.5 -66s70.5 -101 70.5 -171c0 -13.333 -1.66699 -28.666 -5 -45.999l-113 -529h71c18.667 0 31.334 -2.83301 38.001 -8.5s10 -13.834 10 -24.501
c0 -14 -5.5 -26 -16.5 -36s-27.5 -15 -49.5 -15h-226c-18.667 0 -31.334 3 -38.001 9s-10 14.333 -10 25c0 13.333 5.5 25 16.5 35s27.5 15 49.5 15h71l109 515c3.33301 15.333 5 30 5 44c0 48.667 -17 88.834 -51 120.501s-82.667 47.5 -146 47.5
c-58 0 -109.833 -11.667 -155.5 -35s-114.5 -78.333 -206.5 -165l-112 -527h95c18.667 0 31.334 -2.83301 38.001 -8.5s10 -13.834 10 -24.501c0 -14 -5.5 -26 -16.5 -36s-27.5 -15 -49.5 -15h-274c-18.667 0 -31.334 3 -38.001 9s-10 14.333 -10 25
c0 13.333 5.5 25 16.5 35s27.5 15 49.5 15h95l148 697h-71c-18.667 0 -31.334 3 -38.001 9s-10 14.333 -10 25c0 13.333 5.5 25.166 16.5 35.499s27.5 15.5 49.5 15.5h155z" />
    <glyph glyph-name="o" unicode="o" 
d="M604 -33c-110 0 -200.331 34.834 -270.998 104.501s-106 158.167 -106 265.5c0 87.333 26.667 176.166 80 266.499s126.5 161.666 219.5 213.999s187.167 78.5 282.5 78.5c109.333 0 199.333 -34.667 270 -104s106 -155.666 106 -258.999
c0 -90.667 -25.833 -180.667 -77.5 -270s-124.334 -161 -218.001 -215s-188.834 -81 -285.501 -81zM623.002 51.001c78.667 0 156.501 22.166 233.501 66.499s136.667 103.166 179 176.499s63.5 147 63.5 221c0 84 -29 154.333 -87 211s-132 85 -222 85
c-64.667 0 -124.834 -12.833 -180.501 -38.5s-105 -58.667 -148 -99s-78.5 -88.666 -106.5 -144.999s-42 -114.5 -42 -174.5c0 -87.333 29 -159.666 87 -216.999s132.333 -86 223 -86z" />
    <glyph glyph-name="p" unicode="p" 
d="M482 866l-31.999 -152.998c64 62 127.833 108 191.5 138s134.167 45 211.5 45c111.333 0 200 -32.167 266 -96.5s99 -147.5 99 -249.5c0 -135.333 -55.5 -257.333 -166.5 -366s-239.167 -163 -384.5 -163c-149.333 0 -257.666 61 -324.999 183l-108 -506h203
c15.333 0 25.5 -1 30.5 -3s9.33301 -5.83301 13 -11.5s5.5 -11.834 5.5 -18.501c0 -14 -5.66699 -26 -17 -36s-28 -15 -50 -15h-400c-18.667 0 -31.334 3 -38.001 9s-10 14 -10 24c0 14 5.5 26 16.5 36s27.5 15 49.5 15h113l230 1083h-113c-18.667 0 -31.334 3 -38.001 9
s-10 14.333 -10 25c0 13.333 5.5 25.166 16.5 35.499s27.5 15.5 49.5 15.5h197zM682.001 106.002c119.333 0 223.999 43.668 313.999 131.001s135 186.666 135 297.999c0 78 -27.5 143.5 -82.5 196.5s-125.167 79.5 -210.5 79.5c-119.333 0 -224.166 -43.667 -314.499 -131
s-135.5 -184.666 -135.5 -291.999c0 -80.667 27.5 -147.834 82.5 -201.501s125.5 -80.5 211.5 -80.5z" />
    <glyph glyph-name="q" unicode="q" 
d="M1092 713l33.001 152.999h197c18.667 0 31.334 -3 38.001 -9s10 -14.333 10 -25c0 -13.333 -5.5 -25.166 -16.5 -35.499s-27.5 -15.5 -49.5 -15.5h-113l-230 -1083h112c15.333 0 25.5 -1 30.5 -3s9.33301 -5.83301 13 -11.5s5.5 -11.834 5.5 -18.501
c0 -14 -5.66699 -26 -17 -36s-28 -15 -50 -15h-400c-18.667 0 -31.334 3 -38.001 9s-10 14 -10 24c0 14 5.5 26 16.5 36s27.5 15 49.5 15h203l108 506c-118.667 -122 -253.667 -183 -405 -183c-108 0 -195.5 32.833 -262.5 98.5s-100.5 148.167 -100.5 247.5
c0 84 24.833 168.333 74.5 253s118.667 151.834 207 201.501s178.166 74.5 269.499 74.5c150 0 258.333 -61 325 -183zM596.001 105.999c74.667 0 148.332 20.5 220.999 61.5s128.834 95.333 168.501 163s59.5 135.167 59.5 202.5c0 78.667 -27.5 144.667 -82.5 198
s-125.5 80 -211.5 80c-118.667 0 -223.167 -43.667 -313.5 -131s-135.5 -185 -135.5 -293c0 -80 27.5 -146.833 82.5 -200.5s125.5 -80.5 211.5 -80.5z" />
    <glyph glyph-name="r" unicode="r" 
d="M698 866l-44.9971 -211.999c132.667 100 228.834 163.833 288.501 191.5s112.167 41.5 157.5 41.5s86.166 -15.333 122.499 -46s54.5 -54.667 54.5 -72c0 -14 -5.33301 -26.333 -16 -37s-23.334 -16 -38.001 -16c-6.66699 0 -12 1.16699 -16 3.5s-11 9.83301 -21 22.5
c-18 23.333 -34.833 39.333 -50.5 48s-31.5 13 -47.5 13c-37.333 0 -84.833 -14.667 -142.5 -44s-162.5 -101 -314.5 -215l-98 -460h372c19.333 0 32.333 -2.83301 39 -8.5s10 -13.834 10 -24.501c0 -14 -5.66699 -26 -17 -36s-28 -15 -50 -15h-659
c-18.667 -0 -31.334 2.83301 -38.001 8.5s-10 13.5 -10 23.5c0 13.333 5.33301 24.833 16 34.5s27 14.5 49 14.5h203l149 700h-155c-18.667 0 -31.334 3 -38.001 9s-10 14 -10 24c0 14 5.5 26.167 16.5 36.5s27.5 15.5 49.5 15.5h239z" />
    <glyph glyph-name="s" unicode="s" 
d="M1065 811c4 19.333 10.998 33.334 20.998 42.001s21 13 33 13c10 0 18.167 -3.16699 24.5 -9.5s9.5 -13.5 9.5 -21.5c0 -6 -1.33301 -14.667 -4 -26l-30 -144c-4.66699 -20 -11.834 -34.333 -21.501 -43s-20.834 -13 -33.501 -13c-9.33301 0 -17.166 3 -23.499 9
s-9.5 13 -9.5 21l1 17c0.666992 5.33301 1 10.333 1 15c0 36 -16 65.333 -48 88c-47.333 34.667 -113.666 52 -198.999 52c-102.667 0 -184.334 -22 -245.001 -66c-45.333 -32.667 -68 -67.334 -68 -104.001c0 -36 19.667 -65.333 59 -88
c28.667 -16 89.334 -29.167 182.001 -39.5s159 -22.166 199 -35.499c56 -18 97.667 -44 125 -78s41 -72.333 41 -115c0 -49.333 -18 -98.666 -54 -147.999s-91 -90 -165 -122s-157.333 -48 -250 -48c-66 0 -124.333 8.5 -175 25.5s-93.667 42.167 -129 75.5
c-5.33301 -27.333 -12 -45 -20 -53c-11.333 -10 -23.666 -15 -36.999 -15c-9.33301 0 -17.166 3 -23.499 9s-9.5 13.333 -9.5 22c0 6 1 14.333 3 25l37 173c4 20 11 34.333 21 43s21.333 13 34 13c9.33301 0 17.166 -3.16699 23.499 -9.5s9.5 -13.833 9.5 -22.5
c0 -5.33301 -1 -13 -3 -23s-3 -17.333 -3 -22c0 -38 19.667 -71.333 59 -100c52 -38 128 -57 228 -57c119.333 0 210.333 23.667 273 71s94 94.333 94 141c0 25.333 -9.16699 50.166 -27.5 74.499s-46.166 43.666 -83.499 57.999s-98.5 26 -183.5 35s-147 20.333 -186 34
s-69.5 34.5 -91.5 62.5s-33 60 -33 96c0 42 14.333 83.167 43 123.5s76.5 75.333 143.5 105s142.167 44.5 225.5 44.5c58 0 109.167 -7 153.5 -21s81.833 -35.333 112.5 -64z" />
    <glyph glyph-name="t" unicode="t" 
d="M630 866l456.005 -0.00195312c19.333 0 32.166 -2.66699 38.499 -8s9.5 -13.666 9.5 -24.999c0 -12 -2.33301 -21.833 -7 -29.5s-10.334 -13.167 -17.001 -16.5c-8.66699 -4 -22.667 -6 -42 -6h-456l-119 -559c-3.33301 -16 -5 -30.667 -5 -44
c0 -32 16.5 -61.167 49.5 -87.5s81.167 -39.5 144.5 -39.5c59.333 0 123.833 8.33301 193.5 25s125.167 36 166.5 58c15.333 8.66699 27.333 13 36 13c9.33301 0 17 -3.16699 23 -9.5s9 -14.833 9 -25.5c0 -14 -8.33301 -27 -25 -39
c-40.667 -29.333 -112.334 -56 -215.001 -80c-74 -17.333 -142.667 -26 -206 -26c-83.333 0 -147.833 19.333 -193.5 58s-68.5 85.334 -68.5 140.001c0 17.333 2 36.333 6 57l119 559h-155c-18.667 0 -31.334 3 -38.001 9s-10 14.333 -10 25
c0 13.333 5.5 25.166 16.5 35.499s27.5 15.5 49.5 15.5h155l53 248c4 20 11 34.333 21 43s21.333 13 34 13c9.33301 0 17.166 -3 23.499 -9s9.5 -13.333 9.5 -22c0 -5.33301 -1.33301 -13.666 -4 -24.999z" />
    <glyph glyph-name="u" unicode="u" 
d="M902 0l26.001 123.004c-136.667 -104 -272.667 -156 -408 -156c-66.667 0 -119.5 19.167 -158.5 57.5s-58.5 87.166 -58.5 146.499c0 21.333 2.66699 44 8 68l115 542h-113c-18.667 0 -31.334 3 -38.001 9s-10 14.333 -10 25c0 13.333 5.5 25.166 16.5 35.499
s27.5 15.5 49.5 15.5h197l-133 -627c-2.66699 -14 -4 -28.333 -4 -43c0 -44 13 -79.167 39 -105.5s61.333 -39.5 106 -39.5c138 0 277 62.667 417 188l115 542h-155c-18.667 0 -31.334 3 -38.001 9s-10 14.333 -10 25c0 13.333 5.5 25.166 16.5 35.499s27.5 15.5 49.5 15.5
h239l-166 -782h71c18.667 0 31.334 -2.83301 38.001 -8.5s10 -13.834 10 -24.501c0 -14 -5.5 -26 -16.5 -36s-27.5 -15 -49.5 -15h-155z" />
    <glyph glyph-name="v" unicode="v" 
d="M688 0l-141.998 0.00195312l-179 781h-86c-18.667 0 -31.334 3 -38.001 9s-10 14.333 -10 25c0 13.333 5.5 25.166 16.5 35.499s27.5 15.5 49.5 15.5h315c18.667 0 31 -2.66699 37 -8c7.33301 -6.66699 11 -15.334 11 -26.001c0 -13.333 -5.5 -25.166 -16.5 -35.499
s-27.5 -15.5 -49.5 -15.5h-139l160 -697h37l450 697h-140c-18.667 0 -31.334 3 -38.001 9s-10 14.333 -10 25c0 13.333 5.5 25.166 16.5 35.499s27.5 15.5 49.5 15.5h316c18.667 0 31 -2.66699 37 -8c7.33301 -6.66699 11 -15.334 11 -26.001
c0 -13.333 -5.5 -25.166 -16.5 -35.499s-27.5 -15.5 -49.5 -15.5h-85z" />
    <glyph glyph-name="w" unicode="w" 
d="M905 0l-104.999 -0.998047l-70 540l-298 -540l-104 1l-8 781h-41c-18.667 0 -31.334 3 -38.001 9s-10 14.333 -10 25c0 13.333 5.5 25.166 16.5 35.499s27.5 15.5 49.5 15.5h231c18.667 0 31 -2.66699 37 -8c7.33301 -6.66699 11 -15.334 11 -26.001
c0 -13.333 -5.5 -25.166 -16.5 -35.499s-27.5 -15.5 -49.5 -15.5h-107l8 -666l291 532h100l71 -532l285 666h-106c-18.667 0 -31.5 3 -38.5 9s-10.5 14.333 -10.5 25c0 13.333 5.66699 25.166 17 35.499s28 15.5 50 15.5h230c18.667 0 31 -2.66699 37 -8
c7.33301 -6.66699 11 -15.334 11 -26.001c0 -13.333 -5.5 -25.166 -16.5 -35.499s-27.5 -15.5 -49.5 -15.5h-40z" />
    <glyph glyph-name="x" unicode="x" 
d="M769 453l305.999 -368.995c24 0 38.833 -0.833008 44.5 -2.5s10.334 -5.33398 14.001 -11.001s5.5 -12.167 5.5 -19.5c0 -14 -5.5 -26 -16.5 -36s-27.5 -15 -49.5 -15h-271c-18.667 0 -31.334 3 -38.001 9s-10 14.333 -10 25c0 13.333 5.5 25 16.5 35s27.5 15 49.5 15
h140l-261 313l-391 -313h140c18.667 0 31.334 -2.83301 38.001 -8.5s10 -13.834 10 -24.501c0 -14 -5.5 -26 -16.5 -36s-27.5 -15 -49.5 -15h-273c-18.667 0 -31.334 3 -38.001 9s-10 14.333 -10 25c0 9.33301 3 18.333 9 27s13.667 15 23 19
c6.66699 2.66699 23.334 4 50.001 4l463 369l-272 328c-22.667 0 -36.667 1 -42 3s-10 5.83301 -14 11.5s-6 12.167 -6 19.5c0 13.333 5.5 25.166 16.5 35.499s27.5 15.5 49.5 15.5h230c18.667 0 31 -2.66699 37 -8c7.33301 -6.66699 11 -15.334 11 -26.001
c0 -13.333 -5.5 -25.166 -16.5 -35.499s-27.5 -15.5 -49.5 -15.5h-101l226 -273l343 273h-100c-18.667 0 -31.5 3 -38.5 9s-10.5 14.333 -10.5 25c0 13.333 5.5 25.166 16.5 35.499s27.833 15.5 50.5 15.5h229c18.667 0 30.667 -2.66699 36 -8
c8 -6.66699 12 -15.334 12 -26.001c0 -8.66699 -3 -17.5 -9 -26.5s-13.167 -15.333 -21.5 -19s-24.833 -5.5 -49.5 -5.5z" />
    <glyph glyph-name="y" unicode="y" 
d="M571 0l-222.998 780.999h-25c-18.667 0 -31.5 3 -38.5 9s-10.5 14.333 -10.5 25c0 8.66699 2.83301 17.334 8.5 26.001s12.667 15 21 19s20.833 6 37.5 6h229c14.667 0 24.667 -1.16699 30 -3.5s9.66602 -6.16602 12.999 -11.499s5 -11.666 5 -18.999
c0 -13.333 -5.5 -25.166 -16.5 -35.499s-27.5 -15.5 -49.5 -15.5h-112l195 -689l485 689h-112c-18.667 0 -31.5 3 -38.5 9s-10.5 14.333 -10.5 25c0 13.333 5.5 25.166 16.5 35.499s27.833 15.5 50.5 15.5h229c18.667 0 30.667 -2.66699 36 -8
c8 -6.66699 12 -15.334 12 -26.001c0 -9.33301 -3.16699 -18.5 -9.5 -27.5s-14.166 -15.5 -23.499 -19.5c-7.33301 -2.66699 -27 -4 -59 -4l-762 -1083h131c14.667 0 24.667 -1 30 -3s9.66602 -5.83301 12.999 -11.5s5 -11.834 5 -18.501c0 -14 -5.5 -26 -16.5 -36
s-27.5 -15 -49.5 -15h-484c-18.667 0 -31.334 3 -38.001 9s-10 14 -10 24c0 14 5.5 26 16.5 36s27.5 15 49.5 15h264z" />
    <glyph glyph-name="z" unicode="z" 
d="M1166 866l-16 -74.999l-779 -707h568l25 116c4 20 10.833 34.333 20.5 43s20.834 13 33.501 13c10 0 18.167 -3 24.5 -9s9.5 -13 9.5 -21c0 -6.66699 -1.33301 -15.334 -4 -26.001l-43 -200h-768l16 75l777 706h-523l-24 -114
c-4.66699 -20.667 -11.834 -35.167 -21.501 -43.5s-20.834 -12.5 -33.501 -12.5c-9.33301 0 -17.166 3 -23.499 9s-9.5 13 -9.5 21c0 6 1 14.667 3 26l43 199h725z" />
    <glyph glyph-name="braceleft" unicode="{" 
d="M671 498c22.667 -20.667 37.6699 -38.3301 45.0029 -52.9971c10 -19.333 15 -41.666 15 -66.999c0 -16.667 -2.33301 -36.334 -7 -59.001l-76 -359c-2.66699 -11.333 -4 -23 -4 -35c0 -28 8.5 -51.167 25.5 -69.5s38.5 -28.5 64.5 -30.5
c19.333 -1.33301 31.333 -4.33301 36 -9c6.66699 -6 10 -14 10 -24c0 -14 -5.5 -26.167 -16.5 -36.5s-25.167 -15.5 -42.5 -15.5c-47.333 0 -86.5 15.667 -117.5 47s-46.5 72.333 -46.5 123c0 15.333 2 31.666 6 48.999l76 360c2.66699 10.667 4 21.667 4 33
c0 28.667 -8.5 52.167 -25.5 70.5s-39.167 28.5 -66.5 30.5c-16.667 1.33301 -27.334 4.66602 -32.001 9.99902c-6.66699 6 -10 14 -10 24c0 14.667 4.83301 27 14.5 37s25.167 16 46.5 18c35.333 3.33301 66.5 17.5 93.5 42.5s44.167 55.5 51.5 91.5l77 360
c13.333 63.333 44.5 115.666 93.5 156.999s101.5 62 157.5 62c14 0 24.333 -3.16699 31 -9.5s10 -14.5 10 -24.5c0 -12.667 -4.83301 -23.667 -14.5 -33s-26.167 -15.333 -49.5 -18c-34.667 -3.33301 -65.334 -17.5 -92.001 -42.5s-44 -55.5 -52 -91.5l-76 -360
c-8.66699 -41.333 -22.334 -75 -41.001 -101s-48 -51.667 -88 -77z" />
    <glyph glyph-name="bar" unicode="|" 
d="M657 1198l-0.999023 -1401c0 -20 -3.83301 -34.333 -11.5 -43s-17.834 -13 -30.501 -13c-12 0 -22 4.33301 -30 13s-12 23 -12 43v1401c0 20.667 4 35.334 12 44.001s18 13 30 13c12.667 0 23 -4.33301 31 -13s12 -23.334 12 -44.001z" />
    <glyph glyph-name="braceright" unicode="}" 
d="M770 498c-23.333 20 -38.6709 37.335 -46.0039 52.002c-9.33301 20 -14 42.333 -14 67c0 17.333 2.33301 37 7 59l76 360c2.66699 11.333 4 22.666 4 33.999c0 28 -8.5 51.167 -25.5 69.5s-38.5 28.5 -64.5 30.5c-19.333 2 -31.333 5 -36 9
c-6.66699 6.66699 -10 14.667 -10 24c0 14 5.5 26.167 16.5 36.5s25.5 15.5 43.5 15.5c46.667 0 85.334 -15.667 116.001 -47s46 -72.666 46 -123.999c0 -14.667 -1.66699 -30.667 -5 -48l-77 -360c-2 -10.667 -3 -21.334 -3 -32.001c0 -28.667 8.5 -52.334 25.5 -71.001
s39.167 -29 66.5 -31c16.667 -1.33301 27.334 -4.33301 32.001 -9c6.66699 -6.66699 10 -14.667 10 -24c0 -15.333 -4.83301 -28 -14.5 -38s-25.167 -16 -46.5 -18c-35.333 -2.66699 -66.5 -16.5 -93.5 -41.5s-44.5 -55.833 -52.5 -92.5l-76 -360
c-13.333 -63.333 -44.5 -115.666 -93.5 -156.999s-101.5 -62 -157.5 -62c-14 0 -24.333 3.16699 -31 9.5s-10 14.5 -10 24.5c0 13.333 4.66699 24.5 14 33.5s26 14.833 50 17.5c34.667 3.33301 65.334 17.666 92.001 42.999s44 56 52 92l76 359
c8.66699 41.333 22.334 75 41.001 101s48 52 88 78z" />
    <glyph glyph-name="asciitilde" unicode="~" 
d="M1145 668c8.66699 0 16.167 -3 22.5 -9s9.5 -13.667 9.5 -23c0 -11.333 -6.33301 -24 -19 -38c-46 -52 -98 -95 -156 -129c-42 -24.667 -80 -37 -114 -37c-28.667 0 -56.667 8.16699 -84 24.5s-60.166 47.333 -98.499 93s-66.333 74 -84 85s-33.834 16.5 -48.501 16.5
c-21.333 0 -43.5 -6.5 -66.5 -19.5s-59.167 -42.167 -108.5 -87.5c-22.667 -21.333 -37.334 -33.833 -44.001 -37.5s-13.667 -5.5 -21 -5.5c-9.33301 0 -17 2.83301 -23 8.5s-9 13.5 -9 23.5c0 14 15.667 36.167 47 66.5s64.666 58.166 99.999 83.499
c48.667 34.667 95.334 52 140.001 52c26.667 0 51.834 -6.16699 75.501 -18.5s52.834 -38.166 87.501 -77.499c56 -64 91 -100.333 105 -109s28.667 -13 44 -13c46.667 0 104 34 172 102c25.333 24.667 41.666 39 48.999 43s15.333 6 24 6z" />
    <glyph glyph-name="nbspace" unicode="&#xa0;" 
 />
    <glyph glyph-name="currency" unicode="&#xa4;" 
d="M476 336l-139.999 -115.004c-18 -14.667 -32.667 -22 -44 -22c-10.667 0 -19.167 3 -25.5 9s-9.5 14 -9.5 24c0 8 1.83301 15.167 5.5 21.5s12.5 15.5 26.5 27.5l140 115c-24 45.333 -36 92.333 -36 141c0 100.667 41.333 194.667 124 282l-90 114
c-9.33301 12.667 -14 23 -14 31c0 12.667 5.33301 24.334 16 35.001s22.667 16 36 16c11.333 0 23 -7.33301 35 -22l90 -114c72 48.667 149 73 231 73c38.667 0 74.167 -6 106.5 -18s61.166 -30.333 86.499 -55l138 114c18 14.667 32.667 22 44 22
c10.667 0 19.167 -3.16699 25.5 -9.5s9.5 -14.166 9.5 -23.499c0 -8.66699 -1.83301 -16.167 -5.5 -22.5s-12.5 -15.166 -26.5 -26.499l-138 -114c23.333 -44 35 -90.333 35 -139c0 -103.333 -42 -198 -126 -284l90 -115c10 -12.667 15 -23 15 -31
c0 -13.333 -5.33301 -25.166 -16 -35.499s-23 -15.5 -37 -15.5c-10.667 0 -22 7.33301 -34 22l-91 115c-73.333 -48 -149.333 -72 -228 -72c-37.333 0 -72 6 -104 18s-61.667 30 -89 54zM687.001 348.996c84.667 0 159.5 32 224.5 96s97.5 137.667 97.5 221
c0 57.333 -19.5 105.333 -58.5 144s-88.833 58 -149.5 58c-84 0 -158.667 -32.167 -224 -96.5s-98 -136.833 -98 -217.5c0 -59.333 19.667 -108.333 59 -147s89 -58 149 -58z" />
    <glyph glyph-name="brokenbar" unicode="&#xa6;" 
d="M657 1138l-1 -375.999c0 -58.667 -2 -91.334 -6 -98.001c-9.33301 -12.667 -21.333 -19 -36 -19c-9.33301 0 -17.833 3 -25.5 9s-12.5 13 -14.5 21c-1.33301 6 -2 35 -2 87v376c0 52.667 0.666992 81.667 2 87c2 8 6.83301 15 14.5 21s16.167 9 25.5 9s17.833 -3 25.5 -9
s12.5 -13 14.5 -21c2 -6 3 -35 3 -87zM657 233.001l-1 -376c0 -58.667 -2 -91 -6 -97c-9.33301 -12.667 -21.333 -19 -36 -19c-9.33301 0 -17.833 2.83301 -25.5 8.5s-12.5 12.5 -14.5 20.5c-1.33301 6 -2 35 -2 87v376c0 52.667 0.666992 81.667 2 87
c2 8.66699 6.83301 15.834 14.5 21.501s16.167 8.5 25.5 8.5s17.833 -2.83301 25.5 -8.5s12.5 -12.834 14.5 -21.501c2 -5.33301 3 -34.333 3 -87z" />
    <glyph glyph-name="section" unicode="&#xa7;" 
d="M1264 1255l-45 -217.004c-3.33301 -14 -8.5 -24.167 -15.5 -30.5s-14.833 -9.5 -23.5 -9.5c-7.33301 0 -13.166 2.16699 -17.499 6.5s-6.5 9.83301 -6.5 16.5c0 4 0.666992 9.66699 2 17l33 156h-350c-58.667 0 -112.167 -23 -160.5 -69s-72.5 -92.333 -72.5 -139
c0 -26.667 10.333 -53.667 31 -81c30.667 -40.667 103 -97.667 217 -171l99 -64c88.667 -57.333 146.667 -104.166 174 -140.499s41 -73.833 41 -112.5c0 -50.667 -23.333 -96 -70 -136s-110.667 -60.333 -192 -61c10.667 -24 16 -46.333 16 -67
c0 -42 -13.667 -85.167 -41 -129.5s-64.833 -81 -112.5 -110s-100.834 -43.5 -159.501 -43.5h-406l46 219c3.33301 14 8.5 24.167 15.5 30.5s14.833 9.5 23.5 9.5c7.33301 0 13.166 -2.16699 17.499 -6.5s6.5 -9.83301 6.5 -16.5c0 -4 -0.666992 -9.66699 -2 -17l-34 -158
h345c78 0 141 29.667 189 89c32.667 40.667 49 78 49 112c0 30.667 -12.667 62.834 -38 96.501s-85.333 81.5 -180 143.5l-114 75c-90.667 60 -151.667 110.333 -183 151c-32 40 -48 79 -48 117c0 46 22.5 88.333 67.5 127s110.5 60.334 196.5 65.001
c-10.667 24 -16 45.667 -16 65c0 40.667 14 83.334 42 128.001s66.333 81.667 115 111s97.334 44 146.001 44h415zM598 848.996c-10 -2 -21.6689 -3 -35.002 -3c-67.333 0 -118.166 -13 -152.499 -39s-51.5 -53.333 -51.5 -82c0 -30 15.667 -61.667 47 -95
c30.667 -34 89 -79.333 175 -136l109 -73c90.667 -60 151.667 -108.667 183 -146c7.33301 4 18 6.33301 32 7c52.667 0.666992 93.167 7 121.5 19s49 27 62 45s19.5 35.667 19.5 53c0 60.667 -63 132 -189 214l-114 73c-64 41.333 -108.167 72 -132.5 92
s-49.166 43.667 -74.499 71z" />
    <glyph glyph-name="dieresis" unicode="&#xa8;" 
d="M617 1066c-18.667 0 -34.167 6 -46.5 18s-18.5 27.667 -18.5 47c0 24.667 10.167 47.167 30.5 67.5s43.833 30.5 70.5 30.5c19.333 0 35 -6 47 -18s18 -27 18 -45c0 -26.667 -10.167 -50 -30.5 -70s-43.833 -30 -70.5 -30zM1046 1066c-18.667 0 -34.167 6 -46.5 18
s-18.5 27.667 -18.5 47c0 24.667 10.167 47.167 30.5 67.5s43.833 30.5 70.5 30.5c18.667 0 34.167 -6 46.5 -18s18.5 -27 18.5 -45c0 -26.667 -10.167 -50 -30.5 -70s-43.833 -30 -70.5 -30z" />
    <glyph glyph-name="copyright" unicode="&#xa9;" 
d="M1346 584c0 -168.667 -59.667 -312.667 -179 -432s-263.666 -179 -432.999 -179c-168.667 0 -312.667 59.667 -432 179s-179 263.333 -179 432c0 169.333 59.667 313.666 179 432.999s263.333 179 432 179c169.333 0 313.666 -59.667 432.999 -179
s179 -263.666 179 -432.999zM1278 584c0 150.667 -53 279 -159 385s-234.333 159 -385 159c-150 0 -278.167 -53 -384.5 -159s-159.5 -234.333 -159.5 -385c0 -150 53.167 -278 159.5 -384s234.5 -159 384.5 -159c150.667 0 279 53 385 159s159 234 159 384zM933 862v34
c0 11.333 2.33301 19.5 7 24.5s10.667 7.5 18 7.5c6.66699 0 12.167 -2.5 16.5 -7.5s6.5 -13.167 6.5 -24.5v-132c0 -9.33301 -0.833008 -15.833 -2.5 -19.5s-4.5 -6.66699 -8.5 -9s-8.33301 -3.5 -13 -3.5c-6 0 -11.167 2.16699 -15.5 6.5s-7.16602 11.5 -8.49902 21.5
c-2 32.667 -19 61 -51 85c-44 33.333 -94 50 -150 50c-66.667 0 -119.334 -21 -158.001 -63c-52 -57.333 -78 -121.333 -78 -192v-83c0 -71.333 25.667 -133.166 77 -185.499s110.666 -78.5 177.999 -78.5c77.333 0 145.333 35.667 204 107c6.66699 8 13.667 12 21 12
s13 -2 17 -6s6 -9.33301 6 -16c0 -18.667 -25 -47.334 -75 -86.001s-107 -58 -171 -58c-56.667 0 -107.667 14.167 -153 42.5s-86 73.5 -122 135.5c-20 35.333 -30 77.333 -30 126v97c0 70.667 25.333 137.667 76 201s119.334 95 206.001 95c79.333 0 147 -27 203 -81z" />
    <glyph glyph-name="guillemotleft" unicode="&#xab;" 
d="M191 434l535 409.998c20.667 16 37 24 49 24c10 0 18.167 -3.16699 24.5 -9.5s9.5 -14.166 9.5 -23.499c0 -14.667 -10.667 -31.667 -32 -51l-388 -350l239 -349c9.33301 -14 14 -25 14 -33c0 -13.333 -5.16699 -25.166 -15.5 -35.499s-22.5 -15.5 -36.5 -15.5
c-11.333 0 -24 7.66699 -38 23zM660 433.998l535 409.998c20.667 16 37 24 49 24c10.667 0 19 -3.16699 25 -9.5s9 -14.166 9 -23.499c0 -14.667 -10.667 -31.667 -32 -51l-387 -350l238 -349c10 -14 15 -25 15 -33c0 -13.333 -5.33301 -25.166 -16 -35.499
s-22.667 -15.5 -36 -15.5c-12 0 -25 7.66699 -39 23z" />
    <glyph glyph-name="logicalnot" unicode="&#xac;" 
d="M195 543c-14.667 0 -24.667 1.16895 -30 3.50195s-9.66602 6.16602 -12.999 11.499s-5 11.666 -5 18.999c0 13.333 5.5 25 16.5 35s27.5 15 49.5 15h1014l-107 -504c-4 -20.667 -10.833 -35.167 -20.5 -43.5s-20.834 -12.5 -33.501 -12.5c-9.33301 0 -17.333 3 -24 9
s-10 13 -10 21c0 6 1.33301 14.667 4 26l89 420h-930z" />
    <glyph glyph-name="registered" unicode="&#xae;" 
d="M1346 584c0 -168.667 -59.667 -312.667 -179 -432s-263.666 -179 -432.999 -179c-168.667 0 -312.667 59.667 -432 179s-179 263.333 -179 432c0 169.333 59.667 313.666 179 432.999s263.333 179 432 179c169.333 0 313.666 -59.667 432.999 -179
s179 -263.666 179 -432.999zM1278 584c0 150.667 -53 279 -159 385s-234.333 159 -385 159c-150 0 -278.167 -53 -384.5 -159s-159.5 -234.333 -159.5 -385c0 -150 53.167 -278 159.5 -384s234.5 -159 384.5 -159c150.667 0 279 53 385 159s159 234 159 384zM584 549
v-247.998h88c8.66699 0 14.834 -1 18.501 -3s6.83398 -4.83301 9.50098 -8.5s4 -7.83398 4 -12.501s-1.33301 -9 -4 -13s-5.83398 -6.83301 -9.50098 -8.5s-9.83398 -2.5 -18.501 -2.5h-200c-8.66699 0 -14.834 0.833008 -18.501 2.5s-6.83398 4.5 -9.50098 8.5
s-4 8.33301 -4 13c0 4 1.33301 8.16699 4 12.5s5.83398 7.33301 9.50098 9s9.83398 2.5 18.501 2.5h64v567h-64c-8.66699 0 -14.834 1 -18.501 3s-6.83398 5 -9.50098 9s-4 8 -4 12c0 4.66699 1.33301 9 4 13s5.83398 6.83301 9.50098 8.5s9.83398 2.5 18.501 2.5h288
c59.333 0 109.333 -18.833 150 -56.5s61 -80.167 61 -127.5c0 -34 -12.667 -66 -38 -96s-67.333 -55 -126 -75c34 -22.667 63.167 -48.834 87.5 -78.501s62.833 -90.167 115.5 -181.5h37c8.66699 0 14.834 -1 18.501 -3s6.83398 -5 9.50098 -9s4 -8 4 -12
c0 -4.66699 -1.33301 -9 -4 -13s-5.83398 -6.83301 -9.50098 -8.5s-9.83398 -2.5 -18.501 -2.5h-64c-58 104.667 -103.167 175 -135.5 211s-69.833 64.333 -112.5 85h-151zM584 596.002h129c66 0 117.5 14.833 154.5 44.5s55.5 61.167 55.5 94.5
c0 32 -15.833 62.167 -47.5 90.5s-70.5 42.5 -116.5 42.5h-175v-272z" />
    <glyph glyph-name="degree" unicode="&#xb0;" 
d="M578 1214c0 76.667 27.167 142 81.5 196s119.5 81 195.5 81c77.333 0 143 -27 197 -81s81 -119.333 81 -196s-27.167 -142.167 -81.5 -196.5s-119.833 -81.5 -196.5 -81.5c-76 0 -141.167 27 -195.5 81s-81.5 119.667 -81.5 197zM687 1214
c0 -46.667 16.5 -86.5 49.5 -119.5s72.833 -49.5 119.5 -49.5c46 0 85.5 16.5 118.5 49.5s49.5 72.833 49.5 119.5s-16.5 86.5 -49.5 119.5s-72.5 49.5 -118.5 49.5c-46.667 0 -86.5 -16.5 -119.5 -49.5s-49.5 -72.833 -49.5 -119.5z" />
    <glyph glyph-name="plusminus" unicode="&#xb1;" 
d="M772 639l-88.999 -419c-4 -20.667 -10.833 -35.334 -20.5 -44.001s-20.834 -13 -33.501 -13c-10 0 -18.167 3.16699 -24.5 9.5s-9.5 13.5 -9.5 21.5c0 6 1.33301 14.667 4 26l89 419h-372c-18.667 0 -31.334 3 -38.001 9s-10 14.333 -10 25c0 14 5.5 26 16.5 36
s27.5 15 49.5 15h372l89 418c4 20 10.833 34.333 20.5 43s20.834 13 33.501 13c10 0 18.167 -3 24.5 -9s9.5 -13.333 9.5 -22c0 -5.33301 -1.33301 -13.666 -4 -24.999l-89 -418h372c15.333 0 25.5 -1.16699 30.5 -3.5s9.33301 -6.33301 13 -12s5.5 -11.834 5.5 -18.501
c0 -13.333 -5.66699 -25.166 -17 -35.499s-28 -15.5 -50 -15.5h-372zM963.001 0l-707.001 0.00195312c-51.333 0 -79.666 0.666992 -84.999 2c-6.66699 1.33301 -12.334 4.83301 -17.001 10.5s-7 12.5 -7 20.5c0 10.667 3.66699 20.667 11 30s15.666 15.666 24.999 18.999
c7.33301 2 37.666 3 90.999 3l707 -1c52 0 80.333 -0.333008 85 -1c6.66699 -1.33301 12.334 -5 17.001 -11s7 -13 7 -21c0 -10 -3.66699 -19.833 -11 -29.5s-15.666 -15.834 -24.999 -18.501c-7.33301 -2 -37.666 -3 -90.999 -3z" />
    <glyph glyph-name="acute" unicode="&#xb4;" 
d="M1145 1245l-279 -204c-18 -13.333 -32.333 -20 -43 -20c-10 0 -18.167 3.16699 -24.5 9.5s-9.5 14.166 -9.5 23.499c0 8.66699 2 16.5 6 23.5s13.667 16.167 29 27.5l280 204c17.333 13.333 31.333 20 42 20c10 0 18.167 -3.16699 24.5 -9.5s9.5 -14.166 9.5 -23.499
c0 -8.66699 -2 -16.5 -6 -23.5s-13.667 -16.167 -29 -27.5z" />
    <glyph glyph-name="mu" unicode="&#xb5;" 
d="M351 34l-76.998 -363.999c-4.66699 -20 -11.834 -34.333 -21.501 -43s-20.834 -13 -33.501 -13c-9.33301 0 -17.166 3 -23.499 9s-9.5 13 -9.5 21c0 6.66699 1 15.334 3 26.001l237 1111h-113c-18.667 0 -31.334 3 -38.001 9s-10 14.333 -10 25
c0 13.333 5.5 25.166 16.5 35.499s27.5 15.5 49.5 15.5h197l-133 -627c-4.66699 -22 -7 -43.667 -7 -65c0 -41.333 11.833 -72.666 35.5 -93.999s61.834 -32 114.501 -32c58.667 0 125.5 16.833 200.5 50.5s146.167 80.5 213.5 140.5l116 542h-155
c-18.667 0 -31.5 3 -38.5 9s-10.5 14.333 -10.5 25c0 13.333 5.66699 25.166 17 35.499s28 15.5 50 15.5h239l-166 -782h70c15.333 0 25.5 -1 30.5 -3s9.33301 -5.83301 13 -11.5s5.5 -11.834 5.5 -18.501c0 -14 -5.66699 -26 -17 -36s-28 -15 -50 -15h-154l26 123
c-127.333 -104 -263 -156 -407 -156c-66.667 0 -123.334 22.333 -170.001 67z" />
    <glyph glyph-name="paragraph" unicode="&#xb6;" 
d="M1148 1194l-267.999 -1263h131c13.333 0 22 -2 26 -6c6 -4.66699 9 -10.667 9 -18c0 -10 -4 -18.667 -12 -26s-20 -11 -36 -11h-195c-13.333 0 -22 2 -26 6c-6 4.66699 -9 11 -9 19c0 9.33301 4.16699 17.666 12.5 24.999s21.166 11 38.499 11l269 1263h-177l-269 -1263
c12 0 20.667 -1 26 -3c3.33301 -1.33301 6.33301 -3.83301 9 -7.5s4 -8.16699 4 -13.5c0 -10 -4 -18.667 -12 -26s-19.667 -11 -35 -11h-279c-14 0 -23 2 -27 6c-5.33301 4.66699 -8 11 -8 19c0 9.33301 4 17.666 12 24.999s19.667 11 35 11h215l135 633
c-126 8.66699 -223.333 42 -292 100c-50.667 42.667 -76 95.334 -76 158.001c0 10 1.33301 21.667 4 35l21 97c9.33301 44 30 86 62 126c24 29.333 50 52.333 78 69c49.333 30 105.333 55.167 168 75.5s129 30.5 199 30.5h409c13.333 0 22.333 -2.16699 27 -6.5
s7 -10.166 7 -17.499c0 -10 -4 -18.667 -12 -26s-19.667 -11 -35 -11h-129zM851.001 1194c-98.667 -8.66699 -180 -37.833 -244 -87.5s-102 -102.167 -114 -157.5l-16 -77c-2.66699 -11.333 -4 -21.333 -4 -30c0 -54 21.833 -101.333 65.5 -142s107.5 -65 191.5 -73z" />
    <glyph glyph-name="periodcentered" unicode="&#xb7;" 
d="M760 772h37c32 0 58.167 -10 78.5 -30s30.5 -45.667 30.5 -77c0 -43.333 -16.833 -81.5 -50.5 -114.5s-72.5 -49.5 -116.5 -49.5h-36c-32.667 0 -59.167 10 -79.5 30s-30.5 46 -30.5 78c0 42 17 79.667 51 113s72.667 50 116 50z" />
    <glyph glyph-name="periodcentered" unicode="&#x2219;" 
d="M760 772h37c32 0 58.167 -10 78.5 -30s30.5 -45.667 30.5 -77c0 -43.333 -16.833 -81.5 -50.5 -114.5s-72.5 -49.5 -116.5 -49.5h-36c-32.667 0 -59.167 10 -79.5 30s-30.5 46 -30.5 78c0 42 17 79.667 51 113s72.667 50 116 50z" />
    <glyph glyph-name="guillemotright" unicode="&#xbb;" 
d="M802 434l-535 -409.999c-20.667 -15.333 -37 -23 -49 -23c-10.667 0 -19 3 -25 9s-9 14 -9 24c0 7.33301 1.83301 14.5 5.5 21.5s12.5 16.833 26.5 29.5l387 349l-238 350c-10 14 -15 25 -15 33c0 13.333 5.33301 25.166 16 35.499s22.667 15.5 36 15.5
c12 0 25 -8 39 -24zM1271 434.001l-534.999 -409.999c-20.667 -15.333 -37 -23 -49 -23c-10.667 0 -19 3 -25 9s-9 14 -9 24c0 7.33301 1.83301 14.5 5.5 21.5s12.5 16.833 26.5 29.5l388 349l-239 350c-9.33301 14 -14 25 -14 33c0 13.333 5.16699 25.166 15.5 35.499
s22.166 15.5 35.499 15.5c12 0 25 -8 39 -24z" />
    <glyph glyph-name="dotlessi" unicode="&#x131;" 
d="M840 866l-166 -781.998h330c18.667 0 31.334 -2.83301 38.001 -8.5s10 -13.834 10 -24.501c0 -14 -5.5 -26 -16.5 -36s-27.5 -15 -49.5 -15h-744c-18.667 0 -31.334 3 -38.001 9s-10 14.333 -10 25c0 13.333 5.5 25 16.5 35s27.5 15 49.5 15h330l148 697h-245
c-18.667 0 -31.5 3 -38.5 9s-10.5 14.333 -10.5 25c0 13.333 5.66699 25.166 17 35.499s28 15.5 50 15.5h329z" />
    <glyph glyph-name="breve" unicode="&#x2d8;" 
d="M623 1298c10 0 18.002 -2.83496 24.002 -8.50195s9 -12.5 9 -20.5c0 -4 -0.333008 -10.333 -1 -19c-0.666992 -5.33301 -1 -10.333 -1 -15c0 -34 16.5 -64.5 49.5 -91.5s78.5 -40.5 136.5 -40.5c61.333 0 114.833 14.833 160.5 44.5s74.5 63.834 86.5 102.501
c6 18 13.5 30.5 22.5 37.5s19.5 10.5 31.5 10.5c9.33301 0 17.166 -3.16699 23.499 -9.5s9.5 -13.833 9.5 -22.5c0 -24.667 -11.667 -54.667 -35 -90c-30.667 -48 -73.834 -86.333 -129.501 -115s-118.5 -43 -188.5 -43c-82 0 -144.833 19.333 -188.5 58
s-65.5 85.334 -65.5 140.001c0 29.333 5.5 50.333 16.5 63s24.167 19 39.5 19z" />
    <glyph glyph-name="afii10023" unicode="&#x401;" 
d="M461 565l-101.999 -481.001h646l52 248c4.66699 20 11.834 34.333 21.501 43s20.834 13 33.501 13c9.33301 0 17.166 -3 23.499 -9s9.5 -13 9.5 -21c0 -6 -1 -14.667 -3 -26l-71 -332h-927c-18.667 0 -31.334 3 -38.001 9s-10 14.333 -10 25c0 13.333 5.5 25 16.5 35
s27.5 15 49.5 15h113l213 1002h-113c-18.667 0 -31.334 2.83301 -38.001 8.5s-10 14.167 -10 25.5c0 13.333 5.5 25 16.5 35s27.5 15 49.5 15h883l-62 -289c-4 -20.667 -10.833 -35.167 -20.5 -43.5s-20.834 -12.5 -33.501 -12.5c-10 0 -18.167 3 -24.5 9s-9.5 13 -9.5 21
c0 6 1.33301 14.667 4 26l43 205h-601l-93 -437h301l20 95c4.66699 20 11.834 34.333 21.501 43s20.834 13 33.501 13c9.33301 0 17.333 -3 24 -9s10 -13.333 10 -22c0 -5.33301 -1.33301 -13.666 -4 -24.999l-58 -274c-4.66699 -20 -11.834 -34.333 -21.501 -43
s-20.834 -13 -33.501 -13c-9.33301 0 -17.166 3 -23.499 9s-9.5 13.333 -9.5 22c0 6 1 14.333 3 25l20 95h-301zM683.001 1333c-18.667 0 -34.167 6 -46.5 18s-18.5 27.667 -18.5 47c0 24.667 10.167 47.167 30.5 67.5s43.833 30.5 70.5 30.5c19.333 0 35 -6 47 -18
s18 -27 18 -45c0 -26.667 -10.167 -50 -30.5 -70s-43.833 -30 -70.5 -30zM1112 1333c-18.667 0 -34.167 6 -46.5 18s-18.5 27.667 -18.5 47c0 24.667 10.167 47.167 30.5 67.5s43.833 30.5 70.5 30.5c18.667 0 34.167 -6 46.5 -18s18.5 -27 18.5 -45
c0 -26.667 -10.167 -50 -30.5 -70s-43.833 -30 -70.5 -30z" />
    <glyph glyph-name="afii10051" unicode="&#x402;" 
d="M585 428l-75.001 -343.998h93c46.667 0 70 -14 70 -42s-23.333 -42 -70 -42h-282c-47.333 0 -71 14 -71 42s23.667 42 71 42h102l212 1002h-287l-68 -240c-10.667 -37.333 -26.334 -56 -47.001 -56c-26.667 0 -40 12.333 -40 37c0 6.66699 2.66699 19.667 8 39l70 246
c6.66699 24 12.667 39.667 18 47s25 11 59 11h676c46.667 0 70 -14 70 -42c0 -5.33301 -1.33301 -16.333 -4 -33l-29 -239c-5.33301 -42.667 -20.333 -64 -45 -64c-28 0 -42 13.333 -42 40c0 4.66699 1.33301 16 4 34l28 220h-284l-117 -551
c154 104.667 285.333 157 394 157c80 0 141.667 -24.333 185 -73s65 -109.667 65 -183c0 -128.667 -39.5 -239 -118.5 -331s-170.5 -138 -274.5 -138c-31.333 0 -47 14.667 -47 44c0 26.667 19.333 41.667 58 45c92.667 7.33301 164.834 51.166 216.501 131.499
s77.5 162.5 77.5 246.5c0 49.333 -14.167 90.166 -42.5 122.499s-69.166 48.5 -122.499 48.5c-108.667 0 -245.667 -59 -411 -177z" />
    <glyph glyph-name="afii10052" unicode="&#x403;" 
d="M593 1086h-213c-32.667 0 -49 11.333 -49 34c0 33.333 22 50 66 50h978l-80 -375c-8 -38 -26.333 -57 -55 -57c-22 0 -33 10.333 -33 31c0 6 1 14.667 3 26l62 291h-594l-213 -1002h218c32 0 48 -11 48 -33c0 -34 -22 -51 -66 -51h-521c-32 -0 -48 11.333 -48 34
c0 33.333 22 50 66 50h218zM1169 1546l-279 -204c-18 -13.333 -32.333 -20 -43 -20c-10 0 -18.167 3.16699 -24.5 9.5s-9.5 14.166 -9.5 23.499c0 8.66699 2 16.5 6 23.5s13.667 16.167 29 27.5l280 204c17.333 13.333 31.333 20 42 20c10 0 18.167 -3.16699 24.5 -9.5
s9.5 -14.166 9.5 -23.499c0 -8.66699 -2 -16.5 -6 -23.5s-13.667 -16.167 -29 -27.5z" />
    <glyph glyph-name="afii10053" unicode="&#x404;" 
d="M350 649l596.998 0.000976562c38 0 57 -12.667 57 -38c0 -30.667 -25 -46 -75 -46h-597c-13.333 -66 -20 -115.333 -20 -148c0 -94.667 33 -179.334 99 -254.001s153.667 -112 263 -112c133.333 0 266.666 63 399.999 189c14 14 28 21 42 21c22 0 33 -10 33 -30
c0 -34 -53.833 -86.5 -161.5 -157.5s-219.167 -106.5 -334.5 -106.5c-89.333 0 -170 25.167 -242 75.5s-120.833 105.666 -146.5 165.999s-38.5 135.5 -38.5 225.5c0 22 3 45.333 9 70l39 178c30.667 138 104.834 258.333 222.501 361s245.834 154 384.501 154
c138 0 247.333 -47.333 328 -142l12 59c8 37.333 26.333 56 55 56c22 0 33 -10 33 -30c0 -6.66699 -1 -15.334 -3 -26.001l-50 -233c-8 -38 -26 -57 -54 -57c-22.667 0 -34 10.333 -34 31c0 4.66699 0.666992 11.334 2 20.001c1.33301 8 2 16.333 2 25
c0 56.667 -30.667 106.334 -92 149.001s-133.333 64 -216 64c-110.667 0 -214.667 -41 -312 -123s-164.666 -195.667 -201.999 -341z" />
    <glyph glyph-name="afii10054" unicode="&#x405;" 
d="M1146 1086c8 37.333 15.332 59.6611 21.999 66.9941c11.333 11.333 24.333 17 39 17c9.33301 0 17.166 -3 23.499 -9s9.5 -13.333 9.5 -22c0 -5.33301 -1.33301 -13.666 -4 -24.999l-45 -214c-4.66699 -20 -11.834 -34.333 -21.501 -43s-20.834 -13 -33.501 -13
c-9.33301 0 -17.166 3 -23.499 9s-9.5 13.333 -9.5 22c0 4.66699 0.833008 11.5 2.5 20.5s2.5 18.167 2.5 27.5c0 50 -22.667 94.167 -68 132.5s-107.666 57.5 -186.999 57.5c-105.333 0 -191.5 -29.167 -258.5 -87.5s-100.5 -123.166 -100.5 -194.499
c0 -52.667 20 -92.667 60 -120c40 -28 110.333 -50.667 211 -68s168.667 -33 204 -47c49.333 -20 86.666 -47.333 111.999 -82s38 -77.667 38 -129c0 -69.333 -20.5 -136.5 -61.5 -201.5s-103.167 -117.333 -186.5 -157s-169.666 -59.5 -258.999 -59.5
c-72.667 0 -135.667 11.5 -189 34.5s-97 57.167 -131 102.5l-10 -48c-4 -20 -11 -34.333 -21 -43s-21.333 -13 -34 -13c-9.33301 0 -17.166 3 -23.499 9s-9.5 13.333 -9.5 22c0 6 1 14.333 3 25l50 232c4 20.667 10.833 35.334 20.5 44.001s20.834 13 33.501 13
c10 0 18.167 -3 24.5 -9s9.5 -13 9.5 -21c0 -4.66699 -0.833008 -11.667 -2.5 -21s-2.5 -18.666 -2.5 -27.999c0 -57.333 26 -107.5 78 -150.5s126.333 -64.5 223 -64.5c72.667 0 141.667 15.5 207 46.5s114.166 71 146.499 120s48.5 97.833 48.5 146.5
c0 36.667 -9.66699 68.334 -29 95.001s-49 48 -89 64c-26 10.667 -83.667 24 -173 40c-119.333 20.667 -204.666 49.667 -255.999 87c-52 37.333 -78 92 -78 164c0 98 43.667 186.333 131 265s196.666 118 327.999 118c58.667 0 111.334 -9.16699 158.001 -27.5
s87 -46.166 121 -83.499z" />
    <glyph glyph-name="afii10055" unicode="&#x406;" 
d="M888 1086l-213 -1002h288c18.667 0 31.334 -2.83301 38.001 -8.5s10 -13.834 10 -24.501c0 -14 -5.5 -26 -16.5 -36s-27.5 -15 -49.5 -15h-660c-18.667 0 -31.334 3 -38.001 9s-10 14.333 -10 25c0 13.333 5.5 25 16.5 35s27.5 15 49.5 15h288l213 1002h-288
c-18.667 0 -31.334 2.83301 -38.001 8.5s-10 14.167 -10 25.5c0 13.333 5.5 25 16.5 35s27.5 15 49.5 15h659c19.333 0 32.333 -2.83301 39 -8.5s10 -13.834 10 -24.501c0 -14 -5.66699 -26 -17 -36s-27.666 -15 -48.999 -15h-288z" />
    <glyph glyph-name="afii10056" unicode="&#x407;" 
d="M888 1086l-213 -1002h288c18.667 0 31.334 -2.83301 38.001 -8.5s10 -13.834 10 -24.501c0 -14 -5.5 -26 -16.5 -36s-27.5 -15 -49.5 -15h-660c-18.667 0 -31.334 3 -38.001 9s-10 14.333 -10 25c0 13.333 5.5 25 16.5 35s27.5 15 49.5 15h288l213 1002h-288
c-18.667 0 -31.334 2.83301 -38.001 8.5s-10 14.167 -10 25.5c0 13.333 5.5 25 16.5 35s27.5 15 49.5 15h659c19.333 0 32.333 -2.83301 39 -8.5s10 -13.834 10 -24.501c0 -14 -5.66699 -26 -17 -36s-27.666 -15 -48.999 -15h-288zM682 1333c-18.667 0 -34.167 6 -46.5 18
s-18.5 27.667 -18.5 47c0 24.667 10.167 47.167 30.5 67.5s43.833 30.5 70.5 30.5c19.333 0 35 -6 47 -18s18 -27 18 -45c0 -26.667 -10.167 -50 -30.5 -70s-43.833 -30 -70.5 -30zM1111 1333c-18.667 0 -34.167 6 -46.5 18s-18.5 27.667 -18.5 47
c0 24.667 10.167 47.167 30.5 67.5s43.833 30.5 70.5 30.5c18.667 0 34.167 -6 46.5 -18s18.5 -27 18.5 -45c0 -26.667 -10.167 -50 -30.5 -70s-43.833 -30 -70.5 -30z" />
    <glyph glyph-name="afii10057" unicode="&#x408;" 
d="M1174 1086l-157.999 -741.999c-21.333 -102.667 -78.166 -191.167 -170.499 -265.5s-190.5 -111.5 -294.5 -111.5c-64.667 0 -124.167 14.5 -178.5 43.5s-110.5 76.5 -168.5 142.5l66 310c4 20 10.833 34.333 20.5 43s21.167 13 34.5 13c9.33301 0 17.166 -3 23.499 -9
s9.5 -13.333 9.5 -22c0 -6 -1.33301 -14.333 -4 -25l-57 -270c82 -94.667 172.667 -142 272 -142c52.667 0 102.667 11.333 150 34s91.666 58 132.999 106s68 99 80 153l158 742h-330c-18.667 0 -31.334 2.83301 -38.001 8.5s-10 14.167 -10 25.5c0 13.333 5.5 25 16.5 35
s27.5 15 49.5 15h614c18.667 0 31.334 -2.83301 38.001 -8.5s10 -13.834 10 -24.501c0 -14 -5.5 -26 -16.5 -36s-27.5 -15 -49.5 -15h-200z" />
    <glyph glyph-name="afii10058" unicode="&#x409;" 
d="M1015 1086l-84.999 -434c222.667 0 334 -88.333 334 -265c0 -88 -33.167 -174.5 -99.5 -259.5s-189.5 -127.5 -369.5 -127.5h-171c-47.333 0 -71 14 -71 42s23.667 42 71 42h89l212 1002h-212l-146 -685c-38 -177.333 -90.5 -294 -157.5 -350s-138.5 -84 -214.5 -84
c-103.333 0 -155 19.667 -155 59c0 5.33301 2 18.333 6 39l28 130c7.33301 36.667 23.333 55 48 55c25.333 0 38 -15.667 38 -47c0 -6 -0.666992 -12.333 -2 -19l-27 -125c26.667 -6 51.667 -9 75 -9c133.333 0 224.666 117 273.999 351l144 685h-117
c-47.333 0 -71 14 -71 42s23.667 42 71 42h617c47.333 0 71 -14 71 -42s-23.667 -42 -71 -42h-109zM904.001 564l-96 -480.001c77.333 1.33301 140.333 11.333 189 30s89.5 53.834 122.5 105.501s49.5 109.5 49.5 173.5c0 60 -20.833 103.5 -62.5 130.5
s-109.167 40.5 -202.5 40.5z" />
    <glyph glyph-name="afii10059" unicode="&#x40a;" 
d="M694 565h-335l-102 -481h94c32.667 0 49 -11 49 -33c0 -34 -22 -51 -66 -51h-274c-32 -0 -48 11.333 -48 34c0 33.333 22 50 66 50h95l213 1002h-71c-32.667 0 -49 11.333 -49 34c0 33.333 22.333 50 67 50h227c32.667 0 49 -11 49 -33c0 -34 -22.333 -51 -67 -51h-72
l-93 -436h335l93 436h-85c-32 0 -48 11.333 -48 34c0 33.333 22 50 66 50h309c32.667 0 49 -11.333 49 -34c0 -33.333 -22.333 -50 -67 -50h-139l-94 -436h48c277.333 0 416 -93.333 416 -280c0 -99.333 -36.833 -185.833 -110.5 -259.5s-179.5 -110.5 -317.5 -110.5h-334
c-32 -0 -48 11.333 -48 34c0 33.333 22 50 66 50h76zM676 84h168c102.667 0 183.167 27.5 241.5 82.5s87.5 119.5 87.5 193.5c0 136.667 -112.667 205 -338 205h-57z" />
    <glyph glyph-name="afii10060" unicode="&#x40b;" 
d="M606 540c120 100.667 230.334 151.001 331.001 151.001c72.667 0 128.667 -22.333 168 -67s59 -101.334 59 -170.001c0 -28 -4.33301 -62.667 -13 -104l-56 -266h59c46.667 0 70 -14 70 -42s-23.333 -42 -70 -42h-251c-46.667 0 -70 14 -70 42s23.333 42 70 42h106
l56 271c7.33301 36 11 70.667 11 104c0 97.333 -49 146 -147 146c-92.667 0 -207.667 -59.667 -345 -179l-74 -342h99c47.333 0 71 -14 71 -42s-23.667 -42 -71 -42h-288c-47.333 0 -71 14 -71 42s23.667 42 71 42h102l212 1002h-287l-68 -241
c-10.667 -37.333 -26.334 -56 -47.001 -56c-26.667 0 -40 12.667 -40 38c0 6.66699 2.66699 19.667 8 39l70 246c8 29.333 15.5 46.333 22.5 51s25.167 7 54.5 7h681c46.667 0 70 -13.333 70 -40c0 -6 -1.33301 -18 -4 -36l-34 -239c-6 -42.667 -21 -64 -45 -64
c-27.333 0 -41 14 -41 42c0 5.33301 1 16.333 3 33l31 220h-287z" />
    <glyph glyph-name="afii10061" unicode="&#x40c;" 
d="M1272 1086c-54.667 0 -97.001 -12.499 -127.001 -37.499s-115 -124.5 -255 -298.5c-44.667 -54.667 -87 -94 -127 -118c73.333 -31.333 130.333 -116.333 171 -255l87 -293h131c47.333 0 71 -14 71 -42s-23.667 -42 -71 -42h-136c-28 0 -45.667 2.66699 -53 8
s-15.333 21.666 -24 48.999l-85 286c-28.667 96.667 -62.667 161.334 -102 194.001s-90.333 49 -153 49l-68 -1h-25l-106 -501h111c46.667 0 70 -14 70 -42s-23.333 -42 -70 -42h-300c-46.667 0 -70 14 -70 42s23.333 42 70 42h102l212 1002h-110c-47.333 0 -71 14 -71 42
s23.667 42 71 42h299c46.667 0 70 -14 70 -42s-23.333 -42 -70 -42h-102l-87 -415h21c64 0 107.5 3.5 130.5 10.5s49 24 78 51s83.5 90.5 163.5 190.5c90.667 112 155.834 181.333 195.501 208s96.167 40 169.5 40c52.667 0 79 -13.667 79 -41
c0 -6.66699 -2 -19.334 -6 -38.001l-23 -112c-8.66699 -40 -24 -60 -46 -60c-28 0 -42 15.667 -42 47c0 7.33301 1 16 3 26zM1146 1546l-279 -204c-18 -13.333 -32.333 -20 -43 -20c-10 0 -18.167 3.16699 -24.5 9.5s-9.5 14.166 -9.5 23.499c0 8.66699 2 16.5 6 23.5
s13.667 16.167 29 27.5l280 204c17.333 13.333 31.333 20 42 20c10 0 18.167 -3.16699 24.5 -9.5s9.5 -14.166 9.5 -23.499c0 -8.66699 -2 -16.5 -6 -23.5s-13.667 -16.167 -29 -27.5z" />
    <glyph glyph-name="afii10062" unicode="&#x40e;" 
d="M495 1086l219.999 -667l504 667h-64c-46.667 0 -70 14 -70 42s23.333 42 70 42h223c46.667 0 70 -14 70 -42s-23.333 -42 -70 -42h-55l-696 -919c-61.333 -80.667 -114 -134.167 -158 -160.5s-88 -39.5 -132 -39.5c-110 0 -165 20.333 -165 61c0 6 2 19 6 39l26 123
c8.66699 40 24.334 60 47.001 60c28.667 0 43 -13 43 -39c0 -8.66699 -1.66699 -20 -5 -34l-26 -115c34 -7.33301 61.333 -11 82 -11c59.333 0 129 52.333 209 157l96 127l-249 751h-48c-46.667 0 -70 14 -70 42s23.333 42 70 42h231c46.667 0 70 -14 70 -42
s-23.333 -42 -70 -42h-89zM666.999 1599c10 0 18.002 -2.83496 24.002 -8.50195s9 -12.5 9 -20.5c0 -4 -0.333008 -10.333 -1 -19c-0.666992 -5.33301 -1 -10.333 -1 -15c0 -34 16.5 -64.5 49.5 -91.5s78.5 -40.5 136.5 -40.5c61.333 0 114.833 14.833 160.5 44.5
s74.5 63.834 86.5 102.501c6 18 13.5 30.5 22.5 37.5s19.5 10.5 31.5 10.5c9.33301 0 17.166 -3.16699 23.499 -9.5s9.5 -13.833 9.5 -22.5c0 -24.667 -11.667 -54.667 -35 -90c-30.667 -48 -73.834 -86.333 -129.501 -115s-118.5 -43 -188.5 -43
c-82 0 -144.833 19.333 -188.5 58s-65.5 85.334 -65.5 140.001c0 29.333 5.5 50.333 16.5 63s24.167 19 39.5 19z" />
    <glyph glyph-name="afii10145" unicode="&#x40f;" 
d="M678 0l-48 -201c-8.66699 -37.333 -27 -56 -55 -56c-22 0 -33 10 -33 30c0 7.33301 1 16 3 26l48 201h-426c-32 -0 -48 11.333 -48 34c0 33.333 22 50 66 50h83l213 1002h-107c-32 0 -48 11 -48 33c0 34 22 51 66 51h291c32.667 0 49 -11.333 49 -34
c0 -33.333 -22 -50 -66 -50h-101l-213 -1002h557l213 1002h-88c-32.667 0 -49 11 -49 33c0 34 22.333 51 67 51h291c32 0 48 -11.333 48 -34c0 -33.333 -22 -50 -66 -50h-118l-213 -1002h152c32.667 0 49 -11 49 -33c0 -34 -22 -51 -66 -51h-451z" />
    <glyph glyph-name="afii10017" unicode="&#x410;" 
d="M1017 391l-551.998 0.00195312l-179 -307h161c19.333 0 32.333 -2.83301 39 -8.5s10 -13.834 10 -24.501c0 -14 -5.66699 -26 -17 -36s-28 -15 -50 -15h-313c-18.667 0 -31.334 3 -38.001 9s-10 14.333 -10 25c0 13.333 5.5 25 16.5 35s27.5 15 49.5 15h64l585 1002h-248
c-18.667 0 -31.334 2.83301 -38.001 8.5s-10 14.167 -10 25.5c0 13.333 5.5 25 16.5 35s27.5 15 49.5 15h422l180 -1086h65c18.667 0 31.334 -2.83301 38.001 -8.5s10 -13.834 10 -24.501c0 -14 -5.5 -26 -16.5 -36s-27.5 -15 -49.5 -15h-314c-18.667 0 -31.334 3 -38.001 9
s-10 14.333 -10 25c0 13.333 5.5 25 16.5 35s27.5 15 49.5 15h161zM1003 475.002l-102 611h-31l-356 -611h489z" />
    <glyph glyph-name="afii10018" unicode="&#x411;" 
d="M1235 1170l-38 -179c-8 -37.333 -26 -56 -54 -56c-22.667 0 -34 10.333 -34 31c0 6 1.33301 14.333 4 25l20 95h-562l-93 -436h281c285.333 0 428 -93.333 428 -280c0 -99.333 -36.833 -185.833 -110.5 -259.5s-179.5 -110.5 -317.5 -110.5h-616
c-32 -0 -48 11.333 -48 34c0 33.333 22 50 66 50h113l213 1002h-113c-32 0 -48 11.333 -48 34c0 33.333 22 50 66 50h843zM358 84l412.001 0.000976562c105.333 0 186.666 27.667 243.999 83s86 119.666 86 192.999c0 60.667 -23.333 110 -70 148s-140 57 -280 57h-290z" />
    <glyph glyph-name="afii10019" unicode="&#x412;" 
d="M274 84l213.002 1002h-113c-18.667 0 -31.334 2.83301 -38.001 8.5s-10 14.167 -10 25.5c0 13.333 5.5 25 16.5 35s27.5 15 49.5 15h528c92 0 164.167 -23.833 216.5 -71.5s78.5 -105.5 78.5 -173.5c0 -64 -18.667 -121.5 -56 -172.5s-93.333 -95.833 -168 -134.5
c69.333 -26.667 119.333 -60.5 150 -101.5s46 -86.833 46 -137.5c0 -49.333 -13.5 -99.5 -40.5 -150.5s-59.5 -92.333 -97.5 -124s-86.333 -58.834 -145 -81.501c-40 -15.333 -84.333 -23 -133 -23h-628c-18.667 0 -31.334 3 -38.001 9s-10 14.333 -10 25
c0 13.333 5.5 25 16.5 35s27.5 15 49.5 15h113zM478.002 650.001l297 -0.000976562c65.333 0 126 11.833 182 35.5s98.667 57.167 128 100.5s44 83.333 44 120c0 48.667 -19.833 90.834 -59.5 126.501s-95.167 53.5 -166.5 53.5h-332zM358.002 84h425
c56 0 108.833 13.833 158.5 41.5s88.5 63.5 116.5 107.5s42 85.667 42 125c0 66 -28.5 117 -85.5 153s-141.167 54 -252.5 54h-302z" />
    <glyph glyph-name="afii10020" unicode="&#x413;" 
d="M593 1086h-213c-32.667 0 -49 11.333 -49 34c0 33.333 22 50 66 50h978l-80 -375c-8 -38 -26.333 -57 -55 -57c-22 0 -33 10.333 -33 31c0 6 1 14.667 3 26l62 291h-594l-213 -1002h218c32 0 48 -11 48 -33c0 -34 -22 -51 -66 -51h-521c-32 -0 -48 11.333 -48 34
c0 33.333 22 50 66 50h218z" />
    <glyph glyph-name="afii10021" unicode="&#x414;" 
d="M1049 0h-912.999l-50 -232c-8 -36 -23.333 -54 -46 -54c-26 0 -39 12.333 -39 37c0 6 2 18 6 36l50 238c6 26 12.167 42.333 18.5 49s18.5 11 36.5 13c69.333 6.66699 141.666 46.334 216.999 119.001s131.333 195.667 168 369l108 511h-119c-46.667 0 -70 14 -70 42
s23.333 42 70 42h815c46.667 0 70 -14 70 -42s-23.333 -42 -70 -42h-96l-212 -1002h77c46.667 0 70 -13.333 70 -40c0 -6 -2 -18.667 -6 -38l-50 -234c-8 -38.667 -23 -58 -45 -58c-26 0 -39 13 -39 39c0 13.333 1 24.666 3 33.999zM692.001 1086l-108 -513
c-26 -120.667 -59.333 -219 -100 -295s-99 -140.667 -175 -194h596l213 1002h-426z" />
    <glyph glyph-name="afii10022" unicode="&#x415;" 
d="M461 565l-101.999 -481.001h646l52 248c4.66699 20 11.834 34.333 21.501 43s20.834 13 33.501 13c9.33301 0 17.166 -3 23.499 -9s9.5 -13 9.5 -21c0 -6 -1 -14.667 -3 -26l-71 -332h-927c-18.667 0 -31.334 3 -38.001 9s-10 14.333 -10 25c0 13.333 5.5 25 16.5 35
s27.5 15 49.5 15h113l213 1002h-113c-18.667 0 -31.334 2.83301 -38.001 8.5s-10 14.167 -10 25.5c0 13.333 5.5 25 16.5 35s27.5 15 49.5 15h883l-62 -289c-4 -20.667 -10.833 -35.167 -20.5 -43.5s-20.834 -12.5 -33.501 -12.5c-10 0 -18.167 3 -24.5 9s-9.5 13 -9.5 21
c0 6 1.33301 14.667 4 26l43 205h-601l-93 -437h301l20 95c4.66699 20 11.834 34.333 21.501 43s20.834 13 33.501 13c9.33301 0 17.333 -3 24 -9s10 -13.333 10 -22c0 -5.33301 -1.33301 -13.666 -4 -24.999l-58 -274c-4.66699 -20 -11.834 -34.333 -21.501 -43
s-20.834 -13 -33.501 -13c-9.33301 0 -17.166 3 -23.499 9s-9.5 13.333 -9.5 22c0 6 1 14.333 3 25l20 95h-301z" />
    <glyph glyph-name="afii10024" unicode="&#x416;" 
d="M886 1086l-86.999 -415.002c29.333 0 55.833 8.33301 79.5 25s67.167 71.334 130.5 164.001c95.333 140.667 161.5 227.667 198.5 261s85.833 50 146.5 50c45.333 0 68 -13.333 68 -40c0 -6.66699 -2 -19.667 -6 -39l-25 -116c-7.33301 -37.333 -22.333 -56 -45 -56
c-28 0 -42 15.667 -42 47c0 6 1 12.667 3 20l24 99c-26 -0.666992 -50.333 -10.167 -73 -28.5s-67.334 -77.166 -134.001 -176.499c-81.333 -120.667 -145.333 -202.667 -192 -246c58.667 -49.333 100 -135 124 -257l59 -294h55c46.667 0 70 -14 70 -42s-23.333 -42 -70 -42
h-64c-26.667 0 -44.167 2.16699 -52.5 6.5s-15.833 22.833 -22.5 55.5l-54 280c-32 162 -88 243 -168 243h-29l-107 -501h54c47.333 0 71 -14 71 -42s-23.667 -42 -71 -42h-211c-47.333 0 -71 14 -71 42s23.667 42 71 42h71l107 501h-29c-77.333 0 -166 -81 -266 -243
l-183 -298c-14 -22 -24 -34.833 -30 -38.5s-22 -5.5 -48 -5.5h-66c-46.667 0 -70 14 -70 42s23.333 42 70 42h66l185 294c56.667 90 100.334 151.167 131.001 183.5s69.667 56.833 117 73.5c-28.667 39.333 -63.334 141.333 -104.001 306c-14 59.333 -28 98.333 -42 117
s-38.667 28 -74 28l-26 -118c-6.66699 -32 -22 -48 -46 -48c-26.667 0 -40 12 -40 36c0 6 2 17.333 6 34l25 119c5.33301 26 12 42.667 20 50s23 11 45 11c68 0 114.667 -13.5 140 -40.5s53 -98.167 83 -213.5c28.667 -110 50.5 -178.333 65.5 -205s36.5 -40 64.5 -40h23
l88 415h-53c-46.667 0 -70 14 -70 42s23.333 42 70 42h198c46.667 0 70 -14 70 -42s-23.333 -42 -70 -42h-58z" />
    <glyph glyph-name="afii10025" unicode="&#x417;" 
d="M959 615c138 -40 207.001 -120.666 207.001 -241.999c0 -104 -46 -197.667 -138 -281s-228.333 -125 -409 -125c-132.667 0 -246.167 21.5 -340.5 64.5s-141.5 80.5 -141.5 112.5c0 15.333 5.5 27.833 16.5 37.5s20.833 14.5 29.5 14.5
c12.667 0 28.334 -6.66699 47.001 -20c80 -56.667 152.167 -91.667 216.5 -105s125.166 -20 182.499 -20c148.667 0 260 33.167 334 99.5s111 139.166 111 218.499c0 129.333 -126.333 194 -379 194h-102c-48 0 -72 14 -72 42s24 42 72 42h63c170 0 294.667 28 374 84
s119 123.333 119 202c0 54 -25.667 97.5 -77 130.5s-121 49.5 -209 49.5c-226 0 -372.667 -98 -440 -294c-10 -30 -24.333 -45 -43 -45c-24.667 0 -37 12 -37 36c0 5.33301 14 55.666 42 150.999l35 182c5.33301 30 19.666 45 42.999 45c28 0 42 -17.333 42 -52
c0 -30 8.33301 -45 25 -45c7.33301 0 23 6.66699 47 20c99.333 57.333 202 86 308 86c114 0 201.667 -24.667 263 -74s92 -112.666 92 -189.999c0 -153.333 -93.667 -259.333 -281 -318z" />
    <glyph glyph-name="afii10026" unicode="&#x418;" 
d="M1249 1086l-215 -1002h120c32 0 48 -11 48 -33c0 -34 -22 -51 -66 -51h-310c-32 -0 -48 11.333 -48 34c0 33.333 22 50 66 50h106l199 935l-818 -1019h-218c-32 -0 -48 11.333 -48 34c0 33.333 22 50 66 50h104l215 1002h-119c-31.333 0 -47 11.333 -47 34
c0 33.333 22 50 66 50h310c32 0 48 -11 48 -33c0 -34 -22 -51 -66 -51h-107l-204 -959l823 1043h217c32.667 0 49 -11 49 -33c0 -34 -22.333 -51 -67 -51h-104z" />
    <glyph glyph-name="afii10027" unicode="&#x419;" 
d="M1249 1086l-215 -1002h120c32 0 48 -11 48 -33c0 -34 -22 -51 -66 -51h-310c-32 -0 -48 11.333 -48 34c0 33.333 22 50 66 50h106l199 935l-818 -1019h-218c-32 -0 -48 11.333 -48 34c0 33.333 22 50 66 50h104l215 1002h-119c-31.333 0 -47 11.333 -47 34
c0 33.333 22 50 66 50h310c32 0 48 -11 48 -33c0 -34 -22 -51 -66 -51h-107l-204 -959l823 1043h217c32.667 0 49 -11 49 -33c0 -34 -22.333 -51 -67 -51h-104zM704 1599c10 0 18.002 -2.83496 24.002 -8.50195s9 -12.5 9 -20.5c0 -4 -0.333008 -10.333 -1 -19
c-0.666992 -5.33301 -1 -10.333 -1 -15c0 -34 16.5 -64.5 49.5 -91.5s78.5 -40.5 136.5 -40.5c61.333 0 114.833 14.833 160.5 44.5s74.5 63.834 86.5 102.501c6 18 13.5 30.5 22.5 37.5s19.5 10.5 31.5 10.5c9.33301 0 17.166 -3.16699 23.499 -9.5s9.5 -13.833 9.5 -22.5
c0 -24.667 -11.667 -54.667 -35 -90c-30.667 -48 -73.834 -86.333 -129.501 -115s-118.5 -43 -188.5 -43c-82 0 -144.833 19.333 -188.5 58s-65.5 85.334 -65.5 140.001c0 29.333 5.5 50.333 16.5 63s24.167 19 39.5 19z" />
    <glyph glyph-name="afii10028" unicode="&#x41a;" 
d="M1272 1086c-54.667 0 -97.001 -12.499 -127.001 -37.499s-115 -124.5 -255 -298.5c-44.667 -54.667 -87 -94 -127 -118c73.333 -31.333 130.333 -116.333 171 -255l87 -293h131c47.333 0 71 -14 71 -42s-23.667 -42 -71 -42h-136c-28 0 -45.667 2.66699 -53 8
s-15.333 21.666 -24 48.999l-85 286c-28.667 96.667 -62.667 161.334 -102 194.001s-90.333 49 -153 49l-68 -1h-25l-106 -501h111c46.667 0 70 -14 70 -42s-23.333 -42 -70 -42h-300c-46.667 0 -70 14 -70 42s23.333 42 70 42h102l212 1002h-110c-47.333 0 -71 14 -71 42
s23.667 42 71 42h299c46.667 0 70 -14 70 -42s-23.333 -42 -70 -42h-102l-87 -415h21c64 0 107.5 3.5 130.5 10.5s49 24 78 51s83.5 90.5 163.5 190.5c90.667 112 155.834 181.333 195.501 208s96.167 40 169.5 40c52.667 0 79 -13.667 79 -41
c0 -6.66699 -2 -19.334 -6 -38.001l-23 -112c-8.66699 -40 -24 -60 -46 -60c-28 0 -42 15.667 -42 47c0 7.33301 1 16 3 26z" />
    <glyph glyph-name="afii10029" unicode="&#x41b;" 
d="M1218 1086l-211.999 -1002h91c47.333 0 71 -14 71 -42s-23.667 -42 -71 -42h-260c-46.667 0 -70 14 -70 42s23.333 42 70 42h82l212 1002h-425l-146 -685c-36.667 -171.333 -88.167 -286.5 -154.5 -345.5s-138.166 -88.5 -215.499 -88.5
c-42.667 0 -79.5 5.16699 -110.5 15.5s-46.5 24.833 -46.5 43.5c0 5.33301 2 18.333 6 39l28 129c7.33301 37.333 22.333 56 45 56c26.667 0 40 -18.333 40 -55c0 -4 -0.333008 -8 -1 -12l-27 -121c34 -8.66699 61.667 -13 83 -13c49.333 0 99.166 25.833 149.499 77.5
s89.166 143.167 116.499 274.5l145 685h-105c-46.667 0 -70 14 -70 42s23.333 42 70 42h787c47.333 0 71 -14 71 -42s-23.667 -42 -71 -42h-82z" />
    <glyph glyph-name="afii10030" unicode="&#x41c;" 
d="M745 351l-97 0.00292969l-166 735h-16l-213 -1002h155c18.667 0 31.334 -2.83301 38.001 -8.5s10 -13.834 10 -24.501c0 -14 -5.5 -26 -16.5 -36s-27.5 -15 -49.5 -15h-310c-18.667 0 -31.334 3 -38.001 9s-10 14.333 -10 25c0 13.333 5.5 25 16.5 35s27.5 15 49.5 15h70
l213 1002h-52c-18.667 0 -31.334 2.83301 -38.001 8.5s-10 14.167 -10 25.5c0 13.333 5.5 25 16.5 35s27.5 15 49.5 15h206l164 -724l466 724h207c18.667 0 31.334 -2.83301 38.001 -8.5s10 -13.834 10 -24.501c0 -14 -5.5 -26 -16.5 -36s-27.5 -15 -49.5 -15h-52
l-213 -1002h70c19.333 0 32.333 -2.83301 39 -8.5s10 -13.834 10 -24.501c0 -14 -5.66699 -26 -17 -36s-28 -15 -50 -15h-309c-18.667 0 -31.5 3 -38.5 9s-10.5 14.333 -10.5 25c0 13.333 5.66699 25 17 35s28 15 50 15h154l213 1002h-17z" />
    <glyph glyph-name="afii10031" unicode="&#x41d;" 
d="M1018 566l-557.994 0.00292969l-102 -482h95c30.667 0 49.334 -2.83301 56.001 -8.5s10 -13.834 10 -24.501c0 -14 -5.5 -26 -16.5 -36s-27.5 -15 -49.5 -15h-292c-18.667 0 -31 3.83301 -37 11.5s-9 16.834 -9 27.501c0 13.333 5.16699 24.166 15.5 32.499
s26.5 12.5 48.5 12.5h95l213 1002h-94c-28 0 -46.833 2.66699 -56.5 8s-13.834 15 -12.501 29c0 12.667 4.5 23.167 13.5 31.5s27.833 13.833 56.5 16.5h281c24 -3.33301 39.167 -6.16602 45.5 -8.49902s10.5 -10.166 12.5 -23.499c0 -14 -4 -25.667 -12 -35
s-26.333 -15.333 -55 -18h-95l-93 -436h558l92 436h-95c-30.667 0 -49.334 2.83301 -56.001 8.5s-10 14.167 -10 25.5c0 13.333 5.5 25 16.5 35s27.5 15 49.5 15h250c36 -0.666992 59.667 -3.33398 71 -8.00098s17.666 -13 18.999 -25
c1.33301 -14 -2.83398 -25.333 -12.501 -34s-27.167 -14.334 -52.5 -17.001h-95l-213 -1002h94c27.333 1.33301 45.166 -2.5 53.499 -11.5s12.5 -18.833 12.5 -29.5c0 -14 -6.83301 -24.667 -20.5 -32s-34.834 -11 -63.501 -11h-271c-18.667 0 -31.834 2.5 -39.501 7.5
s-11.5 12.833 -11.5 23.5c0 13.333 3 24.666 9 33.999s25 15.666 57 18.999h95z" />
    <glyph glyph-name="afii10032" unicode="&#x41e;" 
d="M609 -33c-114 0 -208.833 41.167 -284.5 123.5s-113.5 193.5 -113.5 333.5c0 110 22 215 66 315s99.333 184.333 166 253s136 120 208 154s145 51 219 51c134.667 0 234.667 -47.167 300 -141.5s98 -197.5 98 -309.5c0 -134 -33.167 -263.333 -99.5 -388
s-151 -221 -254 -289s-204.833 -102 -305.5 -102zM624 51c83.333 0 169.498 29.833 258.498 89.5s161 144 216 253s82.5 219.167 82.5 330.5c0 118.667 -31.667 213.167 -95 283.5s-139.666 105.5 -228.999 105.5c-62.667 0 -124.5 -14.833 -185.5 -44.5
s-119.667 -74.167 -176 -133.5s-103.5 -132.5 -141.5 -219.5s-57 -176.167 -57 -267.5c0 -123.333 31.833 -220.333 95.5 -291s140.834 -106 231.501 -106z" />
    <glyph glyph-name="afii10033" unicode="&#x41f;" 
d="M1130 1086h-557l-213 -1002h113c32 0 48 -11 48 -33c0 -34 -22 -51 -66 -51h-292c-32 -0 -48 11.333 -48 34c0 33.333 22 50 66 50h95l213 1002h-89c-32 0 -48 11.333 -48 34c0 33.333 22 50 66 50h885c32 0 48 -11 48 -33c0 -34 -22 -51 -66 -51h-70l-213 -1002h94
c32.667 0 49 -11 49 -33c0 -34 -22.333 -51 -67 -51h-291c-32 -0 -48 11.333 -48 34c0 33.333 22 50 66 50h112z" />
    <glyph glyph-name="afii10034" unicode="&#x420;" 
d="M564 480l-83.999 -396h288c18.667 0 31.334 -2.83301 38.001 -8.5s10 -13.834 10 -24.501c0 -14 -5.5 -26 -16.5 -36s-27.5 -15 -49.5 -15h-485c-18.667 0 -31.334 3 -38.001 9s-10 14.333 -10 25c0 13.333 5.5 25 16.5 35s27.5 15 49.5 15h113l213 1002h-113
c-18.667 0 -31.334 2.83301 -38.001 8.5s-10 14.167 -10 25.5c0 13.333 5.5 25 16.5 35s27.5 15 49.5 15h488c101.333 0 181 -26.833 239 -80.5s87 -119.167 87 -196.5c0 -45.333 -10.667 -92 -32 -140s-52.666 -91.333 -93.999 -130c-24 -22.667 -58 -45.667 -102 -69
s-82.333 -40.666 -115 -51.999c-44.667 -14.667 -97.334 -22 -158.001 -22h-263zM582.001 564h268c64.667 0 134.334 17.667 209.001 53c55.333 27.333 99.5 65.333 132.5 114s49.5 95 49.5 139c0 60 -22.333 111 -67 153s-105.334 63 -182.001 63h-299z" />
    <glyph glyph-name="afii10035" unicode="&#x421;" 
d="M1219 1055l12.998 58.999c4 20 10.833 34.333 20.5 43s20.834 13 33.501 13c10 0 18.167 -3 24.5 -9s9.5 -13.333 9.5 -22c0 -5.33301 -1.33301 -13.666 -4 -24.999l-50 -233c-4 -20.667 -10.833 -35.334 -20.5 -44.001s-20.834 -13 -33.501 -13
c-9.33301 0 -17.166 3.16699 -23.499 9.5s-9.5 13.5 -9.5 21.5c0 4.66699 0.666992 11.167 2 19.5s2 16.833 2 25.5c0 50.667 -24.667 95.667 -74 135c-64 52 -141.667 78 -233 78c-63.333 0 -127 -14 -191 -42c-48.667 -21.333 -88.667 -47.333 -120 -78
c-58 -56 -106 -115.333 -144 -178c-26 -43.333 -45.333 -94 -58 -152l-31 -147c-6.66699 -31.333 -10 -62.333 -10 -93c0 -106 34.667 -194.5 104 -265.5s155.666 -106.5 258.999 -106.5c70 0 136.833 15.333 200.5 46s129.834 78.334 198.501 143.001
c14.667 14 28.667 21 42 21c10.667 0 18.834 -2.83301 24.501 -8.5s8.5 -12.834 8.5 -21.501c0 -14 -7.33301 -28.667 -22 -44c-64.667 -68.667 -139.167 -122.5 -223.5 -161.5s-165.833 -58.5 -244.5 -58.5c-66.667 0 -130 13.667 -190 41c-44.667 20 -80 43.667 -106 71
c-40 42 -73.167 91.833 -99.5 149.5s-39.5 113.834 -39.5 168.501c0 36 3.66699 71.667 11 107l36 171c18 82.667 58.667 167.5 122 254.5s138.5 153.333 225.5 199s174.5 68.5 262.5 68.5c69.333 0 131.333 -11.833 186 -35.5s102 -59.167 142 -106.5z" />
    <glyph glyph-name="afii10036" unicode="&#x422;" 
d="M887 1086l-213 -1002h218c18.667 0 31.334 -2.83301 38.001 -8.5s10 -13.834 10 -24.501c0 -14 -5.5 -26 -16.5 -36s-27.5 -15 -49.5 -15h-521c-18.667 0 -31.334 3 -38.001 9s-10 14.333 -10 25c0 13.333 5.5 25 16.5 35s27.5 15 49.5 15h218l213 1002h-344l-62 -291
c-4 -20.667 -10.833 -35.334 -20.5 -44.001s-20.834 -13 -33.501 -13c-10 0 -18.167 3.16699 -24.5 9.5s-9.5 13.5 -9.5 21.5c0 6 1.33301 14.667 4 26l80 375h941l-80 -375c-4 -20.667 -11 -35.334 -21 -44.001s-21.333 -13 -34 -13
c-9.33301 0 -17.166 3.16699 -23.499 9.5s-9.5 13.5 -9.5 21.5c0 6 1.33301 14.667 4 26l62 291h-344z" />
    <glyph glyph-name="afii10037" unicode="&#x423;" 
d="M495 1086l219.999 -667l504 667h-64c-46.667 0 -70 14 -70 42s23.333 42 70 42h223c46.667 0 70 -14 70 -42s-23.333 -42 -70 -42h-55l-696 -919c-61.333 -80.667 -114 -134.167 -158 -160.5s-88 -39.5 -132 -39.5c-110 0 -165 20.333 -165 61c0 6 2 19 6 39l26 123
c8.66699 40 24.334 60 47.001 60c28.667 0 43 -13 43 -39c0 -8.66699 -1.66699 -20 -5 -34l-26 -115c34 -7.33301 61.333 -11 82 -11c59.333 0 129 52.333 209 157l96 127l-249 751h-48c-46.667 0 -70 14 -70 42s23.333 42 70 42h231c46.667 0 70 -14 70 -42
s-23.333 -42 -70 -42h-89z" />
    <glyph glyph-name="afii10038" unicode="&#x424;" 
d="M888 1086l-20 -92.001c133.333 0 232.5 -29 297.5 -87s97.5 -135.667 97.5 -233c0 -123.333 -49 -237.166 -147 -341.499s-238.667 -156.5 -422 -156.5l-20 -92h82c44.667 0 67 -9.33301 67 -28c0 -37.333 -28.333 -56 -85 -56h-248c-47.333 -0 -71 11.333 -71 34
c0 33.333 29.667 50 89 50h82l19 92c-133.333 0 -232.5 28.833 -297.5 86.5s-97.5 135.5 -97.5 233.5c0 124 49.167 238 147.5 342s238.833 156 421.5 156l20 92h-76c-31.333 0 -51.833 2.5 -61.5 7.5s-14.5 14.5 -14.5 28.5c0 32.667 24 49 72 49l33 -1h231
c44 0 66 -11 66 -33c0 -34.667 -19.333 -52 -58 -52l-26 1h-81zM765 908.999c-114 -6 -205 -30.166 -273 -72.499s-117 -92.333 -147 -150s-45 -113.834 -45 -168.501c0 -162 109 -247.667 327 -257zM712 261c92.667 6 171 22.6689 235 50.002s118.167 73.166 162.5 137.499
s66.5 132.166 66.5 203.499c0 161.333 -108.667 247 -326 257z" />
    <glyph glyph-name="afii10039" unicode="&#x425;" 
d="M792 599l289.999 -514.994h31c19.333 0 32.333 -2.83301 39 -8.5s10 -13.834 10 -24.501c0 -14 -5.66699 -26 -17 -36s-28 -15 -50 -15h-269c-18.667 0 -31.334 3 -38.001 9s-10 14.333 -10 25c0 13.333 5.5 25 16.5 35s27.5 15 49.5 15h134l-252 446l-438 -446h134
c18.667 0 31.334 -2.83301 38.001 -8.5s10 -13.834 10 -24.501c0 -14 -5.5 -26 -16.5 -36s-27.5 -15 -49.5 -15h-268c-18.667 0 -31.334 3 -38.001 9s-10 14.333 -10 25c0 9.33301 3.33301 18.666 10 27.999s14.667 15.666 24 18.999c6.66699 2 27.667 3 63 3l504 515
l-273 487h-31c-18.667 0 -31.334 2.83301 -38.001 8.5s-10 14.167 -10 25.5c0 13.333 5.5 25 16.5 35s27.5 15 49.5 15h229c18.667 0 31.334 -2.83301 38.001 -8.5s10 -13.834 10 -24.501c0 -14 -5.5 -26 -16.5 -36s-27.5 -15 -49.5 -15h-95l236 -419l411 419h-95
c-18.667 0 -31.334 2.83301 -38.001 8.5s-10 14.167 -10 25.5c0 13.333 5.5 25 16.5 35s27.5 15 49.5 15h230c18.667 0 31.334 -2.83301 38.001 -8.5s10 -13.834 10 -24.501c0 -10 -3.16699 -19.5 -9.5 -28.5s-14.166 -15.167 -23.499 -18.5
c-7.33301 -2.66699 -28.666 -4 -63.999 -4z" />
    <glyph glyph-name="afii10040" unicode="&#x426;" 
d="M1183 84l-68 -285c-8.66699 -37.333 -26.667 -56 -54 -56c-22.667 0 -34 10 -34 30c0 7.33301 1.33301 16 4 26l48 201h-952c-32 -0 -48 11.333 -48 34c0 33.333 22 50 66 50h83l213 1002h-107c-32 0 -48 11 -48 33c0 34 22 51 66 51h291c32.667 0 49 -11.333 49 -34
c0 -33.333 -22 -50 -66 -50h-101l-213 -1002h557l213 1002h-88c-32.667 0 -49 11 -49 33c0 34 22.333 51 67 51h291c32 0 48 -11.333 48 -34c0 -33.333 -22 -50 -66 -50h-118l-213 -1002h229z" />
    <glyph glyph-name="afii10041" unicode="&#x427;" 
d="M888 84l99 464c-155.333 -102.667 -295 -154 -419 -154c-73.333 0 -130.333 19.5 -171 58.5s-61 90.167 -61 153.5c0 26.667 4.66699 62.334 14 107.001l79 373h-94c-46.667 0 -70 14 -70 42s23.333 42 70 42h287c46.667 0 70 -14 70 -42s-23.333 -42 -70 -42h-106
l-80 -380c-7.33301 -32.667 -11 -64.334 -11 -95.001c0 -88 52.333 -132 157 -132c118 0 260 60.333 426 181l92 426h-99c-46.667 0 -70 14 -70 42s23.333 42 70 42h273c46.667 0 70 -14 70 -42s-23.333 -42 -70 -42h-86l-213 -1002h96c46.667 0 70 -14 70 -42
s-23.333 -42 -70 -42h-415c-46.667 0 -70 14 -70 42s23.333 42 70 42h232z" />
    <glyph glyph-name="afii10042" unicode="&#x428;" 
d="M171 84l213 1002h-89c-32 0 -48 11.333 -48 34c0 33.333 22 50 66 50h230c32 0 48 -11 48 -33c0 -34 -22 -51 -66 -51h-57l-213 -1002h334l213 1002h-76c-32 0 -48 11 -48 33c0 34 22 51 66 51h222c32 0 48 -11.333 48 -34c0 -33.333 -22 -50 -66 -50h-62l-212 -1002h334
l213 1002h-71c-32 0 -48 11 -48 33c0 34 22 51 66 51h237c32 0 48 -11.333 48 -34c0 -33.333 -22 -50 -66 -50h-82l-213 -1002h111c32 0 48 -11 48 -33c0 -34 -22 -51 -66 -51h-1127c-32 -0 -48 11.333 -48 34c0 33.333 22 50 66 50h95z" />
    <glyph glyph-name="afii10043" unicode="&#x429;" 
d="M1279 84l-68 -285c-8.66699 -37.333 -26.667 -56 -54 -56c-22.667 0 -34 10 -34 30c0 7.33301 1.33301 16 4 26l48 201h-1117c-32 -0 -48 11.333 -48 34c0 33.333 22 50 66 50h95l213 1002h-89c-32 0 -48 11.333 -48 34c0 33.333 22 50 66 50h230c32 0 48 -11 48 -33
c0 -34 -22 -51 -66 -51h-57l-213 -1002h334l213 1002h-76c-32 0 -48 11 -48 33c0 34 22 51 66 51h222c32 0 48 -11.333 48 -34c0 -33.333 -22 -50 -66 -50h-62l-212 -1002h334l213 1002h-71c-32 0 -48 11 -48 33c0 34 22 51 66 51h237c32 0 48 -11.333 48 -34
c0 -33.333 -22 -50 -66 -50h-82l-213 -1002h187z" />
    <glyph glyph-name="afii10044" unicode="&#x42a;" 
d="M327 1086l-48 -201c-8.66699 -37.333 -27 -56 -55 -56c-22 0 -33 10 -33 30c0 7.33301 1.33301 16 4 26l67 285h657c32 0 48 -11.333 48 -34c0 -33.333 -22 -50 -66 -50h-172l-93 -436h130c285.333 0 428 -93.333 428 -280c0 -108 -39.667 -196.667 -119 -266
s-182.333 -104 -309 -104h-474c-32 -0 -48 11.333 -48 34c0 33.333 22 50 66 50h113l213 1002h-309zM507 84h269.999c102.667 0 183.334 27.5 242.001 82.5s88 119.5 88 193.5c0 67.333 -25.833 118.333 -77.5 153s-142.5 52 -272.5 52h-147z" />
    <glyph glyph-name="afii10045" unicode="&#x42b;" 
d="M484 1086l-93 -436h103c285.333 0 428 -93.333 428 -280c0 -99.333 -36.833 -185.833 -110.5 -259.5s-179.5 -110.5 -317.5 -110.5h-447c-32 -0 -48 11.333 -48 34c0 33.333 22 50 66 50h113l213 1002h-113c-32 0 -48 11.333 -48 34c0 33.333 22 50 66 50h309
c32 0 48 -11.333 48 -34c0 -33.333 -22 -50 -66 -50h-103zM262 84l244 0.000976562c104.667 0 185.667 27.667 243 83s86 119.666 86 192.999c0 67.333 -26 118.333 -78 153s-143 52 -273 52h-120zM1297 1086l-213 -1002h113c32 0 48 -11 48 -33c0 -34 -22 -51 -66 -51h-292
c-32 0 -48 11.333 -48 34c0 33.333 22 50 66 50h95l213 1002h-89c-32 0 -48 11.333 -48 34c0 33.333 22 50 66 50h264c32 0 48 -11 48 -33c0 -34 -22 -51 -66 -51h-91z" />
    <glyph glyph-name="afii10046" unicode="&#x42c;" 
d="M580 1086l-93 -436h272c285.333 0 428 -93.333 428 -280c0 -99.333 -36.833 -185.833 -110.5 -259.5s-179.5 -110.5 -317.5 -110.5h-616c-32 -0 -48 11.333 -48 34c0 33.333 22 50 66 50h113l213 1002h-113c-32 0 -48 11.333 -48 34c0 33.333 22 50 66 50h332
c32 0 48 -11.333 48 -34c0 -33.333 -22 -50 -66 -50h-126zM358 84l412.001 0.000976562c105.333 0 186.666 27.667 243.999 83s86 119.666 86 192.999c0 60.667 -23.333 110 -70 148s-140 57 -280 57h-290z" />
    <glyph glyph-name="afii10047" unicode="&#x42d;" 
d="M1119 546l-569.999 -0.000976562c-38 0 -57 13.667 -57 41c0 29.333 25 44 75 44h571c5.33301 40.667 8 79 8 115c0 120 -31.833 211.167 -95.5 273.5s-145.5 93.5 -245.5 93.5c-188 0 -318.333 -87.667 -391 -263c-18.667 -44.667 -37.334 -67 -56.001 -67
c-28.667 0 -43 12.333 -43 37c0 10 5 34 15 72l43 165c13.333 51.333 23.5 83 30.5 95s18.167 18 33.5 18c25.333 0 38 -11.667 38 -35c0 -19.333 -7 -50.666 -21 -93.999c101.333 104 223.666 156 366.999 156c131.333 0 233.5 -43 306.5 -129s109.5 -196.667 109.5 -332
c0 -194 -60.5 -370.667 -181.5 -530s-286.833 -239 -497.5 -239c-98 0 -188.833 22.167 -272.5 66.5s-125.5 79.833 -125.5 106.5c0 14.667 5.16699 26.167 15.5 34.5s19.5 12.5 27.5 12.5c10 0 22.667 -5.33301 38 -16c68.667 -48 123.5 -80.333 164.5 -97
s92.833 -25 155.5 -25c136.667 0 254.834 45.667 354.501 137s167.5 211.333 203.5 360z" />
    <glyph glyph-name="afii10048" unicode="&#x42e;" 
d="M497 566h-128.999l-102 -482h113c32 0 48 -11 48 -33c0 -34 -22.333 -51 -67 -51h-291c-32 -0 -48 11.333 -48 34c0 33.333 22 50 66 50h95l213 1002h-53c-32 0 -48 11.333 -48 34c0 33.333 22 50 66 50h249c32.667 0 49 -11 49 -33c0 -34 -22 -51 -66 -51h-113l-93 -436
h127c38.667 163.333 104 295.333 196 396s192.667 151 302 151c101.333 0 180.166 -39.833 236.499 -119.5s84.5 -187.167 84.5 -322.5c0 -192 -49.5 -371.333 -148.5 -538s-223.167 -250 -372.5 -250c-102 0 -181.667 43.667 -239 131s-86 196 -86 326
c0 44.667 3.66699 92 11 142zM822.001 51c118 0 218.333 73.668 301 221.001s124 298.666 124 453.999c0 258 -82.333 387 -247 387c-114 0 -214 -71 -300 -213s-129 -292 -129 -450c0 -120 23.167 -216.5 69.5 -289.5s106.833 -109.5 181.5 -109.5z" />
    <glyph glyph-name="afii10049" unicode="&#x42f;" 
d="M1179 1086l-205.999 -1002h100c46.667 0 70 -14 70 -42s-23.333 -42 -70 -42h-293c-46.667 0 -70 14 -70 42s23.333 42 70 42h108l94 474h-144c-43.333 0 -84.166 -12.167 -122.499 -36.5s-89.5 -74.833 -153.5 -151.5s-129.333 -166.334 -196 -269.001
c-36.667 -56 -57.834 -86.833 -63.501 -92.5s-23.834 -8.5 -54.501 -8.5h-100c-46.667 0 -70 14 -70 42s23.333 42 70 42h109c173.333 280 305.333 442 396 486c-72 7.33301 -133 32.333 -183 75s-75 100 -75 172c0 69.333 19.167 133 57.5 191s88 99.5 149 124.5
s145.167 37.5 252.5 37.5h416c46.667 0 70 -14 70 -42s-23.333 -42 -70 -42h-91zM1094 1088h-261.999c-86 0 -150.833 -9 -194.5 -27s-80.834 -48.333 -111.501 -91s-46 -91.667 -46 -147c0 -120 103.667 -180 311 -180h208z" />
    <glyph glyph-name="afii10065" unicode="&#x430;" 
d="M857 0l24.998 121.002c-143.333 -102.667 -284.666 -154 -423.999 -154c-89.333 0 -156.666 20 -201.999 60s-68 90 -68 150c0 91.333 40 169.666 120 234.999c99.333 82 229 123 389 123c76.667 0 165.667 -10.333 267 -31l29 136c2 10 3 20 3 30
c0 38.667 -15.333 69.667 -46 93c-41.333 32 -100.333 48 -177 48c-64.667 0 -164 -20 -298 -60c-15.333 -4.66699 -26.333 -7 -33 -7c-8.66699 0 -16 3 -22 9s-9 14 -9 24c0 12.667 4.83301 24 14.5 34s47.167 23.333 112.5 40c115.333 30 201 45 257 45
c95.333 0 167.166 -21 215.499 -63s72.5 -89.333 72.5 -142c0 -17.333 -2 -34.333 -6 -51l-118 -556h113c18.667 0 31.334 -2.83301 38.001 -8.5s10 -13.834 10 -24.501c0 -14 -5.5 -26 -16.5 -36s-27.5 -15 -49.5 -15h-197zM945.998 418.002
c-75.333 22 -161.334 32.999 -258.001 32.999c-134 0 -241.333 -31 -322 -93c-60.667 -46.667 -91 -100 -91 -160c0 -43.333 15.833 -78.666 47.5 -105.999s80.5 -41 146.5 -41c72.667 0 143.334 14.167 212.001 42.5s143.667 74.833 225 139.5z" />
    <glyph glyph-name="afii10066" unicode="&#x431;" 
d="M368 703c120.667 128.667 265.667 192.998 435 192.998c126 0 225.833 -33.167 299.5 -99.5s110.5 -156.166 110.5 -269.499c0 -146.667 -56.333 -275.667 -169 -387s-253 -167 -421 -167c-133.333 0 -235.333 34.333 -306 103s-106 150 -106 244
c0 76.667 21.667 199.834 65 369.501s104.166 283.667 182.499 342s176.5 87.5 294.5 87.5h191c112 0 176 26.333 192 79c8.66699 28.667 24.334 43 47.001 43c30.667 0 46 -15 46 -45c0 -33.333 -21.5 -68.5 -64.5 -105.5s-117.833 -55.5 -224.5 -55.5h-187
c-107.333 0 -190 -25.333 -248 -76s-103.667 -136 -137 -256zM302 342.998c0 -82.667 27.833 -151.499 83.5 -206.499s138.167 -82.5 247.5 -82.5c139.333 0 255.333 48 348 144s139 203.667 139 323c0 85.333 -28.5 155 -85.5 209s-137.833 81 -242.5 81
c-136.667 0 -252.5 -46.833 -347.5 -140.5s-142.5 -202.834 -142.5 -327.501z" />
    <glyph glyph-name="afii10067" unicode="&#x432;" 
d="M274 84l146 697h-125c-32 0 -48 11.333 -48 34c0 34 22 51 66 51h498c107.333 0 185.5 -18.833 234.5 -56.5s73.5 -85.5 73.5 -143.5c0 -116.667 -81 -189.334 -243 -218.001c167.333 -22.667 251 -94 251 -214c0 -69.333 -26.167 -125.666 -78.5 -168.999
s-156.833 -65 -313.5 -65h-592c-32 -0 -48 11.333 -48 34c0 33.333 22 50 66 50h113zM445 490h265c216 0 324 53 324 159c0 88 -75.333 132 -226 132h-304zM358 84l382 0.000976562c106 0 183 11.667 231 35s72 62.666 72 117.999c0 112.667 -113 169 -339 169h-277z" />
    <glyph glyph-name="afii10068" unicode="&#x433;" 
d="M526 781h-214c-32 0 -48 11.333 -48 34c0 34 22 51 66 51h978l-80 -376c-8 -37.333 -26.333 -56 -55 -56c-22 0 -33 10 -33 30c0 6 1 14.667 3 26l62 291h-594l-146 -697h218c32 0 48 -11 48 -33c0 -34 -22 -51 -66 -51h-521c-32 -0 -48 11.333 -48 34
c0 33.333 22 50 66 50h218z" />
    <glyph glyph-name="afii10069" unicode="&#x434;" 
d="M1038 0l-876.999 0.000976562l-35 -158c-7.33301 -33.333 -22.333 -50 -45 -50c-30 0 -45 12 -45 36c0 5.33301 2 16.333 6 33l34 164c5.33301 26 11.166 42.5 17.499 49.5s18.166 11.167 35.499 12.5c58.667 4.66699 122.834 31.5 192.501 80.5
s117.5 135.167 143.5 258.5l76 355h-110c-47.333 0 -71 14 -71 42c0 28.667 23.667 43 71 43h774c46.667 0 70 -14.333 70 -43c0 -28 -23.333 -42 -70 -42h-82l-148 -697h84c46 0 69 -13.333 69 -40c0 -8.66699 -1.66699 -21.334 -5 -38.001l-35 -160
c-8 -38 -23.333 -57 -46 -57c-27.333 0 -41 15.667 -41 47c0 8 1 16.333 3 25zM626.001 781.001l-76.001 -358c-33.333 -154.667 -92.666 -259.667 -177.999 -315l-35 -24h553l148 697h-412z" />
    <glyph glyph-name="afii10070" unicode="&#x435;" 
d="M1158 413l-855.999 -0.000976562c-2 -20.667 -3 -36.334 -3 -47.001c0 -91.333 31 -166.666 93 -225.999s146 -89 252 -89c62 0 129.333 10.167 202 30.5s135 47.833 187 82.5c15.333 10 27.666 15 36.999 15c8.66699 0 16 -3.16699 22 -9.5s9 -14.5 9 -24.5
c0 -12 -5.33301 -23.333 -16 -34c-30.667 -32.667 -92 -64.834 -184 -96.501s-185.333 -47.5 -280 -47.5c-122.667 0 -221.167 36.333 -295.5 109s-111.5 165 -111.5 277c0 74 16 143.833 48 209.5s74.167 122.334 126.5 170.001s112.666 86.834 180.999 117.501
s142.833 46 223.5 46c114.667 0 206.834 -33.667 276.501 -101s104.5 -153.333 104.5 -258c0 -34.667 -5.33301 -76 -16 -124zM1090 497.999c3.33301 92 -23.999 167.333 -81.999 226c-58.667 58 -137.334 87 -236.001 87c-96 0 -185.667 -28.333 -269 -85
s-144.333 -132.667 -183 -228h770z" />
    <glyph glyph-name="afii10072" unicode="&#x436;" 
d="M821 781l-56.998 -273.999c31.333 0 60.166 9.33301 86.499 28s74.5 69.334 144.5 152.001c62 73.333 110.167 121.5 144.5 144.5s79.5 34.5 135.5 34.5c44 0 66 -13.667 66 -41c0 -6.66699 -2 -19.334 -6 -38.001l-15 -70c-8 -39.333 -23 -59 -45 -59
c-28 0 -42 15.333 -42 46c0 5.33301 1 11.666 3 18.999l15 58c-26 -0.666992 -51.167 -8.33398 -75.5 -23.001s-63.166 -55 -116.499 -121c-80.667 -100 -137.667 -156.667 -171 -170c57.333 -23.333 103.666 -85 138.999 -185l68 -198h50c46.667 0 70 -14 70 -42
s-23.333 -42 -70 -42h-55c-26.667 0 -43.834 2.5 -51.501 7.5s-16.167 20.833 -25.5 47.5l-64 192c-26 78.667 -54.167 127.667 -84.5 147s-60.5 29 -90.5 29h-29l-72 -339h48c46.667 0 70 -14 70 -42s-23.333 -42 -70 -42h-200c-47.333 0 -71 14 -71 42s23.667 42 71 42h67
l72 339h-27c-72 0 -154 -60 -246 -180l-158 -204c-17.333 -22.667 -28.666 -34.834 -33.999 -36.501s-20.333 -2.5 -45 -2.5h-52c-46.667 0 -70 14 -70 42s23.333 42 70 42h63l153 198c49.333 64 85.333 105.167 108 123.5s60 40.833 112 67.5
c-20 20.667 -50 77.334 -90 170.001c-27.333 63.333 -48 102 -62 116s-36.667 21.333 -68 22l-16 -74c-7.33301 -32.667 -25 -49 -53 -49c-24.667 0 -37 12.667 -37 38c0 6.66699 1.66699 17.667 5 33l16 75c5.33301 25.333 12.666 42 21.999 50s29 12 59 12
c55.333 0 95.5 -11.667 120.5 -35s53.833 -73.333 86.5 -150c33.333 -79.333 58.333 -128.166 75 -146.499s37.667 -27.5 63 -27.5h23l59 274h-50c-46.667 0 -70 14 -70 42c0 28.667 23.333 43 70 43h201c46.667 0 70 -14.333 70 -43c0 -28 -23.333 -42 -70 -42h-67z" />
    <glyph glyph-name="afii10073" unicode="&#x437;" 
d="M938 454c126.667 -23.333 189.998 -85.666 189.998 -186.999c0 -78.667 -41.667 -147.334 -125 -206.001s-211.666 -88 -384.999 -88c-100.667 0 -189.5 10.5 -266.5 31.5s-126.5 38.333 -148.5 52s-33 29.5 -33 47.5c0 32 14 48 42 48
c8.66699 0 20.334 -3.66699 35.001 -11c112.667 -56 238.334 -84 377.001 -84c146 0 251 23 315 69s96 93.333 96 142c0 44.667 -29.167 78.834 -87.5 102.501s-160.833 35.5 -307.5 35.5h-83c-46.667 0 -70 14 -70 42s23.333 42 70 42h61c172 0 291.833 18.5 359.5 55.5
s101.5 82.833 101.5 137.5c0 85.333 -92 128 -276 128c-222 0 -361.333 -67.667 -418 -203c-12.667 -30 -27.334 -45 -44.001 -45c-24 0 -36 11.333 -36 34c0 4 4 22 12 54l33 146c8.66699 40.667 16.667 67.334 24 80.001s18.333 19 33 19c26 0 39 -13.667 39 -41
c0 -8.66699 -1.33301 -19.334 -4 -32.001l-12 -52c81.333 83.333 212.666 125 393.999 125c110.667 0 196.334 -18.833 257.001 -56.5s91 -88.834 91 -153.501c0 -106 -78 -183.333 -234 -232z" />
    <glyph glyph-name="afii10074" unicode="&#x438;" 
d="M1101 866h194c32.667 0 49 -11.333 49 -34c0 -34 -22 -51 -66 -51h-87l-149 -697h88c32 0 48 -11 48 -33c0 -34 -22 -51 -66 -51h-266c-32.667 -0 -49 11.333 -49 34c0 33.333 22 50 66 50h94l141 664l-772 -748h-197c-32 -0 -48 11.333 -48 34c0 33.333 22 50 66 50h89
l152 697h-100c-32 0 -48 11.333 -48 34c0 34 22 51 66 51h285c32 0 48 -11.333 48 -34c0 -34 -22 -51 -66 -51h-100l-144 -667z" />
    <glyph glyph-name="afii10075" unicode="&#x439;" 
d="M1101 866h194c32.667 0 49 -11.333 49 -34c0 -34 -22 -51 -66 -51h-87l-149 -697h88c32 0 48 -11 48 -33c0 -34 -22 -51 -66 -51h-266c-32.667 -0 -49 11.333 -49 34c0 33.333 22 50 66 50h94l141 664l-772 -748h-197c-32 -0 -48 11.333 -48 34c0 33.333 22 50 66 50h89
l152 697h-100c-32 0 -48 11.333 -48 34c0 34 22 51 66 51h285c32 0 48 -11.333 48 -34c0 -34 -22 -51 -66 -51h-100l-144 -667zM594 1298c10 0 18.002 -2.83496 24.002 -8.50195s9 -12.5 9 -20.5c0 -4 -0.333008 -10.333 -1 -19c-0.666992 -5.33301 -1 -10.333 -1 -15
c0 -34 16.5 -64.5 49.5 -91.5s78.5 -40.5 136.5 -40.5c61.333 0 114.833 14.833 160.5 44.5s74.5 63.834 86.5 102.501c6 18 13.5 30.5 22.5 37.5s19.5 10.5 31.5 10.5c9.33301 0 17.166 -3.16699 23.499 -9.5s9.5 -13.833 9.5 -22.5c0 -24.667 -11.667 -54.667 -35 -90
c-30.667 -48 -73.834 -86.333 -129.501 -115s-118.5 -43 -188.5 -43c-82 0 -144.833 19.333 -188.5 58s-65.5 85.334 -65.5 140.001c0 29.333 5.5 50.333 16.5 63s24.167 19 39.5 19z" />
    <glyph glyph-name="afii10076" unicode="&#x43a;" 
d="M1179 781c-38 0 -72.168 -7.16699 -102.501 -21.5s-82.5 -58.5 -156.5 -132.5c-80 -79.333 -148.333 -131.666 -205 -156.999c72 -18.667 133.333 -81.667 184 -189l93 -197h122c47.333 0 71 -14 71 -42s-23.667 -42 -71 -42h-122c-27.333 0 -44.5 2.16699 -51.5 6.5
s-16.167 18.833 -27.5 43.5l-96 203c-35.333 75.333 -73.166 122.5 -113.499 141.5s-111.5 28.5 -213.5 28.5h-25l-71 -339h102c46.667 0 70 -14 70 -42s-23.333 -42 -70 -42h-288c-46.667 0 -70 14 -70 42s23.333 42 70 42h100l149 697h-102c-47.333 0 -71 14 -71 42
c0 28.667 23.667 43 71 43h287c46.667 0 70 -14.333 70 -43c0 -28 -23.333 -42 -70 -42h-100l-59 -274h21c79.333 0 135.5 8.33301 168.5 25s98.833 72.667 197.5 168c70 68.667 125.5 113.667 166.5 135s94.833 32 161.5 32c48 0 72 -14.333 72 -43
c0 -6 -0.666992 -12.333 -2 -19c-2 -8 -3.33301 -14 -4 -18l-19 -114c-6 -35.333 -21 -53 -45 -53c-28.667 0 -43 12.667 -43 38c0 3.33301 1.33301 11.666 4 24.999z" />
    <glyph glyph-name="afii10077" unicode="&#x43b;" 
d="M1123 781l-146.999 -697h84c46.667 0 70 -14 70 -42s-23.333 -42 -70 -42h-250c-47.333 0 -71 14 -71 42s23.667 42 71 42h80l149 697h-413l-103 -483c-46.667 -216.667 -161.334 -325 -344.001 -325c-98.667 0 -148 17.667 -148 53c0 10 2 25.333 6 46l14 79
c6.66699 36 21.334 54 44.001 54c28 0 42 -15 42 -45c0 -6.66699 -0.666992 -13.667 -2 -21l-13 -78c25.333 -4 47.666 -6 66.999 -6c132 0 215 81 249 243l103 483h-110c-46.667 0 -70 14 -70 42c0 28.667 23.333 43 70 43h774c47.333 0 71 -14.333 71 -43
c0 -28 -23.667 -42 -71 -42h-82z" />
    <glyph glyph-name="afii10078" unicode="&#x43c;" 
d="M708 84h-127l-170 697h-12l-146 -697h155c32 0 48 -11 48 -33c0 -34 -22 -51 -66 -51h-310c-32 -0 -48 11.333 -48 34c0 33.333 22 50 66 50h70l146 697h-52c-32 0 -48 11.333 -48 34c0 34 22 51 66 51h206l167 -709l454 709h216c32 0 48 -11.333 48 -34
c0 -34 -22 -51 -66 -51h-52l-146 -697h70c32.667 0 49 -11 49 -33c0 -34 -22.333 -51 -67 -51h-309c-32.667 -0 -49 11.333 -49 34c0 33.333 22.333 50 67 50h154l146 697h-12z" />
    <glyph glyph-name="afii10079" unicode="&#x43d;" 
d="M985 406h-557l-68 -322h113c32 0 48 -11 48 -33c0 -34 -22 -51 -66 -51h-292c-32 -0 -48 11.333 -48 34c0 33.333 22 50 66 50h95l146 697h-77c-32 0 -48 11.333 -48 34c0 34 22 51 66 51h249c32.667 0 49 -11.333 49 -34c0 -34 -22 -51 -66 -51h-89l-60 -291h556l61 291
h-85c-32 0 -48 11.333 -48 34c0 34 22 51 66 51h249c32 0 48 -11.333 48 -34c0 -34 -22 -51 -66 -51h-79l-146 -697h112c32.667 0 49 -11 49 -33c0 -34 -22.333 -51 -67 -51h-291c-32 -0 -48 11.333 -48 34c0 33.333 22 50 66 50h94z" />
    <glyph glyph-name="afii10080" unicode="&#x43e;" 
d="M604 -33c-110 0 -200.331 34.834 -270.998 104.501s-106 158.167 -106 265.5c0 87.333 26.667 176.166 80 266.499s126.5 161.666 219.5 213.999s187.167 78.5 282.5 78.5c109.333 0 199.333 -34.667 270 -104s106 -155.666 106 -258.999
c0 -90.667 -25.833 -180.667 -77.5 -270s-124.334 -161 -218.001 -215s-188.834 -81 -285.501 -81zM623.002 51.001c78.667 0 156.501 22.166 233.501 66.499s136.667 103.166 179 176.499s63.5 147 63.5 221c0 84 -29 154.333 -87 211s-132 85 -222 85
c-64.667 0 -124.834 -12.833 -180.501 -38.5s-105 -58.667 -148 -99s-78.5 -88.666 -106.5 -144.999s-42 -114.5 -42 -174.5c0 -87.333 29 -159.666 87 -216.999s132.333 -86 223 -86z" />
    <glyph glyph-name="afii10081" unicode="&#x43f;" 
d="M1063 781h-557l-146 -697h113c32 0 48 -11 48 -33c0 -34 -22 -51 -66 -51h-292c-32 -0 -48 11.333 -48 34c0 33.333 22 50 66 50h95l146 697h-89c-32 0 -48 11.333 -48 34c0 34 22 51 66 51h885c32 0 48 -11.333 48 -34c0 -34 -22 -51 -66 -51h-64l-152 -697h94
c32.667 0 49 -11 49 -33c0 -34 -22.333 -51 -67 -51h-291c-32 -0 -48 11.333 -48 34c0 33.333 22 50 66 50h112z" />
    <glyph glyph-name="afii10082" unicode="&#x440;" 
d="M482 866l-31.999 -152.998c64 62 127.833 108 191.5 138s134.167 45 211.5 45c111.333 0 200 -32.167 266 -96.5s99 -147.5 99 -249.5c0 -135.333 -55.5 -257.333 -166.5 -366s-239.167 -163 -384.5 -163c-149.333 0 -257.666 61 -324.999 183l-108 -506h203
c15.333 0 25.5 -1 30.5 -3s9.33301 -5.83301 13 -11.5s5.5 -11.834 5.5 -18.501c0 -14 -5.66699 -26 -17 -36s-28 -15 -50 -15h-400c-18.667 0 -31.334 3 -38.001 9s-10 14 -10 24c0 14 5.5 26 16.5 36s27.5 15 49.5 15h113l230 1083h-113c-18.667 0 -31.334 3 -38.001 9
s-10 14.333 -10 25c0 13.333 5.5 25.166 16.5 35.499s27.5 15.5 49.5 15.5h197zM682.001 106.002c119.333 0 223.999 43.668 313.999 131.001s135 186.666 135 297.999c0 78 -27.5 143.5 -82.5 196.5s-125.167 79.5 -210.5 79.5c-119.333 0 -224.166 -43.667 -314.499 -131
s-135.5 -184.666 -135.5 -291.999c0 -80.667 27.5 -147.834 82.5 -201.501s125.5 -80.5 211.5 -80.5z" />
    <glyph glyph-name="afii10083" unicode="&#x441;" 
d="M1131 781c8 38 15.667 60.6709 23 68.0039c11.333 11.333 24 17 38 17c9.33301 0 17.166 -3.16699 23.499 -9.5s9.5 -13.5 9.5 -21.5c0 -6 -1 -14.667 -3 -26l-41 -190c-4.66699 -20.667 -11.834 -35.334 -21.501 -44.001s-20.5 -13 -32.5 -13c-10 0 -18.167 3 -24.5 9
s-9.5 13 -9.5 21c0 4 0.666992 10.667 2 20c0.666992 5.33301 1 10.666 1 15.999c0 45.333 -21.333 84.333 -64 117c-56 44 -130.333 66 -223 66c-81.333 0 -158 -19.833 -230 -59.5s-130.333 -98.834 -175 -177.501s-67 -156.334 -67 -233.001
c0 -87.333 27.667 -157.5 83 -210.5s132 -79.5 230 -79.5c64 0 132.333 11.833 205 35.5s142.667 62.5 210 116.5c16.667 13.333 30.667 20 42 20c9.33301 0 17 -2.83301 23 -8.5s9 -13.167 9 -22.5c0 -13.333 -6.66699 -27 -20 -41
c-47.333 -49.333 -118.166 -92.333 -212.499 -129s-189.5 -55 -285.5 -55c-112.667 0 -202.667 32.5 -270 97.5s-101 149.5 -101 253.5c0 79.333 16.833 155 50.5 227s76.334 133 128.001 183s111 90.5 178 121.5s141.833 46.5 224.5 46.5c64.667 0 122 -9.5 172 -28.5
s92.667 -47.833 128 -86.5z" />
    <glyph glyph-name="afii10084" unicode="&#x442;" 
d="M820 781l-146 -697h219c32 0 48 -11 48 -33c0 -34 -22 -51 -66 -51h-521c-32 -0 -48 11.333 -48 34c0 33.333 22 50 66 50h218l146 697h-344l-62 -291c-8 -37.333 -26.333 -56 -55 -56c-22 0 -33 10 -33 30c0 6 1.33301 14.667 4 26l79 376h942l-80 -376
c-8 -37.333 -26.333 -56 -55 -56c-22 0 -33 10 -33 30c0 6 1 14.667 3 26l62 291h-344z" />
    <glyph glyph-name="afii10085" unicode="&#x443;" 
d="M441 781l213.999 -644.001l489 644h-60c-47.333 0 -71 14 -71 42c0 28.667 23.667 43 71 43h213c46.667 0 70 -14.333 70 -43c0 -28 -23.333 -42 -70 -42h-52l-675 -890c-61.333 -80.667 -113 -133.667 -155 -159s-89.667 -38 -143 -38
c-35.333 0 -68.166 5.83301 -98.499 17.5s-45.5 27.834 -45.5 48.501c0 6 2 18 6 36l25 118c8 40 23.667 60 47 60c27.333 0 41 -14.333 41 -43c0 -9.33301 -1.33301 -20.333 -4 -33l-25 -109c22 -6.66699 45.667 -10 71 -10c36 0 69.833 12 101.5 36s67.5 63 107.5 117
l92 123l-240 726h-45c-46.667 0 -70 14 -70 42c0 28.667 23.333 43 70 43h222c46.667 0 70 -14.333 70 -43c0 -28 -23.333 -42 -70 -42h-86z" />
    <glyph glyph-name="afii10086" unicode="&#x444;" 
d="M837 861c44 23.333 88.668 34.999 134.001 34.999c83.333 0 144.833 -31.5 184.5 -94.5s59.5 -139.5 59.5 -229.5c0 -151.333 -41.667 -290 -125 -416s-183.333 -189 -300 -189c-56 0 -100 15.667 -132 47l-54 -251h181c46 0 69 -14.333 69 -43c0 -28 -23 -42 -69 -42
h-444c-46 0 -69 14 -69 42c0 28.667 23 43 69 43h179l45 229c-48 -14 -94.333 -21 -139 -21c-62 0 -116.667 28 -164 84s-71 132.667 -71 230c0 146.667 41.5 285.167 124.5 415.5s186.5 195.5 310.5 195.5c47.333 0 88.666 -15.333 123.999 -46l62 295l-113 -10
c-11.333 -0.666992 -20.333 -1 -27 -1c-32 0 -48 14 -48 42c0 26 23 40.667 69 44l140 9c15.333 1.33301 25 2 29 2c29.333 0 44 -13.667 44 -41c0 -7.33301 -2 -20.666 -6 -39.999zM678.001 110.999c28 -38 65.667 -57 113 -57c87.333 0 164.333 53.333 231 160
s100 223 100 349c0 165.333 -56 248 -168 248c-47.333 0 -93 -18.333 -137 -55zM593.001 110.999l138.001 647.001c-22.667 35.333 -59.334 53 -110.001 53c-90.667 0 -169.5 -55.833 -236.5 -167.5s-100.5 -226.834 -100.5 -345.501c0 -162.667 57.667 -244 173 -244
c50 0 95.333 19 136 57z" />
    <glyph glyph-name="afii10087" unicode="&#x445;" 
d="M769 453l305.999 -368.995c24 0 38.833 -0.833008 44.5 -2.5s10.334 -5.33398 14.001 -11.001s5.5 -12.167 5.5 -19.5c0 -14 -5.5 -26 -16.5 -36s-27.5 -15 -49.5 -15h-271c-18.667 0 -31.334 3 -38.001 9s-10 14.333 -10 25c0 13.333 5.5 25 16.5 35s27.5 15 49.5 15
h140l-261 313l-391 -313h140c18.667 0 31.334 -2.83301 38.001 -8.5s10 -13.834 10 -24.501c0 -14 -5.5 -26 -16.5 -36s-27.5 -15 -49.5 -15h-273c-18.667 0 -31.334 3 -38.001 9s-10 14.333 -10 25c0 9.33301 3 18.333 9 27s13.667 15 23 19
c6.66699 2.66699 23.334 4 50.001 4l463 369l-272 328c-22.667 0 -36.667 1 -42 3s-10 5.83301 -14 11.5s-6 12.167 -6 19.5c0 13.333 5.5 25.166 16.5 35.499s27.5 15.5 49.5 15.5h230c18.667 0 31 -2.66699 37 -8c7.33301 -6.66699 11 -15.334 11 -26.001
c0 -13.333 -5.5 -25.166 -16.5 -35.499s-27.5 -15.5 -49.5 -15.5h-101l226 -273l343 273h-100c-18.667 0 -31.5 3 -38.5 9s-10.5 14.333 -10.5 25c0 13.333 5.5 25.166 16.5 35.499s27.833 15.5 50.5 15.5h229c18.667 0 30.667 -2.66699 36 -8
c8 -6.66699 12 -15.334 12 -26.001c0 -8.66699 -3 -17.5 -9 -26.5s-13.167 -15.333 -21.5 -19s-24.833 -5.5 -49.5 -5.5z" />
    <glyph glyph-name="afii10088" unicode="&#x446;" 
d="M1183 84l-68 -285c-8.66699 -37.333 -27 -56 -55 -56c-22 0 -33 10 -33 30c0 7.33301 1.33301 16 4 26l47 201h-915c-32 -0 -48 11.333 -48 34c0 33.333 22 50 66 50h64l153 697h-95c-32 0 -48 11.333 -48 34c0 34 22 51 66 51h292c32 0 48 -11.333 48 -34
c0 -34 -22 -51 -66 -51h-113l-146 -697h557l146 697h-112c-32.667 0 -49 11.333 -49 34c0 34 22.333 51 67 51h291c32 0 48 -11.333 48 -34c0 -34 -22 -51 -66 -51h-94l-146 -697h205z" />
    <glyph glyph-name="afii10089" unicode="&#x447;" 
d="M894 84l66.001 312c-142.667 -76 -276 -114 -400 -114c-72.667 0 -129.667 14.833 -171 44.5s-62 70.5 -62 122.5c0 24.667 4.33301 56.667 13 96l50 236h-85c-46.667 0 -70 14 -70 42c0 28.667 23.333 43 70 43h274c47.333 0 71 -14.333 71 -43
c0 -28 -23.667 -42 -71 -42h-104l-51 -236c-6.66699 -32 -10 -59.667 -10 -83c0 -64.667 52.667 -97 158 -97c111.333 0 246.666 43.333 405.999 130l64 286h-91c-46.667 0 -70 14 -70 42c0 28.667 23.333 43 70 43h267c47.333 0 71 -14.333 71 -43
c0 -28 -23.667 -42 -71 -42h-90l-148 -697h86c46.667 0 70 -14 70 -42s-23.333 -42 -70 -42h-399c-46.667 0 -70 14 -70 42s23.333 42 70 42h227z" />
    <glyph glyph-name="afii10090" unicode="&#x448;" 
d="M171 84l146 697h-89c-32 0 -48 11.333 -48 34c0 34 22 51 66 51h230c32 0 48 -11.333 48 -34c0 -34 -22 -51 -66 -51h-57l-146 -697h334l146 697h-76c-32 0 -48 11.333 -48 34c0 34 22 51 66 51h222c32 0 48 -11.333 48 -34c0 -34 -22 -51 -66 -51h-61l-146 -697h334
l146 697h-71c-32 0 -48 11.333 -48 34c0 34 22 51 66 51h237c32.667 0 49 -11.333 49 -34c0 -34 -22.333 -51 -67 -51h-82l-146 -697h111c32 0 48 -11 48 -33c0 -34 -22 -51 -66 -51h-1127c-32 -0 -48 11.333 -48 34c0 33.333 22 50 66 50h95z" />
    <glyph glyph-name="afii10091" unicode="&#x449;" 
d="M1297 84l-68 -285c-8.66699 -37.333 -26.667 -56 -54 -56c-22.667 0 -34 10 -34 30c0 7.33301 1.33301 16 4 26l48 201h-1135c-32 -0 -48 11.333 -48 34c0 33.333 22 50 66 50h95l146 697h-89c-32 0 -48 11.333 -48 34c0 34 22 51 66 51h230c32 0 48 -11.333 48 -34
c0 -34 -22 -51 -66 -51h-57l-146 -697h334l146 697h-76c-32 0 -48 11.333 -48 34c0 34 22 51 66 51h222c32 0 48 -11.333 48 -34c0 -34 -22 -51 -66 -51h-61l-146 -697h334l146 697h-71c-32 0 -48 11.333 -48 34c0 34 22 51 66 51h237c32.667 0 49 -11.333 49 -34
c0 -34 -22.333 -51 -67 -51h-82l-146 -697h205z" />
    <glyph glyph-name="afii10092" unicode="&#x44a;" 
d="M279 781l-48.001 -200c-8.66699 -38 -27 -57 -55 -57c-22 0 -33 10 -33 30c0 7.33301 1.33301 16.333 4 27l67 285h603c32 0 48 -11.333 48 -34c0 -34 -22 -51 -66 -51h-132l-62 -291h178c121.333 0 213.5 -17.5 276.5 -52.5s94.5 -96.5 94.5 -184.5
c0 -76.667 -28.167 -138 -84.5 -184s-159.166 -69 -308.499 -69h-455c-32 -0 -48 11.333 -48 34c0 33.333 22 50 66 50h112l146 697h-303zM520.999 84l246 -0.000976562c106.667 0 183.667 11.833 231 35.5s71 64.834 71 123.501c0 62 -26.333 104.667 -79 128
s-139 35 -259 35h-141z" />
    <glyph glyph-name="afii10093" unicode="&#x44b;" 
d="M440 781l-62.001 -291h187c247.333 0 371 -79 371 -237c0 -70.667 -22.167 -130.5 -66.5 -179.5s-153.166 -73.5 -326.499 -73.5h-464c-32 -0 -48 11.333 -48 34c0 33.333 22 50 66 50h113l146 697h-125c-32 0 -48 11.333 -48 34c0 34 22 51 66 51h341
c32 0 48 -11.333 48 -34c0 -34 -22 -51 -66 -51h-132zM293.999 84h254.002c113.333 0 192.166 12 236.499 36s66.5 65 66.5 123c0 60.667 -24.333 103 -73 127s-137.334 36 -266.001 36h-149zM1261 781l-146 -697h75c32 0 48 -11 48 -33c0 -34 -22 -51 -66 -51h-217
c-32.667 -0 -49 11.333 -49 34c0 33.333 22.333 50 67 50h58l146 697h-64c-32.667 0 -49 11.333 -49 34c0 34 22 51 66 51h208c32 0 48 -11.333 48 -34c0 -34 -22 -51 -66 -51h-59z" />
    <glyph glyph-name="afii10094" unicode="&#x44c;" 
d="M504 781l-62 -291h315c122.667 0 215 -21.5 277 -64.5s93 -102.5 93 -178.5c0 -80 -28.167 -141.167 -84.5 -183.5s-158.833 -63.5 -307.5 -63.5h-592c-32 -0 -48 11.333 -48 34c0 33.333 22 50 66 50h113l146 697h-125c-32 0 -48 11.333 -48 34c0 34 22 51 66 51h355
c32 0 48 -11.333 48 -34c0 -34 -22 -51 -66 -51h-146zM358 84h382.001c105.333 0 182.166 12.5 230.499 37.5s72.5 64.833 72.5 119.5c0 54 -24.5 95 -73.5 123s-137.5 42 -265.5 42h-277z" />
    <glyph glyph-name="afii10095" unicode="&#x44d;" 
d="M1075 407l-513.997 -0.000976562c-47.333 0 -71 14 -71 42s23.667 42 71 42h534c0.666992 16.667 1 29.667 1 39c0 68 -24.167 131.833 -72.5 191.5s-133.5 89.5 -255.5 89.5c-194 0 -321.667 -74.333 -383 -223c-12.667 -30.667 -28.334 -46 -47.001 -46
c-26.667 0 -40 16 -40 48c0 11.333 1.33301 27.333 4 48l16 128c5.33301 39.333 11.333 65.833 18 79.5s18 20.5 34 20.5c25.333 0 38 -14.333 38 -43c0 -16.667 -2.33301 -45.667 -7 -87c99.333 106.667 227.333 160 384 160c123.333 0 221.666 -35.167 294.999 -105.5
s110 -164.166 110 -281.499c0 -135.333 -56.333 -259.5 -169 -372.5s-251 -169.5 -415 -169.5c-106 0 -207 27 -303 81s-144 93.667 -144 119c0 30.667 14 46 42 46c12.667 0 30.667 -9.66699 54 -29c105.333 -88.667 223.333 -133 354 -133
c120.667 0 224.167 37.333 310.5 112s138.166 156 155.499 244z" />
    <glyph glyph-name="afii10096" unicode="&#x44e;" 
d="M518 406l-169.999 -0.000976562l-68 -322h113c32 0 48 -11 48 -33c0 -34 -22 -51 -66 -51h-292c-32 0 -48 11.333 -48 34c0 33.333 22 50 66 50h95l146 697h-77c-32 0 -48 11.333 -48 34c0 34 22 51 66 51h250c32 0 48 -11.333 48 -34c0 -34 -22 -51 -66 -51h-89
l-60 -291h167c31.333 117.333 88 214.333 170 291s172.333 115 271 115c89.333 0 161.333 -31.167 216 -93.5s82 -150.166 82 -263.499c0 -93.333 -20.167 -188.5 -60.5 -285.5s-93.5 -169.167 -159.5 -216.5s-137.667 -71 -215 -71
c-106.667 0 -187.334 35.167 -242.001 105.5s-82 159.833 -82 268.5c0 21.333 1.66699 43.333 5 66zM847.001 49.999c104 0 186.833 49.332 248.5 147.999s92.5 208.334 92.5 329.001c0 99.333 -21.333 171.5 -64 216.5s-95.667 67.5 -159 67.5
c-102.667 0 -189.5 -48.333 -260.5 -145s-106.5 -201.667 -106.5 -315c0 -89.333 21.5 -161.833 64.5 -217.5s104.5 -83.5 184.5 -83.5z" />
    <glyph glyph-name="afii10097" unicode="&#x44f;" 
d="M1128 779l-151.001 -694.997h102c46.667 0 70 -14 70 -42s-23.333 -42 -70 -42h-305c-46.667 0 -70 14 -70 42s23.333 42 70 42h116l65 296h-157c-42.667 0 -85.5 -11.333 -128.5 -34s-98.667 -66.334 -167 -131.001s-127.166 -127.334 -176.499 -188.001
c-12.667 -14.667 -22 -22.834 -28 -24.501s-20.667 -2.5 -44 -2.5h-110c-46.667 0 -70 14 -70 42s23.333 42 70 42h124c108 125.333 215.667 226 323 302c-156.667 18 -235 85.333 -235 202c0 79.333 32.167 145.5 96.5 198.5s161.5 79.5 291.5 79.5h481
c48 0 72 -14.667 72 -44c0 -28.667 -24 -43 -72 -43h-97zM1040 779.003h-269c-112 0 -193.833 -15.333 -245.5 -46s-77.5 -77 -77.5 -139c0 -87.333 84.667 -131 254 -131h271z" />
    <glyph glyph-name="afii10071" unicode="&#x451;" 
d="M1158 413l-855.999 -0.000976562c-2 -20.667 -3 -36.334 -3 -47.001c0 -91.333 31 -166.666 93 -225.999s146 -89 252 -89c62 0 129.333 10.167 202 30.5s135 47.833 187 82.5c15.333 10 27.666 15 36.999 15c8.66699 0 16 -3.16699 22 -9.5s9 -14.5 9 -24.5
c0 -12 -5.33301 -23.333 -16 -34c-30.667 -32.667 -92 -64.834 -184 -96.501s-185.333 -47.5 -280 -47.5c-122.667 0 -221.167 36.333 -295.5 109s-111.5 165 -111.5 277c0 74 16 143.833 48 209.5s74.167 122.334 126.5 170.001s112.666 86.834 180.999 117.501
s142.833 46 223.5 46c114.667 0 206.834 -33.667 276.501 -101s104.5 -153.333 104.5 -258c0 -34.667 -5.33301 -76 -16 -124zM1090 497.999c3.33301 92 -23.999 167.333 -81.999 226c-58.667 58 -137.334 87 -236.001 87c-96 0 -185.667 -28.333 -269 -85
s-144.333 -132.667 -183 -228h770zM616.002 1065c-18.667 0 -34.167 6 -46.5 18s-18.5 27.667 -18.5 47c0 24.667 10.167 47.167 30.5 67.5s43.833 30.5 70.5 30.5c19.333 0 35 -6 47 -18s18 -27 18 -45c0 -26.667 -10.167 -50 -30.5 -70s-43.833 -30 -70.5 -30zM1045 1065
c-18.667 0 -34.167 6 -46.5 18s-18.5 27.667 -18.5 47c0 24.667 10.167 47.167 30.5 67.5s43.833 30.5 70.5 30.5c18.667 0 34.167 -6 46.5 -18s18.5 -27 18.5 -45c0 -26.667 -10.167 -50 -30.5 -70s-43.833 -30 -70.5 -30z" />
    <glyph glyph-name="afii10099" unicode="&#x452;" 
d="M567 1073h311.998c37.333 0 56 -12.333 56 -37c0 -31.333 -25 -47 -75 -47h-311l-53 -251c116.667 105.333 233 158 349 158c70.667 0 133.834 -19.333 189.501 -58s83.5 -97.667 83.5 -177c0 -17.333 -2 -36 -6 -56l-141 -664c-20.667 -100 -68.667 -179.5 -144 -238.5
s-157.333 -88.5 -246 -88.5h-267c-32 0 -48 11 -48 33c0 34 22 51 66 51h265c74.667 0 138.334 24.667 191.001 74s85.667 105.666 99 168.999l139 658c3.33301 14.667 5 29.334 5 44.001c0 48.667 -16.667 88.834 -50 120.501s-84.666 47.5 -153.999 47.5
c-62.667 0 -115.334 -12.333 -158.001 -37s-109 -77.334 -199 -158.001l-113 -532h95c32 0 48 -11 48 -33c0 -34 -22 -51 -66 -51h-274c-32 -0 -48 11.333 -48 34c0 33.333 22 50 66 50h95l192 905h-111c-28.667 0 -43 12 -43 36c0 32 20.333 48 61 48h111l20 97h-112
c-32 0 -48 11.333 -48 34c0 34 22 51 66 51h197z" />
    <glyph glyph-name="afii10100" unicode="&#x453;" 
d="M526 781h-214c-32 0 -48 11.333 -48 34c0 34 22 51 66 51h978l-80 -376c-8 -37.333 -26.333 -56 -55 -56c-22 0 -33 10 -33 30c0 6 1 14.667 3 26l62 291h-594l-146 -697h218c32 0 48 -11 48 -33c0 -34 -22 -51 -66 -51h-521c-32 -0 -48 11.333 -48 34
c0 33.333 22 50 66 50h218zM1071 1245l-279 -204c-18 -13.333 -32.333 -20 -43 -20c-10 0 -18.167 3.16699 -24.5 9.5s-9.5 14.166 -9.5 23.499c0 8.66699 2 16.5 6 23.5s13.667 16.167 29 27.5l280 204c17.333 13.333 31.333 20 42 20c10 0 18.167 -3.16699 24.5 -9.5
s9.5 -14.166 9.5 -23.499c0 -8.66699 -2 -16.5 -6 -23.5s-13.667 -16.167 -29 -27.5z" />
    <glyph glyph-name="afii10101" unicode="&#x454;" 
d="M365 490l533.002 0.00292969c38 0 57 -13.333 57 -40c0 -29.333 -25 -44 -75 -44h-538c-3.33301 -24 -5 -45.333 -5 -64c0 -90.667 28.833 -161.834 86.5 -213.501s133.167 -77.5 226.5 -77.5c144.667 0 283 50.667 415 152c17.333 13.333 31.666 20 42.999 20
c20.667 0 31 -10.333 31 -31c0 -36 -55.333 -82.5 -166 -139.5s-228 -85.5 -352 -85.5c-108.667 0 -197.667 31.667 -267 95s-104 148.666 -104 255.999c0 146.667 55.5 279.667 166.5 399s249.167 179 414.5 179c128.667 0 228.667 -38.333 300 -115
c7.33301 56.667 27.666 85 60.999 85c22 0 33 -10.333 33 -31c0 -6 -1 -14.667 -3 -26l-41 -190c-8 -38 -26.333 -57 -55 -57c-22 0 -33 10 -33 30c0 4.66699 0.666992 11.334 2 20.001c0.666992 5.33301 1 10.666 1 15.999c0 51.333 -27.5 94.666 -82.5 129.999
s-122.833 53 -203.5 53c-100.667 0 -189.5 -28 -266.5 -84s-136.5 -135 -178.5 -237z" />
    <glyph glyph-name="afii10102" unicode="&#x455;" 
d="M1065 811c4 19.333 10.998 33.334 20.998 42.001s21 13 33 13c10 0 18.167 -3.16699 24.5 -9.5s9.5 -13.5 9.5 -21.5c0 -6 -1.33301 -14.667 -4 -26l-30 -144c-4.66699 -20 -11.834 -34.333 -21.501 -43s-20.834 -13 -33.501 -13c-9.33301 0 -17.166 3 -23.499 9
s-9.5 13 -9.5 21l1 17c0.666992 5.33301 1 10.333 1 15c0 36 -16 65.333 -48 88c-47.333 34.667 -113.666 52 -198.999 52c-102.667 0 -184.334 -22 -245.001 -66c-45.333 -32.667 -68 -67.334 -68 -104.001c0 -36 19.667 -65.333 59 -88
c28.667 -16 89.334 -29.167 182.001 -39.5s159 -22.166 199 -35.499c56 -18 97.667 -44 125 -78s41 -72.333 41 -115c0 -49.333 -18 -98.666 -54 -147.999s-91 -90 -165 -122s-157.333 -48 -250 -48c-66 0 -124.333 8.5 -175 25.5s-93.667 42.167 -129 75.5
c-5.33301 -27.333 -12 -45 -20 -53c-11.333 -10 -23.666 -15 -36.999 -15c-9.33301 0 -17.166 3 -23.499 9s-9.5 13.333 -9.5 22c0 6 1 14.333 3 25l37 173c4 20 11 34.333 21 43s21.333 13 34 13c9.33301 0 17.166 -3.16699 23.499 -9.5s9.5 -13.833 9.5 -22.5
c0 -5.33301 -1 -13 -3 -23s-3 -17.333 -3 -22c0 -38 19.667 -71.333 59 -100c52 -38 128 -57 228 -57c119.333 0 210.333 23.667 273 71s94 94.333 94 141c0 25.333 -9.16699 50.166 -27.5 74.499s-46.166 43.666 -83.499 57.999s-98.5 26 -183.5 35s-147 20.333 -186 34
s-69.5 34.5 -91.5 62.5s-33 60 -33 96c0 42 14.333 83.167 43 123.5s76.5 75.333 143.5 105s142.167 44.5 225.5 44.5c58 0 109.167 -7 153.5 -21s81.833 -35.333 112.5 -64z" />
    <glyph glyph-name="afii10103" unicode="&#x456;" 
d="M931 1297l-46 -217h-123l46 217h123zM843 866l-166 -781.998h330c18.667 0 31.334 -2.83301 38.001 -8.5s10 -13.834 10 -24.501c0 -14 -5.5 -26 -16.5 -36s-27.5 -15 -49.5 -15h-744c-18.667 0 -31.334 3 -38.001 9s-10 14.333 -10 25c0 13.333 5.5 25 16.5 35
s27.5 15 49.5 15h330l148 697h-245c-18.667 0 -31.5 3 -38.5 9s-10.5 14.333 -10.5 25c0 13.333 5.66699 25.166 17 35.499s28 15.5 50 15.5h329z" />
    <glyph glyph-name="afii10104" unicode="&#x457;" 
d="M840 866l-166 -781.998h330c18.667 0 31.334 -2.83301 38.001 -8.5s10 -13.834 10 -24.501c0 -14 -5.5 -26 -16.5 -36s-27.5 -15 -49.5 -15h-744c-18.667 0 -31.334 3 -38.001 9s-10 14.333 -10 25c0 13.333 5.5 25 16.5 35s27.5 15 49.5 15h330l148 697h-245
c-18.667 0 -31.5 3 -38.5 9s-10.5 14.333 -10.5 25c0 13.333 5.66699 25.166 17 35.499s28 15.5 50 15.5h329zM616 1065c-18.667 0 -34.167 6 -46.5 18s-18.5 27.667 -18.5 47c0 24.667 10.167 47.167 30.5 67.5s43.833 30.5 70.5 30.5c19.333 0 35 -6 47 -18s18 -27 18 -45
c0 -26.667 -10.167 -50 -30.5 -70s-43.833 -30 -70.5 -30zM1045 1065c-18.667 0 -34.167 6 -46.5 18s-18.5 27.667 -18.5 47c0 24.667 10.167 47.167 30.5 67.5s43.833 30.5 70.5 30.5c18.667 0 34.167 -6 46.5 -18s18.5 -27 18.5 -45c0 -26.667 -10.167 -50 -30.5 -70
s-43.833 -30 -70.5 -30z" />
    <glyph glyph-name="afii10105" unicode="&#x458;" 
d="M1010 1297l-46 -217h-123l46 217h123zM906 781h-498.998c-18.667 0 -31.334 3 -38.001 9s-10 14.333 -10 25c0 13.333 5.5 25.166 16.5 35.499s27.5 15.5 49.5 15.5h583l-196 -925c-16 -73.333 -44 -133.666 -84 -180.999s-93 -86 -159 -116
c-44 -20 -93.333 -30 -148 -30h-267c-18.667 0 -31.334 3 -38.001 9s-10 14 -10 24c0 14 5.5 26.167 16.5 36.5s27.5 15.5 49.5 15.5l265 -1c71.333 0 130 20 176 60c61.333 52.667 99.333 113.667 114 183z" />
    <glyph glyph-name="afii1016" unicode="&#x459;" 
d="M947 781l-63.001 -290h63c188 0 282 -65 282 -195c0 -70 -27.333 -136.833 -82 -200.5s-154 -95.5 -298 -95.5h-193c-47.333 0 -71 14 -71 42s23.667 42 71 42h56l147 697h-206l-104 -483c-46 -216.667 -159 -325 -339 -325c-101.333 0 -152 18.333 -152 55
c0 5.33301 2 18 6 38l17 83c8 38 24 57 48 57c26.667 0 40 -14 40 -42c0 -6.66699 -1 -14.667 -3 -24l-17 -74c23.333 -8 47 -12 71 -12c128.667 0 210.334 81.333 245.001 244l103 483h-110c-47.333 0 -71 14 -71 42c0 28.667 23.667 43 71 43h570
c46.667 0 70 -14.333 70 -43c0 -28 -23.333 -42 -70 -42h-81zM866.999 407l-69 -323h69c98 0 168.167 21.333 210.5 64s63.5 91 63.5 145c0 44 -16.5 74 -49.5 90s-85.5 24 -157.5 24h-67z" />
    <glyph glyph-name="afii10107" unicode="&#x45a;" 
d="M621 405h-295l-71 -321h76c32.667 0 49 -11 49 -33c0 -34 -22.333 -51 -67 -51h-237c-32 -0 -48 11.333 -48 34c0 33.333 22 50 66 50h76l146 697h-64c-32 0 -48 11.333 -48 34c0 34 22 51 66 51h204c32 0 48 -11.333 48 -34c0 -34 -22 -51 -66 -51h-55l-56 -291h293
l62 291h-69c-32 0 -48 11.333 -48 34c0 34 22 51 66 51h285c32 0 48 -11.333 48 -34c0 -34 -22 -51 -66 -51h-132l-62 -291h135c97.333 0 179 -18.167 245 -54.5s99 -95.5 99 -177.5c0 -88 -27.167 -153 -81.5 -195s-149.5 -63 -285.5 -63h-361c-32 -0 -48 11.333 -48 34
c0 33.333 22 50 66 50h63zM638 84h202c183.333 0 275 54.333 275 163c0 56 -24 96.333 -72 121s-127.667 37 -239 37h-97z" />
    <glyph glyph-name="afii10108" unicode="&#x45b;" 
d="M567 1073l310.999 -0.000976562c38 0 57 -13 57 -39c0 -30 -22.667 -45 -68 -45h-318l-53 -251c116.667 105.333 233.667 158 351 158c86 0 152.667 -21.833 200 -65.5s71 -99.834 71 -168.501c0 -18 -2 -37 -6 -57l-111 -521h95c32 0 48 -11 48 -33
c0 -34 -22 -51 -66 -51h-274c-32 0 -48 11.333 -48 34c0 33.333 22 50 66 50h95l109 515c3.33301 14.667 5 29.334 5 44.001c0 54.667 -18.5 96.334 -55.5 125.001s-86.5 43 -148.5 43c-60 0 -112.167 -12 -156.5 -36s-111.166 -77 -200.499 -159l-113 -532h95
c32 0 48 -11 48 -33c0 -34 -22 -51 -66 -51h-274c-32 -0 -48 11.333 -48 34c0 33.333 22 50 66 50h95l192 905h-101c-35.333 0 -53 14 -53 42s22.667 42 68 42h104l20 97h-112c-32 0 -48 11.333 -48 34c0 34 22 51 66 51h197z" />
    <glyph glyph-name="afii10109" unicode="&#x45c;" 
d="M1179 781c-38 0 -72.168 -7.16699 -102.501 -21.5s-82.5 -58.5 -156.5 -132.5c-80 -79.333 -148.333 -131.666 -205 -156.999c72 -18.667 133.333 -81.667 184 -189l93 -197h122c47.333 0 71 -14 71 -42s-23.667 -42 -71 -42h-122c-27.333 0 -44.5 2.16699 -51.5 6.5
s-16.167 18.833 -27.5 43.5l-96 203c-35.333 75.333 -73.166 122.5 -113.499 141.5s-111.5 28.5 -213.5 28.5h-25l-71 -339h102c46.667 0 70 -14 70 -42s-23.333 -42 -70 -42h-288c-46.667 0 -70 14 -70 42s23.333 42 70 42h100l149 697h-102c-47.333 0 -71 14 -71 42
c0 28.667 23.667 43 71 43h287c46.667 0 70 -14.333 70 -43c0 -28 -23.333 -42 -70 -42h-100l-59 -274h21c79.333 0 135.5 8.33301 168.5 25s98.833 72.667 197.5 168c70 68.667 125.5 113.667 166.5 135s94.833 32 161.5 32c48 0 72 -14.333 72 -43
c0 -6 -0.666992 -12.333 -2 -19c-2 -8 -3.33301 -14 -4 -18l-19 -114c-6 -35.333 -21 -53 -45 -53c-28.667 0 -43 12.667 -43 38c0 3.33301 1.33301 11.666 4 24.999zM1061 1245l-279 -204c-18 -13.333 -32.333 -20 -43 -20c-10 0 -18.167 3.16699 -24.5 9.5
s-9.5 14.166 -9.5 23.499c0 8.66699 2 16.5 6 23.5s13.667 16.167 29 27.5l280 204c17.333 13.333 31.333 20 42 20c10 0 18.167 -3.16699 24.5 -9.5s9.5 -14.166 9.5 -23.499c0 -8.66699 -2 -16.5 -6 -23.5s-13.667 -16.167 -29 -27.5z" />
    <glyph glyph-name="afii10110" unicode="&#x45e;" 
d="M441 781l213.999 -644.001l489 644h-60c-47.333 0 -71 14 -71 42c0 28.667 23.667 43 71 43h213c46.667 0 70 -14.333 70 -43c0 -28 -23.333 -42 -70 -42h-52l-675 -890c-61.333 -80.667 -113 -133.667 -155 -159s-89.667 -38 -143 -38
c-35.333 0 -68.166 5.83301 -98.499 17.5s-45.5 27.834 -45.5 48.501c0 6 2 18 6 36l25 118c8 40 23.667 60 47 60c27.333 0 41 -14.333 41 -43c0 -9.33301 -1.33301 -20.333 -4 -33l-25 -109c22 -6.66699 45.667 -10 71 -10c36 0 69.833 12 101.5 36s67.5 63 107.5 117
l92 123l-240 726h-45c-46.667 0 -70 14 -70 42c0 28.667 23.333 43 70 43h222c46.667 0 70 -14.333 70 -43c0 -28 -23.333 -42 -70 -42h-86zM593.999 1298c10 0 18.002 -2.83496 24.002 -8.50195s9 -12.5 9 -20.5c0 -4 -0.333008 -10.333 -1 -19
c-0.666992 -5.33301 -1 -10.333 -1 -15c0 -34 16.5 -64.5 49.5 -91.5s78.5 -40.5 136.5 -40.5c61.333 0 114.833 14.833 160.5 44.5s74.5 63.834 86.5 102.501c6 18 13.5 30.5 22.5 37.5s19.5 10.5 31.5 10.5c9.33301 0 17.166 -3.16699 23.499 -9.5s9.5 -13.833 9.5 -22.5
c0 -24.667 -11.667 -54.667 -35 -90c-30.667 -48 -73.834 -86.333 -129.501 -115s-118.5 -43 -188.5 -43c-82 0 -144.833 19.333 -188.5 58s-65.5 85.334 -65.5 140.001c0 29.333 5.5 50.333 16.5 63s24.167 19 39.5 19z" />
    <glyph glyph-name="afii10193" unicode="&#x45f;" 
d="M661 0l-48 -201c-9.33301 -37.333 -27.333 -56 -54 -56c-22.667 0 -34 10 -34 30c0 7.33301 1.33301 16 4 26l48 201h-414c-32 -0 -48 11.333 -48 34c0 33.333 22 50 66 50h64l153 697h-95c-32 0 -48 11.333 -48 34c0 34 22 51 66 51h292c32 0 48 -11.333 48 -34
c0 -34 -22 -51 -66 -51h-113l-146 -697h557l146 697h-112c-32.667 0 -49 11.333 -49 34c0 34 22.333 51 67 51h291c32 0 48 -11.333 48 -34c0 -34 -22 -51 -66 -51h-94l-146 -697h124c32.667 0 49 -11 49 -33c0 -34 -22.333 -51 -67 -51h-423z" />
    <glyph glyph-name="afii10050" unicode="&#x490;" 
d="M1249 1170l37 171.001c8.66699 37.333 27 56 55 56c22.667 0 34 -10 34 -30c0 -6.66699 -1.33301 -15.334 -4 -26.001l-56 -255h-637l-213 -1002h218c32 0 48 -11 48 -33c0 -34 -22 -51 -66 -51h-521c-32 -0 -48 11.333 -48 34c0 33.333 22 50 66 50h218l213 1002h-213
c-32.667 0 -49 11.333 -49 34c0 33.333 22 50 66 50h852z" />
    <glyph glyph-name="afii10098" unicode="&#x491;" 
d="M1182 866l38 170c8 37.333 26 56 54 56c22.667 0 34 -10 34 -30c0 -6 -1.33301 -14.667 -4 -26l-56 -255h-637l-146 -697h218c32 0 48 -11 48 -33c0 -34 -22 -51 -66 -51h-521c-32 -0 -48 11.333 -48 34c0 33.333 22 50 66 50h218l146 697h-214c-32 0 -48 11.333 -48 34
c0 34 22 51 66 51h852z" />
    <glyph glyph-name="endash" unicode="&#x2013;" 
d="M1144 543l-826.999 0.000976562c-18.667 0 -31.334 3 -38.001 9s-10 14.333 -10 25c0 13.333 5.5 25 16.5 35s27.5 15 49.5 15h827c18.667 0 31 -2.33301 37 -7c7.33301 -6.66699 11 -15.334 11 -26.001c0 -14 -5.5 -26 -16.5 -36s-27.5 -15 -49.5 -15z" />
    <glyph glyph-name="emdash" unicode="&#x2014;" 
d="M1305 544l-1147 0.00195312c-18.667 0 -31.334 3 -38.001 9s-10 14.333 -10 25c0 13.333 5.5 25.166 16.5 35.499s27.5 15.5 49.5 15.5h1147c18.667 0 31 -2.66699 37 -8c7.33301 -6.66699 11 -15.334 11 -26.001c0 -14 -5.5 -26 -16.5 -36s-27.5 -15 -49.5 -15z" />
    <glyph glyph-name="quoteleft" unicode="&#x2018;" 
d="M775 1255h273.999l35 -520c1.33301 -22 -5.66699 -41.167 -21 -57.5s-33.666 -24.5 -54.999 -24.5c-11.333 0 -22 3.66699 -32 11c-7.33301 6 -14.333 19 -21 39z" />
    <glyph glyph-name="quoteright" unicode="&#x2019;" 
d="M708 1255h274l-415 -552c-25.333 -33.333 -50.333 -50 -75 -50c-14.667 0 -26.5 4.5 -35.5 13.5s-13.5 19.833 -13.5 32.5c0 11.333 3.33301 23.333 10 36z" />
    <glyph glyph-name="quotesinglbase" unicode="&#x201a;" 
d="M506 277h274l-415 -551c-25.333 -34 -50.333 -51 -75 -51c-14.667 0 -26.5 4.5 -35.5 13.5s-13.5 20.167 -13.5 33.5c0 11.333 3 23.333 9 36z" />
    <glyph glyph-name="quotedblleft" unicode="&#x201c;" 
d="M446 1255l218 -0.000976562l79 -431c2 -9.33301 3 -17.666 3 -24.999c0 -15.333 -6.33301 -29.333 -19 -42s-27.667 -19 -45 -19c-9.33301 0 -17.5 2.66699 -24.5 8s-13.5 16 -19.5 32zM878 1255l218.001 -0.000976562l80 -431c1.33301 -9.33301 2 -17.666 2 -24.999
c0 -15.333 -6.33301 -29.333 -19 -42s-27.334 -19 -44.001 -19c-9.33301 0 -17.5 2.66699 -24.5 8s-13.833 16 -20.5 32z" />
    <glyph glyph-name="quotedblright" unicode="&#x201d;" 
d="M666 1255l218 0.000976562l-394 -477c-22 -26.667 -43 -40 -63 -40c-12 0 -21.833 3.66699 -29.5 11s-11.5 17 -11.5 29c0 11.333 5.66699 26.666 17 45.999zM1099 1255l217.001 0.000976562l-394 -477c-22 -26.667 -42.667 -40 -62 -40
c-12.667 0 -22.834 3.66699 -30.501 11s-11.5 17 -11.5 29c0 11.333 6 26.666 18 45.999z" />
    <glyph glyph-name="quotedblbase" unicode="&#x201e;" 
d="M459 256l218 0.000976562l-394 -476c-22 -26.667 -43 -40 -63 -40c-12 0 -21.833 3.66699 -29.5 11s-11.5 17 -11.5 29c0 11.333 6 26.666 18 45.999zM892 256.001l217.001 0.000976562l-394 -476c-22 -26.667 -42.667 -40 -62 -40c-12.667 0 -22.834 3.66699 -30.501 11
s-11.5 17 -11.5 29c0 11.333 6 26.666 18 45.999z" />
    <glyph glyph-name="dagger" unicode="&#x2020;" 
d="M823 783l-181.997 -855.998c-4 -20.667 -10.833 -35.334 -20.5 -44.001s-20.834 -13 -33.501 -13c-10 0 -18.167 3.16699 -24.5 9.5s-9.5 13.5 -9.5 21.5c0 6 1.33301 14.667 4 26l182 856h-265c-18.667 0 -31.334 3 -38.001 9s-10 14.333 -10 25
c0 13.333 5.5 25.166 16.5 35.499s27.5 15.5 49.5 15.5l265 -1l70 331c4 20.667 11 35.334 21 44.001s21.333 13 34 13c9.33301 0 17.166 -3.16699 23.499 -9.5s9.5 -13.5 9.5 -21.5c0 -6 -1 -14.667 -3 -26l-71 -331h264c19.333 0 32.333 -2.83301 39 -8.5
s10 -13.834 10 -24.501c0 -14 -5.66699 -26 -17 -36s-28 -15 -50 -15h-264z" />
    <glyph glyph-name="daggerdbl" unicode="&#x2021;" 
d="M823 784l-92.999 -435h265c18.667 0 31.5 -3 38.5 -9s10.5 -14.333 10.5 -25c0 -13.333 -5.66699 -25.166 -17 -35.499s-28 -15.5 -50 -15.5h-264l-72 -337c-4.66699 -20.667 -11.834 -35.334 -21.501 -44.001s-20.834 -13 -33.501 -13
c-9.33301 0 -17.166 3.16699 -23.499 9.5s-9.5 13.5 -9.5 21.5c0 6 1 14.667 3 26l72 337h-265c-18.667 0 -31.334 3 -38.001 9s-10 14.333 -10 25c0 13.333 5.5 25.166 16.5 35.499s27.5 15.5 49.5 15.5h265l93 435h-265c-18.667 0 -31.334 3 -38.001 9s-10 14.333 -10 25
c0 13.333 5.5 25.166 16.5 35.499s27.5 15.5 49.5 15.5h265l70 329c4 20.667 10.833 35.334 20.5 44.001s20.834 13 33.501 13c10 0 18.167 -3.16699 24.5 -9.5s9.5 -13.5 9.5 -21.5c0 -6 -1.33301 -14.667 -4 -26l-70 -329h265c18.667 0 31.334 -3 38.001 -9
s10 -14.333 10 -25c0 -13.333 -5.5 -25.166 -16.5 -35.499s-27.5 -15.5 -49.5 -15.5h-265z" />
    <glyph glyph-name="bullet" unicode="&#x2022;" 
d="M695 389c-57.333 0 -104.667 18.5 -142 55.5s-56 83.833 -56 140.5c0 76.667 31.167 145.667 93.5 207s133.833 92 214.5 92c56.667 0 103.667 -18.5 141 -55.5s56 -82.833 56 -137.5c0 -78.667 -31 -148.667 -93 -210s-133.333 -92 -214 -92z" />
    <glyph glyph-name="ellipsis" unicode="&#x2026;" 
d="M196 -30c-24 0 -43.667 7.66797 -59 23.001s-23 34.666 -23 57.999c0 32 12.833 60.667 38.5 86s55.167 38 88.5 38c24 0 43.833 -7.66699 59.5 -23s23.5 -34.333 23.5 -57c0 -32.667 -13 -61.667 -39 -87s-55.667 -38 -89 -38zM605 -29.999
c-23.333 0 -42.667 7.66797 -58 23.001s-23 34.666 -23 57.999c0 32 12.833 60.667 38.5 86s55.167 38 88.5 38c24 0 43.667 -7.66699 59 -23s23 -34.333 23 -57c0 -32.667 -12.833 -61.667 -38.5 -87s-55.5 -38 -89.5 -38zM1017 -29.998
c-23.333 0 -42.667 7.66797 -58 23.001s-23 34.666 -23 57.999c0 32 12.833 60.667 38.5 86s55.167 38 88.5 38c24 0 43.667 -7.66699 59 -23s23 -34.333 23 -57c0 -32.667 -12.833 -61.667 -38.5 -87s-55.5 -38 -89.5 -38z" />
    <glyph glyph-name="perthousand" unicode="&#x2030;" 
d="M425 841c-34 0 -66.167 17.501 -96.5 52.501s-45.5 79.167 -45.5 132.5c0 56 27 112.167 81 168.5s105.333 84.5 154 84.5c34 0 66 -17.333 96 -52s45 -78.334 45 -131.001c0 -58 -27 -115 -81 -171s-105 -84 -153 -84zM439 902.001c26.667 0 59.666 20.833 98.999 62.5
s59 81.5 59 119.5c0 36 -12.333 69.333 -37 100c-18 22.667 -36.333 34 -55 34c-27.333 0 -60.666 -20.833 -99.999 -62.5s-59 -81.167 -59 -118.5c0 -36.667 12 -70 36 -100c18.667 -23.333 37.667 -35 57 -35zM1187 810.001l-830.999 -253c-10 -3.33301 -17.667 -5 -23 -5
s-10.333 2.33301 -15 7s-7 10.334 -7 17.001c0 8 2.83301 15.333 8.5 22s15.5 12 29.5 16l832 253c10 3.33301 17.667 5 23 5s10.166 -2.33301 14.499 -7s6.5 -10.334 6.5 -17.001c0 -8 -2.66699 -15.333 -8 -22s-15.333 -12 -30 -16zM435 -20.999
c-34 0 -66.167 17.333 -96.5 52s-45.5 79 -45.5 133c0 56 27 112 81 168s105.333 84 154 84c34 0 66 -17.333 96 -52s45 -78 45 -130c0 -58 -27 -115 -81 -171s-105 -84 -153 -84zM449 39.001c26.667 0 59.666 20.834 98.999 62.501s59 81.5 59 119.5
c0 36.667 -12.333 70 -37 100c-18 23.333 -36.333 35 -55 35c-27.333 0 -60.666 -21 -99.999 -63s-59 -81.333 -59 -118s12 -70.334 36 -101.001c18.667 -23.333 37.667 -35 57 -35zM971.999 -20.998c-34 0 -66 17.333 -96 52s-45 79 -45 133c0 56 27 112 81 168
s105 84 153 84c34 0 66.167 -17.333 96.5 -52s45.5 -78 45.5 -130c0 -58 -27.167 -115 -81.5 -171s-105.5 -84 -153.5 -84zM985.999 39.002c26.667 0 59.832 20.834 99.499 62.501s59.5 81.5 59.5 119.5c0 36.667 -12.333 70 -37 100c-18.667 23.333 -37.334 35 -56.001 35
c-27.333 0 -60.666 -21 -99.999 -63s-59 -81.333 -59 -118s12.333 -70.334 37 -101.001c18.667 -23.333 37.334 -35 56.001 -35z" />
    <glyph glyph-name="guilsinglleft" unicode="&#x2039;" 
d="M392 434l535 409.998c20.667 16 37 24 49 24c10 0 18.167 -3.16699 24.5 -9.5s9.5 -14.166 9.5 -23.499c0 -14.667 -10.667 -31.667 -32 -51l-388 -350l239 -349c9.33301 -14 14 -25 14 -33c0 -13.333 -5.16699 -25.166 -15.5 -35.499s-22.5 -15.5 -36.5 -15.5
c-11.333 0 -24 7.66699 -38 23z" />
    <glyph glyph-name="guilsinglright" unicode="&#x203a;" 
d="M1030 434l-535 -409.999c-20.667 -15.333 -37 -23 -49 -23c-10.667 0 -19 3 -25 9s-9 14 -9 24c0 7.33301 1.83301 14.5 5.5 21.5s12.5 16.833 26.5 29.5l387 349l-238 350c-10 14 -15 25 -15 33c0 13.333 5.33301 25.166 16 35.499s22.667 15.5 36 15.5
c12 0 25 -8 39 -24z" />
    <glyph glyph-name="afii61352" unicode="&#x2116;" 
d="M407 1086h-41.999c-47.333 0 -71 14 -71 42s23.667 42 71 42h106c28.667 0 47 -2.5 55 -7.5s14.667 -23.167 20 -54.5l174 -951l197 929h-97c-47.333 0 -71 14 -71 42s23.667 42 71 42h238c46.667 0 70 -14 70 -42s-23.333 -42 -70 -42h-61l-211 -994
c-8 -38 -16.667 -62.833 -26 -74.5s-24.333 -17.5 -45 -17.5c-20 -0 -34.833 5.83301 -44.5 17.5s-17.834 36.5 -24.501 74.5l-171 936l-200 -944h97c46.667 0 70 -14 70 -42s-23.333 -42 -70 -42h-238c-46.667 0 -70 14 -70 42s23.333 42 70 42h61zM1356 904
l-48.999 -231.001c-20.667 -96 -70 -144 -148 -144c-35.333 0 -63 10.333 -83 31s-30 43 -30 67c0 12 9.83301 65.333 29.5 160s34.167 151.834 43.5 171.501s26.166 38.334 50.499 56.001s49.5 26.5 75.5 26.5c36 0 64.167 -11 84.5 -33s30.5 -48 30.5 -78
c0 -6.66699 -1.33301 -15.334 -4 -26.001zM1132 672.999c-2 -10.667 -3.00098 -18.667 -3.00098 -24c0 -22.667 13.333 -34 40 -34c30.667 0 50 19.333 58 58l49 231c1.33301 6 2 11 2 15c0 24 -13 36 -39 36c-31.333 0 -50.666 -17 -57.999 -51zM1144 296.999h-77
c-47.333 0 -71 14.333 -71 43s17.333 43 52 43c86.667 0 136.167 -2 148.5 -6s18.5 -16.333 18.5 -37c0 -28.667 -23.667 -43 -71 -43z" />
    <glyph glyph-name="trademark" unicode="&#x2122;" 
d="M447 1283v-601.001h131c12 0 20.667 -2.33301 26 -7s8 -11 8 -19c0 -7.33301 -3 -13.666 -9 -18.999c-4.66699 -4 -13 -6 -25 -6h-312c-12 0 -20.667 2.33301 -26 7s-8 10.667 -8 18c0 8 3 14.667 9 20c4.66699 4 13 6 25 6h131v601h-206v-175
c0 -12 -2.5 -20.667 -7.5 -26s-11.167 -8 -18.5 -8s-13.333 2.66699 -18 8s-7 14 -7 26v225h564v-225c0 -9.33301 -1 -16 -3 -20s-5 -7.33301 -9 -10s-8.33301 -4 -13 -4c-8 0 -14.333 2.66699 -19 8s-7 14 -7 26v175h-206zM1101 840.999h-59l-200 442h-9v-601h95
c12.667 0 21.667 -2.33301 27 -7s8 -11 8 -19c0 -7.33301 -2.66699 -13.333 -8 -18s-14.333 -7 -27 -7h-191c-12.667 0 -21.667 2.33301 -27 7s-8 10.667 -8 18c0 8 2.66699 14.333 8 19s14.333 7 27 7h43v601h-32c-12 0 -20.833 2.33301 -26.5 7s-8.5 10.667 -8.5 18
s2.66699 13.333 8 18s14.333 7 27 7h127l197 -435l193 435h127c12.667 0 21.667 -2.33301 27 -7s8 -10.667 8 -18s-2.66699 -13.333 -8 -18s-14.333 -7 -27 -7h-32v-601h43c12.667 0 21.667 -2.33301 27 -7s8 -11 8 -19c0 -7.33301 -2.66699 -13.333 -8 -18
s-14.333 -7 -27 -7h-191c-12.667 0 -21.667 2.33301 -27 7s-8 10.667 -8 18c0 8 2.66699 14.333 8 19s14.333 7 27 7h96v601h-11z" />
    <glyph glyph-name="glyph1" horiz-adv-x="0" 
 />
    <glyph glyph-name="glyph2" 
 />
  </font>
</defs>
</svg>
