<svg width="115" height="141" viewBox="0 0 115 141" fill="none" xmlns="http://www.w3.org/2000/svg">
<path d="M57.2722 44.3641L16.485 78.399C13.9372 80.525 13.5953 84.3139 15.7213 86.8617L23.1141 95.7212C25.2401 98.269 29.029 98.6109 31.5768 96.4849L72.364 62.45C74.9118 60.324 75.2537 56.5351 73.1277 53.9873L65.7349 45.1278C63.6088 42.58 59.82 42.2381 57.2722 44.3641Z" fill="#F4A1C7"/>
<path d="M57.6145 44.0784L16.1427 78.6846C13.7839 80.6529 13.4674 84.1606 15.4356 86.5193L23.3998 96.0635C25.368 98.4223 28.8757 98.7388 31.2345 96.7706L72.7063 62.1644C75.0651 60.1961 75.3816 56.6884 73.4133 54.3296L65.4492 44.7855C63.481 42.4267 59.9732 42.1102 57.6145 44.0784Z" stroke="white" stroke-width="2" stroke-linecap="round" stroke-linejoin="round"/>
<path d="M32.8084 72.719L40.0696 81.4208L32.8084 72.719ZM48.0045 60.0387L55.2656 68.7404L48.0045 60.0387Z" fill="white"/>
<path d="M48.0045 60.0387L55.2656 68.7404M32.8084 72.719L40.0696 81.4208L32.8084 72.719Z" stroke="white" stroke-width="2" stroke-linecap="round" stroke-linejoin="round"/>
<path d="M41.3373 71.7325C42.0965 71.099 42.1984 69.9701 41.5649 69.2109C40.9314 68.4518 39.8025 68.3499 39.0433 68.9834C38.2842 69.6168 38.1823 70.7458 38.8158 71.5049C39.4492 72.2641 40.5782 72.366 41.3373 71.7325Z" fill="white"/>
<path d="M45.9975 67.8439C46.7566 67.2104 46.8585 66.0814 46.225 65.3223C45.5915 64.5631 44.4626 64.4612 43.7034 65.0947C42.9443 65.7282 42.8424 66.8572 43.4759 67.6163C44.1094 68.3755 45.2383 68.4773 45.9975 67.8439Z" fill="white"/>
<path d="M44.8789 75.9767C45.6381 75.3433 45.74 74.2143 45.1065 73.4551C44.473 72.696 43.3441 72.5941 42.5849 73.2276C41.8258 73.8611 41.7239 74.99 42.3574 75.7492C42.9908 76.5083 44.1198 76.6102 44.8789 75.9767Z" fill="white"/>
<path d="M49.5391 72.0881C50.2982 71.4546 50.4001 70.3257 49.7666 69.5665C49.1331 68.8074 48.0042 68.7055 47.245 69.3389C46.4859 69.9724 46.384 71.1014 47.0175 71.8605C47.6509 72.6197 48.7799 72.7216 49.5391 72.0881Z" fill="white"/>
</svg>
