<svg width="26" height="26" viewBox="0 0 26 26" fill="none" xmlns="http://www.w3.org/2000/svg">
<path d="M18.2833 2.69947C16.8764 2.02786 15.2924 1.94622 13.8227 2.4673C12.353 2.98839 11.1762 4.0505 10.506 5.45684L7.91103 10.9027L7.90057 10.9246L7.88684 10.956L7.88398 10.962L7.55642 11.67C7.41863 11.9874 7.43561 12.2831 7.52593 12.5378L5.58681 16.6073C4.95555 17.9269 4.87802 19.4149 5.36725 20.7948C5.85649 22.1747 6.85401 23.2815 8.1751 23.9123C9.49619 24.543 10.9857 24.62 12.3656 24.1308C13.7455 23.6416 14.8523 22.644 15.4825 21.3215L17.4625 17.1663C17.7247 17.0733 17.9739 16.8971 18.1348 16.5748L18.3864 16.0314C18.3979 16.0124 18.4119 15.9958 18.4209 15.9744L21.0406 10.4767C22.4261 7.57173 21.1892 4.08295 18.2833 2.69947V2.69947Z" fill="#F4A1C7"/>
<path d="M8.78397 22.6371C7.80252 22.1694 7.06196 21.3478 6.69908 20.3242C6.33567 19.2993 6.39382 18.1961 6.86149 17.2147L9.13711 12.4391C9.46113 12.4038 10.8727 12.336 13.1708 13.431C15.4762 14.5284 16.3104 15.67 16.4835 15.9385L14.2079 20.7141C13.7402 21.6955 12.918 22.4346 11.8945 22.7975C10.871 23.1604 9.76542 23.1047 8.78397 22.6371V22.6371ZM16.2646 3.93075C16.2371 3.94214 16.2097 3.95353 16.1916 3.96327C16.0242 4.04749 15.866 4.14834 15.7113 4.25456C15.6211 4.31805 15.5303 4.38006 15.4452 4.44839C14.7734 4.98992 14.2493 5.70459 13.8795 6.48057L11.8815 10.6737L11.7936 10.8606C10.6632 10.6414 10.0602 10.769 10.0602 10.769L12.4328 5.78994C12.5231 5.60044 12.6294 5.42347 12.7458 5.25126C13.1909 4.59444 13.8175 4.07057 14.5488 3.74832C14.9002 3.59389 15.2698 3.48606 15.6496 3.42598C15.8507 3.39449 16.6435 3.24602 16.7182 3.56434C16.7592 3.74543 16.4441 3.85717 16.2646 3.93075V3.93075Z" fill="white"/>
<path d="M14.1008 15.6145L12.3593 19.269C12.0514 19.9153 11.6135 20.5132 11.0537 20.9637C10.8605 21.12 10.6535 21.2564 10.4313 21.3684C10.3143 21.4264 9.95143 21.5252 9.99233 21.7014C10.0552 21.9675 10.7155 21.8428 10.8836 21.8164C11.1989 21.766 11.5085 21.6761 11.8011 21.5475C12.5701 21.2102 13.2055 20.6036 13.5677 19.8436L15.195 16.4285C15.1961 16.4314 14.6938 15.8751 14.1008 15.6145V15.6145Z" fill="#F4A1C7"/>
<path d="M9.00371 19.2958L11.1451 20.6233L10.7376 21.2807L8.04339 19.6104L8.42778 18.9904L9.00371 19.2958ZM9.6407 19.8251L9.51566 20.0268C9.32808 19.9105 9.16934 19.7811 9.03942 19.6385C8.91054 19.4942 8.81579 19.3413 8.75516 19.1796C8.69287 19.0169 8.67001 18.8499 8.68657 18.6786C8.70417 18.5057 8.76699 18.332 8.87505 18.1578C8.95018 18.0366 9.03739 17.9367 9.13669 17.8581C9.23433 17.7784 9.34397 17.7257 9.46561 17.7C9.58662 17.6716 9.72006 17.6751 9.86594 17.7104C10.0102 17.7446 10.1661 17.8137 10.3338 17.9177L12.1315 19.0322L11.724 19.6896L9.99345 18.6167C9.86729 18.5385 9.7572 18.4955 9.66318 18.4878C9.57019 18.4784 9.489 18.4982 9.41961 18.5471C9.34857 18.5949 9.28423 18.6654 9.2266 18.7583C9.16279 18.8612 9.12848 18.9629 9.12367 19.0633C9.11823 19.1611 9.13627 19.2561 9.17781 19.3485C9.22037 19.4393 9.28093 19.5251 9.35948 19.6059C9.43906 19.6852 9.5328 19.7582 9.6407 19.8251ZM10.5345 18.1111L10.416 18.4133C10.2477 18.3067 10.1036 18.1852 9.98362 18.0488C9.86201 17.9113 9.77235 17.765 9.71465 17.6097C9.65631 17.4517 9.63574 17.2885 9.65294 17.1199C9.6695 16.9486 9.73078 16.7775 9.83678 16.6065C9.91911 16.4737 10.0123 16.366 10.1163 16.2834C10.2198 16.1982 10.3358 16.1426 10.4645 16.1167C10.5915 16.0897 10.7313 16.0959 10.8838 16.1353C11.0373 16.1731 11.2062 16.2491 11.3905 16.3633L13.121 17.4362L12.7104 18.0985L10.9774 17.0241C10.8462 16.9428 10.7345 16.8988 10.6421 16.8921C10.5508 16.8837 10.4713 16.9045 10.4036 16.9544C10.3342 17.0033 10.2717 17.0726 10.2161 17.1622C10.1595 17.2535 10.1275 17.344 10.1202 17.4337C10.1122 17.5207 10.1237 17.6059 10.1547 17.6895C10.1866 17.7713 10.2353 17.8486 10.3005 17.9212C10.3652 17.9912 10.4432 18.0544 10.5345 18.1111ZM12.0947 16.1449L12.0424 16.1125C11.8448 15.99 11.6806 15.8491 11.5495 15.6898C11.4169 15.5294 11.3226 15.3571 11.2666 15.1731C11.2107 14.989 11.1971 14.7979 11.2257 14.5997C11.2527 14.4004 11.328 14.2012 11.4515 14.002C11.5771 13.7994 11.7231 13.6418 11.8895 13.529C12.0554 13.4135 12.2331 13.3398 12.4229 13.3081C12.6126 13.2764 12.8088 13.2842 13.0114 13.3317C13.2124 13.3782 13.4117 13.4627 13.6092 13.5851L13.6615 13.6176C13.8574 13.739 14.0217 13.8799 14.1543 14.0403C14.2854 14.1997 14.3797 14.3719 14.4373 14.557C14.4932 14.741 14.5068 14.9322 14.4782 15.1304C14.4495 15.3286 14.3729 15.5282 14.2484 15.729C14.1249 15.9282 13.9802 16.0856 13.8144 16.2011C13.6485 16.3166 13.4708 16.3902 13.281 16.422C13.0896 16.4527 12.8934 16.4448 12.6925 16.3983C12.4898 16.3508 12.2905 16.2663 12.0947 16.1449ZM12.4499 15.4551L12.5022 15.4875C12.6201 15.5606 12.7377 15.6174 12.855 15.658C12.9723 15.6986 13.0849 15.719 13.1928 15.7192C13.3006 15.7194 13.4006 15.6953 13.4928 15.6467C13.5843 15.5954 13.6635 15.5158 13.7304 15.4079C13.7963 15.3017 13.8313 15.197 13.8355 15.0939C13.838 14.9898 13.8152 14.8894 13.767 14.7929C13.7199 14.6947 13.6521 14.6021 13.5635 14.5151C13.475 14.428 13.3718 14.348 13.254 14.2749L13.2017 14.2425C13.0855 14.1705 12.9696 14.1147 12.8539 14.0751C12.7366 14.0346 12.6235 14.015 12.5146 14.0164C12.405 14.0152 12.3037 14.0397 12.2105 14.0899C12.1167 14.1374 12.0363 14.2152 11.9694 14.3231C11.9036 14.4293 11.8702 14.535 11.8693 14.6402C11.8668 14.7443 11.8905 14.8452 11.9403 14.9427C11.9885 15.0392 12.0568 15.131 12.1453 15.218C12.2322 15.3041 12.3337 15.3831 12.4499 15.4551ZM13.5585 11.9991L15.6774 13.3127L15.2699 13.9701L12.5757 12.2998L12.9586 11.6823L13.5585 11.9991ZM14.1684 12.522L14.048 12.7162C13.8531 12.5931 13.692 12.4564 13.5645 12.3062C13.4371 12.1559 13.3449 11.9988 13.288 11.8348C13.2321 11.6692 13.2136 11.5026 13.2325 11.335C13.2513 11.1675 13.3101 11.004 13.4089 10.8447C13.4892 10.7152 13.58 10.6095 13.6814 10.5275C13.7827 10.4456 13.8964 10.392 14.0224 10.3667C14.1494 10.3397 14.29 10.3465 14.4442 10.3869C14.5977 10.4246 14.7683 10.5016 14.9559 10.6179L16.6839 11.6893L16.2733 12.3516L14.5403 11.2772C14.4174 11.201 14.309 11.1591 14.215 11.1514C14.122 11.142 14.0395 11.162 13.9674 11.2116C13.8963 11.2594 13.8305 11.3324 13.7697 11.4303C13.707 11.5316 13.6726 11.6332 13.6668 11.7353C13.6603 11.8347 13.6768 11.9323 13.7163 12.028C13.7568 12.122 13.8153 12.2112 13.8918 12.2953C13.9683 12.3795 14.0605 12.4551 14.1684 12.522ZM17.8437 9.92985C17.7171 10.134 17.5702 10.2969 17.4029 10.4184C17.2356 10.5399 17.0576 10.6214 16.8687 10.6629C16.6792 10.7016 16.4866 10.7029 16.2908 10.6665C16.0944 10.6275 15.9049 10.5514 15.7223 10.4382L15.6227 10.3764C15.4152 10.2478 15.2453 10.1011 15.113 9.93634C14.9791 9.77058 14.8847 9.59484 14.8298 9.40912C14.7748 9.22341 14.7615 9.03361 14.7898 8.83972C14.8181 8.64584 14.8893 8.45677 15.0036 8.27251C15.1219 8.08161 15.2588 7.93319 15.4141 7.82725C15.5677 7.72027 15.733 7.65384 15.9099 7.62794C16.0868 7.60204 16.2721 7.61462 16.4656 7.66567C16.6575 7.7157 16.8514 7.80143 17.0473 7.92287L17.3237 8.09422L16.0146 10.2057L15.5614 9.92478L16.4691 8.46066L16.4193 8.42979C16.3127 8.36827 16.2049 8.32902 16.0959 8.31202C15.9853 8.294 15.8806 8.30721 15.7818 8.35167C15.6813 8.3951 15.5935 8.4774 15.5184 8.59858C15.4577 8.69652 15.4263 8.79539 15.4241 8.89519C15.4214 8.99229 15.4441 9.0891 15.4923 9.18561C15.5398 9.27943 15.6095 9.37089 15.7013 9.46C15.7932 9.5491 15.9038 9.63379 16.0333 9.71407L16.1329 9.77581C16.2458 9.8458 16.3596 9.89569 16.4744 9.9255C16.5903 9.95365 16.7024 9.95997 16.8108 9.94447C16.9186 9.92627 17.0187 9.88719 17.111 9.82723C17.2027 9.76458 17.2825 9.67848 17.3504 9.56892C17.4359 9.43114 17.4865 9.29018 17.5023 9.14602C17.5175 8.99918 17.4977 8.85133 17.4429 8.70247L17.9919 8.58433C18.0399 8.69223 18.0722 8.81798 18.0889 8.9616C18.1066 9.10356 18.0978 9.2567 18.0626 9.421C18.0257 9.58428 17.9527 9.75389 17.8437 9.92985ZM18.9137 7.42544L16.966 5.21829L17.4029 4.51362L19.8355 7.51774C19.8864 7.58381 19.9386 7.66094 19.9919 7.74915C20.0462 7.8357 20.0882 7.93296 20.1178 8.04092C20.149 8.14992 20.1567 8.26728 20.1408 8.393C20.1259 8.51707 20.0758 8.64799 19.9904 8.78577C19.9533 8.84553 19.9162 8.89608 19.8791 8.93741C19.842 8.97874 19.8009 9.02102 19.7557 9.06425L19.2627 8.7586C19.2746 8.74303 19.2873 8.72445 19.3006 8.70287C19.3167 8.68066 19.3299 8.66125 19.3402 8.64465C19.3999 8.54838 19.4377 8.46149 19.4535 8.384C19.471 8.30755 19.4667 8.23479 19.4406 8.16574C19.4172 8.09605 19.3747 8.02374 19.3131 7.94881L18.9137 7.42544ZM16.2976 6.29645L18.6603 6.91675L19.4214 7.24037L19.2226 7.74449L15.8577 7.0061L16.2976 6.29645Z" fill="#575757"/>
</svg>
