<svg width="32" height="32" viewBox="0 0 32 32" fill="none" xmlns="http://www.w3.org/2000/svg">
<path d="M2.7778 4.36437C1.23235 6.11931 0.465666 8.37148 0.615496 10.7057C0.765325 13.04 1.81584 15.1732 3.57063 16.7163L10.3658 22.6917L10.3932 22.7158L10.4328 22.7485L10.4403 22.7551L11.3277 23.5178C11.7293 23.8466 12.1629 23.9432 12.5676 23.9173L17.6453 28.3824C19.2908 29.8339 21.4062 30.5554 23.5978 30.4147C25.7894 30.274 27.7952 29.2881 29.2465 27.6401C30.6979 25.9922 31.4192 23.8745 31.2785 21.6829C31.1378 19.4913 30.1518 17.4855 28.5016 16.0343L23.3169 11.4751C23.2901 11.0587 23.138 10.627 22.7388 10.2627L22.0577 9.67702C22.035 9.65264 22.0168 9.62562 21.9896 9.60388L15.1297 3.57153C11.5055 0.38229 5.96455 0.737947 2.7778 4.36437V4.36437Z" fill="#F4A1C7"/>
<path d="M27.6559 26.2392C26.579 27.4638 25.09 28.1958 23.4644 28.3002C21.8365 28.4046 20.2685 27.8688 19.0439 26.7919L13.0851 21.5519C13.1669 21.0699 13.6473 19.0052 16.1688 16.1378C18.6967 13.2606 20.6857 12.5247 21.1441 12.3848L27.1029 17.6248C28.3276 18.7017 29.0573 20.1909 29.1616 21.8164C29.2659 23.442 28.7328 25.0145 27.6559 26.2392V26.2392ZM3.72755 7.78164C3.73274 7.82593 3.73793 7.87022 3.74456 7.90032C3.79751 8.17641 3.87823 8.44601 3.96815 8.71267C4.0228 8.86887 4.07511 9.02521 4.13881 9.17613C4.64505 10.3672 5.46158 11.4163 6.42983 12.2678L11.6618 16.8686L11.8957 17.072C11.1162 18.6134 11.0533 19.5357 11.0533 19.5357L4.84061 14.0725C4.60415 13.8645 4.39236 13.6386 4.19152 13.4002C3.4261 12.4887 2.92685 11.37 2.7614 10.1828C2.68252 9.61249 2.67833 9.03501 2.74725 8.46224C2.78417 8.15925 2.89472 6.95438 3.38467 6.97695C3.66277 6.99198 3.6949 7.49251 3.72755 7.78164V7.78164Z" fill="white"/>
<path d="M19.7005 15.6903L24.2605 19.7002C25.067 20.4094 25.7503 21.2862 26.171 22.2785C26.3175 22.6214 26.4295 22.9758 26.5 23.3424C26.5358 23.535 26.5298 24.0991 26.8007 24.1122C27.2105 24.1305 27.3011 23.1266 27.3318 22.8733C27.3882 22.3976 27.3853 21.914 27.3196 21.4391C27.1479 20.1913 26.5329 19.026 25.5846 18.192L21.3233 14.4448C21.328 14.4445 20.3195 14.9414 19.7005 15.6903V15.6903Z" fill="#F4A1C7"/>
<path d="M9.31545 4.54126L5.31581 9.01896L4.5467 8.33196L8.54635 3.85427L9.31545 4.54126ZM10.1066 7.63112L7.35789 7.94658L5.94103 8.03755L6.22977 7.22174L7.44904 7.01189L9.17729 6.801L10.1066 7.63112ZM6.50442 10.0807L6.84 7.74063L7.79772 7.70046L7.39588 10.877L6.50442 10.0807ZM10.0337 12.0285L11.3322 10.5748C11.4276 10.4679 11.4916 10.3592 11.5241 10.2485C11.5566 10.1379 11.554 10.0274 11.5164 9.917C11.4789 9.80661 11.4018 9.69937 11.2853 9.59528C11.1823 9.50334 11.0764 9.44015 10.9675 9.40571C10.8605 9.37301 10.758 9.3705 10.66 9.39816C10.5637 9.42387 10.4791 9.47752 10.4062 9.55909L9.63422 8.8695C9.75046 8.73937 9.89169 8.6438 10.0579 8.58278C10.2259 8.51982 10.408 8.49388 10.6041 8.50495C10.8039 8.51582 11.0078 8.56703 11.2158 8.65858C11.4258 8.75187 11.6318 8.88872 11.8338 9.06914C12.0727 9.28253 12.2489 9.51328 12.3625 9.76139C12.4798 10.0093 12.5198 10.2616 12.4827 10.5182C12.4474 10.7765 12.3205 11.0281 12.1019 11.2728L10.8737 12.6478C10.7331 12.8052 10.6223 12.9488 10.5411 13.0788C10.4636 13.2086 10.4088 13.3325 10.3767 13.4505L10.3325 13.5L9.54879 12.8C9.58301 12.6874 9.64506 12.5613 9.73493 12.4216C9.82654 12.2799 9.92612 12.1489 10.0337 12.0285ZM11.2578 10.875L10.8551 11.3376L10.3686 10.903C10.2482 10.7954 10.1311 10.7135 10.0172 10.6572C9.90512 10.599 9.79912 10.5671 9.69922 10.5617C9.60105 10.5543 9.50878 10.5697 9.42239 10.6078C9.33775 10.6439 9.25986 10.7018 9.18873 10.7814C9.11934 10.8591 9.07436 10.9446 9.05381 11.038C9.0352 11.1331 9.0434 11.2295 9.07841 11.3271C9.1171 11.4245 9.18306 11.5148 9.27629 11.5981C9.41224 11.7195 9.555 11.7982 9.70457 11.834C9.85587 11.8679 9.99525 11.8702 10.1227 11.8409C10.2501 11.8115 10.3479 11.7627 10.416 11.6943L10.3407 12.2242C10.2424 12.2795 10.1262 12.3276 9.99199 12.3683C9.8578 12.4091 9.71329 12.4302 9.55844 12.4315C9.40359 12.4329 9.2434 12.405 9.07788 12.348C8.91236 12.2909 8.74997 12.1912 8.59071 12.049C8.38679 11.8668 8.24065 11.663 8.15231 11.4374C8.06398 11.2118 8.03652 10.9865 8.06993 10.7615C8.10335 10.5364 8.20073 10.3336 8.36207 10.153C8.51126 9.98595 8.67419 9.8661 8.85083 9.79343C9.02748 9.72076 9.21602 9.69537 9.41644 9.71727C9.6186 9.73722 9.82994 9.80553 10.0505 9.9222C10.2747 10.0387 10.5043 10.2019 10.7393 10.4118L11.2578 10.875ZM13.9131 12.1887L11.6726 14.697L10.9035 14.0101L13.7191 10.8579L14.4474 11.5085L13.9131 12.1887ZM15.4649 12.3806L14.8131 13.0869C14.7773 13.041 14.7339 12.9918 14.683 12.9393C14.634 12.8886 14.5862 12.8424 14.5396 12.8008C14.4212 12.6949 14.3025 12.6186 14.1837 12.5718C14.0666 12.5231 13.951 12.502 13.8371 12.5084C13.725 12.5166 13.6144 12.5505 13.5053 12.6101C13.3979 12.6678 13.2936 12.7493 13.1926 12.8546L13.0448 12.6859C13.2235 12.4858 13.4095 12.3186 13.603 12.1841C13.7964 12.0496 13.9892 11.953 14.1814 11.8942C14.3736 11.8354 14.5592 11.8231 14.7382 11.8572C14.9208 11.8912 15.0889 11.9767 15.2423 12.1138C15.2851 12.1519 15.3272 12.1966 15.3688 12.2477C15.4141 12.2987 15.4461 12.343 15.4649 12.3806ZM15.2892 16.7229L16.5877 15.2692C16.6832 15.1624 16.7471 15.0536 16.7796 14.943C16.8121 14.8323 16.8095 14.7218 16.772 14.6114C16.7344 14.5011 16.6573 14.3938 16.5408 14.2897C16.4379 14.1978 16.3319 14.1346 16.223 14.1002C16.1161 14.0675 16.0136 14.0649 15.9155 14.0926C15.8192 14.1183 15.7346 14.172 15.6618 14.2535L14.8898 13.5639C15.006 13.4338 15.1472 13.3382 15.3135 13.2772C15.4814 13.2143 15.6635 13.1883 15.8596 13.1994C16.0594 13.2103 16.2633 13.2615 16.4714 13.353C16.6814 13.4463 16.8874 13.5832 17.0893 13.7636C17.3282 13.977 17.5045 14.2077 17.618 14.4558C17.7353 14.7037 17.7754 14.956 17.7382 15.2126C17.703 15.471 17.5761 15.7225 17.3575 15.9672L16.1292 17.3423C15.9887 17.4996 15.8778 17.6433 15.7966 17.7732C15.7191 17.903 15.6643 18.0269 15.6322 18.1449L15.588 18.1945L14.8043 17.4945C14.8385 17.3819 14.9006 17.2557 14.9905 17.116C15.0821 16.9744 15.1817 16.8433 15.2892 16.7229ZM16.5134 15.5694L16.1106 16.032L15.6241 15.5974C15.5037 15.4899 15.3866 15.4079 15.2728 15.3516C15.1607 15.2934 15.0547 15.2616 14.9548 15.2562C14.8566 15.2488 14.7643 15.2641 14.6779 15.3022C14.5933 15.3383 14.5154 15.3962 14.4443 15.4758C14.3749 15.5535 14.3299 15.639 14.3093 15.7324C14.2907 15.8275 14.2989 15.9239 14.3339 16.0215C14.3726 16.1189 14.4386 16.2093 14.5318 16.2926C14.6678 16.414 14.8105 16.4926 14.9601 16.5285C15.1114 16.5623 15.2508 16.5646 15.3782 16.5353C15.5057 16.506 15.6034 16.4571 15.6715 16.3887L15.5963 16.9186C15.498 16.974 15.3817 17.022 15.2475 17.0628C15.1133 17.1035 14.9688 17.1246 14.814 17.126C14.6591 17.1273 14.4989 17.0995 14.3334 17.0424C14.1679 16.9853 14.0055 16.8857 13.8462 16.7434C13.6423 16.5613 13.4962 16.3574 13.4078 16.1318C13.3195 15.9063 13.2921 15.681 13.3255 15.4559C13.3589 15.2309 13.4563 15.028 13.6176 14.8474C13.7668 14.6804 13.9297 14.5605 14.1064 14.4879C14.283 14.4152 14.4716 14.3898 14.672 14.4117C14.8741 14.4317 15.0855 14.5 15.306 14.6166C15.5302 14.7331 15.7598 14.8963 15.9948 15.1062L16.5134 15.5694ZM17.4013 17.0382L17.4559 16.977C17.6623 16.7459 17.8853 16.5627 18.1248 16.4275C18.3661 16.2903 18.614 16.2062 18.8686 16.1753C19.1233 16.1443 19.3774 16.1705 19.6311 16.254C19.8865 16.3355 20.1308 16.4803 20.3639 16.6885C20.6008 16.9002 20.7741 17.1283 20.8838 17.3729C20.9972 17.6174 21.0528 17.8678 21.0507 18.1243C21.0486 18.3808 20.9929 18.6366 20.8837 18.8918C20.7763 19.145 20.6193 19.3871 20.4129 19.6183L20.3582 19.6794C20.1535 19.9086 19.9305 20.0918 19.6893 20.229C19.4498 20.3642 19.2018 20.4483 18.9455 20.4812C18.6909 20.5121 18.4367 20.4859 18.183 20.4024C17.9293 20.319 17.685 20.1723 17.45 19.9624C17.2169 19.7542 17.0437 19.5279 16.9303 19.2835C16.8169 19.039 16.7613 18.7886 16.7634 18.5321C16.7673 18.2737 16.823 18.0178 16.9304 17.7646C17.0396 17.5095 17.1965 17.2673 17.4013 17.0382ZM18.225 17.664L18.1704 17.7252C18.0472 17.863 17.9454 18.0043 17.865 18.149C17.7847 18.2938 17.7319 18.4369 17.7067 18.5785C17.6815 18.7201 17.6901 18.857 17.7326 18.9892C17.7788 19.1213 17.865 19.2437 17.9912 19.3564C18.1155 19.4675 18.2449 19.5376 18.3793 19.5669C18.5155 19.5943 18.6525 19.5875 18.7904 19.5465C18.9302 19.5073 19.0675 19.4396 19.2022 19.3435C19.337 19.2473 19.4659 19.1303 19.5891 18.9924L19.6438 18.9313C19.7652 18.7953 19.8652 18.656 19.9439 18.5132C20.0242 18.3685 20.0761 18.2245 20.0993 18.0811C20.1263 17.9376 20.1175 17.7989 20.0731 17.6649C20.0323 17.5307 19.9488 17.4072 19.8226 17.2945C19.6983 17.1834 19.5672 17.1152 19.4293 17.0898C19.2931 17.0624 19.1552 17.0702 19.0156 17.1131C18.8777 17.1541 18.7414 17.2226 18.6067 17.3188C18.4737 17.413 18.3464 17.528 18.225 17.664ZM24.3071 17.9324L20.3075 22.4101L19.5384 21.7231L23.538 17.2454L24.3071 17.9324ZM25.0983 21.0223L22.3496 21.3377L20.9327 21.4287L21.2215 20.6129L22.4407 20.403L24.169 20.1921L25.0983 21.0223ZM21.4961 23.4718L21.8317 21.1318L22.7894 21.0916L22.3876 24.2681L21.4961 23.4718ZM23.9961 25.8096C23.7572 25.5962 23.5773 25.3657 23.4563 25.118C23.3354 24.8703 23.2695 24.6177 23.2587 24.3601C23.2515 24.1023 23.2944 23.849 23.3873 23.6003C23.484 23.3514 23.6277 23.1201 23.8185 22.9065L23.9226 22.79C24.1395 22.5472 24.3713 22.358 24.6182 22.2223C24.8668 22.0847 25.1194 22.0013 25.376 21.9721C25.6325 21.9429 25.8848 21.9692 26.1329 22.0512C26.381 22.1331 26.6128 22.2703 26.8284 22.4629C27.0517 22.6624 27.215 22.8763 27.3183 23.1047C27.4233 23.3312 27.4724 23.5636 27.4655 23.8019C27.4587 24.0402 27.3994 24.2806 27.2876 24.5229C27.1776 24.7634 27.0202 24.9982 26.8155 25.2274L26.5267 25.5507L24.0562 23.344L24.5298 22.8138L26.2428 24.3439L26.2949 24.2857C26.4003 24.1598 26.4767 24.0274 26.5242 23.8882C26.5734 23.7471 26.5803 23.6065 26.5447 23.4665C26.5109 23.3246 26.4231 23.1903 26.2813 23.0636C26.1667 22.9613 26.0441 22.8972 25.9136 22.8713C25.7867 22.8453 25.6543 22.8528 25.5165 22.8937C25.3823 22.9345 25.2461 23.0049 25.1079 23.1049C24.9696 23.2049 24.8329 23.3307 24.6976 23.4822L24.5935 23.5987C24.4755 23.7308 24.3837 23.8687 24.318 24.0126C24.2543 24.1582 24.2201 24.304 24.2154 24.45C24.2144 24.5957 24.2426 24.7361 24.3 24.8712C24.3611 25.0061 24.4558 25.1308 24.584 25.2453C24.7452 25.3893 24.9186 25.4883 25.1042 25.5424C25.2935 25.5963 25.4923 25.6045 25.7004 25.5669L25.7288 26.315C25.576 26.3532 25.4034 26.3666 25.2109 26.3553C25.0204 26.3457 24.8213 26.2989 24.6137 26.2147C24.4078 26.1285 24.2019 25.9935 23.9961 25.8096Z" fill="#575757"/>
</svg>
