<svg width="50" height="50" viewBox="0 0 50 50" fill="none" xmlns="http://www.w3.org/2000/svg">
<path d="M45.6406 4.35937C42.8867 1.60156 39.2227 0.0859375 35.3242 0.0859375C31.4258 0.0859375 27.7656 1.60547 25.0117 4.35937L14.3477 15.0234L14.3047 15.0664L14.2461 15.1289L14.2344 15.1406L12.8711 16.5352C12.2813 17.168 12.0742 17.8789 12.0742 18.5547L4.10547 26.5234C1.51563 29.1055 0.0898438 32.5469 0.0898438 36.207C0.0898438 39.8672 1.51563 43.3086 4.10156 45.8984C6.6875 48.4883 10.1328 49.9141 13.793 49.9141C17.4531 49.9141 20.8945 48.4883 23.4844 45.8984L31.6211 37.7617C32.3164 37.7617 33.0508 37.5547 33.6992 36.9297L34.7461 35.8594C34.7891 35.8242 34.8359 35.7969 34.875 35.7539L45.6406 24.9883C51.332 19.3008 51.332 10.0469 45.6406 4.35937V4.35937Z" fill="#F4A1C7"/>
<path d="M6.60156 43.4023C4.67969 41.4805 3.62109 38.9258 3.62109 36.2109C3.62109 33.4922 4.67969 30.9414 6.60156 29.0195L15.9531 19.668C16.7461 19.8555 20.1289 20.875 24.6289 25.375C29.1445 29.8867 30.1562 33.2734 30.3398 34.0508L20.9883 43.4023C19.0664 45.3242 16.5117 46.3789 13.7969 46.3789C11.082 46.3789 8.52344 45.3242 6.60156 43.4023V43.4023ZM39.8555 5.57421C39.7813 5.57812 39.707 5.58203 39.6563 5.58984C39.1914 5.64843 38.7344 5.7539 38.2813 5.875C38.0156 5.94921 37.75 6.01953 37.4922 6.10937C35.457 6.82422 33.625 8.07031 32.1055 9.58984L23.8945 17.8008L23.5313 18.168C21.0508 16.707 19.5234 16.5039 19.5234 16.5039L29.2734 6.7539C29.6445 6.38281 30.043 6.05468 30.4609 5.74609C32.0586 4.57031 33.9727 3.85937 35.9648 3.71093C36.9219 3.64062 37.8828 3.69531 38.8281 3.87109C39.3281 3.96484 41.3203 4.27734 41.2305 5.08984C41.1758 5.55078 40.3398 5.55078 39.8555 5.57421V5.57421Z" fill="white"/>
<path d="M24.9961 31.2969L17.8398 38.4531C16.5742 39.7187 15.043 40.7617 13.3477 41.3555C12.7617 41.5625 12.1602 41.7109 11.543 41.7891C11.2188 41.8281 10.2813 41.7578 10.2305 42.207C10.1563 42.8867 11.8164 43.1445 12.2344 43.2227C13.0195 43.3672 13.8242 43.4141 14.6211 43.3555C16.7148 43.2031 18.7188 42.3047 20.207 40.8164L26.8945 34.1289C26.8945 34.1367 26.1758 32.4062 24.9961 31.2969V31.2969Z" fill="#F4A1C7"/>
<path d="M12.1968 40.0454L10.4184 36.9347L11.1714 36.1631L13.1843 40.1521L12.726 40.6218L12.1968 40.0454ZM9.22901 38.1537L12.3961 39.8524L12.9742 40.3674L12.5132 40.8398L8.47333 38.9281L9.22901 38.1537ZM12.3145 34.9916L15.3395 37.9434L14.6166 38.6843L11.5915 35.7325L12.3145 34.9916ZM10.7512 35.0108C10.6412 34.9035 10.5863 34.7771 10.5864 34.6316C10.5882 34.4843 10.6519 34.3463 10.7774 34.2177C10.9029 34.0891 11.0384 34.023 11.1838 34.0193C11.3311 34.0139 11.4597 34.0648 11.5696 34.1721C11.6777 34.2775 11.7309 34.404 11.729 34.5513C11.7289 34.6968 11.6661 34.8338 11.5407 34.9624C11.4152 35.0911 11.2788 35.1581 11.1315 35.1636C10.9861 35.1672 10.8593 35.1163 10.7512 35.0108ZM14.3987 32.8557L14.9299 33.374L13.2385 35.1074L12.7073 34.589L14.3987 32.8557ZM12.4165 33.3993L13.1394 32.6584L16.0359 35.4847C16.1253 35.572 16.2061 35.6272 16.2782 35.6502C16.3503 35.6733 16.4184 35.6688 16.4825 35.6367C16.5465 35.6046 16.6113 35.555 16.6768 35.4879C16.7241 35.4394 16.7649 35.392 16.7993 35.3455C16.8337 35.299 16.8618 35.2591 16.8835 35.2257L17.4398 35.7631C17.4003 35.8446 17.3488 35.9308 17.2855 36.0218C17.224 36.111 17.1459 36.204 17.0514 36.301C16.8895 36.4668 16.7197 36.5849 16.5419 36.6553C16.3623 36.7237 16.1754 36.7306 15.9814 36.6759C15.7855 36.6194 15.5822 36.4884 15.3716 36.2829L12.4165 33.3993ZM18.8868 33.0217L17.4917 31.6603C17.3892 31.5603 17.2834 31.4916 17.1743 31.4543C17.0652 31.417 16.9546 31.4146 16.8427 31.4473C16.7308 31.48 16.6202 31.5522 16.5111 31.6641C16.4147 31.7629 16.3469 31.8659 16.3077 31.9732C16.2704 32.0786 16.2633 32.1809 16.2866 32.2801C16.3081 32.3774 16.358 32.4643 16.4362 32.5407L15.7133 33.2815C15.5884 33.1597 15.4992 33.0144 15.4455 32.8456C15.39 32.675 15.3721 32.492 15.3918 32.2966C15.4115 32.0974 15.4716 31.896 15.5723 31.6922C15.6747 31.4865 15.8205 31.2867 16.0097 31.0929C16.2334 30.8636 16.4717 30.6977 16.7245 30.5952C16.9774 30.489 17.2312 30.4601 17.4859 30.5085C17.7424 30.5551 17.9881 30.693 18.223 30.9221L19.5426 32.2098C19.6936 32.3571 19.8322 32.4742 19.9585 32.561C20.0847 32.6442 20.2061 32.7044 20.3226 32.7416L20.3701 32.788L19.6362 33.5401C19.5253 33.5009 19.402 33.4334 19.2664 33.3374C19.1289 33.2397 19.0024 33.1344 18.8868 33.0217ZM17.7884 31.7479L18.2327 32.1706L17.7772 32.6375C17.6644 32.753 17.5774 32.8664 17.5161 32.9777C17.453 33.0871 17.4166 33.1916 17.4067 33.2912C17.395 33.3889 17.4063 33.4818 17.4405 33.5698C17.4729 33.6559 17.5273 33.7363 17.6037 33.8108C17.6783 33.8836 17.7617 33.9323 17.8541 33.9569C17.9483 33.9797 18.0449 33.9758 18.144 33.9451C18.243 33.9107 18.3362 33.8488 18.4235 33.7594C18.5508 33.6289 18.6356 33.4897 18.678 33.3419C18.7185 33.1922 18.727 33.0531 18.7033 32.9245C18.6796 32.7958 18.6351 32.696 18.5698 32.625L19.0958 32.7235C19.1468 32.8242 19.1897 32.9424 19.2245 33.0783C19.2593 33.2141 19.274 33.3594 19.2685 33.5142C19.263 33.669 19.2282 33.8278 19.1639 33.9906C19.0996 34.1535 18.9928 34.3113 18.8437 34.4641C18.6527 34.6598 18.4426 34.7968 18.2134 34.8752C17.9842 34.9535 17.7579 34.971 17.5345 34.9277C17.3112 34.8844 17.1128 34.7781 16.9395 34.609C16.7792 34.4526 16.6666 34.2846 16.6018 34.1049C16.537 33.9252 16.5199 33.7357 16.5506 33.5365C16.5795 33.3354 16.657 33.1272 16.7833 32.9121C16.9095 32.6932 17.0827 32.471 17.3028 32.2455L17.7884 31.7479ZM19.2179 29.1586L21.6223 31.5048L20.9021 32.2428L17.877 29.2911L18.5563 28.5949L19.2179 29.1586ZM19.8943 30.0315L19.6734 30.258C19.4627 30.0524 19.2934 29.8381 19.1655 29.615C19.0393 29.3901 18.9601 29.1636 18.9279 28.9356C18.8938 28.7059 18.9122 28.4819 18.9832 28.2637C19.056 28.0437 19.1879 27.8358 19.3788 27.6401C19.5116 27.504 19.654 27.3992 19.8059 27.3255C19.956 27.25 20.1139 27.2131 20.2797 27.2147C20.4454 27.2127 20.6181 27.2557 20.7978 27.3437C20.9757 27.4299 21.1587 27.5649 21.347 27.7486L23.3655 29.7183L22.6453 30.4563L20.7022 28.5603C20.5606 28.4221 20.4297 28.3344 20.3095 28.2972C20.1912 28.2581 20.0798 28.2604 19.9754 28.304C19.8691 28.3459 19.765 28.419 19.6631 28.5233C19.5504 28.6389 19.4764 28.7613 19.4411 28.8907C19.4058 29.0163 19.4019 29.1453 19.4293 29.2776C19.4585 29.408 19.5126 29.5371 19.5915 29.6651C19.6722 29.7911 19.7732 29.9133 19.8943 30.0315ZM21.5524 28.0582L21.311 28.4175C21.1227 28.2301 20.9701 28.0304 20.8534 27.8182C20.7347 27.6042 20.6602 27.3878 20.6299 27.169C20.5996 26.9465 20.6199 26.7281 20.691 26.5136C20.762 26.2954 20.8911 26.0903 21.0784 25.8983C21.2239 25.7492 21.3763 25.636 21.5356 25.5585C21.6948 25.4774 21.8619 25.4385 22.0369 25.4419C22.21 25.4434 22.3902 25.4919 22.5773 25.5872C22.7663 25.6806 22.9643 25.8283 23.1712 26.0302L25.1142 27.9262L24.3885 28.6698L22.4427 26.7711C22.2954 26.6274 22.1627 26.5379 22.0444 26.5025C21.9279 26.4653 21.8184 26.4694 21.7158 26.5148C21.6114 26.5585 21.5101 26.6306 21.4118 26.7312C21.3118 26.8338 21.2441 26.9423 21.2087 27.0569C21.1732 27.1679 21.1635 27.2822 21.1797 27.3998C21.1977 27.5156 21.2387 27.6302 21.3027 27.7436C21.3667 27.8533 21.4499 27.9582 21.5524 28.0582ZM23.4996 23.529L26.5246 26.4808L25.8017 27.2216L22.7767 24.2698L23.4996 23.529ZM21.9364 23.5481C21.8264 23.4408 21.7714 23.3144 21.7715 23.1689C21.7734 23.0216 21.8371 22.8836 21.9625 22.755C22.088 22.6264 22.2235 22.5603 22.3689 22.5567C22.5162 22.5512 22.6448 22.6021 22.7548 22.7094C22.8629 22.8149 22.916 22.9413 22.9141 23.0886C22.9141 23.2341 22.8513 23.3712 22.7258 23.4998C22.6003 23.6284 22.4639 23.6954 22.3167 23.7009C22.1712 23.7045 22.0445 23.6536 21.9364 23.5481ZM25.5395 22.7305L27.9187 25.0521L27.1985 25.7902L24.1734 22.8384L24.85 22.1451L25.5395 22.7305ZM26.1826 23.5872L25.9698 23.8053C25.7517 23.5888 25.5813 23.3644 25.4588 23.132C25.3362 22.8997 25.2616 22.6685 25.2348 22.4387C25.2099 22.2069 25.2339 21.9847 25.3068 21.7721C25.3796 21.5594 25.5034 21.3636 25.678 21.1847C25.8199 21.0393 25.9686 20.9279 26.1242 20.8505C26.2797 20.7731 26.4432 20.7361 26.6145 20.7395C26.7876 20.7411 26.9687 20.7904 27.1577 20.8875C27.3467 20.981 27.5465 21.1305 27.7571 21.336L29.6974 23.2293L28.9717 23.9729L27.0259 22.0742C26.8879 21.9396 26.7589 21.8537 26.6387 21.8165C26.5204 21.7775 26.4072 21.7798 26.2991 21.8234C26.1928 21.8653 26.086 21.9412 25.9787 22.0511C25.8677 22.1648 25.7937 22.2873 25.7566 22.4185C25.7195 22.546 25.7129 22.6777 25.7366 22.8137C25.7622 22.9479 25.8126 23.0807 25.8879 23.2124C25.9632 23.3441 26.0614 23.469 26.1826 23.5872ZM28.1939 16.1789L32.4882 20.3692L31.7653 21.1101L27.471 16.9197L28.1939 16.1789ZM31.5657 18.3502L31.507 18.2929C31.2852 18.0765 31.112 17.8456 30.9875 17.6004C30.8611 17.3533 30.788 17.1019 30.7683 16.8462C30.7486 16.5904 30.786 16.3377 30.8806 16.0879C30.9732 15.8363 31.1287 15.5987 31.347 15.375C31.5688 15.1477 31.8044 14.9846 32.0536 14.8857C32.3028 14.7832 32.5555 14.7387 32.8116 14.7521C33.0678 14.7656 33.3209 14.8325 33.571 14.9528C33.8192 15.0713 34.0542 15.2387 34.276 15.4552L34.3347 15.5125C34.5547 15.7271 34.7278 15.9579 34.8542 16.205C34.9788 16.4502 35.0519 16.7016 35.0734 16.9592C35.0931 17.2149 35.0557 17.4677 34.9612 17.7174C34.8666 17.9672 34.7093 18.2048 34.4893 18.4304C34.271 18.654 34.0373 18.8171 33.7881 18.9196C33.5389 19.0221 33.2862 19.0666 33.0301 19.0532C32.7721 19.0379 32.519 18.9711 32.2708 18.8526C32.0207 18.7322 31.7857 18.5648 31.5657 18.3502ZM32.2272 17.5548L32.2859 17.6121C32.4183 17.7412 32.5549 17.8491 32.696 17.9358C32.837 18.0225 32.9777 18.0815 33.118 18.1129C33.2584 18.1444 33.3955 18.1418 33.5295 18.1051C33.6634 18.0648 33.7895 17.9841 33.9077 17.8629C34.0241 17.7436 34.0999 17.6175 34.1351 17.4845C34.1685 17.3496 34.1677 17.2124 34.1329 17.0729C34.0998 16.9315 34.0383 16.7914 33.9482 16.6525C33.8581 16.5137 33.7468 16.3797 33.6145 16.2505L33.5558 16.1933C33.4253 16.0659 33.2905 15.9599 33.1514 15.875C33.0103 15.7884 32.8688 15.7302 32.7266 15.7007C32.5844 15.6674 32.4454 15.6701 32.3096 15.7085C32.1737 15.7434 32.0467 15.8213 31.9285 15.9425C31.8121 16.0618 31.7381 16.1898 31.7067 16.3264C31.6733 16.4613 31.675 16.5994 31.7117 16.7407C31.7466 16.8802 31.8091 17.0194 31.8992 17.1583C31.9874 17.2953 32.0968 17.4275 32.2272 17.5548ZM36.7169 14.917L34.9385 11.8063L35.6914 11.0347L37.7043 15.0237L37.246 15.4934L36.7169 14.917ZM33.749 13.0252L36.9161 14.7239L37.4943 15.2389L37.0332 15.7114L32.9933 13.7997L33.749 13.0252ZM40.4392 12.3328C40.2155 12.562 39.9773 12.7316 39.7245 12.8415C39.4717 12.9514 39.2164 13.0061 38.9586 13.0056C38.7007 13.0014 38.4496 12.9474 38.2052 12.8436C37.9608 12.7361 37.7361 12.5823 37.5311 12.3822L37.4192 12.2731C37.1863 12.0458 37.0075 11.8058 36.8828 11.5532C36.7563 11.2988 36.6841 11.0427 36.6662 10.7851C36.6483 10.5275 36.6858 10.2766 36.7785 10.0324C36.8713 9.78819 37.0186 9.56264 37.2205 9.35575C37.4297 9.14141 37.6506 8.98769 37.8834 8.8946C38.1142 8.7997 38.3485 8.76091 38.5863 8.77826C38.8241 8.7956 39.0616 8.86543 39.2988 8.98775C39.5342 9.10825 39.7618 9.27581 39.9817 9.49042L40.2921 9.79323L37.9787 12.164L37.4698 11.6675L39.0739 10.0236L39.018 9.96906C38.897 9.85821 38.768 9.776 38.631 9.72243C38.4922 9.66704 38.3521 9.65403 38.2107 9.68338C38.0674 9.71092 37.9293 9.79272 37.7966 9.92878C37.6893 10.0387 37.6198 10.1584 37.5883 10.2877C37.5567 10.4133 37.5583 10.5459 37.5932 10.6854C37.628 10.8212 37.6923 10.9604 37.7861 11.1029C37.8799 11.2454 37.9995 11.3876 38.1449 11.5294L38.2567 11.6386C38.3835 11.7622 38.5173 11.86 38.6581 11.932C38.8008 12.002 38.9449 12.0426 39.0905 12.0537C39.2361 12.0612 39.3776 12.0392 39.5151 11.9878C39.6526 11.9327 39.7813 11.8436 39.9013 11.7206C40.0523 11.5659 40.1589 11.397 40.2211 11.2139C40.2833 11.0272 40.3002 10.829 40.2718 10.6194L41.0205 10.6241C41.0518 10.7784 41.0576 10.9514 41.0379 11.1432C41.0199 11.3331 40.9644 11.5299 40.8711 11.7336C40.776 11.9355 40.632 12.1352 40.4392 12.3328Z" fill="#575757"/>
</svg>
